<svg viewBox="0 0 49 18" xmlns="http://www.w3.org/2000/svg" fill-rule="evenodd" clip-rule="evenodd" stroke-linejoin="round" stroke-miterlimit="1.414"><path d="M16.155 5.376c.139-.061.273-.127.355-.264a.717.717 0 0 0-.351.267l-.004-.003zm1.023.568c-.057-.008-.092.029-.129.062-.24.206-.483.409-.719.62-.046.042-.128.058-.132.162.261-.176.496-.363.728-.554.101-.083.205-.162.249-.293l.003.003zm-1.619-.793a.57.57 0 0 0-.345.275c.139-.062.275-.131.342-.279l.003.004zm3.815 2.139c.16-.122.33-.233.44-.406l-.042-.045-.434.413.036.038m-4.28.018a.66.66 0 0 0 .368-.311c-.165.054-.254.198-.368.311m.084-.948a.622.622 0 0 0-.349.398c.357-.182.588-.416.753-.733-.14-.023-.329.144-.404.335m11.929.944c.6-.606 1.109-1.293 1.703-1.907-.197.011-1.626 1.617-1.703 1.907M9.036 8.22l.977.17a2.967 2.967 0 0 0-.969-.22l-.008.05zm-4.58-1.575c-.907-.381-1.819-.752-2.675-1.242.811.589 1.746.91 2.675 1.242m32.483 1.823c-.848.016-1.68.161-2.509.321.836-.111 1.679-.167 2.509-.321m.203-.089c.297.134 3.815-.61 4.226-.894-1.392.303-2.763.7-4.226.894m4.448-.74c-.605.15-1.209.305-1.81.469-.263.071-.522.161-.796.201-.394.057-.786.138-1.178.216-.704.139-1.415.251-2.127.328-.592.064-1.188.118-1.786.123-.08.001-.159.035-.239.054l.012.042c2.749-.076 5.424-.591 8.074-1.385-.064-.066-.108-.058-.15-.048M4.483 7.341l-.595-.203-.018.054c.218.008.383.175.599.192l.014-.043zm-1.442-.488c.203.137.447.161.671.243-.216-.103-.424-.23-.671-.243m6.486 2.342c-.309-.137-.641-.13-.97-.142.32.074.643.134.973.139l-.003.003zm-1.924-.444c-.048.024-.115-.013-.167.072.312.127.641.109.954.173a2.108 2.108 0 0 0-.617-.167c-.068-.009-.139-.007-.175-.081l.005.003zm-.499.409c-.527-.178-1.082-.246-1.616-.395.512.241 1.068.302 1.616.395m.494-.412c.124.01.249.017.373.03.54.059 1.064.208 1.599.294.142.023.284.043.426.063l.007-.042c-.814-.155-1.618-.368-2.443-.454-.019.065.038.075.043.112l-.005-.003zM3.97 8.112c-.021-.013-.04-.032-.063-.038a29.618 29.618 0 0 1-2.144-.657c-.112-.039-.215-.122-.353-.107.023.083.092.093.145.113.739.269 1.49.497 2.252.693a.273.273 0 0 0 .165-.007l-.002.003zM2.676 8.06c.902.202 1.79.458 2.685.686-.077-.125-.209-.088-.315-.126-.68-.246-1.391-.382-2.086-.576-.095-.027-.195-.062-.286.018l.002-.002zm2.338.132a.778.778 0 0 0 .235.11c.483.149.966.297 1.466.377.163.026.317.112.474.086.057-.07-.046-.075-.027-.109.038-.062.104-.009.14-.057-.201-.067-.201-.067-.34.051-.171-.079-.367-.084-.555-.124-.164-.034-.328-.057-.492-.107-.296-.091-.585-.222-.904-.224l.003-.003zm-.003.003c-.023-.079-.096-.07-.153-.084-.722-.171-1.429-.394-2.141-.604-.192-.057-.375-.158-.591-.157.035.088.113.094.173.11.225.056.438.147.659.209.389.108.78.204 1.165.329.286.092.579.197.891.194l-.003.003zm-3.342.229c.16.047.297.144.465.184.503.118 1 .261 1.501.391.365.095.733.182 1.112.243-.01-.053-.042-.061-.07-.065-.583-.098-1.13-.337-1.715-.433a5.43 5.43 0 0 1-1.096-.306.315.315 0 0 0-.201-.011l.004-.003zm2.593-2.626c-.33-.14-.642-.319-.975-.452.319.163.611.384.975.452m24.979 8.233c-.102-.025-.191-.006-.287.08.158.102.203-.041.287-.08m-7.942-1.237c-.101-.048-.194-.061-.296.034.177.096.217.09.296-.034m26.035 1.022c.066.019.138.032.173-.055-.078-.105-.078-.105-.22-.062-.032.058-.009.101.047.117m-45.697-.707c-.122-.057-.218-.073-.325.071.136.013.235.034.325-.071m9.65-1.004c.088.124.185.105.324.042-.121-.085-.211-.106-.324-.042m34.292 1.274c.18.048.316.035.451-.019-.137-.03-.277-.072-.451.019m.302-.182c-.183-.027-.319-.027-.454.031.139.039.28.068.454-.031m-18.608.645a.791.791 0 0 0-.328.025c.11.13.188.12.328-.025m4.32-1.912l-.006-.05c-.18-.036-.348.031-.514.107l.52-.057m15.398 1.419c-.124-.086-.235-.061-.347-.018.105.062.21.118.347.018m-18.527 1.724c.178.025.304.095.49.033-.169-.148-.304-.105-.49-.033m17.954-1.876a.344.344 0 0 0-.384 0c.128.071.256.085.384 0m-39.479-.892c-.128-.091-.264-.079-.403-.023.131.058.265.093.403.023m21.453 2.262c.169.038.337.07.5-.012-.168 0-.335-.035-.5.012m-7.02-2.182a.436.436 0 0 0-.356.023c.24.132.327.124.356-.023m25.35 2.278c-.146-.117-.274-.091-.402-.036.122.049.239.131.402.036m-2.361-.662c-.137-.141-.234-.149-.371-.035.117.107.235.088.371.035m-25.236-.9l.007-.058-.601-.062a.758.758 0 0 0 .594.12m14.256-1.912l-.5-.064c.112.141.362.166.5.064m-6.569 2.453c.083.142.083.142.481.015-.158.002-.315-.107-.481-.015m-6.618-.801a.616.616 0 0 0 .534-.015.704.704 0 0 0-.534.015m-2.418 2.062c-.223-.028-.444 0-.666.007v.042h.663l.003-.049M.839 12.237c.154.071.307.115.46-.003-.155.006-.309-.096-.46.003m44.658 1.277c-.176-.028-.339.013-.514.015.157.155.384.148.514-.015M8.396 11.561a1.983 1.983 0 0 0-.628.053c.17.073.531.042.628-.053m20.463 1.466c.227.036.43.028.631-.021-.17-.071-.506-.055-.631.021m16.118.341c-.145-.029-.273-.071-.388.041.073.11.073.11.252.133.008-.082.094-.1.136-.174M3.334 12.139c.282.037.556-.047.835-.067-.282-.025-.562-.027-.835.067m26.802.083c.196.093.386-.008.569.029-.094-.132-.391-.14-.569-.029m16.968 1.914c-.102-.144-.304-.151-.465 0 .174.064.315.077.465 0m-20.142-3.159c-.271-.006-.543-.03-.813.032.272.041.544.072.813-.032m2.923.635c-.19-.008-.36-.039-.547.019.181.163.377.157.547-.019m-3.533.267c.228.138.429-.051.645-.051-.223-.056-.434-.003-.645.051m2.617 3.825a.323.323 0 0 0 .089.156c.104-.014.219.082.322-.024-.034-.122-.146-.042-.208-.085l.077-.11c-.122.005-.213-.03-.28.063m-11.401-.926c.243.043.486.081.731.008-.242-.119-.487-.01-.731-.008m29.864-2.623c-.1-.006-.23-.052-.268.12.115.082.23.12.372.064.041-.12-.008-.179-.104-.184m-28.699 1.679h-.8c.214.102.702.105.8 0m9.401.376c.07.116.205.061.296.115-.05.091-.163.016-.212.097.187.049.22.043.341-.063l-.135-.17c-.1-.026-.194-.051-.29.021m-9.709-.144c-.132-.095-.625-.082-.834 0h.834zm-12.81-4.059c.404.069.798-.094 1.2-.063H5.613l.002.063m40.156 3.56c.268.017.512.102.807.025-.194-.097-.676-.11-.807-.025m-3.814-1.359c-.173-.062-.652-.077-.762-.015.222.086.671.09.762.015m-13.956 2.198c-.231.006-.465-.01-.687.1a.935.935 0 0 0 .687-.1m-21.176-.788c-.081-.147-.453-.139-.679.006.245.084.454.001.679-.006m20.184-2.828c-.13-.045-.916-.018-1.04.042.383.051.712.017 1.04-.042m-6.905 1.262c-.326-.129-.662-.043-.992-.054.326.102.66.046.992.054m11.826.163h-.776c.131.105.598.138.77.058l.006-.058m-4.72 1.945c0 .067.081.043.1.088-.028.022-.079.021-.068.08.081.083.173.008.274.015.013-.11.122-.114.201-.163-.156-.08-.487-.088-.507-.02m.485.758c.126-.017.238-.052.302-.222l-.582.051c.074.151.163.187.28.171m.581-.004c.201.124.356-.029.521-.02.165.01.347.08.515-.056l-.406-.126c.022.055.094.038.099.129-.221.078-.477-.067-.729.073m17.125-.901c-.263-.034-.514-.083-.818-.032.169.131.74.143.818.032M13.536 11.45c-.014.094.04.121.121.121l.729-.006c.031 0 .06-.015.063-.088-.303-.045-.61-.022-.917-.023l.004-.004zm14.86-1.101c.403.059.802.013 1.203-.007l-.002-.052h-1.203l.002.059M6.56 11.529c.385-.003.734-.031 1.097-.009-.136-.142-.894-.144-1.097.009m13.254 1.092c.329.024.659.024.99-.027-.329-.05-.657-.09-.988-.058l-.002.085zm10.4-.835c.046-.021.143.023.242-.082-.245-.018-.423.056-.617.135-.189.077-.421-.028-.623.077.326-.008.666.102.998-.13m-18.465.334c.28.158.596-.009.88.112.045.019.096-.016.116-.092-.337-.118-.666-.056-.996-.02m27.741.049c-.041.019-.052.049-.032.112.422-.064.855-.03 1.283-.074-.138-.066-1.154-.083-1.251-.038M29.466 14.59c.006.049-.091-.003-.08.067h.634l.002-.058c-.301-.065-.595-.212-.935-.056.128.185.264-.084.379.047m12.576-2.149l.002.06c.434.042.866.045 1.292-.06h-1.294zm.33-.183c.482.094.947.019 1.41.025-.152-.093-1.277-.103-1.41-.025m-40.202.177c-.285-.162-.583-.123-.882-.048.289.135.584.14.882.048m2.332 2.016c.082-.007.164-.009.167-.168-.304.02-.601.065-.899.018.081.177.21.197.732.15m1.68-1.205c-.469-.003-.937.011-1.399.102l.006.065 1.399-.081-.006-.086m2.355-1.693c.172.157.806.129 1.019-.034-.328.021-.662-.077-1.019.034m19.216 3.516c-.038.145-.02.265.118.34.161.088.341.082.441-.016-.113-.11-.295.025-.402-.098.069-.138.209-.031.301-.094-.068-.065-.171.002-.216-.087.068-.042.159.012.234-.111-.18.025-.336-.032-.476.066m14.238-2.476a4.217 4.217 0 0 0-.063.086c-.09.043-.195-.042-.268.121.394.01.757.006 1.112-.144-.26-.022-.522-.009-.781-.063M29.75 17.605c.033-.099.033-.099.002-.227-.251.075-.522.013-.782.123.25.161.521.096.78.104M4.271 13.129c.536-.014 1.07-.038 1.602-.132a20.95 20.95 0 0 0-1.605.05l.003.082m19.067-.707c-.316.008-.633.02-.948-.023-.069-.01-.125.005-.11.116.403.06.807.057 1.246.018-.064-.106-.126-.112-.188-.111m16.277-.468l-1.17-.018c-.019 0-.038-.002-.056.002-.058.01-.088.041-.064.126.465-.012.936.038 1.416-.034-.037-.078-.084-.076-.126-.076m-8.657-.93c-.442-.111-.853-.009-1.301-.045.164.154 1.057.178 1.301.045M7.54 10.972c.412.04.817-.043 1.227-.052.025-.207.236-.117.329-.256l-1.556.308m-3.804.103c.496-.125 1.006.058 1.503-.066.045-.012.098.012.147.019a.836.836 0 0 0 .421-.072c-.102-.043-.205-.016-.306-.01-.254.013-.517.064-.758.03a3.205 3.205 0 0 0-.699-.004l-.513.038c.102.08.105.091.205.065m42.085 3.734c.152.053.3.112.45.167.097.036.235.06.308-.1-.175-.145-.403-.056-.578-.142-.025-.067.082-.065.049-.137-.133-.056-.255-.01-.384.049.022.094.091.14.155.163m2.384-1.331c.053-.099.048-.16-.013-.211-.455-.045-.86.006-.966.147l.979.064m-19.636-.126c.115.012.23.027.346.037.103.008.208.036.307-.022a.836.836 0 0 1 .461-.118c.054.002.125.024.175-.103a8.313 8.313 0 0 0-1.297.135l.008.071m-20.818-.653c-.591-.019-1.181-.031-1.768.044l.002.067 1.769-.043-.003-.068m18.158-2.259l2.063-.058-.001-.078c-.688.034-1.377.002-2.064.063l.002.073m-17.55 2.689c-.088-.073-1.66-.121-1.827-.047.595.087 1.194.089 1.827.047m16.484-3.045c.687.005 1.372-.021 2.052-.115-.688-.022-1.371.038-2.052.115M4.339 12.811a2.26 2.26 0 0 0-.598-.076c-.27-.002-.539.093-.813.011-.059-.018-.134.01-.196.102.549.035 1.078.005 1.606.051l.001-.088m4.027-2.058c-.664-.203-1.334.041-2.001-.028.664.188 1.334-.092 2.001.028m20.423 4.49c-.336-.05-.335-.052-.431 0 .215.078 1.171.112 1.371.047.032-.011.046-.04.033-.09-.072-.065-.218-.018-.258-.136-.262-.026-.262-.026-.389.025-.006.084.104.058.121.142-.152.056-.301.033-.447.012m-1.336-2.967c-.533-.011-1.063.007-1.586.146.143.11.3.112.452.051.173-.068.349-.084.532-.087.202-.003.404-.027.606-.041l-.004-.069m-16.325-1.431H9.171l.001.057c.653.033 1.306.039 1.959-.013l-.003-.044zm-9.711 1.736c-.008-.008-.017-.023-.026-.023-.423-.009-.846-.018-1.27-.025-.061 0-.107.03-.121.095.106.108 1.224.071 1.417-.047m6.67 1.205c.493.15.969.172 1.453.089-.094-.096-1.335-.164-1.453-.089m32.475-1.229c.18-.052.367.025.547-.061-.142-.107-1.175-.098-1.239 0-.027.056-.015.105.063.163a.716.716 0 0 1 .47.024l.159-.126m-11.393 1.661c-.413.032-.413.032-.463.122.42-.043.853.023 1.263-.138-.028-.109-.148-.057-.156-.147.047-.068.151.003.207-.095-.167-.005-.314-.041-.458.024.025.098.156.051.163.156a.281.281 0 0 1-.281.082c-.014-.057.055-.053.054-.109-.152-.064-.238.047-.329.105M8.623 12.149c-.009-.026-.027-.043-.054-.044-.334-.014-.669-.031-1.003-.039-.084-.002-.178.004-.207.114.24.143 1.074.121 1.264-.031m18.323 1.04c.33.103.645-.053.975.022.325.073.648-.055.975-.089-.49-.025-.978.005-1.466-.009-.115-.004-.231.023-.351.006-.145-.019-.287.008-.461.058.145.151.309.091.457.16-.029-.088-.112-.05-.129-.148m3.557-1.253c.039-.046.079-.064.124-.064.417-.008.832-.105 1.251-.033.062.01.135.032.168-.087a7.05 7.05 0 0 0-1.007.002.192.192 0 0 0-.189-.077c-.046.02.012.075-.024.091-.184.054-.406-.019-.546.18.18.114.432.126.664.041-.136-.103-.303.037-.441-.053m15.672.898c-.154-.109-2.223-.054-2.403.071.801-.037 1.602-.05 2.403-.071m-17.849-2.04a2.43 2.43 0 0 0-.946.022c-.077.018-.163.026-.175.131.14.086 1.677.126 1.824.007h-1.605c.03-.08.073-.088.115-.096.365-.07.729-.017 1.093.006-.094-.069-.204-.054-.306-.07M2.215 13.803c.393-.07.784-.14 1.186-.12.031.001.062-.004.072-.041-.002-.054-.042-.056-.079-.059a2.456 2.456 0 0 0-.521.013c-.304.039-.61.116-.919 0-.084-.031-.203-.05-.256.113.157.151.347.124.517.094m12.627-2.47c.617-.007 1.234-.075 1.849.02.119.019.215-.048.357-.118a40.942 40.942 0 0 0-2.527 0c.099.134.221.099.321.098m30.56 1.026c-.287 0-.575.004-.862-.003-.683-.015-.707-.015-.81.09.842.006 1.671.037 2.496-.083-.275-.068-.55-.005-.824-.004m-.884.77c-.301-.066-.602-.122-.912-.091-.192-.21-.435-.14-.664-.121-.061.005-.076.074-.032.14.085.042.179.006.277.014l.128.084c.407-.056.806.063 1.203-.026m.347-.097c.214.097 1.894.058 2.012-.047-.119-.174-.374-.241-.476-.124.069.078.2.01.275.123-.309.077-.601-.053-.899-.013-.299.039-.607.008-.911.008l-.001.053m-35.562.33c-.373-.017-.745.025-1.119.015-.23-.006-.459-.052-.689-.02-.07.01-.156-.002-.155.117.725.044 1.446-.032 2.194.052-.057-.161-.143-.16-.231-.164M5.271 11.15c-.068-.09-.153-.092-.315.017.088.063.787.127.861.077l-.074-.114c.564.106 1.083-.033 1.609-.057-.689.009-1.381-.045-2.081.077m19.665-1.179l-.003-.087c-.931.022-1.862.048-2.789.151.931-.01 1.861-.05 2.792-.064m-10.021 1.624c.988-.025 1.975-.035 2.963-.039-.988-.112-1.977-.075-2.965-.052l.002.091m13.869 4.552c-.19.103-.383.019-.576 0h.576zm.009-.095c-.303-.002-.61-.036-.906.07a.408.408 0 0 1-.288-.003c.049-.08.151-.045.202-.151-.17.007-.324-.026-.453.098.139.223 1.398.287 1.651.096a.254.254 0 0 0-.206-.11m16.788-2.209c.206.058.421-.009.628.077-.124.115-.29-.019-.383.131.144.167.378.127.557.24-.173.134-.343.059-.506.055-.155-.003-.161-.002-.238.169.309-.16.672.037.971-.211-.159-.12-.347-.098-.479-.206.103-.113.267.037.362-.09-.109-.189-.718-.306-.912-.165m-17.914-1.606c.1.093.22.074.332.062.219-.023.436-.028.655-.011.356.028.711.009 1.067-.011.064-.004.145.009.158-.119-.277-.085-.571-.066-.853-.119-.06-.018-.041-.108-.096-.117-.201-.059-.293.151-.462.159.366.034.732.015 1.084.115-.631.043-1.258.032-1.885.041m-25.71 1.017a1.164 1.164 0 0 0-.371.034c-.053.011-.097.028-.09.118.375.142.773.005 1.18.093-.048-.072-.09-.052-.124-.059-.037-.007-.074-.011-.085-.057.202-.074.264-.041.412.085.332.022.554-.022.642-.142-.211-.087-.39.174-.566.057-.077-.025-.065-.102-.159-.118a4.085 4.085 0 0 1-.839-.011m26.282.745c.08-.009.171.006.234-.05.093-.082.196-.077.3-.053a2 2 0 0 0 .54.022c.24-.011.444-.197.702-.182-.33-.041-.656.007-.968-.014-.052.032-.008.105-.076.107-.25-.008-.501-.049-.757-.008.024.065.099.039.118.104-.347.055-.706-.101-1.04.091.316-.076.632.02.947-.017m2.807-4.197a27.347 27.347 0 0 0-3.687.125c1.228-.028 2.458-.076 3.687-.125m-13.923.834c-.39-.136-1.981-.029-2.156.17.737.015 1.424-.052 2.156-.17m.639 4.466c-.058.023-.035.094-.108.104-.122.007-.264.031-.387-.057.003-.074.092-.032.107-.103-.127.005-.256-.062-.358.048.025.124.184.089.212.202-.351.059-.351.059-.426.136.099.117.228.128.395.033.015-.032-.056-.03-.03-.067.221-.058.451-.003.668-.071.049-.029.053-.101.114-.119.597-.088.597-.088.655-.242-.114-.031-.22-.032-.275.001l-.029.106c-.192.043-.376-.018-.538.029m-8.419-2.894c.325-.042.644.007.965.038.197.018.398-.011.597-.024.053-.003.113-.014.131-.086-.047-.086-.129-.082-.206-.082-.188.105-.657.119-.959.02l.736-.038-.006-.059a8.334 8.334 0 0 0-1.555.084c.1.142.197.16.297.147M21.12 9.574c1.299.029 2.598.04 3.89-.097-1.299.017-2.594.052-3.89.097m-5.124 3.804c.348-.063.699-.039 1.045-.036.632.004 1.266-.003 1.895.079.091.012.189.002.204-.113-.026-.049-.059-.06-.089-.053-.402.1-.806.023-1.209.014a24.72 24.72 0 0 0-1.722.013c-.158.008-.309.033-.434-.066-.075.007-.121.031-.153.119.15.073.315.07.463.043m28.786-.746c.455.13.913-.054 1.374.044.101-.063.218-.066.338-.064.137.002.274-.003.411-.003.109.001.165-.04.139-.166-.108-.028-.168-.115-.226-.196-.099-.001-.182.015-.242.075-.013.114.093.087.137.156-.647.034-1.29.081-1.931.154m-26.191-1.283c.194.133.405.15.621.11.218-.04.434.067.662.033-.055-.234-.218-.257-.384-.241-.436.04-.873.002-1.309.018-.06.002-.128-.018-.163.056.104.133.479.2.65.112l-.096-.042.019-.046m8.72 5.438c.285-.01.568-.05.856.001.201.035.41.038.615.04.083.001.192.013.239-.125-.134-.07-.256-.044-.389 0-.235.077-.466.035-.694-.061.403.052.75-.132 1.116-.233-.126-.056-.242-.022-.359.013-.199.058-.391.152-.609.107a.263.263 0 0 0-.146.019.94.94 0 0 1-.638.04c-.103-.03-.211-.009-.254.119.075.096.171.083.263.08m-2.675-5.372c-.054-.063-.128-.039-.192-.037a6.93 6.93 0 0 1-.84-.043c-.13-.014-.262-.098-.385-.05-.197.077-.39.056-.588.038-.061-.006-.127-.024-.166.068.18.184 2.017.202 2.171.024m-7.351-.332c.068.1.067.108.147.109.639.006 1.274-.036 1.905-.121-.243-.169-1.886-.138-2.052.012m-10.829.235c.846.011 1.686-.084 2.535-.13.086.173.249.181.391.144.214-.055.434-.089.646-.169-1.2-.127-2.385.035-3.572.155M1.61 12.984c.183-.001.362-.011.504.138.039.04.103.043.16.042l1.213-.025c.059-.001.123-.001.162-.088a1.084 1.084 0 0 0-.769.025c-.232-.158-.487-.021-.685-.124-.217-.114-.454.004-.668-.076.193-.103.412-.038.603-.128-.281-.014-.564-.055-.844.095.081.164.211.142.324.141m25.791-1.06l-.087.119c-.208.001-.415.033-.612-.069-.119.105-.26.089-.392.069-.18-.026-.361-.006-.541-.015-.09-.005-.19-.01-.257.097.082.128.213.111.332.103.192-.012.382-.049.574-.055.294-.01.587-.006.88-.032.122-.01.235-.025.301-.105.294-.072.577.017.845-.078-.345-.062-.691-.047-1.043-.034m10.685-.147c-.157-.011-.317-.137-.448-.084-.193.08-.356.061-.553.038-.349-.04-.708-.004-1.062.001-.038.001-.075.009-.101.075.164.171.369-.006.551.047.185.055.393.012.578-.012.065.039.051.117.111.142.199.074.399.077.621.041-.072-.118-.199-.035-.268-.138.168-.034.314-.016.455.017.059.027.05.131.168.099-.008-.125.144-.058.217-.154-.08-.101-.184-.066-.269-.072m-19.314-1.53c.049.068.1.072.148.072.212-.001.431.028.635-.012.692-.137 1.392-.052 2.086-.079.708-.027 1.42-.041 2.13-.053a.334.334 0 0 0 .222-.068c-1.735.062-3.471.031-5.221.14m14.678-.074c-1.217-.148-2.422.099-3.635.087v.082c.768.047 1.539-.033 2.308.01.06-.026.044-.118.114-.125.206 0 .411-.018.618-.003.198.014.398.003.597.003l-.002-.054zm-6.013 3.504c.247.127.941.036 1.065-.12a6.8 6.8 0 0 0 .969.034c.092-.003.185.002.234-.101-.088-.085-.158.029-.264-.006l-.101-.048c-.28.098-1.495.122-1.686.025.269-.035.526.005.783-.074-.322-.07-.638-.008-.952-.036-.297-.026-.589.101-.896.067l.001.111c.48-.104.941-.003 1.405.091l-.558.057m-9.951-.173c.12.048.261-.012.379.081-.226.074-.333.064-.479-.046a.219.219 0 0 0-.157-.048c-.38.045-.758-.026-1.137-.007a.536.536 0 0 0-.344.127c.075.158.209.096.313.087.505-.044 1.009-.122 1.515.002a.505.505 0 0 0 .205.004c.277-.052.557-.052.837-.064.06-.002.127.005.163-.082-.087-.057-1.147-.099-1.295-.054m19.952-2.285c-.353.041-.705-.064-1.062.011-.311.065-.632.118-.962.023.115-.129.277.017.391-.087-.186-.101-1.374-.069-1.543.039.011.014.02.037.034.039.299.061.602.017.913.028-.043.091-.171.036-.194.134.075.039 2.383-.078 2.501-.138-.039-.026-.06-.051-.078-.049m-9.01 6.057c-.09.044-.163.011-.236.011-.305-.001-.607-.08-.914-.045-.075.009-.17-.002-.192.107.134.188.489.248.759.129.053-.029-.029-.088.067-.133.509.159 1.026-.044 1.567-.065-.027-.102-.072-.105-.116-.102-.181.013-.368.003-.539.049-.247.065-.407-.132-.624-.146.1-.056.209 0 .301-.076a1.555 1.555 0 0 0-.738.012c.199.22.5.052.665.259M10.7 11.879c.014-.113-.034-.131-.085-.139-.289-.045-.581-.087-.872-.047-.517.073-1.037.082-1.557.105-.232.011-.463.036-.694.054 1.076.228 2.142-.038 3.208.027m-7.489-1.328c.464.069.931.079 1.399.082a.339.339 0 0 0 .11-.019c.211-.076.431-.089.647-.054.433.069.864.096 1.303.057.466-.041.935-.04 1.401-.07.485-.032.965-.129 1.454-.112.051.001.115.016.143-.052-.016-.027-.04-.029-.065-.03-.475-.031-.947.033-1.417.078-.584.057-1.168.106-1.754.127-.144.005-.29.033-.43.011-.457-.073-.911-.153-1.369-.01-.034.011-.074.003-.111-.001-.392-.036-.787-.009-1.177-.067a.316.316 0 0 0-.208.029c.041.018.057.028.074.031m-.737 3.386c.023.124.1.142.171.153.093.014.187.018.28.02.736.014 1.471-.045 2.207-.022.137.004.274-.005.411-.013.072-.004.153-.001.192-.135-.421-.107-.841-.105-1.231-.077-.083.033-.068.108-.125.119-.633.092-1.262-.159-1.905-.045m14.47-.825c.604-.014 1.201.113 1.805.091-1.003-.205-2.021-.188-3.038-.176v-.093c.904.02 1.801-.075 2.701-.128-.929-.082-1.852.072-2.779.053-.09.275-.361.079-.491.263.603-.047 1.203.004 1.802-.01m-7.491-2.426c.348.005.695.037 1.045.023.331-.012.662-.003.996.021.595.044 1.188-.076 1.785-.096l2.598-.092c.042-.001.101.026.119-.06-1.548.01-3.091.043-4.617.179-.052-.047-.088-.08-.094-.084-.421 0-.805-.002-1.19.001-.124.001-.244.009-.37-.025a.503.503 0 0 0-.405.084c.047.053.089.048.133.049m24.616.921c-.139.03-.276.08-.421.024.138-.045.278-.074.421-.024m-.791.028c-.281.063-.563.025-.845-.005.282-.05.564-.071.845.005m-1.137-.211c-.499.014-.998.021-1.497.025-.128.002-.243.017-.325.14.568-.108 1.137-.002 1.699-.044.048.04-.007.107.046.156.482.05.963.137 1.481.032.128.083.301.039.463.012.162-.028.325.001.485-.027.151-.026.32.088.481-.039-.119-.121-.247-.047-.375-.083-.045-.031-.101-.092-.181-.089-.293.011-.587-.053-.878.009a.59.59 0 0 1-.503-.103c-.196.187-.444.032-.667.112-.079-.053-.136-.103-.229-.101m-8.263-1.127c.449-.006.898-.017 1.348-.019.424-.002.844-.08 1.27-.071.536.011 1.073.017 1.609.008.207-.003.424.035.621-.085.054-.033.133-.033.201-.035.349-.006.698-.003 1.047-.012.798-.022 1.598.006 2.393-.093.045-.005.103.01.123-.078-2.917.073-5.821.295-8.734.325.035.071.08.061.122.06m-6.177 5.408c.219.014.439-.078.654.03-.22.028-.439.055-.654-.03m.399.242c-.274.043-.545.117-.83.062.271-.067.546-.111.83-.062m.505-.424c.06-.075.05-.134-.018-.197-.121-.001-.251-.087-.386.005.068.111.198.006.285.11-.284.066-.564.01-.862.051.102.085.205.001.285.078-.172.049-.36-.061-.495.07-.015.091.086.106.077.186-.241.092-.52-.033-.766.087.058.13.161.134.246.171-.012.104.008.205.129.206.216.002.435.042.647-.017l.124-.154c.238-.043.523.071.716-.227.002-.052.035-.142-.012-.238-.126-.066-.272-.006-.421-.066.16-.08.318-.016.451-.065m-2.006-1.586a.548.548 0 0 1-.374-.015.473.473 0 0 1 .374.015m.564.813c-.203-.065-.413-.064-.637-.064.049-.083.105-.069.151-.071.373-.018.746.028 1.119-.01.075-.008.171.021.186-.092.085-.041.192.016.296-.109-.338-.119-.671-.058-.988-.105-.333-.05-.66.072-.993.01.35-.182.753-.095 1.139-.216-.135-.127-.312-.068-.435-.178.207.008.41.015.588-.12-.537.104-1.093-.101-1.63.088.01.117.08.125.147.139.175.035.348.027.522-.001a.702.702 0 0 1 .466.06c-.322.13-.711-.061-.986.226.039.108.114.12.19.117.118-.004.239-.006.354-.028.318-.061.615.059.922.091.003 0 .005.021.009.039-.487.045-1.006-.141-1.453.188.344.113.688.078 1.033.036m24.009-2.705c.23-.04.458-.003.685.006.386.016.778.105 1.156.062.36-.04.719-.038 1.078-.056.67-.033 1.345.039 2.014-.067.052-.008.115.002.121.094-.761.14-1.538.018-2.299.145a.65.65 0 0 0 .447.044c.246-.052.5-.047.739-.037.459.021.91-.005 1.362-.069.092-.013.185-.024.234-.111-.032-.132-.173-.061-.226-.139.012-.08.156-.091.097-.203-.132-.063-.169.04-.214.149-.133-.093-.285-.095-.396-.021a.797.797 0 0 1-.549.128c-.506-.052-1.01.043-1.516.005-.454-.034-.903.091-1.36.037a8.172 8.172 0 0 0-1.026-.068c-.393.001-.786.04-1.179.002-.044-.005-.099-.02-.161.071.35.014.67.086.993.028m-13.612.591c-.264-.003-.528.103-.838.002.232-.045.432.009.609-.095-.324.018-.653-.055-.991.037.07.127.193.087.265.166-.358.074-.704-.093-1.051.02.086.147.086.147.352.091.154.196.461-.078.602.193.26-.044.526.024.77-.06.259-.089.516-.063.777-.06.268.004.537.001.846.001-.084-.096-.144-.085-.197-.085-.325-.004-.65-.006-.975-.007-.199-.001-.394-.003-.589.073a.522.522 0 0 1-.449-.047c.204-.059.41-.124.619-.133a9.744 9.744 0 0 1 1.159.013c.349.028.699-.034 1.046.033.095.018.199-.005.297-.017.049-.006.1-.026.083-.108-.106-.054-.209-.056-.316.044-.008-.047-.065-.061-.041-.129l.171-.03c.072-.031.023-.112.087-.132l.204-.042a.23.23 0 0 0-.235-.007c-.049.025-.089.064-.151.062-.281-.009-.563.027-.843-.008-.319-.04-.637-.02-.955 0-.037.002-.088-.013-.116.085a8.63 8.63 0 0 1 1.516.024c-.087.154.109.086.153.187-.351-.093-.697.063-.987-.107-.292.154-.561.039-.822.036m16.285-.896c-.423.016-.825.077-1.226.002.402-.07.803-.051 1.226-.002m.459.016c.088-.079.226-.025.31-.139-.951.077-1.887-.083-2.833.044.038-.067.116-.021.134-.116-.362-.045-.728.03-1.111-.01.058-.067.104-.082.156-.081.541.008 1.083-.043 1.625-.009.56.035 1.12.067 1.681.05.061-.002.134.012.174-.076-.207 0-.399.003-.591-.001-.86-.018-1.718-.086-2.579-.062-.212.006-.423.039-.634.032-.473-.017-.946-.051-1.419-.076-.075-.004-.155-.013-.21.074.488.031.975.031 1.456.097l-.002.056h-.929v.058c.686.022 1.372.059 2.061.066-.461.033-.922.038-1.383.032-.456-.005-.912-.045-1.367.007 2.329.114 4.658.189 6.989.131-.507-.07-1.019-.033-1.528-.077m-26.462.41l-.001-.06c.162-.028.324-.078.503.005l-.054.059c.231-.001.465.149.692.018.003-.066-.017-.091-.05-.098-.175-.039-.35-.097-.528-.109-.43-.029-.858.032-1.288.039-.225.004-.443.046-.664.057-.366.017-.735-.015-1.103-.021-.077-.002-.163-.026-.231.048-.016.082.03.115.1.121.088.008.175.012.262.012.293-.002.586-.036.88-.001.088.01.144.033.14.154-.437.05-.894-.062-1.33.082.029.134.111.149.192.159.273.035.548.037.821-.001.048-.007.085-.02.103.048-.19.059-.393.03-.583.088.904-.093 1.811-.053 2.691-.129.175.121.75.159.867.068-.041-.064-.105-.083-.174-.09-.323-.032-.643-.073-.971-.054-.241.013-.483.038-.723.042-.599.013-1.198-.015-1.798-.029-.055-.002-.127.029-.171-.066.183.018.348-.032.527-.014.446.044.894-.024 1.334-.084.18-.024.338-.032.508.011.078.021.16.035.24.037.491.015.982-.026 1.473.003.071.004.148.012.199-.056-.025-.062-.074-.056-.115-.053-.255.017-.51-.02-.767-.01-.31.012-.624 0-.933-.031-.357-.035-.715.001-1.071-.044-.146-.019-.291-.053-.436-.08.128-.093.239-.017.356-.014.36.008.722-.048 1.082.028.158.033.32.041.474-.035h-.453zm11.456-.993c-.261.014-.533.075-.781.023a2.643 2.643 0 0 0-.702-.037c-.312.017-.622-.002-.931-.014-.267-.01-.533-.034-.8-.014-.062.005-.138.006-.165.104.092.026.169-.009.246-.019.112-.014.232-.046.333.002.14.065.28.058.422.047.398-.033.799.021 1.198-.031.023-.003.062-.016.082.056-.679.144-1.368-.007-2.03.08-.03.071.046.089.027.14-.033.027-.106.005-.109.091.055.095.158.098.256.093.312-.017.625-.001.936-.04.095-.012.201-.029.332.047-.183.02-.336-.021-.465.08.37-.047.738-.031 1.094.01.062-.047.086-.118.164-.107.098.122.329.134.522.004-.851-.138-1.708-.127-2.578-.089.125.003.067-.131.131-.158.644 0 1.279-.003 1.915.002.123.001.236.058.367.047.397-.03.795-.036 1.188-.11.784-.148 1.579-.075 2.369-.108.107-.005.222.021.343-.066-.173-.106-.411.045-.49-.147-.136-.048-.253.016-.356-.06.086-.07.223.035.294-.133-.376.055-.732.017-1.083.066.08.08.18.041.266.081-.042.047-.141-.008-.145.105l.382.045a.413.413 0 0 1-.206.028c-.35-.036-.696.008-1.045.031-.325.021-.623.172-.951.159-.149-.006-.302.017-.448.009-.173-.009-.351.006-.524-.037.353-.125.735-.003 1.113-.134-.075-.075-.123-.049-.171-.046M4.565 12.447a.746.746 0 0 1-.453.033c.145-.072.293-.117.453-.033m-2.178-1.35c-.117.071-.81.09-.918.025.295-.049.592-.062.918-.025m-.47-.395c.235-.134.712-.124.818.019-.273-.034-.535.051-.818-.019m.67.135c-.144.13-.505.136-.811.009.266-.033.53-.059.811-.009m-.145.73l.113.152c-.223.128-.427-.064-.687-.002l.168-.152c.142.02.271.021.406.002m3.428.739c-.469.064-.94.055-1.412.015.47-.028.939-.109 1.412-.015m-3.987-1.295c-.52.009-.52.009-.645.118-.014.177.2.087.243.201-.084.131-.254-.037-.358.143.248.047.507-.107.713.074-.02.059-.038.12-.137.111-.059-.076-.14-.137-.273-.108-.062.074-.198.051-.271.143.03.113.116.14.205.135.372-.019.742-.063 1.116-.02.169.019.327-.043.489-.082.173-.042.345.04.531.02.078.116.213.113.353.136-.14.095-.298.042-.452.126.39.028.76-.193 1.129.04-.611.286-1.229.127-1.864.107.172-.174.363-.156.556-.126-.245-.17-.484.032-.704-.006-.068-.035-.03-.114-.095-.148-.386.179-.797-.008-1.178.072-.032.089-.017.138.055.188.405-.049.82.02 1.24.067-.11.09-.246.021-.359.081.233.052.474.042.696.003.24-.041.465-.026.699-.003.225.021.456-.074.711.001-.105.125-.212.12-.317.118a12.174 12.174 0 0 0-1.011.008c-.131.007-.234.053-.365.152.276-.016.516-.056.753-.04a10.84 10.84 0 0 0 1.747-.005c.282-.026.556-.112.844-.107.071.001.179.003.25-.13-.266-.103-.531-.107-.798-.115-.275-.009-.549.068-.837.017.068-.124.163-.139.266-.123.454.069.907.058 1.36.002.09-.011.191.004.245-.099-.035-.082-.107-.078-.172-.087-.188.2-1.056.249-1.337.062.393.031.763.021 1.133-.019-.29-.037-.584-.013-.871-.043-.282-.03-.565.101-.843-.012a1.69 1.69 0 0 1 .472-.078c.437.008.871-.044 1.308-.048.065-.001.136-.004.184-.126l-1.233-.121a.943.943 0 0 1-.008.056l.552.07-.003.062c-.626.006-1.249.164-1.878.041l-.005-.074 1.176-.071-.003-.045c-.339-.041-.678.009-1.017.022-.261.01-.498.18-.777.11-.144-.036-.298-.03-.446-.043l.002-.04h.788c.07-.036.016-.085.062-.118.568-.061 1.157.006 1.731-.132-.862.027-1.725.046-2.648.14-.24-.04-.546-.095-.857-.124.145-.068.283-.108.446-.109.25-.001.484.113.734.074.305-.046.611.002.916.002.055 0 .122.025.169-.066-.148-.044-.281-.002-.418.007l-.101-.125c-.353-.088-.71-.047-1.059-.097 1.179-.194 2.366-.17 3.541-.177.027.033.01.048.001.063-.01.018-.01.034.007.047.173.015.204.006.314-.092-.023-.07-.086-.062-.139-.067a5.017 5.017 0 0 0-.917-.017.718.718 0 0 1-.222-.011 3.942 3.942 0 0 0-1.152-.054c-.2.019-.401.024-.598.01a.492.492 0 0 1-.389-.204c-.11-.051-.189.044-.313.027a.464.464 0 0 0-.37-.121c-.155.02-.286-.018-.348-.195-.242.025-.485-.048-.722.056-.003.137.06.197.176.219.153-.109.311-.059.517-.013-.146.062-.08.179-.131.249-.094.043-.184-.077-.3.03.149.126.35.114.511.231m17.689.69c-.219.043-.402.077-.591.04.18-.067.363-.139.591-.04m-6.053-.777c.198-.027.396-.069.585.039-.203.085-.395.038-.585-.039m-.208.446c-.344.123-.704-.069-1.048.07.343-.171.695-.108 1.048-.07m8.979-.76l.001-.05c.34-.025.679-.049 1.02.001l-.004.049H22.29zm-9.929.603c-.343.067-.69.073-1.038.043.342-.11.689-.097 1.038-.043m3.292.639c.141-.089 1.025-.065 1.285.034-.428.008-.854-.088-1.285-.034m-2.121-.398c.001-.036.018-.075-.01-.102-.063-.048-.159-.026-.214-.122.298.009.578.073.859-.014a.144.144 0 0 0-.148-.093c-.305.015-.612-.043-.914.03-.199.048-.445.019-.553-.086.27-.081.539-.092.798-.074.348.024.692.089 1.043.026.096-.017.2-.009.299.003.267.032.533.054.803.026.298-.032.597-.05.897-.023.141.013.283.016.458.025-.08-.065-.154-.026-.22-.1.812-.12 1.605-.087 2.35-.108.097-.023.071-.111.173-.113.475-.026.985-.083 1.497-.084.503 0 1.003-.105 1.508-.063-.744.145-1.501.099-2.246.218 1.011.06 2.02-.077 3.031-.039-.18.044-.363.063-.543.095-.552.096-1.106.019-1.658.027a20.96 20.96 0 0 0-1.122.057c-.044.003-.106-.013-.118.079.101.059.214.043.317.016.215-.054.432-.065.651-.063.219.003.436.011.654-.017a.42.42 0 0 1 .322.089c-.078.063-.147.041-.212.038-.143-.006-.295-.054-.427.005-.15.067-.288.053-.436.018a.605.605 0 0 0-.476.077c.121.093.229.034.334.025.106-.008.216-.033.301.076-.138.049-.289-.026-.408.086.028.122.105.127.2.109a1.11 1.11 0 0 1 .633.079c-.455.065-.909.112-1.369.056-.277-.034-.555-.054-.767.063-.661.006-1.279-.067-1.92.075l-.12-.071c-.098.019-.196.04-.297.025-.331-.047-.661-.018-.991.008-.081.006-.176-.004-.267.129.623.119 1.225.044 1.814.12.068-.067.129-.121.218-.119.406.01.811.013 1.217.033.14.006.273.021.371-.056.387.028.744-.011 1.13-.072.037.016.099.064.18.036.33-.117.674-.095 1.015-.098.189-.002.376-.007.556-.082-.181-.118-.366.038-.546-.016-.045-.035.043-.08-.018-.12-.077-.039-.179.036-.278-.042.162-.021.307-.028.457-.024.242.006.485.064.726.001.065-.016.156-.011.159-.147-.259.031-.512.06-.767.035-.252-.025-.511.07-.787-.033.215-.081.408-.058.6-.041.125.01.249.022.374.001.433-.07.866-.073 1.311.023.07-.039.163-.045.256-.057.3-.038.598.016.898.012.38-.005.757.086 1.138.056.084-.007.197.046.254-.101l-.805-.048c.405-.118.855.109 1.299-.062-.059-.087-.116-.104-.179-.106-.064.009-.094.093-.165.072-.072-.004-.088-.095-.159-.102-.372.037-.743.093-1.117.025-.036.103.056.104.131.146-.144.039-.273.035-.399.035-.125 0-.249-.015-.388-.024-.076-.104-.197-.109-.325-.102-.293.016-.585.029-.877.038a.73.73 0 0 1-.219-.037c.368-.05.741-.182 1.101-.112.331.065.655.024.98.06.015-.01.029-.026.045-.029.459-.095.933-.059 1.39-.191.222-.064.472-.032.709-.043.052-.003.108.008.168-.051-.089-.044-.163-.025-.234-.026-.824-.017-1.632.192-2.456.174-.224-.004-.447 0-.67 0l-.001-.059c.12-.042.238-.09.371-.078.498.042.995.031 1.492-.005.082-.006.173-.004.239-.152-.889.06-1.743-.011-2.599-.002v-.057h.929l-.002-.046a2.892 2.892 0 0 0-.483-.035c-.649.009-1.298.025-1.946.052-.705.03-1.408.088-2.115.061-.335-.013-.672-.053-1.01 0-.222.036-.447.051-.671.075 1.697-.022 3.392.013 5.085-.082-.405.105-.817.063-1.226.086-.803.046-1.607.086-2.41.123-.111.005-.206.031-.252.07-.402.076-.764.021-1.125.035-.505.02-1.005.133-1.512.092-.177-.015-.323.086-.489.107-.293.035-.586 0-.881-.007-.053-.045-.09-.108-.171-.136-.131-.015-.291.033-.373-.059-.265-.094-.459.055-.673.066-.255.014-.511.025-.767.04-.15.009-.298.03-.414.135-.382-.021-.753.028-1.127.056-.126.009-.248.03-.277.181-.198.014-.388.012-.571.044-.184.031-.383-.014-.559.076.052.18.157.244.414.257.262.015.524.021.786.035.065.004.139-.014.192.046-.019.074-.14.043-.134.138.103.102.126.115.274.063.26-.091.531-.121.794-.088.269.035.528-.198.791-.009.603.058 1.205.082 1.806-.012.073-.011.153-.02.15-.16a6.147 6.147 0 0 1-1.951.049c-.056-.005-.051-.095-.123-.092-.424.059-.85.001-1.288.04.015-.088.053-.122.106-.119.204.011.407-.071.614-.004a.586.586 0 0 0 .351-.014c.055-.017.111-.034.165-.017.267.086.531.04.795-.012l-.004.004zm8.162-4.038c.05.124.107.248.051.386-.094-.118-.029-.258-.051-.386m-3.922-.752c-.044-.146-.033-.233.1-.303.056.133-.004.203-.1.303m-5.431.498c-.115-.142-.059-.255-.008-.366.031.112.063.223.008.366m5.673-.191c-.028.129-.082.205-.234.232.064-.109.055-.246.234-.232m24.825 2.295c-.151.1-.268.038-.384.006.121-.09.235-.034.384-.006M17.543 7.144c.02.142-.023.191-.205.235.037-.114.086-.2.205-.235m4.76.569c-.161-.119-.066-.252-.069-.367.071.104.077.219.069.367m9.614-.719a.603.603 0 0 1 .074.395c-.096-.118-.108-.253-.074-.395m12.955 3.51c.178-.008.356-.015.531.04a1 1 0 0 1-.531-.04M17.549 4.389c.001.086-.036.128-.133.114-.042-.086-.072-.173-.004-.288l.137.174M2.63 9.905c-.13.037-.259.063-.395-.035.162-.151.268.046.395.035m21.869-2.273c-.148-.095-.174-.274-.107-.533.033.165.005.339.107.533m-11.772-.473c-.057-.146-.018-.266.073-.426.045.275.034.338-.073.426m22.062 3.652c-.159.066-.32-.017-.478-.018.162-.077.321-.044.478.018M13.649 7.26c-.1-.126-.033-.241-.006-.353.096.166.096.2.006.353m21.88-.841c.067.128.099.259.049.403-.048-.13-.112-.26-.049-.403m-5.405.703c.046.143.1.267.116.438-.177-.13-.212-.273-.116-.438m13.567 3.155c-.176.047-.352.088-.525-.02.174.026.352-.074.525.02M14.312 6.888c.043.155.054.279.044.432-.147-.091-.161-.217-.044-.432m23.631 2.466c.18.052.365-.007.548-.019l-.006.085c-.181-.017-.369.053-.542-.066M22.054 6.489c.102.175.018.36.02.539-.01-.18-.079-.357-.02-.539m-1.039.294c-.151-.156-.15-.319-.002-.404.052.134-.008.261.002.404m5.208-1.892c-.039.127.02.307-.209.36-.019-.186.114-.263.209-.36M6.41 9.496c-.194.117-.397.008-.595.027.196-.088.395-.054.595-.027m23.761-5.037c.034.173-.053.295-.294.41.063-.172.167-.295.294-.41m-4.475 2.787l-.364.422-.035-.034c.192-.335.242-.388.399-.388m5.02 1.885c.204-.041.408-.093.62-.02-.207-.001-.409.117-.62.02M13.39 6.728c.103.178.107.46.004.532-.066-.185.022-.346-.004-.532m21.996.152a.507.507 0 0 1-.084-.508c.07.153.077.315.084.508m-18.57 2.418h-.662c.26-.135.525.045.662 0m-1.083-4.947c.133-.151.242-.329.445-.393-.127.158-.245.326-.445.393m4.572 3.002c-.09.242-.278.38-.503.363.195-.102.315-.245.503-.363m9.564-2.126l-.051-.049c.11-.179.298-.289.422-.456l.055.054-.426.451m2.041 1.564c-.124-.236-.066-.461-.056-.678.042.215.134.425.056.678m-5.131-.082c-.032.223-.248.234-.383.338.052-.2.219-.267.383-.338m-5.675.67c-.021-.223-.001-.436.018-.648.109.314.104.584-.018.648m-7.877-.164c-.145-.086-.148-.348 0-.614v.614zm1.397 2.225c.245-.063.494-.035.743-.025-.136.054-.579.067-.743.025m21.55.112c-.265.091-.539.036-.809.056.265-.095.538-.065.809-.056m-24.399.068c.115-.054.797-.05.908.014-.302.036-.603-.04-.908-.014m21.982 1.187c.092-.004.181-.043.279-.02-.14.175-.444.163-.587-.03.124-.027.209.054.308.05M21.482 7.778c.015-.223-.071-.427-.025-.645.135.238.154.584.025.645m8.804-2.776c-.006.132-.2.355-.373.43-.005-.131.205-.373.373-.43m-5.43 2.09c-.16-.16-.195-.557-.058-.661l.058.661M17.53 4.575c.003-.048.042-.071.096-.085.046.04.05.111.098.13.02.082-.032.134-.035.2l.071.097c-.011.082-.043.133-.14.126v-.392c-.014-.026-.08-.009-.09-.076m-4.442 5.014c.333 0 .665-.066.999-.007-.333.013-.665.085-.999.007m8.215-3.328c.1.136.093.473-.016.606-.013-.198-.058-.395.016-.606m19.482 2.84l-.009-.065.828-.12.008.057a4.46 4.46 0 0 1-.827.128M24.962 6.926V6.39l.056-.005c.091.158.017.353.101.504-.061.07-.101.069-.157.037m-8.75 2.916c.256-.038.51-.092.772-.04-.254.087-.513.072-.772.04m-3.657-3.4c.03.257.037.472.034.706-.119-.084-.142-.515-.034-.706m6.857-.441c.012.166-.241.509-.422.536.152-.197.219-.408.422-.536m-1.548-3.749c-.264-.077-.538-.084-.809-.105.284-.073.561-.09.809.105m27.569 2.5c-.059.16-.343.341-.652.402.215-.126.383-.333.652-.402M31.191 6.615c.05.287.098.535.178.804-.184-.145-.276-.554-.178-.804m-6.224.874c-.085-.207.111-.423.398-.428-.154.123-.221.326-.398.428m.415-1.55c-.021-.082.007-.126.074-.172.12.141.316.138.465.252-.192.016-.377.007-.539-.08m-6.433.092a.516.516 0 0 0-.189.307c-.014.087-.061.132-.154.086.047-.27.241-.509.41-.511.024.065-.036.091-.067.118m1.28 1.116c-.068.287-.362.337-.513.535l-.061-.058c.145-.209.402-.296.574-.477m15.46 2.238c-.106.08-.882.103-1.077.031.349-.096.702.011 1.077-.031M18.801 6.484c.078-.267.277-.518.416-.511-.072.197-.278.324-.273.555-.078.023-.121.014-.143-.044M28.446.98c-.076.075-.356.11-.605.069a.492.492 0 0 1 .605-.069m-4.214 5.379c-.027.346.049.652-.009.964-.092-.303-.099-.86.009-.964m5.282-.233c-.007.217-.318.537-.567.596.148-.261.434-.354.567-.596m-7.88 1.151c-.032-.234-.045-.446.013-.68.137.184.131.518-.013.68m20 1.794c.291-.074.55-.163.829-.119-.225.09-.611.228-.829.119m-21.51-2.042c-.101.197-.532.507-.694.481.271-.256.62-.496.694-.481m5.641-1.372h-.294c.062-.149.357-.256.609-.221-.095.131-.235.151-.315.221m-9.13-1.01c-.061.16-.388.42-.54.416.043-.196.368-.441.54-.416m9.859.783c.036.097.151.234-.044.359-.149-.097-.145-.234-.11-.375.023-.087.04-.201.18-.166.023.065-.041.097-.026.182m.378-4.496c-.069-.002-.094-.049-.095-.138.145.007.241-.148.386-.09.096-.039.182-.195.278.001-.124.114-.255.175-.424.104-.068.034-.068.112-.145.123M13.354 9.451c-.425.099-.85.026-1.275.019.425-.047.85-.049 1.275-.019m26.977.522c-.006-.023-.011-.033-.009-.034l.118-.096.071.09c.297.056.58.077.867.05l-.016.084c-.35.012-.699.021-1.031-.094M26.764 2.808l.058.06-.67.655-.054-.053c.179-.267.423-.464.666-.662M2.909 9.279c-.376.103-.746.007-.844-.225l.844.225M29.524 6.83c-.15.266-.407.394-.628.568a3.28 3.28 0 0 1-.055-.068c.15-.271.463-.323.683-.5m9.831 2.548c.218-.062.409.038.602-.008.169-.04.361-.069.527.033-.223.094-.94.07-1.129-.025M7.86 5.875c-.081.072-.119.174-.185.254-.07.029-.133.04-.199-.054.198-.137.282-.384.506-.503.025.137-.037.228-.122.303m21.665.608c-.065.252-.506.597-.703.548l.703-.548m3.204.806c-.187-.091-.295-.626-.216-.993.051.337.117.668.216.993m-8.203.078a5.133 5.133 0 0 1-.022-.895c.152.136.18.726.022.895m5.731-.827c.069.326.138.653.228.975l-.092.023a2.178 2.178 0 0 1-.136-.998M16.073 4.832c.011-.191.494-.587.706-.58-.193.247-.48.374-.706.58m-3.727 5.385c.039.003.07.02.119.109-.519-.037-1.008-.01-1.493.02.462-.022.91-.164 1.374-.129m7.212-3.664c-.111.014-.193.017-.287-.055.171-.178.206-.469.505-.518-.083.193-.279.329-.218.573m-7.398 2.39c.549.126 1.109.201 1.657.337-.268.032-1.501-.222-1.657-.337m5.434-1.982c-.272.171-.428.487-.718.634a2.133 2.133 0 0 1-.042-.049l.756-.724c.048.042.056.106.004.139m4.254.698c.055-.397-.046-.791-.023-1.197.017-.034.052-.03.102-.014-.007.443-.064.892.09 1.346-.151-.003-.18-.051-.169-.135m7.004-.112c.261-.15.484-.357.752-.499-.171.31-.468.467-.725.682-.08-.1-.072-.158-.027-.183M16.231 5.784c-.034.022-.07-.009-.09-.045.057-.171.559-.54.773-.523-.241.219-.44.419-.683.568m23.597 4.161c-.402.074-.799-.074-1.201-.024.203-.133.818-.117 1.201.024m-24.82-.807c.168-.038.912.055.985.123-.171.125-.885.036-.985-.123m28.487-.465c.498-.114.944-.374 1.44-.49-.593.324-1.217.535-1.44.49m.566 2.026c-.1.131-.233.033-.348.044-.142.014-.287.006-.431.006l-.396.001-.001-.088c.391-.148.782.016 1.176.037m-1.206-1.133c.47-.058.927.064 1.389.116-.335.057-1.266-.027-1.389-.116M9.005 6.51c-.016 0-.034-.01-.047-.013-.044-.059.427-.83.534-.883.06.026.069.072.035.12-.166.233-.281.495-.419.76-.042.007-.072.014-.103.016m7.155-.34c-.074-.097-.048-.162.007-.208.238-.201.48-.397.722-.593.018-.015.048-.017.09.025a7.222 7.222 0 0 1-.819.776m12.677 1.791l-.033-.051.766-.588.042.034c-.114.094-.228.189-.122.337-.125.172-.156.19-.32.197.011-.098.144-.093.161-.215-.194.068-.291.282-.494.286m15.086 2.304c.518.045 1.04.012 1.551.131-.218.067-1.351-.029-1.551-.131M15.709 4.033c.158-.018.195-.251.406-.219-.112.227-.366.283-.459.455-.111.056-.146-.033-.199-.05-.107.008-.171.109-.299.112.102-.187.287-.222.396-.322.085-.029.111.029.155.024m25.62 6.684c.438-.188.855-.053 1.268-.047-.258.129-.972.114-1.268.047M30.516 6.084c.043.469.009.946.209 1.397l-.1.014c-.146-.459-.272-.92-.109-1.411m-23.844.08c.282-.044 1.278.2 1.359.352a7.297 7.297 0 0 1-1.359-.352m39.132.875c-.233.232-1.567.824-1.815.797.644-.229 1.204-.571 1.815-.797m-13.702.282c-.017-.46-.147-.928-.016-1.401.101.231.007.476.053.711s.027.48.128.692c-.07.057-.113.05-.165-.002m.351-.077c.003.026-.038.046-.074.042-.14-.194-.183-1.257-.024-1.37-.043.451.047.888.098 1.328m-11.644.34c-.024-.141-.095-.267-.062-.401.076-.055.121.025.178.001.044-.076-.047-.174.074-.276.063.259-.019.515.079.741.033.075.126-.016.164.068-.07.121-.183-.015-.246.059-.097-.117-.044-.239-.084-.359-.044.056-.005.131-.103.167m-4.373-3.43c.116-.118.141-.132.271-.054-.133.107-.268.203-.398.297-.13.095-.218.238-.367.307-.097-.015-.081-.117-.171-.173.198-.123.257-.369.526-.422-.071.206-.258.281-.309.463.15-.139.305-.273.448-.418m14.273 2.05c.03-.005.053.013.053.038 0 .282.072.556.097.834.006.064.022.12.055.176.049.083.036.162-.022.239-.182-.135-.297-1.003-.183-1.287M17.092 3.743c.003.141-.055.205-.186.222-.268-.121-.376-.385-.517-.623.241.139.47.282.703.401m6.928 4.046c-.13-.47-.116-.947-.037-1.428.104.454.005.931.171 1.378-.046.045-.079.058-.134.05m-6.49-1.354c.079.073.043.134.037.199-.345.294-.566.732-1 .929l-.051-.069a5.533 5.533 0 0 0 1.014-1.059m24.558 3.073c.018-.123-.092-.088-.096-.149.009-.048.034-.07.056-.07.094.004.078.094.169.127.196.04.437-.1.682.018-.117.083-.242.001-.346.049-.004.067.081.029.084.087-.288.011-.574.086-.861-.015-.069.005-.079.083-.145.11-.074-.013-.166-.004-.242-.06.227-.119.464-.144.699-.097m-18.19-1.704c-.258-.079-.09-.393-.297-.466-.011-.073.084-.024.087-.082.056-.297-.085-.618.109-.906-.006.48.033.954.101 1.454m17.988-1.175l2.394-1.117c-.748.476-1.537.868-2.394 1.117m-2.684 3.052c.347-.044.698.011 1.046-.012a5.614 5.614 0 0 1 1.106.034c-.202.101-1.908.087-2.152-.022M16.05 7.224c.378-.323.786-.613 1.127-.98.025-.027.064-.062.158-.025-.427.431-.804.884-1.328 1.228-.027-.123-.01-.179.043-.223m7.141-.848l.194-.132c.063.481-.012 1.004.125 1.5-.055.091-.125.084-.224.049-.002-.473.031-.94-.095-1.417M3.905 9.689c.447.032.87.142 1.307.063-.555.133-1.109.024-1.674.008.036-.111.152-.036.224-.129-.409-.025-.787.119-1.168.054.487-.125.978-.18 1.484-.098-.04.068-.114.031-.173.102m30.732-2.674c-.228-.478-.405-.993-.653-1.48.094-.074.154-.05.188.035.183.463.403.908.644 1.344.007.015.002.036.003.06-.051.065-.104.064-.182.041m1.44 3.251c-.204.238-.485.1-.751.131v-.105c.082-.059.158.011.229-.018.062-.024.066-.096.102-.149.072.049.042.166.16.164.14-.185.362-.091.547-.108.477-.042.957.002 1.435.027.023.001.051.007.057.066-.591-.019-1.176.045-1.779-.008m-8.18-2.349c.242-.335.612-.536.848-.921.04.233-.36 1.015-.565 1.179-.089-.016-.095-.123-.191-.152.102-.085.212-.126.273-.225.054-.09.152-.151.18-.308-.192.168-.304.385-.545.427m-.015-.391c.279-.196.505-.442.705-.715.231-.317.53-.566.831-.829.021.132-.052.202-.129.264-.248.2-.441.444-.63.699-.214.288-.45.564-.777.739-.068.036-.132.074-.205-.004.047-.082.137-.106.205-.154M42.52 8.77c.95-.249 1.829-.687 2.749-1.018-.33.332-2.275 1.044-2.749 1.018M20.336 6.844c-.154.034-.452-.291-.474-.509.179-.259.234-.267.463-.071.129.111.242.234.328.386-.005.103-.014.205-.114.303-.086-.173-.049-.416-.298-.471-.068.155.128.229.095.362M3.883 9.295c-.34.145-2.018-.305-2.126-.58.722.207 1.42.406 2.126.58M22.83 7.758c-.146.077-.146.077-.308.069-.065-.335-.044-.682-.065-1.024l.098-.139c.021-.112-.007-.226.07-.338.174.468.04.976.205 1.432m3.229-3.994c.326-.368.713-.677 1.044-1.043.099-.11.262-.162.407-.247.084.038.17.004.272-.044-.015.134-.105.178-.144.217-.1.043-.107-.046-.163-.045-.633.499-1.122 1.153-1.752 1.661.03-.226.206-.352.336-.499m.731.781c-.073-.075-.05-.11-.023-.148.121-.167.276-.301.424-.444.468-.448.916-.916 1.338-1.408.043-.05.071-.126.175-.062-.529.795-1.249 1.401-1.914 2.062m18.429-.577c-.068.37-2.623 1.951-2.956 1.807 1.105-.45 2.037-1.119 2.956-1.807m-.751 6.24c-.411-.052-.826.003-1.234-.062-.131-.021-.236.073-.364.067a14.106 14.106 0 0 1-1.206-.118c-.06-.043-.08-.098-.085-.17.108-.039.185-.035.184.107 1.075.03 2.142-.009 3.199.135l-.001.044c-.165 0-.332.017-.493-.003M27.386 2.927c-.306.306-.602.621-.897.937-.392.419-.793.828-1.147 1.281a.793.793 0 0 0-.175.407c-.165-.09-.089-.194-.038-.269a6.73 6.73 0 0 1 .548-.734c.501-.563 1.039-1.091 1.562-1.633.047-.048.095-.097.173-.114.042.065.005.094-.026.125m10.082 7.127c-.076.077-.132.097-.197.086a3.89 3.89 0 0 0-.856-.017.599.599 0 0 1-.255-.039c-.391-.155-.803-.089-1.205-.123-.052-.005-.112.01-.185-.079.616-.051 1.204.037 1.79-.027.587-.065 1.176-.032 1.787.038-.065.068-.122.032-.169.03-.567-.02-1.134.004-1.701.007-.082 0-.127.031-.17.13.392-.017.762-.021 1.161-.006m-20.796-.661c.711-.008 1.422-.006 2.134-.007.036 0 .072.004.112.043-.25.022-.499.063-.749.063-.353 0-.688.079-1.022.172-.088.024-.167.026-.24-.025.006-.079.095-.035.113-.114-.442-.034-.878.035-1.314.038.303-.196.638-.167.966-.17m10.109-4.094c-.085-.098-.024-.146.011-.189.271-.335.575-.639.878-.944.429-.433.844-.88 1.222-1.359.039-.05.079-.1.154-.048-.639.952-1.504 1.695-2.265 2.54m-.045-.28c-.075-.17.012-.252.077-.322.223-.242.455-.476.688-.707.41-.406.82-.813 1.173-1.272.045-.059.081-.151.234-.08-.653.866-1.46 1.561-2.172 2.381m-.286-.562c.016-.194.179-.276.289-.387.515-.522 1.002-1.07 1.506-1.602.057-.06.117-.138.252-.047-.628.744-1.278 1.448-2.047 2.036M13.945 9.904c-.186.013-.372.035-.582.01.542-.166 1.099-.072 1.663-.232-.281-.106-.538-.004-.781-.079.332-.11.677.026 1.026-.081-.036.078-.116.02-.136.111.493.056.985 0 1.475-.018l.003.056-.895.071c-.099.035-.046.099-.073.117-.32.068-.662-.165-.967.153-.229-.122-.48-.127-.733-.108m9.183-2.092c-.126.055-.175-.006-.188-.119-.056-.477-.088-.953-.03-1.433a.851.851 0 0 0-.072-.51c-.06-.114-.013-.244-.043-.354.071-.064.128-.047.228-.004-.059.811.222 1.603.105 2.42m17.932 2.499c-.15-.012-.298-.002-.447-.01-.34-.019-.67-.144-1.014-.105-.301.034-.59-.098-.892-.053-.073.011-.149.008-.206.023-.317-.095-.635-.018-.96-.078.059-.118.145-.107.229-.108.305-.003.607.047.912.052.585.008 1.166.076 1.75.105.479.024.959.042 1.438.076.034.002.068.014.102.021-.303.128-.61.103-.912.077M17.557 6.362c-.176.042-.276.192-.372.332-.205.297-.483.518-.743.757-.085.078-.179.126-.328.061a9.959 9.959 0 0 0 1.352-1.311c-.037-.524-.154-.994-.683-1.245.086-.124.195-.161.279-.247.309.348.578 1.195.495 1.653m11.596-3.537c.019-.027.057-.012.081.014-.091.388-2.187 2.668-2.501 2.672.777-.923 1.716-1.699 2.42-2.686m-3.93 2.717c.219-.411.526-.758.845-1.089.318-.33.613-.681.935-1.008.255-.26.484-.548.773-.775a.43.43 0 0 0 .119-.142c.038-.074.093-.13.192-.138.031.103-.031.168-.089.228-.261.267-.53.525-.786.796-.281.297-.549.607-.828.907-.251.268-.532.508-.744.812-.122.173-.252.341-.319.546-.019.057-.051.081-.11.075-.053-.078-.024-.146.012-.212m1.612.105c.503-.437.994-.888 1.443-1.378.357-.39.706-.791 1.001-1.233.035-.052.06-.132.154-.109.048.068 0 .113-.032.167-.301.507-.692.943-1.094 1.37-.452.483-.978.888-1.421 1.38-.032.036-.069.074-.152.05-.021-.109.028-.183.101-.247m2.9-2.334c-.233.308-.398.659-.623.974-.32.447-.752.781-1.127 1.172-.263.275-.535.54-.799.813-.094.098-.133.244-.293.313-.079-.013-.174.028-.314.084 1.086-1.164 2.34-2.108 3.132-3.469.068.05.047.082.024.113m15.426 4.328c-.512.213-1.021.434-1.531.652-.397.17-.815.261-1.233.36-.382.091-.77.151-1.15.244a4.391 4.391 0 0 1-.441.083c-.173.024-.344.045-.509.117-.177.078-.366.014-.549.029a3.354 3.354 0 0 1-.009-.044l.393-.07a4392.021 4392.021 0 0 0 1.51-.269c.593-.252 1.243-.307 1.845-.525.473-.171.938-.367 1.401-.566.194-.083.387-.167.62-.239-.103.137-.226.177-.347.228m-18.112-5.81c-.03-.057-.113-.043-.15-.101-.019-.07.016-.132.035-.195.055-.063.21-.023.176-.165-.029-.073-.115-.053-.15-.108.03-.06.091-.061.144-.095a.452.452 0 0 0 .253.178l.028.178.134.074c-.073.132.012.256-.006.419.181-.1.11-.312.265-.413.133.107.309.144.466.189.048.069.054.128.037.23-.394-.02-.736.225-1.143.25-.013-.168-.003-.314-.089-.441m-7.777 5.655c-.176-.089-.407-.016-.574-.179-.074.026-.145.069-.254.069-.056-.021-.119-.122-.236-.028.06-.239.266-.285.375-.427l.153.045c.141-.046.237-.247.412-.11.094-.009.16-.125.269-.049-.025.148-.212.168-.249.309.055.057.098.012.126-.019.072-.08.159-.14.238-.21.201-.178.199-.18.463-.049-.056.178-.401.489-.723.648m14.205 2.083c-.041-.065-.146.005-.191-.101.288.002.562.032.841-.014-.01.102-.106.046-.128.113.203.077.45-.079.598.082 1.127.107 2.216-.041 3.309-.022-.131-.093-.291-.016-.47-.11.319-.063.583.003.849.023-.055.073-.146.033-.212.1.248.086.505-.061.74.059-.039.092-.111.069-.167.068-.468-.013-.935-.039-1.403-.042-.235-.001-.471.029-.708.036-.393.011-.785-.001-1.178.002-.247.002-.497.032-.741.004-.414-.047-.83-.056-1.244-.097-.03-.003-.059-.012-.097-.02.062-.062.148-.017.202-.081M8.829 6.467c-.362-.081-.721-.137-1.084-.284.106-.125.211-.204.208-.322.112-.157.244-.214.416-.167.235.065.473.025.71.014.042-.002.086-.026.131.031-.095.253-.283.45-.381.728m20.949 2.7c-.023.122-.147.036-.187.142h3.648c-.073.154-.169.201-.295.198-.556-.015-1.112.019-1.667-.022-.108-.008-.212.006-.317.015-.262.023-.504-.123-.771-.076-.152.026-.312.007-.466.028-.122.017-.197-.062-.284-.102-.376-.019-.741.052-1.111.015.463-.21.96-.135 1.45-.198m-3.723-1.762a.517.517 0 0 1-.146.242c-.111.02-.188-.028-.249-.118.044-.135.15-.221.233-.318.255-.298.49-.607.7-.939.187-.293.488-.48.732-.72.468-.458.943-.906 1.394-1.382.277-.292.489-.628.746-.932.03-.036.037-.092.055-.138.023-.059.058-.096.123-.063.034.039.024.072.001.106-.465.663-.937 1.322-1.543 1.867-.52.467-.981.99-1.482 1.474-.031.03-.079.065-.08.1-.013.234-.211.321-.346.46-.11.114-.202.246-.301.37l.029.029.134-.038m-14.61 2.168l-.001.087c-1.171-.178-2.342-.05-3.514-.057.248.136.516.003.769.088-.457.092-.922.027-1.382.028-.479.002-.961.071-1.438.005-.469-.064-.94-.044-1.409-.075-.011-.055.06-.018.044-.095-.038-.061-.162.02-.243-.079.287-.015.552.026.819-.016.134.162.323.158.5.159.303.001.605.067.91.002.119-.025.249.006.373.004.151-.002.305-.004.381-.147 1.408.024 2.804-.06 4.191.096m5.048-6.354c-.068-.061-.093-.111-.044-.185.087-.051.13.017.182.057.048.036.089.097.169.024-.058-.09-.165-.124-.235-.197-.085-.089-.075-.19-.065-.3.182-.015.096.235.268.226.054-.142.197-.238.236-.409.028-.122.148-.172.264-.17.136.003.286-.013.411.133-.183.045-.367-.009-.517.102.066.122.155.198.278.202.087-.003.116-.099.211-.079.068.057.083.144.085.241-.147.079-.255.211-.435.214.008.177.146.147.241.193.066.044.054.138.14.222-.479.105-.858.023-1.189-.274m25.657 7.774c-.524-.05-1.052.029-1.571-.04-.513-.068-1.035.087-1.543-.038l.001-.056c.249-.017.502-.063.748-.043.623.049 1.245.059 1.869.071.475.009.948-.03 1.422-.045.331-.011.664.024.988-.014.222-.026.439-.019.658-.027.313-.012.622.005.931.054.128.021.262.004.392.011.074.004.152.012.202.151-.628-.104-1.24-.078-1.659-.104-.864.057-1.545.039-2.224.082.309-.008.602.17.929.042.134-.052.311-.019.463.008.211.039.414.05.628.013.137-.024.285-.003.426.016.117.015.225.031.293-.08.213.02.411-.006.645.049-.2.208-.378-.001-.569.051-.077.083-.202.069-.327.061-.405-.028-.809.044-1.214.012-.53-.041-1.06-.009-1.591-.007-.181 0-.35-.06-.571-.075.241-.151.472.01.674-.092M14.958 5.891c-.128-.005-.176.122-.271.172-.02-.151.085-.289.249-.351.071-.002.075.082.134.097.068 0 .121-.071.185-.045.072-.002.041.077.098.093.128-.049.207-.182.367-.261.037.333-.11.634-.047.929l-.148.155c.024.159.105.312.043.484-.113.057-.199.157-.298.24-.09.076-.177.085-.238-.037-.076-.002-.141.074-.226.014.014-.174.224-.177.297-.348-.223.06-.323.296-.532.327-.026-.082.042-.087.06-.137-.238-.193.139-.391-.016-.602l.629-.697c-.258.119-.401.327-.609.449 0-.236.253-.289.323-.482m19.073.568c.041.143.158.02.246.07.029.075.118.16-.01.255.067.069.2.069.199.22a2.986 2.986 0 0 1-1.118.205c-.079-.369-.277-.673-.37-1.02l.121-.134c-.079-.064-.217-.038-.229-.181.007-.058.095-.039.118-.09.002-.041-.072-.04-.045-.093a.41.41 0 0 1 .238-.012c.062.072-.006.159.025.229.053.048.093.028.134-.006.011-.082-.063-.162.019-.248.025-.017.066-.015.108.005.074.075-.03.257.173.283l-.04-.294h.263a.175.175 0 0 1 .095.147c-.014.062-.087.056-.111.122.078.087.283.064.258.262-.024.061-.124.013-.146.088.026.132.203-.05.224.098-.042.05-.117.026-.152.094m-25.714.022c1.166.305 2.354.5 3.54.706.918.16 1.845.227 2.766.352.741.1 1.492.143 2.241.175.773.032 1.544.113 2.318.142.842.03 1.685.059 2.527.077 1.091.023 2.182.011 3.273 0 .118-.001.236-.001.354.024.086.019.175.02.255-.028.145-.087.272-.031.429.048-.152.084-.291.039-.416.041l-2.322.05c-.924.019-1.848-.01-2.772-.032a45.092 45.092 0 0 1-2.601-.123c-1.095-.091-2.196-.106-3.287-.245-1.027-.131-2.064-.199-3.082-.383-1.087-.196-2.176-.384-3.246-.664-.062-.016-.122-.024-.141-.106.055-.069.11-.048.164-.034m9.824-1.599c2.343-.1 4.658-.091 6.973-.079 0 .045.007.066-.001.08a8.207 8.207 0 0 1-.127.244.212.212 0 0 1-.181.046c-.346-.054-.699.002-1.043-.061-.302-.056-.595.038-.893.034-.449-.005-.898.019-1.346.002-.446-.016-.886.042-1.329.053-.423.011-.845.048-1.268.057-.162.004-.32.039-.5.045-.062-.159-.192-.247-.285-.421M3.203 4.328c1.016.514 2.098.732 3.223.826.944.078 1.886.04 2.829.044.661.003 1.324.018 1.985-.032.622-.046 1.246-.078 1.868-.134.56-.051 1.121-.059 1.674-.071.152.105.082.208.022.312a.73.73 0 0 1-.368.067c-.956-.022-1.911.021-2.866.061-.586.025-1.175-.004-1.761.022a28.34 28.34 0 0 1-1.797.021c-.679-.013-1.356-.049-2.03-.167-.446-.077-.89-.165-1.334-.246-.06-.011-.125-.018-.201.037.099.189.341.178.455.338-.786-.365-1.526-.811-2.249-1.284.223-.024.379.119.55.206m26.829 3.397c.56-.042 1.118-.101 1.677-.163a61.534 61.534 0 0 0 3.17-.429 59.43 59.43 0 0 0 2.444-.463c1.032-.211 2.063-.442 3.054-.807.642-.237 1.288-.468 1.889-.803.021-.011.047-.015.038-.012.103-.019.129.076.212.059.072-.084-.014-.184.021-.269a1.01 1.01 0 0 1-.159-.285c.85-.203 1.679-.449 2.447-.87a3.252 3.252 0 0 1-.86.783c-.342.216-.683.433-1.036.632a6.728 6.728 0 0 1-.809.377c-.549.221-1.115.402-1.679.583-.26.084-.535.119-.799.195-.504.143-1.01.275-1.524.379-.774.157-1.544.33-2.32.478-.703.133-1.407.276-2.117.351-.867.092-1.726.246-2.601.295-.374.021-.752.075-1.129.098-.047.003-.099.021-.154-.029.055-.106.155-.094.235-.1m1.277-2.296c.088.328.086.672.244.992.149.304.227.644.254.986-.071.05-.136.04-.221.012a2.512 2.512 0 0 1-.261-.893 2.737 2.737 0 0 0-.211-.847c-.018-.039-.044-.079-.049-.12-.027-.194-.139-.268-.326-.254-.036.003-.074-.007-.11-.011-.064-.078-.104-.158-.057-.28.19-.012.388-.039.584-.033 1.193.037 2.386.065 3.58.055.736-.006 1.473.009 2.209-.008.742-.017 1.483-.03 2.225-.079.705-.046 1.4-.17 2.104-.211.322-.019.641-.092.953-.139.054.059.043.113.023.186a9.789 9.789 0 0 1-1.042.168c-.546.061-1.089.14-1.636.189-.557.05-1.116.106-1.678.09-.706-.021-1.41.049-2.116.059-.587.009-1.173.018-1.759.061-.321.024-.648-.02-.972-.039-.144-.008-.285 0-.471.045.194.635.489 1.228.657 1.869-.167.06-.229-.02-.27-.139-.122-.353-.248-.706-.363-1.062-.057-.179-.156-.34-.198-.525a.213.213 0 0 0-.187-.165c-.285-.025-.57-.039-.834-.055-.066.049-.086.096-.072.148M9.53 9.192c.066.131.214.079.313.157-.215.02-.427.063-.643.018-.474-.098-.953-.182-1.42-.309-.353-.096-.718-.135-1.065-.255-.225-.078-.464-.085-.696-.134-.354-.075-.681-.243-1.036-.309-.343-.064-.665-.207-1.013-.248l.002-.003c.205.142.448.186.679.247.344.092.685.189 1.024.292.328.1.664.175 1 .241.269.052.523.153.796.196.417.067.828.172 1.242.263.016.003.03.014.075.038-.413-.003-.794.029-1.144-.109-.266.139-.536-.011-.775.085-.167-.226-.425-.125-.617-.222.11.099.261.097.385.166a52.15 52.15 0 0 1-4.83-1.101c1.405.479 2.851.797 4.301 1.112-.418.067-.827.003-1.261-.044-.208.093-.458.078-.688.016-.53-.14-1.054-.299-1.59-.418-.255-.058-.503-.144-.752-.226-.09-.03-.195-.053-.244-.15.006-.066.051-.069.096-.071l-.004.003c-.054-.101-.204-.103-.235-.242l.055-.093c-.04-.07-.139-.083-.141-.22 1.483.476 2.982.843 4.494 1.165-.206-.047-.39-.158-.595-.203-.835-.182-1.668-.363-2.485-.618-.392-.123-.791-.223-1.184-.345-.112-.036-.265-.05-.281-.233.031-.006.057-.02.076-.014.436.146.88.265 1.307.436l-.002.002c-.045-.127-.162-.148-.269-.173-.359-.085-.699-.225-1.047-.342-.06-.02-.114-.055-.131-.124-.022-.064.032-.103.052-.146-.01-.074-.097-.113-.062-.21.183-.002.342.115.541.139-.12-.141-.283-.147-.423-.202-.149-.058-.162-.12-.051-.236.652.308 1.351.492 2.031.724.436.148.888.246 1.327.386.492.157.997.263 1.494.402.242.067.498.01.745.06.078.016.159.02.238.043.074.022.152.054.265-.018-.408-.185-.853-.081-1.206-.287-.083.037-.005.067-.032.127C4.495 7.77 2.847 7.312 1.27 6.69c-.044-.095-.049-.16.005-.266 1.197.646 2.528.902 3.801 1.331-.245-.167-.524-.256-.805-.326-.441-.109-.872-.252-1.306-.384-.586-.178-1.127-.465-1.683-.69-.03-.068-.025-.121.007-.195.264-.005.447.224.74.259-.237-.162-.468-.253-.684-.368-.04-.054-.038-.104.007-.152.053-.03.098-.006.142.019.522.29 1.051.576 1.617.763.539.178 1.059.402 1.596.587.605.208 1.188.479 1.788.704.271.102.551.198.84.229.309.034.586.169.881.246.854.222 1.726.338 2.595.472.203.032.404.078.606.12.084.017.168.05.276-.005-.173-.078-.347-.087-.511-.116-.706-.127-1.418-.224-2.123-.358a8.666 8.666 0 0 1-1.158-.297c-.296-.1-.605-.145-.907-.216-.37-.086-.717-.249-1.073-.383-.92-.345-1.829-.72-2.758-1.044a10.02 10.02 0 0 1-1.626-.751c-.055-.031-.112-.057-.141-.125-.004-.08.037-.122.132-.13.126.084.252.189.418.216-.113-.159-.323-.182-.458-.321.037-.121.125-.216.137-.357.251.025.425.194.635.275-.146-.177-.375-.242-.535-.386-.021-.094.013-.142.119-.167.365.191.71.462 1.143.57l-1.114-.663c-.022-.08.002-.119.071-.177.367.234.748.462 1.142.666l.027-.048a83.712 83.712 0 0 0-.502-.305c-.177-.105-.353-.21-.532-.311-.066-.037-.098-.075-.039-.162.219.009.378.163.552.272.44.274.89.528 1.364.738.071.031.15.043.236.041-.751-.291-1.395-.753-2.059-1.18l.044-.078c.271.116.489.332.756.46.28.134.543.303.818.45.265.141.535.273.813.388-.223-.218-.531-.283-.786-.445-.263-.166-.539-.312-.8-.481-.246-.159-.53-.268-.75-.509.166-.075.242.028.315.087.391.315.83.551 1.265.796.331.187.658.384 1.001.546.512.243 1.042.448 1.564.667.599.251 1.226.383 1.847.543a32.15 32.15 0 0 0 2.383.49c.474.084.946.174 1.423.235.755.098 1.512.182 2.269.273 1.501.179 3.012.225 4.518.349.702.057 1.41.049 2.115.079.975.041 1.95.041 2.924.01.806-.025 1.612-.001 2.416-.042.275-.014.524.115.796.102a1.5 1.5 0 0 1 .642.097c-.801.024-1.596.105-2.404.126l-.12-.098c-.242.167-.513.115-.769.122-.697.019-1.394.03-2.091.031-.655 0-1.312.009-1.965-.033-.641-.041-1.284-.028-1.922-.075-.841-.061-1.683-.107-2.521-.202-.794-.09-1.591-.152-2.384-.247-.576-.069-1.155-.115-1.725-.236a7.705 7.705 0 0 0-1.032-.134c-.282-.021-.556-.137-.836-.2a42.062 42.062 0 0 1-2.498-.657c-.43-.126-.863-.251-1.278-.424-.222-.093-.434-.211-.649-.322-.135-.071-.27-.131-.406-.076-.088 0-.14-.071-.235-.044.099.11.223.146.336.195.857.367 1.743.646 2.639.899.649.184 1.299.367 1.956.514 1.003.225 2.018.401 3.041.523.719.085 1.438.172 2.158.251.379.041.759.065 1.137.098.647.057 1.294.125 1.942.169.554.038 1.111.043 1.666.073.499.028.999.021 1.498.043.605.028 1.211.015 1.817.008.875-.009 1.749-.024 2.623-.047.554-.014 1.108-.067 1.662-.067.506-.001 1.008-.057 1.513-.071.412-.011.823-.053 1.234-.085.56-.043 1.12-.088 1.679-.133a39.124 39.124 0 0 0 2.341-.282c.66-.094 1.321-.191 1.981-.291.252-.038.505-.079.753-.139.977-.235 1.956-.456 2.915-.763.498-.16.995-.327 1.497-.479a.8.8 0 0 0 .369-.205.334.334 0 0 0-.253.01c-.502.208-1.025.351-1.54.517-.48.155-.965.29-1.449.43-.395.113-.797.2-1.2.281-.568.113-1.137.219-1.709.313a52.727 52.727 0 0 1-4.895.527c-.515.029-1.031.092-1.547.132-.089.007-.181.037-.271-.016.038-.098.118-.112.187-.124.429-.068.848-.186 1.295-.159.241.014.493-.026.741-.08.29-.063.594-.047.891-.092.938-.142 1.89-.196 2.822-.377 1.169-.229 2.346-.411 3.509-.678 1.17-.268 2.335-.542 3.463-.952.631-.23 1.263-.472 1.826-.843.456-.302.922-.594 1.312-.987a.853.853 0 0 1 .282-.205c.05.044.044.078.005.115a8.993 8.993 0 0 1-.986.765c-.224.156-.453.304-.679.456-.119.08-.242.157-.379.203-.273.09-.516.244-.775.366-.151.071-.317.109-.481.207.148.093.253-.085.397-.024-.137.182-.378.175-.519.323-.042.047-.036.098-.005.158.15.02.248-.097.357-.137.056-.049.003-.128.087-.16.04.053.032.136.098.17-.167.158-.382.192-.584.278.073.048.137-.037.204.036-.15.069-.293.141-.439.202-.38.156-.783.244-1.168.383-.304.109-.606.224-.915.32-.637.198-1.279.377-1.93.524-.989.226-1.99.391-2.99.561a25.68 25.68 0 0 1-2.415.298c-.391.028-.781.085-1.174.108-.561.032-1.12.076-1.68.122-.547.046-1.093.1-1.642.124-.537.023-1.076.016-1.611.045-.775.041-1.548-.005-2.323.014-.774.019-1.549.007-2.324.027-.562.015-1.124-.035-1.684-.03-1.09.01-2.169-.128-3.253-.187-.136-.008-.271-.052-.407-.058a35.238 35.238 0 0 1-2.104-.179c-1.263-.138-2.502-.41-3.735-.698a29.284 29.284 0 0 1-2.541-.71c-.67-.22-1.344-.428-2.01-.657-.335-.116-.658-.267-.986-.404-.043-.018-.069-.052-.081-.11.044-.124.152-.238.135-.394-.074.119-.239.176-.221.373a2.884 2.884 0 0 1-.715-.217c-.373-.153-.727-.353-1.125-.442.231.192.514.276.784.387.322.133.664.229.97.386.405.207.813.402 1.231.579.301.127.625.176.929.288.097.036.193.075.282.136-.53-.158-1.057-.323-1.603-.435-.003.078.039.086.072.097.759.251 1.541.413 2.314.608.779.196 1.558.395 2.329.619.858.249 1.735.401 2.613.555.293.051.592.09.878.185.309.104.635.13.955.178.204.031.394.108.594.184-.136 0-.275.021-.406-.003a41.596 41.596 0 0 1-1.591-.332c-.583-.132-1.18-.196-1.771-.292-.277-.045-.552-.104-.829-.149-.431-.071-.856-.165-1.287-.233-.311-.049-.591-.189-.879-.296-.305-.113-.617-.189-.925-.282-.81-.246-1.639-.421-2.432-.731-.63-.247-1.258-.503-1.885-.759-.218-.089-.424-.208-.632-.321a.646.646 0 0 0-.264-.085c.045.138.185.137.286.186.538.261 1.08.513 1.637.732.296.117.595.228.897.325.275.088.539.194.784.347.068.043.142.035.216.044.08.011.183-.022.211.08.437-.047.788.195 1.175.288-.288-.011-.558-.105-.838-.155.328.088.616.345.995.218.037-.013.088-.004.128.009.223.07.445.139.663.226a5.85 5.85 0 0 0 1.042.297 66.23 66.23 0 0 0 2.579.456.974.974 0 0 1 .341.14c.191.111.423.09.634.142.159.039.319.074.473.137a37.99 37.99 0 0 1-5.356-.833c.72.231 1.46.37 2.2.505.738.135 1.47.307 2.228.306l.002.056c-.157.005-.315.017-.472.015a6.109 6.109 0 0 1-.524-.028 3.33 3.33 0 0 1-.498-.078c-.162-.042-.32-.086-.49-.064.16.078.347.067.506.143l-.01.053-1.223-.178.003-.003zm28.349-.058c-.112.03-.235.019-.353.022l-2.205.063c-.022.001-.045-.012-.068-.018.008-.019.011-.036.016-.037.407-.037.807-.116 1.223-.092.44.025.884-.004 1.323-.075.069-.012.147-.002.224-.054-.08-.064-.172.022-.243-.053.043-.063.114-.061.176-.075.643-.151 1.298-.253 1.939-.407.671-.162 1.348-.311 2.002-.539a.512.512 0 0 0 .219-.135c-.314.027-.607.146-.905.23-.294.082-.599.133-.883.236-.432.156-.884.215-1.325.316-.381.087-.761.202-1.153.236-.12.011-.197.1-.311.121-.192.036-.389.009-.577.039-.517.082-1.045.038-1.557.151-.265.059-.536.023-.803.053-.391.043-.785.059-1.177.084-.408.026-.819.006-1.23-.009.417.004.823-.098 1.239-.121-.576-.045-1.149.038-1.727.003.216-.029.435-.041.646-.09.351-.083.706-.081 1.061-.081a.317.317 0 0 0 .111-.015c.785-.284 1.617-.339 2.427-.503.23-.046.459-.035.688-.051.177-.012.342-.055.509-.106-.03-.002-.063.005-.088-.061 1.272-.29 2.516-.677 3.795-.925-.186-.065-.351.051-.544.039.067-.067.15-.053.219-.078.692-.246 1.401-.444 2.086-.713a10.524 10.524 0 0 0 1.493-.731c.476-.283.946-.576 1.418-.865.063-.038.124-.072.177.067-1.351.93-2.805 1.656-4.393 2.118.15.04.279-.016.406-.052a10.43 10.43 0 0 0 1.792-.695c.34-.169.688-.323 1.023-.504.273-.148.543-.305.805-.472.127-.082.273-.111.403-.211.042.127-.038.157-.096.192a20.26 20.26 0 0 1-1.08.597c-.487.253-.978.499-1.485.709-.58.241-1.168.466-1.781.614-.417.101-.835.203-1.248.317-.69.191-1.387.352-2.092.477-.221.039-.44.092-.663.12-.055.007-.114.009-.152.061.067.033.135.011.202.002 1.187-.144 2.334-.463 3.489-.756.862-.22 1.698-.508 2.514-.856.79-.339 1.553-.735 2.306-1.151.063-.034.128-.089.205.033-1.384.781-2.807 1.453-4.34 1.902.063.098.126.068.183.053.422-.116.832-.268 1.236-.431.729-.293 1.436-.637 2.144-.976.212-.102.438-.181.625-.333.049-.04.107-.067.183-.003-.596.47-1.328.66-1.981 1.002-.654.342-1.341.608-2.037.856.143.066.266-.014.386-.051.595-.187 1.156-.462 1.723-.717.345-.155.689-.311 1.044-.443.14-.052.215-.213.381-.22.036-.001.073-.009.109-.015.119-.103.23-.217.402-.231-.093.148-.252.182-.404.229-.001.08-.067.099-.122.125-.361.175-.702.388-1.065.562-.515.248-1.032.487-1.57.678-.165.058-.336.095-.503.145-.057.017-.128.022-.142.102.331-.008.632-.138.934-.25a14.118 14.118 0 0 0 1.905-.864c.252-.138.481-.314.746-.428.08-.035.159-.1.254-.048.014.076-.033.097-.077.122-.6.331-1.193.67-1.828.938-.564.238-1.123.481-1.715.634-.34.088-.645.275-.992.331-.537.087-1.054.253-1.58.383-.394.097-.799.119-1.196.196-.099.019-.207.018-.289.097.907-.021 1.777-.267 2.648-.471.882-.207 1.741-.515 2.593-.829.84-.309 1.626-.738 2.415-1.161l.046.089c-.386.275-.821.467-1.242.681-.434.222-.895.381-1.351.55a12.32 12.32 0 0 1-1.382.425c.062.094.121.07.171.057.702-.178 1.378-.432 2.052-.697.385-.151.738-.363 1.121-.515.138-.055.254-.159.401-.198.054-.014.111-.069.181.006-.095.094-.218.137-.329.192-.352.173-.716.32-1.064.5-.384.199-.795.322-1.192.485-.366.149-.748.238-1.129.337-.135.035-.258-.033-.402.002-.877.215-1.75.45-2.648.567-.133.016-.271.034-.39.109.508-.004 1.005-.091 1.497-.207.431-.101.864-.189 1.291-.308.261-.073.545-.037.812-.115.465-.137.941-.238 1.389-.431a.308.308 0 0 1 .148-.019c-.009.081-.07.079-.119.098-.606.235-1.249.347-1.865.544-.562.179-1.139.271-1.717.359-.255.039-.499.116-.746.179-.346.089-.689.015-1.035.037.098-.103.236-.091.35-.14-.31.025-.614.081-.915.16m3.286 1.524c-.256.196-1.89.14-2.076-.049-.155-.01-.316-.028-.447-.01-.092.027-.036.091-.08.124a.179.179 0 0 1-.137.008c-.049-.052.058-.061.016-.126-.737.015-1.486.02-2.377-.005-.21.046-.566.08-.938.013-.22.087-.451.058-.681.003-.006-.07.045-.059.076-.065.22-.039.442-.074.663-.114.181-.033.34.065.515.076.095.005.184.021.269-.04a.186.186 0 0 1 .104-.033c.336.008.672.041 1.007.025.361-.017.717.121 1.079.014.166-.049.326.051.499.032.168-.018.347-.026.533.035.029.113.117.117.235.114.255-.007.511.016.767.022.22.004.442.001.641.001.055-.065.024-.094.004-.124-.133-.14-.31-.069-.462-.08-.323-.024-.651.021-.972-.012a4.748 4.748 0 0 0-1.059-.01.282.282 0 0 1-.217-.06c.17-.027.31-.076.447-.066.461.032.922.024 1.382.044.305.014.612-.012.914.039.378.064.754-.025 1.13-.003.663.038 1.327-.059 1.99.026.109.014.224-.019.328.031.036.056-.058.043-.033.102.508.02 1.017.124 1.538.133-.202.087-.408.037-.612.03-.217-.009-.442.045-.651-.021-.203-.065-.452.026-.619-.198-.353.029-.71-.03-1.073-.005-.384.026-.772.006-1.157.009-.248.002-.496.045-.74-.027-.066-.019-.106.02-.138.071.115.001.173.141.332.096M27.536 7.515c-.057.064-.003.127-.051.19a.696.696 0 0 1-.528.049c.175-.158.379-.255.459-.466-.213.162-.445.3-.609.51-.095.017-.179.038-.285-.002.077-.208.343-.242.406-.452-.253.092-.395.316-.588.493-.125.024-.213-.054-.322-.144.139-.215.27-.426.504-.552.203-.109.34-.294.481-.464a14.233 14.233 0 0 1 1.625-1.678c.421-.366.719-.824.983-1.308.011-.021.025-.039.051-.079.05.1-.004.157-.035.216a6.319 6.319 0 0 1-.858 1.236c-.098.11-.242.166-.353.27-.425.396-.842.808-1.173 1.28-.244.347-.561.585-.876.842-.073.06-.11.146-.151.219.04.046.075.04.094.015.17-.232.391-.404.617-.58.235-.183.405-.439.599-.667.29-.342.587-.68.904-.998.097-.098.195-.196.314-.201.395-.396.7-.828.983-1.28-.172.503-.537.884-.824 1.316.183-.039.236-.219.361-.316.119-.092.125-.32.355-.309-.383.569-.865 1.026-1.304 1.519a4.07 4.07 0 0 0-.351.437c-.165.244-.404.426-.553.682.183-.072.293-.23.414-.368.366-.415.709-.851 1.084-1.257.156-.169.317-.331.449-.52.018-.026.045-.043.09-.026.028.088-.09.126-.079.189-.03.106.096.21-.031.287-.068.036-.092-.063-.146-.048-.108.052-.146.138-.137.26-.368.315-.69.679-.981 1.066-.144.192-.381.313-.438.57.41-.307.687-.737 1.035-1.101.192-.203.395-.395.594-.591.03-.029.059-.068.127-.04-.004.147-.11.245-.204.327-.38.333-.705.714-1.019 1.107-.124.156-.286.275-.44.398-.029.023-.065.041-.105.016-.034-.045.017-.079.016-.12l-.104.073m14.797-1.367c-.061-.059-.038-.118-.016-.188.126-.095.284-.145.434-.194.408-.133.765-.359 1.125-.58.392-.24.773-.501 1.136-.786.073-.057.14-.123.211-.183.053-.045.109-.09.177-.005-.055.124-.176.175-.27.248-.484.374-.978.734-1.508 1.038-.274.157-.547.325-.849.433a.349.349 0 0 0-.2.158c.509-.144.958-.412 1.402-.69.466-.291.911-.608 1.339-.951.049-.038.1-.075.173-.064.073.084.035.141-.045.193-.556.367-1.108.739-1.687 1.071-.396.227-.805.42-1.236.568-.111.038-.179.162-.319.146.069-.177.275-.157.378-.277-.091-.014-.158.072-.245.063M15.797 5.127c.059.15.016.285-.065.42-.108.04-.228.052-.311.173-.069-.14.022-.172.074-.222.052-.049.129-.074.169-.16-.108-.034-.152.039-.207.089-.059.054-.122.102-.173.145-.117.01-.196-.14-.316-.003.02-.195.215-.214.252-.355-.049-.057-.085.037-.145.003l.109-.236a.198.198 0 0 1-.132.004c-.051-.055-.056-.132-.083-.203a.778.778 0 0 1 .384-.425.705.705 0 0 0 .313.069c-.178.202-.426.301-.482.555.125-.083.21-.207.321-.305.055-.049.112-.128.212-.049-.026.165-.232.192-.278.344.159.04.192-.172.33-.157.064.043.05.098.039.157-.072.072-.193.083-.249.18l-.003-.004c.082.045.151-.052.241-.02m1.1.842c.075-.071.141-.153.225-.207.11.043.037.124.056.182l-.003-.003c.029.005.062.002.082.032-.412.528-1.049 1.082-1.238 1.075-.04-.103.097-.117.102-.188-.017-.072-.096-.035-.122-.097.004-.127.163-.154.201-.266-.042.012-.084.022-.129-.01-.023-.059.01-.115.025-.181.28-.217.571-.428.817-.693.048-.052.111-.111.188-.031.016.061-.018.09-.061.123-.281.214-.486.514-.79.703a.108.108 0 0 0-.054.094c.278-.12.487-.33.701-.533m-.844-.68l.534-.461c.088.059.021.117.036.167.004.057.09.045.091.113l-.716.58c-.087-.199.147-.192.157-.312l.004.003c-.039-.014-.091-.007-.106-.09m15.044 1.819c.044.107.044.231.12.315-.025.069-.06.078-.124.048-.038-.227-.191-.449-.078-.706-.122-.139-.121-.296-.066-.462a.816.816 0 0 1 .063.465c.1.094.039.229.085.34m-2.465-5.635c.068-.084.127-.172.111-.288a.879.879 0 0 1 .028-.335c.074-.286-.184-.673-.462-.771-.595-.208-1.088.021-1.546.367-.104.079-.227.197-.2.343a.611.611 0 0 1-.067.429c-.018.033-.012.073.006.104.086.127.234.05.354.106-.056.131-.181.224-.157.358.033.132.153.138.223.193.071.125-.011.253.011.328.06.148.197.114.267.218-.196.061-.377.122-.561.173-.456.125-.727.49-.699.949-.052.071-.148.015-.218.086-.123.224-.256.462-.386.703-.054.101-.129.138-.245.128a5.774 5.774 0 0 0-.617-.022c-.737.021-1.474.015-2.211.032-.929.02-1.859.042-2.788.071-.492.015-.985.021-1.5.068-.042-.289-.283-.44-.446-.648-.071-.09-.158-.181-.122-.322.123-.097.331-.048.401-.206.018-.095-.053-.146-.048-.241.086-.097.016-.283.158-.36.054-.151-.133-.227-.082-.36.086-.078.216-.031.285-.108.092-.211-.242-.239-.192-.43.099-.021.12.096.214.063-.053-.154-.218-.194-.265-.268-.511-.187-.978-.364-1.516-.4.076.052.146.039.164.109-.109.052-.218-.004-.327-.001.003.061.093.029.073.108-.121.06-.236.156-.334.17-.178.262-.126.486.028.699a.027.027 0 0 1 .004.018c-.003.23.07.417.288.493.032.122-.001.197-.076.258-.053.043-.114.083-.139.149-.069.185-.223.278-.382.367l-.342.194c-.189.108-.344.242-.408.466a.698.698 0 0 1-.166.305c-.875.053-1.761-.125-2.662.031-.302-.061-.983-.032-1.312.058-.097.026-.195.042-.293-.006a.386.386 0 0 0-.202-.025c-.524.044-1.047.08-1.57.131-.498.049-.996.002-1.494.007a9.985 9.985 0 0 1-2.124-.187 6.02 6.02 0 0 1-1.473-.48c-.325-.16-.635-.346-.95-.522-.188-.105-.319-.072-.444.096-.52.691-.912 1.445-1.082 2.3-.095.482-.088.963.016 1.399.078.737.443 1.276.952 1.777h-.684c-.138-.052-.124-.316-.337-.249l-.068.137c-.079.082-.178-.01-.225.096.056.104.156.101.255.106.342.016.685.015 1.027.004.071-.003.141.011.132.109-.136.108-.351-.035-.465.134.079.2.268.078.387.159-.149.212-.396-.012-.553.14.012.072.057.12.101.171.2-.102.374.028.54.025.045.06-.044.097.021.136.076-.011.16.002.243-.07.053-.031-.029-.111.02-.156.139-.046.197.038.237.156.195-.008.386-.024.575-.023.2.001.4.017.599.03.185.011.37.026.555.04-.657.101-1.317-.018-1.971.079 1.026.03 2.052.08 3.079.003-.312-.12-.65.021-1.009-.086.425-.143.817-.048 1.2-.113.005.1-.099.093-.083.174.094.08.207.042.314.027.36-.05.724-.054 1.084-.029.427.029.849-.003 1.271-.051a9.757 9.757 0 0 1 1.603-.067c.254.012.503-.052.753-.091-.387-.015-.772-.015-1.157-.015-.206-.001-.417-.03-.617.004-.843.141-1.69.109-2.538.101-.045-.001-.099.008-.153-.071.383-.01.746-.03 1.102-.104-.245-.064-.484.026-.722.015-.357-.016-.71.039-1.065.04-.211.001-.428-.033-.634.013-.34.076-.677.1-1.021.044-.054-.009-.112.007-.168.007-.193-.002-.389.048-.581-.024.208-.067.446.002.638-.14-.229-.097-.472-.019-.72-.061.174-.126 1.241-.123 1.409-.009-.157.051-.325-.014-.482.066.444.006.887.045 1.347-.023-.202-.12-.427.099-.617-.089.236-.015.455-.047.672-.036.202.011.395-.085.593-.039.193.045.385.031.578.027.168-.004.338-.033.504-.018.411.039.821.003 1.232.005.505.003 1.01-.03 1.516-.026.061 0 .132.019.194-.038-.084-.07-.191-.004-.261-.085.382.011.765-.066 1.145.016.141.03.279.075.424.06.365-.039.729-.098 1.096-.015.047.01.099-.005.149-.005l1.211-.001c-.435.077-.905.11-1.376.08-.219-.014-.434-.03-.652-.003-.453.057-.909.028-1.363.055-.255.016-.511.001-.767.031-.251.029-.502.058-.763.019-.279-.042-.565.015-.873.074.1.083.183.054.26.05.205-.012.412-.078.615-.042.289.051.572.027.857-.006.112-.012.223-.025.336-.015.442.039.884-.018 1.321-.057.486-.045.97.003 1.454-.025.053-.003.107.02.161.03-.602.031-1.205.003-1.799.135.317.078.63-.049.944-.027.326.024.649-.012.974-.009.317.002.633-.066.966-.038-.054.122-.138.099-.209.1-.596.007-1.192.052-1.789.062-.565.01-1.132.085-1.699.119-.054.003-.13-.01-.15.075.189.066.376.113.578.117.136.002.269.013.408-.003.191-.022.394-.051.577-.011.374.082.748.017 1.115.005.466-.016.935-.031 1.402-.053.214-.01.429.039.642-.032-.759-.072-1.521-.001-2.28-.045.165-.046.33-.069.495-.072.511-.008 1.023.018 1.535-.022.183-.015.408-.078.55.157.997-.09 2 .027 2.999-.09-.481-.019-.965.003-1.441-.034-.48-.036-.955.083-1.431.008.224-.043.458-.009.672-.122-.286-.037-.572.057-.878.006.084-.072.171-.02.231-.068.01-.076-.111-.029-.096-.125.577.035 1.155.031 1.734.071l-.417.039c.22.033.437.035.653.032.537-.007 1.073-.018 1.61-.024.143-.002.282.053.428.018.269-.065.547-.046.82-.054.441-.013.885-.01 1.327.031.054.005.117.017.172-.042-.035-.012-.051-.023-.069-.024a12.24 12.24 0 0 0-2.352.023c-.055.006-.116.023-.167.008-.258-.075-.521-.03-.782-.038-.318-.01-.636-.002-.969-.002-.004-.043-.025-.103-.101-.176.304.047.563.087.823.035-.282-.055-.282-.055-.321-.131.245-.021.479.063.721.054.248-.009.495.03.746.006.241-.024.488-.015.729.011.244.027.479.038.711-.056-.182-.032-.362.021-.544-.002-.185-.024-.375-.015-.56-.036-.19-.022-.371.049-.559.037-.301-.02-.372-.035-.517-.12.365-.094.731.023 1.098-.001.369-.024.739-.024 1.153-.07-.107-.091-.187-.08-.265-.075-.281.018-.561.037-.842.053-.071.005-.15.017-.174-.114 2.932-.043 5.852.007 8.816-.134a.402.402 0 0 1-.278.11c-.947.057-1.894.114-2.841.176-.528.035-1.048.147-1.58.151-.656.005-1.311.03-1.966.051-.155.004-.309.025-.504.042.105.083.181.062.252.063.226.004.446-.049.673-.047.405.004.812.007 1.217-.017.588-.034 1.175-.07 1.763-.131 1.133-.119 2.275-.22 3.419-.19.142.004.29-.053.44.01-.018.125-.104.125-.183.125-.231.001-.462-.005-.693-.004-.888.006-1.771.1-2.657.132-.029.002-.064-.004-.079.044.046.058.112.028.169.029.501.006.997-.066 1.495-.095.737-.044 1.482.077 2.211-.139.275-.082.573.013.858-.036a.153.153 0 0 1 .107.025c.107.091.233.08.357.075.298-.012.597-.03.896-.045.016-.001.032.008.05.014-.01.05-.106.037-.068.123.257.068.522-.018.773-.016.061.034.03.109.11.135.378-.026.778-.01 1.179-.041-.198.128-.463-.037-.644.17.462.037.922.053 1.38-.005.035.085-.094.06-.071.154.474.036.953-.02 1.434-.053-.183.06-.371.087-.561.168.033.041.07.089.004.147-.116.058-.227-.046-.349-.045-.499.004-.998.003-1.497.009-.322.004-.64-.013-.965.07-.36.091-.743.009-1.117.025-1.054.044-2.11.05-3.165.079-.167.005-.344-.027-.501.071 2.043 0 4.085-.052 6.134-.15-.063.086-.191.002-.249.112.225.095.458-.042.675.043-.665.171-1.339.005-2.01.073-.673.069-1.357.043-2.036.058l.002.08c.865.036 1.729.039 2.6-.078-.143.038-.131.146-.148.235.414.05.82-.006 1.221.034.054.012.112-.008.164.001.237.043.473-.006.709-.008.529-.004 1.058-.053 1.588-.038.092.003.202.018.265-.114-.408-.081-.81-.024-1.221-.052l.148-.101c.672.026 1.338-.069 2.007.021-.195.093-.42.008-.614.12h1.814a.961.961 0 0 0 .007.053l-.676.069.006.042c1.188.064 2.38 0 3.588.04-.056.069-.11.054-.157.061-.446.066-.895-.01-1.345.023-.43.033-.87-.036-1.306-.025-.081.002-.174-.022-.236.085.138.086.264-.005.387.004.547.038 1.097.015 1.642.093.144.02.294-.001.442-.017.339-.038.673-.077 1.021-.039.451.05.911.102 1.363.033.211-.032.406-.024.607.022.03.006.062.007.093.008.33.014.663-.01.988.066.38.09.767.064 1.152.074.056.001.121.008.177-.061a1.253 1.253 0 0 0-.497-.018 1.933 1.933 0 0 1-.504-.012c-.152-.023-.308-.034-.451-.104.497.025.998-.086 1.475.059.039.081.087.134.074.251h-1.282l.001.061c.455.059.914-.002 1.395.026-.024-.123.14-.11.137-.214-.1-.223-.368-.132-.512-.288.279-.114.549.071.803.021.03-.095.019-.146-.03-.196-.149-.056-.309-.107-.437-.198-.015-.072.056-.116.014-.188-.114-.069-.272-.001-.398-.079.046-.088.199-.059.186-.208-.29-.148-.632-.098-.937-.185.002-.068.085-.065.047-.164-.553 0-1.124.008-1.689-.076-.563-.083-1.137.034-1.709-.076.045-.084.113-.077.159-.067.272.057.539-.063.815-.007.148.03.308.039.462.051.491.038.986.02 1.475.092.128.018.211-.025.303-.168a1.404 1.404 0 0 1-.941-.263c-.103-.012-.216.051-.292-.069.224.066.495-.061.674.183.308.026.615.012.916.074.094.02.192 0 .2-.131-.14-.103-1.938-.256-2.161-.18a1.112 1.112 0 0 1-.388-.179c.034-.018.054-.033.076-.04.464-.141.934-.257 1.383-.457.455-.203.908-.376 1.289-.723.34-.309.484-.681.555-1.107.066-.4.034-.796-.048-1.188-.076-.365-.16-.73-.335-1.064-.066-.126-.171-.239-.209-.372-.093-.331-.297-.582-.523-.834a.986.986 0 0 0-.465.108 9.26 9.26 0 0 1-1.156.469c-.184.057-.384.054-.561.136-.113.052-.219.139-.336.159-.481.079-.951.208-1.43.293-.524.093-1.056.105-1.584.151-.334.029-.673.028-1.017.109-.115-.08-.243.04-.366.011a1.215 1.215 0 0 0-.639-.002c-.166.048-.351-.028-.515-.003-.375.055-.749.035-1.123.036-.274.002-.544.069-.821.035-.131-.015-.247-.085-.383-.073-.216.02-.433.04-.649.041-.475.002-.95-.023-1.424-.009-.729.021-1.455-.068-2.189-.049-.105-.309-.214-.618-.316-.93a.25.25 0 0 1 .021-.201c.123-.214.02-.372-.111-.541-.136-.174-.343-.229-.517-.313-.403-.192-.799-.378-1.093-.752.066-.08-.042-.13-.056-.221.021-.136.108-.228.186-.325m-1.069 16.471c-.062-.125-.003-.191.115-.216.073-.016.149-.017.207-.055.065-.046.006-.115.049-.164a.266.266 0 0 1 .186-.039c-.017.073-.067.142-.007.195-.014.071-.105.068-.099.151.186.119.382-.066.551-.003.068.042.04.091.049.131h-1.051z" fill="#fff" fill-rule="nonzero"/></svg>