<svg viewBox="0 0 121 75" xmlns="http://www.w3.org/2000/svg" fill-rule="evenodd" clip-rule="evenodd" stroke-linejoin="round" stroke-miterlimit="1.414"><path d="M119.604 39.346c.568.591.795 1.273.659 2.069-.136.819-.364 1.023-1.205 1.046-.159 0-.296.023-.455 0-.704-.091-1.136.159-1.386.864-.296.887-.887 1.591-1.615 2.16-.909.704-1.5 1.591-1.546 2.773a4.783 4.783 0 0 1-.204 1.114c-.159.478-.296.932-1.001.796-.409-.091-.795.273-1.295.227-.387-.045-.546.569-.569.978-.091 1.023-.182 2.046-.227 3.069-.159 4.456-.432 8.935-.546 13.391-.045 1.819-.227 3.637-.227 5.456 0 .364.045.819-.523.819-.568 0-.909-.296-.887-.91.023-3.114.069-6.206.069-9.321 0-1.978-.046-3.933-.046-5.911 0-.614-.227-.887-.841-.955-.909-.114-1.728-.364-1.796-1.523-.023-.387-.341-.432-.659-.477-.978-.137-1.933-.296-2.91-.432l-.569-.069c-.136-.022-.295-.091-.318-.25.114-.022.227-.068.318-.045 1.137.068 2.274.182 3.365.477.295.068.591.159.887.182 1.045.137 1.068.137 1.318 1.205.114.5.546.523.887.546.705.022.932.341.886 1-.022.182-.113.455.16.568.022-.432.727-.182.704-.727-.022-.773.069-1.546.091-2.319.023-.978.114-1.978.023-2.956-.045-.613.5-1.091.25-1.705 1.069-.386.568-1.318.637-2 .204-1.683.295-3.388.409-5.093.023-.409.023-.841 0-1.25-.046-.364-.273-.569-.637-.364-.159.091-.727.068-.182.546.364.318-.318.727-.136 1.227.091.273.432.864-.318 1.069-.205.068-.068.523.023.727.295.546.477 1.001-.251 1.41-.227.136-.091.5-.113.75-.114 2.296-.228 4.615-.364 6.911-.023.341-.068.682-.114 1.023-.045.273-.159.637-.432.569-.386-.091-.091-.455-.045-.659.25-.887.159-1.819.25-2.706.045-.455-.182-.568-.591-.591-1.296-.068-2.615-.136-3.888-.386-1.659-.319-3.342-.455-4.979-.955-.795-.228-1.728-.205-2.591-.273-.478-.046-.933-.023-1.365-.273-.295-.159-.659-.114-1-.136-2.955-.069-5.865-.614-8.73-1.205-.364-.069-.727-.182-1.114-.182-1.41.068-2.774-.228-4.16-.432-2.092-.318-4.206-.591-6.298-.887-.591-.091-1.205-.182-1.773-.341-.546-.159-.705.091-.705.546-.023.841-.341 1.705.159 2.546.205.364-.182.728-.204 1.16-.023 1.204.227 2.432-.16 3.637.455.455-.113.841-.091 1.273.023.432.137.864.205 1.296.046.296.136.568-.182.796-.204.136-.204.386.091.523.387.182.364.614.159.727-.568.273-.273.569-.136.887.045.136.182.341.136.409-.454.568-.136 1.16-.136 1.751 0 .614.023 1.205.023 1.818-.023.478.091.978-.273 1.41-.25.296 0 .5.182.682.204.205.432.205.477-.136.068-.41.091-.819.114-1.251.113-3.933.204-7.866.295-11.822.023-.614.023-1.205.091-1.819.114-1.182.364-1.409 1.569-1.295 1.137.113 2.251.295 3.365.477 4.524.727 9.048 1.387 13.595 2.001 2.842.386 5.706.795 8.548 1.205.273.045.523.091.773.159a.317.317 0 0 1 .137.159c.022.136-.091.204-.228.182-.818-.159-1.682-.068-2.478-.25-2.933-.591-5.911-.864-8.866-1.319-1.933-.296-3.911-.455-5.82-.841-.41-.068-.728-.114-1.092.295-.818.91-2.273 1.023-3.319.319-1.296-.887-2.796-1.319-4.251-1.842-.887-.318-.978-.204-1.001.728-.091 3.319-.182 6.661-.25 9.98-.022 1.023-.136 2.024-.113 3.047.022.795-.41 1.591-.682 2.387-.228.659-.796.386-1.274.386-.5-.022-.613-.341-.591-.773.023-.909 0-1.818.046-2.728.204-4.433.409-8.844.5-13.277.023-1.478.25-2.933.227-4.433 0-.705-.204-1.273-.841-1.614-.546-.296-.796-.773-.909-1.364-.091-.478-.273-.955-.364-1.433-.205-1.068-.637-2-1.387-2.796-.455-.5-.614-1.091-.682-1.773-.091-.955-.205-1.023-1.205-1.114-.273-.023-.545-.023-.773-.182-.341-.25-1.023-.091-1-.728.045-.682-.137-1.387.614-1.932 2.205-1.614 4.342-3.297 6.456-5.002.955-.773 1.978-1.228 3.16-1.409 2.069-.341 4.07-.796 5.957-1.751.296-.159.409-.25.409-.546 0-.386.023-.75-.023-1.136-.272-2.433-.522-4.888-.886-7.321-.25-1.66-.387-3.296.045-4.933.387-1.501 1.16-2.797 2.183-3.933.159-.182.341-.455.659-.319.25.114.227.364.227.591.228 2.569.478 5.116.705 7.685.023.182.023.386.068.568a.248.248 0 0 0 .251.205c.136 0 .181-.091.181-.228 0-.113-.022-.227 0-.341 0-.136-.045-.295.16-.318.022 0 .068.205.09.318.091.591-.068 1.205.091 1.819.046.182.023.5.205.477.318-.022.159-.341.182-.522.023-.114-.023-.228-.023-.341 0-.069.023-.137.046-.205.136.045.091.159.091.25-.046 1.069.25 2.114.091 3.16-.137.796-.046 1.614.181 2.365.546 1.955.501 3.978.66 5.956.409 4.934.773 9.89 1.136 14.823.023.227-.022.478.182.637.25.204.796-.046.864.523 0 .045.159-.182.159-.296 0-1.364.114-2.751-.045-4.092-.159-1.433-.091-2.865-.159-4.297-.159-3.478-.228-6.957-.455-10.435-.068-.91-.091-1.819.136-2.706.091-.364.091-.727-.136-1.091-.318-.5-.341-1.046-.068-1.591l-.023-.023c.614.568.637 1.341.659 2.091.023.751.069 1.524.114 2.274 0 .159.046.295.068.432.023-.137.069-.273.091-.409.046-1.023.091-2.047.114-3.07v-.682c.023-.204-.068-.568.205-.545.227.022.136.364.136.568-.068 1.842.136 3.706.136 5.547 0 1.41.091 2.842.137 4.275.091 2.591-.046 5.183-.091 7.775 0 .864.023 1.75.023 2.614 0 .137-.046.296-.069.432-.136-.091-.136-.25-.136-.386-.023-.387-.023-.75-.046-1.137 0-.114-.068-.25-.181-.205-.16.046-.046.182-.023.296.159.523.045 1.046.023 1.569-.046.886-.046 1.727.5 2.523.318.478.636.523 1.023.409.341-.091.864-.136.796-.75-.046-.409.227-.909-.296-1.227-.159-.091-.159-.478-.068-.501.727-.204.432-.795.454-1.205.342-4.978.546-9.98.66-14.982.045-1.637 0-3.274.227-4.865.227-1.591.205-3.16.205-4.752 0-.136-.023-.386.136-.386.296-.023.182.273.205.409.023.387.023.75.045 1.137 0 .136.068.295.273.295.205 0 .387-.068.432-.272.045-.228.068-.455.068-.682.182-2.524.387-5.047.432-7.594.046-1.887.182-3.774.296-5.661.022-.227.113-.454.113-.659.023-.432.228-.591.637-.637.978-.113 1.955-.091 2.955.023.569.068.796.318.728.887-.136 1.478-.25 2.933-.341 4.41-.114 1.546-.591 3.047-.227 4.615-.501.819-.341 1.751-.478 2.638-.113.704-.159 1.432-.204 2.137-.023.182-.205.5.159.523.227.022.204-.273.227-.455l.682-4.706c.455-2.978.91-5.957 1.364-8.958.068-.386.25-.545.591-.5 1.251.159 2.41.591 3.57 1.092.477.204.295.659.227 1l-1.159 6.479c-.41 2.228-.773 4.479-1.205 6.707-.137.682.159 1.25.159 1.887 0 .682-.773.887-.887 1.523-.273 1.751-.614 3.501-.909 5.252-.046.205-.091.546.136.591.227.023.25-.341.296-.546.341-1.591.659-3.182.977-4.774.023-.159.023-.318.091-.455.137-.25.091-.795.387-.704.295.068.045.522 0 .795-.955 4.638-1.887 9.253-2.888 13.891-.113.5.069 1.182-.704 1.501-.41.182.295.636.159.886-.137.25-.751.319-.341.728.659.682-.591.5-.387 1 .091.25.91.5.137.864-.364.159-.341.478-.41.75-.25 1.183-.477 2.365-.75 3.547-.091.386-.045.682.409.75.41.046.955.205 1.046-.341.182-.977.728-1.796.841-2.796.114-.864.501-1.728.682-2.615a167.778 167.778 0 0 1 2.547-10.071c.045-.182.159-.409.091-.546-.364-.841.227-1.364.591-1.955l.068 1.25c-.205.273-.182.614-.205.91-.045.068-.091.114-.136.182-.023.068-.023.204-.023.204.182.046.114-.113.137-.182.022-.068 0-.136 0-.204.295-.25.25-.591.227-.91.409-.363.477-.886.477-1.364 0-.341-.25-.022-.386 0-.091-.977.227-1.864.477-2.773.046-.205.023-.637.478-.273.091.068.136-.227.068-.318-.296-.387-.182-.796-.091-1.205.477-1.933.978-3.888 1.478-5.82l.068-.341c.023-.16.091-.364.25-.319.25.069.159.296.114.455-.182.728-.432 1.455-.569 2.183-.113.545-.409 1.068-.272 1.659l-.046.023.023-.046c.432-.159.455-.545.523-.909.25-1.137.5-2.273.773-3.41.068-.296.204-.569-.273-.659-.159-.023-.114-.341-.068-.523.318-1.41.682-2.819 1.159-4.206.023-.091.137-.159.227-.25l-.022-.023a242.426 242.426 0 0 1-.91 3.933c-.045.182-.136.455.046.523.25.068.204-.227.25-.387.568-2.182 1.114-4.387 1.66-6.57.022-.091-.023-.205-.023-.318-.068.068-.159.136-.205.204-.068.182-.113.364-.182.546-.045.159-.136.341-.272.296-.137-.046-.091-.273-.023-.41.136-.318.204-.636.113-1 .069-.023.137-.023.228-.045.023 0 .023-.046.045-.069-.113-.068-.182.046-.273.091-.363-.432-.682-.909-1.068-1.318-.614-.66-1.25-.5-1.455.363-.841 3.57-1.66 7.139-2.501 10.708-.091.41-.205.796-.341 1.205-.045.114-.114.341-.295.273-.182-.068-.069-.25-.046-.386.5-2.183 1-4.343 1.501-6.525.431-1.887.863-3.751 1.318-5.638.068-.25.159-.5.205-.773.091-.387.341-.5.682-.364 1.159.5 2.182 1.205 2.933 2.251.25.341.181.682.068 1.068-.841 3.092-1.66 6.207-2.478 9.299 0 .045-.023.068-.046.113-.068.319-.295.819.023.91.341.091.386-.455.477-.773.864-2.728 1.751-5.479 2.615-8.207.068-.205.159-.432.204-.637.114-.364.273-.432.523-.136.091.113.205.227.273.363 1.137 2.16 1.864 4.411 1.228 6.866-.637 2.41-1.273 4.82-2.205 7.139-.25.614-.387 1.228-.341 1.887.045.909-.114 1.819-.182 2.705-.046.546.136.864.704.932.546.069.978.319 1.41.683.705.591 1.546.977 2.41 1.227 2.387.705 3.842 2.16 4.433 4.615.409 1.683 1.319 3.206 1.569 4.956a483.233 483.233 0 0 1-2.092-5.206c-1.046-2.66-1.046-2.637-3.705-3.796-.933-.41-1.91-.705-2.729-1.319-.523-.387-1.045-.75-1.705-.841-.454-.068-.568-.319-.659-.75-.159-.751-.432-1.456-.682-2.183a.989.989 0 0 0 .182-.75c.523-.091.5-.478.409-.841-.023-.137.068-.137-.023-.091-.25.159-.341.454-.386.727v.227c-.273.205-.205.478-.182.773-.591.569-.568 1.365-.796 2.069-.113.296-.295.751.114.887.364.114-.182-.5.227-.546.046 0 .068-.045.091-.045.159-.046.228-.341.432-.227.068.022.046.295 0 .431-.136.592-.386 1.137-.432 1.751-.045.523.068.909.637 1 1.318.182 2.205 1.137 3.114 1.956 1.274 1.114 1.069 2.66-.318 3.432-.5.273-1.319.273-1.432.773-.114.501.341 1.114.432 1.706.113.682.523.841 1.114.909.75.068 1.523.114 2.251.273 1.477.341 2.978.477 4.501.591.386.023.75.045 1.137-.046.432-.204.568-.5.432-.932zm-41.559-11.14c.204-.045.432-.068.591-.273.273.023.545.069.75-.181.637 0 1.114-.182 1.523-.751.341-.5-.204-.795-.045-1.25.068-.205-.5-.114-.773-.091a.745.745 0 0 0-.432.136c-.5.41-1.114.455-1.683.569a69.16 69.16 0 0 1-3.114.636c-1.182.205-2.228.66-3.16 1.433-1.228 1.023-2.501 1.932-3.774 2.91-.773.591-1.546 1.205-2.319 1.818-.205.16-.523.319-.455.592.091.272.455.204.705.25.818.136 1.637.318 2.455.341.796.022 1.614.477 2.41-.023.614.455 1.228.159 1.819 0-.068.364-.318.477-.637.523a6.125 6.125 0 0 1-1.705.023c-1.569-.137-3.16-.228-4.729-.546-.25-.046-.545-.114-.636.25-.091.318.136.477.409.568.205.069.432.114.659.137.637.045 1.273.136 1.796.568.25.205.569.227.864.25 1.046.137 2.115.114 3.16.114.546 0 .864-.205.842-.796 0-.25.068-.432.295-.545.568-.296.955-.796 1.387-1.251.205-.227.523-.318.295-.659-.204-.318-.477.045-.704.023.091-.205.182-.387.091-.637-.41-1.296-.137-2.16.909-2.956 1.273-.954 2.683-1.682 4.251-2.046.296-.068.705-.432.864-.045.114.295-.545.114-.636.477-.273-.068-.546-.022-.75.182-.205.068-.432.091-.569.273-.068.023-.114.023-.182.045a.89.89 0 0 0 .228-.068zm27.236 5.638c.409-.363.523-.818.455-1.341a3.873 3.873 0 0 0 .704-2.228c.25-.432.591-.818.432-1.387.023-.045.182-.045.068-.159-.022.068-.045.114-.045.182-.5.364-.477.864-.432 1.387-.523.659-.659 1.432-.705 2.228-.386.364-.523.818-.454 1.341-.023.023-.069.046-.091.068-.023.023-.023.046-.023.069.023-.046.045-.114.091-.16zm4.751-15.004c-.272.272-.523.545-.318.954.023.023.159.046.182.023.318-.25.25-.591.205-.932.227-.205.181-.477.181-.727.41-.705.728-1.433.66-2.274.614-.909.727-1.932.659-2.978-.023-.478-.159-.955-.25-1.432-.296.477-.023.977 0 1.477v.114c0 .341-.068.955-.182.909-.386-.113-.159-.545-.136-.818.068-.659-.364-1.341-.137-1.887.341-.819.068-1.341-.386-1.887 0-.046 0-.068-.023-.114 0-.022-.023-.045-.045-.068.022.046.068.091.091.136-.069.114.022.546-.205.319-.478-.478-.591-.205-.728.204-.136.387-.25.796-.386 1.183-.841 2.66-1.41 5.388-2.637 7.934-.114.25-.205.614-.137.887.159.591-.022 1.114-.182 1.659-.432 1.524-.795 3.069-1.295 4.57-.728 2.273-.955 4.706-2.228 6.798-.091.159-.205.363-.16.5.114.318-.068.5-.159.75-.364 1.25-.886 2.478-.773 3.842l.023-.023c-.25.16-.318.41-.386.66-.342 1.227-.751 2.432-1.001 3.683-.114.545-.682 1.114-.068 1.705.068.068-.023.227-.136.273-.364.159-.614.432-.455.795.159.364.614.182.909.296.319.114.478-.114.591-.387l.273-.75c.273-.864.546-1.728.841-2.592.069-.204.069-.636.41-.545.227.068.022.386-.046.591-.136.432-.273.864-.432 1.296-.25.705-.477 1.432-.727 2.137-.046.136-.046.318.113.364.046.022.159-.137.228-.228.045-.068.068-.136.091-.204 1.045-3.274 2.091-6.548 3.16-9.822.045-.136.113-.341-.023-.409-.182-.068-.182.159-.227.273-.137.341-.273.705-.387 1.068-.432 1.319-.864 2.66-1.318 3.979-.046.114-.046.341-.273.227-.046-.022-.068-.204-.023-.295.409-1.342.841-2.66 1.273-4.002.682-2.068 1.41-4.137 2.069-6.229.705-2.228 1.364-4.479 2.046-6.707.227-.75.523-1.5.796-2.25.045-.137.114-.319.273-.25.113.045.045.204.022.295-.113.5-.386 1-.318 1.546-.045.046-.136.068-.159.114-.023.091.045.136.091.068.045-.045.023-.136.045-.205.364-.454.41-1.045.637-1.546.068-.136.114-.341.045-.432-.591-.818-.091-1.568.137-2.318.227-.796.5-1.592.75-2.365.136-.386.046-.909.546-1.114.182.409-.159.796-.046 1.205-.341.728-.659 1.455-.659 2.274-.296.181-.273.431-.296.682zm-29.055.045l-.022-.045.022.045c-.091.614-.113 1.228.205 1.819.023.659-.159 1.341.546 1.841.204.137.204.523.022.728-.636.659-.181 1.432-.295 2.137.068 0 .136.023.204.023-.204.409-.318.818-.25 1.296.114.75.205 1.5.296 2.25.182 1.41.364 2.819.546 4.252.045.386-.137 1 .363 1 .341 0 .159-.637.114-.978-.182-1.909-.523-3.796-.659-5.729-.046-.682-.046-1.432-.455-2.069v-1.227c0-.091-.023-.25.159-.205.046 0 .137.091.137.159.136.682.386 1.387.386 2.069 0 1.251.136 2.501.341 3.706.364 2.114.409 4.274.75 6.388.205 1.342.273 2.706.5 4.047.137.773.296 1.569.455 2.342.091.432.705.773 1.16.636.432-.113.272-.477.272-.75-.045-1.068.023-2.114-.204-3.183-.455-2.228-.478-4.524-.728-6.775-.045-.454.387-1.205-.568-1.364-.114-.023-.068-.25.045-.364.546-.591.364-1.227.069-1.841-.069-.159-.182-.227-.114-.455.295-1.159.068-2.319-.046-3.478-.022-.409-.068-.819-.09-1.251 0-.068.045-.181.068-.181.136-.023.204.068.227.204.023.159.023.296.046.455l.75 8.48c.023.341.113.682.182 1 0 .046.113.137.159.137.068 0 .136-.091.159-.137.045-.182.114-.386.068-.545-.364-1.524-.114-3.092-.386-4.638-.205-1.114-.319-2.274-.296-3.365.046-1.955-.386-3.842-.364-5.775 0-.295.16-.818-.295-.818-.273 0-.364.523-.318.887.022.159.068.295.09.454l.137 2.615c0 .091-.046.273-.091.295-.136.023-.182-.113-.205-.227-.091-1.387-.272-2.774-.227-4.161.023-1.159.091-1.523-.273-2.546-.068-.204-.045-.454-.068-.659a723.946 723.946 0 0 0-.568-6.57 4.863 4.863 0 0 0-.16-1.001c-.068-.25-.386-.227-.409-.068-.091.864-1.091 1.16-1.182 2.046-.045.478-.25.978-.705 1.296-.045.046 0 .205-.022.318-.387.864-.205 1.774-.182 2.683 0 .114.045.227.068.318.182-.068.114-.227.114-.341l.068-2.591c.182 1.682.386 3.364.568 5.024.023.25.023.477-.25.682-.205.136-.432.5.136.546a.294.294 0 0 1 .273.295c.023.932.364 1.864-.136 2.751.023-.659.318-1.296-.137-1.887zm20.939 14.573c.409-.864.659-1.773.659-2.728.046-.091.091-.182.114-.296 0-.022-.023-.045-.045-.068-.023.136-.046.25-.069.387-.568.795-.682 1.705-.75 2.637-.295.409-.341.886-.455 1.364-.045.136 0 .364.137.386.136 0 .159-.204.204-.363.114-.432.251-.864.205-1.319zm-29.601 9.276c-.159-.068-.409-.068-.341-.341.137-.432.091-.887.114-1.342.068-1.068-.136-2.182.227-3.251.114-.295 0-.659-.045-1 0-.045-.091-.114-.159-.114s-.159.046-.182.091c-.045.182-.114.364-.114.546-.091 2.023-.159 4.069-.227 6.093 0 .227-.091.591.091.614.273.045.227-.319.227-.523 0-.341.409-.432.409-.773a1.18 1.18 0 0 0 .228-.25c.477-.273.477-.728.477-1.183.046-1.614-.022-3.251.205-4.865.023-.182.045-.5-.091-.523-.25-.022-.318.273-.364.501-.023.068-.023.159-.045.227a42.098 42.098 0 0 0-.159 5.865 1.21 1.21 0 0 1-.251.228zm31.806-15.71c.159-.045.228-.159.273-.318.569-2.024 1.137-4.047 1.705-6.093.023-.068.068-.159.046-.205-.023-.091-.068-.227-.137-.273-.113-.068-.204.023-.272.114-.16.25-.228.546-.296.841-.273 1.205-.614 2.41-.864 3.615-.159.773-.477 1.501-.432 2.319-.045.091-.136.159-.159.273-.023.114-.114.273.091.341.023-.091.068-.205.068-.296.023-.113-.023-.227-.023-.318zm7.548 22.121l-.022-.023c-.023.25-.114.569.181.705.228.091.592.068.728-.182.409-.682.841-1.364 1.091-2.114.318-1.001.364-2.069 1.41-2.706.545-.341.955-.864 1.273-1.432.364-.637.182-.955-.568-1.068-.933-.137-1.865-.228-2.82-.341-.341-.046-.75-.182-1-.046-.364.205-.045.614 0 .932 0 .114-.068.205-.068.318l-.409 4.957c-.023.386-.091.727.204 1zM72.52 43.916c-.068-.091.114-.273-.114-.273.046.091.091.159.114.273-.045.114-.136.25-.182.386-.614 2.251-.818 1.774 1.296 2.092 6.025.909 12.072 1.682 18.097 2.524 5.274.727 10.549 1.477 15.823 2.25 1.683.25 1.683.273 1.728-1.455.023-.773.023-.773-.796-.886-3.637-.5-7.252-1.046-10.912-1.478-1.16-.136-2.342-.682-3.547-.159-.045.023-.136-.046-.182-.091-.273-.432-.75-.341-1.136-.387-2.479-.363-4.957-.682-7.412-1.023-4.229-.614-8.503-1.205-12.777-1.773zm28.896-27.327c.318-.341.341-.728.227-1.16.387-.295.273-.727.228-1.114.363-.341.227-.75.227-1.159.432-.841.5-1.773.477-2.706.114-.181.273-.363.205-.591-.023-.022-.136-.068-.159-.045-.159.182-.023.432-.068.636-.25-.341-.319-.954-.069-1 .592-.136.069-.614.319-.727.454-.25.318-.728.454-1.092.16-.454-.227-1 .251-1.409.09-.068.045-.318-.137-.364-.205-.068-.295-.205-.25-.432.068-.25.205-.227.432-.136.136.045.205-.182.159-.205-.432-.386-.318-.955-.5-1.409-.159-.364-1.955-.887-2.296-.705-.091.045-.205.136-.228.227-.181.728-.727 1.296-.841 2.069-.523 3.706-1.091 7.411-1.637 11.117-.091.523-.022 1.114-.727 1.387-.387.159-.205.591.341.728v-.023c-.023.068-.068.136-.068.204.045.319.545.66-.114.91-.046.023-.068.204-.046.318.16 1.501-.068 2.978-.386 4.433-.182.842-.409 1.66-.387 2.547.023.545-.159 1.114-.272 1.659-.023.091-.137.182-.205.25-.045-.091-.114-.159-.159-.25-.046-.113-.046-.318-.068-.318-.159 0-.091.136-.114.227-.045.364-.182.751.091 1.092.318.363.182.773.182 1.182.023 1.091-.682 1.955-.819 2.978l.023-.023c-.273.682-.182 1.41-.295 2.137-.478 2.865-.455 5.798-1.046 8.662-.046.228 0 .523.341.296.295-.182.591-.091.886-.091.273 0 .432-.136.432-.409.046-1.182.614-2.274.728-3.456.114-1.091.386-2.16.591-3.228.068-.41.114-.819.477-1.114l-.022-.023c-.046.409-.091.818-.114 1.25 0 .114-.023.228.136.25.046 0 .16-.068.16-.113.022-.796.682-1.546.113-2.387-.113-.159-.113-.341.137-.455.5-.205.409-.455.045-.705-.204-.136-.25-.204 0-.364.591-.341 1-1.5.546-1.932-.455-.432-.159-.728-.114-1.114.023-.182.046-.364.091-.546.227.114.046.341.136.501.069.113.16.159.228.022.091-.204.182-.432.227-.636.318-1.819.546-3.661 1-5.457.205-.818-.613-1.727.319-2.41.091-.068 0-.25-.228-.363-.318-.159-.295-.66.091-.728.432-.068.478-.091.205-.409-.159-.182-.136-.296.114-.409.341-.137.409-.319.022-.523-.181-.091-.113-.318.091-.296.478.046.432-.25.501-.545.159-.819.227-1.66.136-2.501zm-8.207 1.569c.091.431 0 .886.182 1.318.25.682.341 1.387.25 2.114-.341 3.07-.705 6.139-.728 9.254 0 .568-.045 1.204-.227 1.773-.023.091-.159.136-.25.182-.023-.069-.046-.137-.046-.228 0-.272 0-.523.023-.795l.205-2.592c.022-.159 0-.387-.114-.387-.227-.022-.273.205-.296.387-.045.75-.068 1.523-.113 2.273-.069 1.069-.046 2.137.227 3.16.182.728.182 1.387.023 2.092-.569 2.364-.614 4.797-.705 7.207 0 .136-.045.386.091.409.205.023.136-.204.159-.341.046-.182.023-.409.136-.523.16-.159.251.046.296.182l.023-.023c-.273.387-.182.66.295.728.387.045.705-.023.569-.546-.046-.136-.137-.318.045-.386.25-.068.182.159.182.273.023.181 0 .477.182.5.182.023.227-.273.25-.455.045-.25.091-.523.114-.773.295-2.433.568-4.888.841-7.32.341-3.047.682-6.093 1-9.14.205-1.91.296-3.842.637-5.752.25-1.296.409-2.614.5-3.933.023-.159.159-.409-.159-.409-.205-.023-.205.182-.228.318-.022.137-.022.273-.045.409 0-.113-.023-.227-.023-.341.046-.613.705-1.136.228-1.818.159-.069.068.136.159.159.227.045.227-.114.25-.25.136-1.205.273-2.41.432-3.615.068-.432-.114-.705-.387-.978.455-.204.5-.614.569-1.023.136-.864-.296-1.796.25-2.637-.341-.841.091-1.637.227-2.433.318-2.205.296-2.319-1.932-2.25h-.228c-.841.045-1.068.227-1.205 1.045a20.527 20.527 0 0 0-.25 2.365c-.227 3.478-.454 6.957-.682 10.412-.045.773.091 1.592-1 1.887-.25.114-.273.591.273.501zM74.066 38.596h-.136c0 .864.022 1.728 0 2.615-.023.636.227.977.886 1.091 1.524.227 3.047.5 4.593.727.932.137.932.091.955-.864.045-2.159.045-4.296.113-6.456.091-2.001.137-4.002.296-6.002.091-1.16-.046-1.705-1.683-1.296-1.659.432-3.092 1.296-4.342 2.455-.75.705-.75.728-.091 1.455.75.864.887 1.16.205 1.955-.773.887-.728 1.842-.75 2.865-.046.477-.046.978-.046 1.455zm31.851 7.821c.205.023.41-.137.455-.5.046-.341.091-.682.091-1.023.023-2.274.273-4.525.409-6.775.137-2.319.25-4.661.387-6.98 0-.091.068-.227-.091-.25-.046 0-.137.091-.159.159l-.273.75c-1.182 3.615-2.365 7.253-3.57 10.868-.295.932-.613 1.864-.932 2.796-.091.295-.159.5.25.546 1.092.091 2.16.25 3.433.409zm10.913-4.32c.682-.204 1.501-.25 2.319-.227.5 0 .637-.387.637-.773 0-.478-.387-.318-.682-.341a32.285 32.285 0 0 1-3.615-.25c-1.614-.205-3.183-.637-4.797-.728-.341-.022-.569-.159-.773-.409-.046-.068-.159-.341-.273-.045-.182.545.455 1.705 1 1.818 2.001.478 4.024.728 6.184.955zm-45.333-4.433c0-.932-.068-.932-1-1.069-.773-.113-1.546.41-2.319-.045-.182-.114-.228.227-.205.409.114.773.5 1.41 1 2.001.614.682 1.024 1.432 1.069 2.41.023.659.091 1.364.432 1.978.114.204.296.386.523.363.341-.022.25-.341.25-.523.045-.932.295-1.955.023-2.819-.319-1.023.295-1.818.227-2.705zm36.989-2.137c0 .295-.022.523 0 .75.023.205.16.387.364.296 1.023-.478 2.16-.728 2.887-1.705.251-.341.296-.66.114-1.046-.477-1.069-1.387-1.683-2.296-2.274-.614-.386-.796-.295-.864.432-.068 1.205-.023 2.41-.205 3.547zM95.664 45.871c-.546-.045-1.159-.227-1.205.296-.068.5.591.318.909.363 3.706.523 7.435 1.001 11.14 1.501.796.114 1.569.182 2.365.273.205.023.386-.023.409-.25.023-.205-.045-.387-.25-.455-.182-.068-.364-.068-.568-.091a995.668 995.668 0 0 0-8.208-1.068 96.945 96.945 0 0 0-4.592-.569zm-2.251.387c.25 0 .523.091.591-.228.046-.295-.227-.341-.454-.386-.228-.046-.432-.091-.66-.137-1.318-.181-2.614-.363-3.933-.523-4.615-.591-9.23-1.182-13.822-1.773l-1.91-.273c-.114-.022-.318.023-.296.228 0 .136.114.204.228.204.227.046.454.069.682.091 4.524.66 9.048 1.296 13.572 1.955 1.978.319 4.002.569 6.002.842zm14.732-5.116c.137 1.501-.181 3.16-.25 4.82-.022.478.091.705.591.728.705.022.842-.046.955-.796.182-1.273.205-2.569.25-3.842.023-.569-.068-1.16-.318-1.66-.341-.682-.727-1.319-.659-2.114 0-.068-.091-.228-.182-.228-.137-.022-.182.114-.205.228-.068.886-.113 1.796-.182 2.864zm-27.304-5.16c-.159 2.137-.159 4.137-.136 6.138 0 .295 0 .659.454.614.387-.023.341-.341.341-.591.046-.955.091-1.933.114-2.888.045-1.796.25-3.569.182-5.365-.046-1.296-.25-2.546-.341-3.842-.023-.228.023-.614-.159-.591-.228 0-.182.363-.205.568-.023.227-.023.455-.045.682-.069 1.796-.137 3.592-.205 5.275zm26.395 2.841a413.459 413.459 0 0 0-.318 5.32 35.745 35.745 0 0 0-.046 1.592c0 .182.023.409.273.409s.296-.205.318-.387c.046-.25.091-.522.091-.795.068-.91.114-1.819.159-2.728.205-3.433.41-6.866.592-10.299.022-.341.204-.932-.273-.978-.569-.045-.41.614-.432.955-.137 2.319-.25 4.615-.364 6.911zm-24.303 4.661c1.068.045 1.114-.023.841-1-.091-.341-.137-.705-.205-1.069-.182-.864-.386-1.728-.591-2.614-.045-.228-.205-.364-.5-.341-.318.022-.387.204-.387.432-.022 1.295-.022 2.591-.204 3.887-.046.364.113.569.477.637.205.045.432.045.569.068zm9.571-19.756h-.227v3.842c0 .136.022.363.136.363.136 0 .159-.227.182-.363.159-2.024.318-4.047.455-6.093.022-.455.068-.91.09-1.342.023-.25-.045-.591-.409-.568-.318.023-.25.341-.25.546.023 1.205.023 2.41.023 3.615zm16.687 45.605h-.091v3.524c0 .159.023.387.137.387.136 0 .159-.205.159-.364.068-1.273.159-2.569.204-3.842.046-1.091.069-2.183.069-3.274 0-.159.022-.409-.228-.432-.25-.023-.273.227-.273.409.023 1.182.023 2.387.023 3.592zM96.187 26.66c.023.137-.068.432.091.478.227.045.159-.25.204-.409.455-2.047.569-4.161.887-6.23.023-.182.023-.409-.25-.386-.182 0-.227.182-.25.318-.25 2.069-.477 4.115-.682 6.229zm13.641 34.034c.068-.159.068-.341-.091-.386-.159-.046-.182.182-.273.295-.273.296-.318.569-.045.887.113.136.204.409.09.523-.545.568-.159 1.227-.204 1.819-.023.318-.387.863.182.909.341.023.318-.614.318-.955.023-1.046.023-2.069.023-3.092zM86.184 37.891a137.4 137.4 0 0 1-.159-1.864c-.023-.409.022-.841-.137-1.228-.045-.091-.136-.204-.227-.227-.228-.023-.205.182-.205.296.068.977.159 1.955.25 2.932.023.205.114.41.341.387.228-.046.137-.296.137-.296zm2.523-6.32h-.068v-1.932c0-.091-.045-.205-.068-.296-.023.114-.068.205-.068.318 0 1.296-.114 2.569 0 3.865 0 .114.045.205.091.318.022-.113.09-.204.09-.318.023-.659.023-1.296.023-1.955zm-7.775 20.643c.182.091.386.137.477-.068.114-.273-.159-.364-.318-.523-.455-.477-.841.205-1.25.068-.478-.159-.478.091-.296.387.205.318.432.705.864.227.159-.182.318-.182.523-.091zm-8.071 7.73v1.569c0 .091.023.204.046.295 0-.113.022-.227.022-.341.023-.523.046-1.046.046-1.569 0-.568-.023-1.114-.046-1.682-.182.591-.091 1.16-.068 1.728zm27.623-21.507c.023.136-.068.364.091.409.273.046.204-.227.25-.364.204-.704.386-1.432.568-2.159.046-.182.091-.364-.091-.501-.091.114-.227.228-.25.341a68.651 68.651 0 0 0-.568 2.274zM73.157 53.419h.022v-1.228c0-.113-.045-.227-.045-.341-.023.114-.046.205-.068.319v2.455c0 .114.022.227.045.341.023-.114.046-.205.046-.318v-1.228zm36.034 6.025v.182c.023.113.046.204.068.295.182-.091.069-.273.137-.386.045-.114.113-.205.182-.046.091.228.204.364.318.046.068-.228.136-.523-.136-.705-.091-.046-.228-.091-.319-.068-.386.068-.227.386-.25.682zM82.773 37.732a9.538 9.538 0 0 0-.159-.932c-.045-.25.046-.682-.182-.682-.204 0-.159.432-.159.705-.022.341-.091.682.091 1 .046.091.159.205.25.205.182-.023.159-.205.159-.296zm13.323 6.775c.068.114-.136.387.182.409.182 0 .182-.204.204-.341.046-.318.251-.636.046-.977 0-.023-.068-.023-.091 0-.386.182-.227.568-.341.909zM78.431 51.6c.205 0 .364-.068.409-.204.091-.319-.204-.228-.341-.273a2.756 2.756 0 0 0-.454-.046c-.228 0-.501-.25-.614-.022-.068.136.295.295.5.363.182.069.364.114.5.182zm2.092-35.784c.045.204.068.364.113.545.023-.181.069-.363.069-.522 0-.137-.046-.273-.069-.41-.045.137-.091.273-.113.387zm25.917 39.74c.023.159.114.205.205.227.182.046.25-.068.25-.227 0-.114-.114-.182-.227-.159a.996.996 0 0 0-.228.159zM73.611 35.209c-.022-.023-.022-.069-.045-.091-.046.045-.114.068-.159.136-.046.068 0 .136.091.114.045-.023.068-.114.113-.159zm35.898 2.978c-.068.045-.068.091-.022.159.022-.023.045-.046.045-.068 0-.023-.023-.068-.023-.091zm-5.66-12.618c-.023-.023-.023-.045-.046-.068-.023.023-.045.045-.045.068 0 .023.022.046.045.068.023 0 .046-.022.046-.068zm-.114-21.257c.045-.091.023-.159-.068-.182-.069 0-.182.046-.182.068 0 .069.023.16.068.205.068.046.159 0 .182-.091zM77.022 28.547c.022 0 .045.023.068.023 0 0 .022-.045.022-.068-.022 0-.045-.023-.068-.023-.022.023-.022.046-.022.068zM12.943 4.994c.114-.773-.227-1.478-.364-2.228-.182-.909-.136-1 .728-1.364.909-.386 1.864-.614 2.842-.796.773-.159.818-.136.977.66.273 1.523.569 3.046.773 4.592.25 1.864.751 3.683.932 5.547.023.205.069.364.273.455.228.068.478.182.455-.205-.023-.295-.091-.591-.137-.886-.386-1.864-.409-3.797-.886-5.661-.205-.796-.114-1.728-.273-2.569-.068-.455-.091-.887-.273-1.319-.227-.568-.068-.841.546-1 1.114-.296 2.251-.25 3.387-.114.341.046.5.273.546.614.159 1.501.318 3.001.5 4.501.182 1.569.341 3.161.568 4.729.114.864 0 1.751.364 2.569v-.022c.068.545-.204 1.136.25 1.636l-.022-.022c.136.182.363.454.454.068.114-.455.046-.978 0-1.478-.341-3.66-.409-7.32-.636-10.981C23.856.356 23.901.311 25.311.606a57.85 57.85 0 0 1 2.091.455c.546.114.819.409.842 1.023.045 2.637.136 5.275.181 7.912.023 1.318.137 2.637.046 3.978-.023.228.023.455.068.682.023.228.068.501.364.501.318 0 .295-.296.295-.501.023-.5 0-.977 0-1.477 0-3.433.023-6.889.023-10.322 0-.159-.023-.295 0-.455 0-.386.205-.591.569-.454 1.295.454 2.5 1.091 3.523 2.023.319.296.319.659.296 1.046-.046.864-.091 1.728-.136 2.614-.023.364.159.478.454.478.387 0 .25-.318.228-.478-.046-.318.295-.75-.319-.932-.227-.068-.182-.386.046-.545.113-.091.273-.16.341-.273.523-.796.545-.796 1.137-.068 1.341 1.659 2.137 3.546 2.409 5.661.16 1.227-.227 2.409-.341 3.592-.136 1.546-.136 3.092-.386 4.637-.159 1.001-.227 2.024-.341 3.047-.114 1.023.204 1.455 1.273 1.682 1.796.364 3.547.91 5.343 1.114 1.455.182 2.569.887 3.751 1.569 2.66 1.523 5.297 3.069 7.957 4.592.341.205.773.341.909.796-.386.25-.818.364-1.273.455-1.796.364-3.615.432-5.433.455-.273 0-.546-.023-.796.022-.341.068-.477.319-.477.66 0 .363.181.545.545.568.387.023.75.091 1.137.068.682-.045 1.364-.045 2.023-.204l1.978-.478c.591-.136 1.228-.091 1.796-.295.796-.296.796-.273.569-1.205.341-.023.591.068.591.477s-.023.773-.455.932c-.818.318-1.637.546-2.524.591-.272 0-.522-.022-.795.023-.523.068-.887.296-1.023.887-.25 1.114-.66 2.137-1.387 3.046-.546.659-.705 1.501-.682 2.342.023 1.182-.227 2.16-1.478 2.637-.341.136-.477.682-1 .568-.228-.045-.591.205-.637-.182-.023-.227.364-.159.569-.204.363-.068.409-.273.25-.568-.091-.205-.228-.387-.341-.592l.022.023h-.272l.022-.023c-1.114.137-2.228.25-3.342.41-2.091.295-4.183.613-6.274.886-4.047.569-8.094 1.114-12.141 1.66-4.206.568-8.389 1.159-12.595 1.728-1.114.159-1.114.159-1.318 1.432l.022-.023c-.227-.272-.113-.659-.386-.909-.114.386-.364.727-.387 1.137 0 .545.228.818.819.841.5.023.977-.023 1.477-.091 5.48-.932 11.004-1.614 16.506-2.364 2.069-.273 4.138-.523 6.184-.773a227.23 227.23 0 0 0 3.819-.523c.318-.046.659-.205.978.045a.402.402 0 0 0 .204.091c1.887-.864 4.07-.477 5.957-1.341.273-.114.568-.205.864-.25.364-.046.932.659.864 1-.023.159-.159.159-.228.068-.295-.318-.613-.204-.955-.114-1 .251-2 .364-3 .569-.796.159-1.524.25-2.297.159-.477-.045-.818.318-1.114.614-.341.341-.568.432-.864 0-.113-.159-.295-.205-.386-.159-.773.545-1.864-.159-2.524.704-.182.228-.318 0-.477-.022-.614-.114-1.251-.25-1.751.295-.136.137-.182.159-.341.068-.477-.295-.955-.068-1.409.023-.137.023-.137.046-.114.387 0 .022.068.022.091.045-.045.023-.114.068-.159.068-.25 0-.523.114-.728-.159-.159-.204-.318-.159-.363.091-.023.137-.069.387-.25.205-.842-.819-1.683.091-2.524-.046-.205.682-.818.682-1.364.728-.409.045-.887.318-1.228-.205-.113-.182-.273-.045-.364.068-.09.069-.204.25-.204.228-.659-.432-1.023.318-1.546.364-.091 0-.341.159-.273-.046.046-.182.091-.318-.091-.318-.5 0-.977.045-1.478.091a.192.192 0 0 0-.181.227c.022.136.159.136.272.136.137 0 .387-.113.41.023.022.273-.273.159-.432.182-.319.023-.592-.023-.842-.25-.181-.182-.409-.182-.5.136-.022.114-.113.273-.204.205-.978-.728-1.978-.068-2.933 0-2.069.182-4.115.568-6.184.75-.432.046-.614-.159-.773-.5-.068-.159-.136-.409-.386-.205-.16.114-.228.364-.091.501 1 .886.386 2.046.568 3.092.045.25-.091.477-.341.522-.705.091-.546.592-.546 1.024 0 .136-.045.363.114.363s.091-.25.159-.386c.137-.319.5-.319.705-.546.182-.227.727-.159.523-.705-.046-.136.227-.341.409-.272.841.272 1.637-.114 2.433-.228 1.023-.136 2.069-.068 3.046-.318 1.182-.273 2.365-.455 3.547-.682 3.342-.591 6.729-1.023 10.094-1.569 3.547-.568 7.093-1.091 10.64-1.659 1.046-.182 2.091-.341 3.137-.501.25-.045.523-.068.773.069.387.204.841.091 1.023-.205.228-.364.455-.432.819-.364.113.023.227-.045.227-.159 0-.136-.136-.159-.25-.182-.114-.023-.227-.023-.341-.023-.296 0-.591.023-.909.023.159-.318.5-.159.75-.295.409-.228.227-.569.045-.773-.477-.523-.045-.387.273-.5.455-.137.75.022.978.341.204.272.045.5-.25.613-.091-.091-.16-.182-.251-.25-.022-.045-.045-.113-.068-.159l-.091.091c.069.023.114.046.182.068.091.091.182.159.273.25.205 1.069-.091 2.137-.091 3.206 0 4.57.296 9.162.114 13.732-.023.295-.023.614-.046.909-.091.75-.795 1.091-1.341.568-.682-.659-1.25-1.432-1.069-2.5.228-1.273.16-2.569.114-3.843-.114-3.091-.25-6.206-.386-9.298-.023-.818-.069-.887-.842-.659-1.614.477-3.273.864-4.797 1.637-.136.068-.295.113-.432.045-.863-.477-1.682-.091-2.364.273-.773.432-1.387.182-2.001-.114-.295-.136-.523-.25-.818-.182-1.819.432-3.729.455-5.547.932-.705.182-1.478.137-2.228.251-2.592.409-5.207.727-7.776 1.227-1.546.296-3.114.637-4.638.728-1.591.091-2.159 1.296-3.16 2-.523.341-.318 1.069-.25 1.615.296 2.887.273 5.82.455 8.707.114 1.91.318 3.797.273 5.706-.023.591-.182.91-.819.955-.75.046-.773-.068-1-.818-.568-2.001-.318-4.047-.523-6.07-.136-1.296-.023-2.638-.114-3.956l-.272-4.752c-.023-.25.045-.545-.25-.705-.683-.386-.773-1.068-.842-1.75-.022-.273-.022-.523-.227-.75-.068-.069-.205-.205-.182-.273.364-1.16-.023-2.387.296-3.592.113-.455.864-.751.477-1.251-.25-.318-.841-.068-1.296-.182-.705-.181-1.091-.636-1.137-1.25-.136-1.864-.954-3.297-2.5-4.342-.591-.387-.796-1.092-.932-1.774-.114-.591-.364-.977-1.046-.864-.591.091-.796-.181-.796-.773-.045-2.955.136-5.911.341-8.843.068-1.001.796-1.41 1.501-1.796.727-.41 1.5-.728 2.25-1.092.478-.227.932-.5 1.319-.864.455-.409.932-.795 1.591-.795.5-.023.637-.296.614-.751-.114-1.932-.318-3.842-.364-5.774-.022-.591-.227-1.182-.841-1.523-.5-.273-.659-.682-.409-1.251.25-.545.159-1.046-.068-1.614-1.205-3.024-.66-5.934.727-8.753.25-.523.387-.5.819 0 .068.091.113.205.227.182.205-.023.182-.205.182-.341 0-.068 0-.159-.023-.227-.477-1.342.296-2.16 1.251-2.865.477-.364 1.023-.659 1.546-.932.841-.409.977-.318 1.25.591.091.296.136.591.182.887.091.5.364.818.864.909-.455.273-.523.637-.364 1.137.273.887.432 1.819.682 2.728.137.477.091 1.41.568 1.273.614-.182.137-.955.023-1.455-.273-1.228-.409-2.523-.932-3.683zM43.84 28.866h.022l-.045.022c.068-.159-.023-.25-.159-.295-.341-.5-1.137-.455-1.342-1.114h-.022c.204.068.409.182.636.227 1.569.455 2.319 1.569 2.478 3.16.023.182.137.341.228.5h.022c-.295-.068-.545.023-.636.319-.137.386.25.363.454.477.523.341 1.046.728 1.569 1.046.546.341.614.273.705-.523l-.023.023c1.069.341 2.16.318 3.251.25 1.205-.091 2.41-.182 3.592-.432.137-.023.341 0 .319-.227 0-.091-.091-.205-.182-.273-.182-.137-.387-.228-.591-.341-2.024-1.183-4.093-2.274-6.071-3.524-2.159-1.387-4.456-2.342-7.002-2.683-1.227-.159-2.432-.523-3.66-.773-.273-.068-.591-.204-.773.205-.25.568 0 1.273.591 1.409a26.666 26.666 0 0 1 6.343 2.365c.068.136.159.204.296.182zm1.818 4.137l-.022-.045.022.045c.159.228.387.364.614.478.091.523.046.568-.091.477-.705-.568-.727-.045-.727.455 0 .341.022.682.045 1.023.023 1.432.046 2.864.091 4.32 0 .204-.091.522.25.5.296-.023.205-.341.205-.546.023-.978.068-1.955-.023-2.955-.068-.683-.023-1.365-.023-2.047 0-.113.069-.227.205-.204.045 0 .068.113.068.182.023.272.023.523.046.795.045 1.615.068 3.251.113 4.866 0 .159-.045.432.228.432.25 0 .182-.273.182-.432 0-1.751-.023-3.479-.023-5.229 0-.364-.25-.842.318-1.092.227-.091.023-.272-.068-.341-.205-.159-.455-.272-.659-.409-.205-.136-.41-.341-.751-.273zm-5.456 16.801c-.523-.091-1.046-.113-1.478.273-.068.068-.045.136.046.159.545.046 1.023-.045 1.432-.432.023-.045.182.046.136-.136l-.136.136zM7.76 50.986c-.66.614-.205 1.387-.251 2.069 0 .182.069.41.296.41.205-.023.296-.251.296-.432-.023-.705-.182-1.387-.364-2.069-.023-.068.159-.114 0-.182 0 .068.023.136.023.204zm.863-30.555c-.272-.182-.363-.477-.454-.75-.75-2.637-1.955-5.161-2.092-7.935 0-.204-.068-.409-.295-.386-.159.023-.159.227-.159.364-.023.909.159 1.818.431 2.682 1.069 3.297 2.183 6.571 3.274 9.867 2.137 6.48 4.274 12.982 6.411 19.461.114.364.251.705.023 1.091-.25.455.046.41.341.364 1.387-.159 2.797-.205 4.138-.614.864.159 1.637-.159 2.433-.432.045-.022.022-.204.045-.295l-.045.022h.227c.591 0 1.478.751 1.546-.613 0-.046.273-.091.409-.137.296-.068.591-.091.887-.159.227-.045.386-.136.318-.455-.296-1.205-.25-2.455-.341-3.705-.136-1.933-.205-3.843-.364-5.775-.227-2.819-.523-5.661-.818-8.48-.159-1.5-.341-3.001-.614-4.501-.091-.546-.114-1.114-.25-1.592-.159-.636.659-.773.409-1.341-.091-.205.296-.273.523-.319.182-.045.318.023.296.228-.069.886.454 1.659.477 2.546.068 2.205.25 4.388.364 6.57.068 1.251.25 2.524.045 3.729-.182 1.114-.182 2.16.137 3.206.022.113.091.227.068.341-.205 1.341.091 2.637.227 3.955.137 1.501.068 3.024.273 4.525.091.568.296 1.318-.705 1.386-.068 0-.113.16-.182.228.091.045.228.159.296.113.887-.341 1.887.228 2.774-.295 1.796.341 3.478-.523 5.251-.523.864 0 1.728-.182 2.547-.523.09-.045.25-.091.25-.159.022-.205-.16-.25-.296-.227-.591.068-1.205.159-1.796.227-.136.023-.318.068-.364-.136-.022-.137.114-.205.228-.205.886-.046 1.091-.523.841-1.296-.046-.136 0-.341.182-.318.182.022.068.25.113.363.091.342-.295.978.364.955.568-.022.364-.659.364-1.023-.068-2.887-.137-5.752-.227-8.639 0-.114 0-.227-.023-.341a1.378 1.378 0 0 0-.114-.273c-.045.114-.091.205-.114.319-.091.704-.204 1.432-.25 2.137-.091 1.591-.636 3.182-.272 4.797-.569.636-.342 1.409-.41 2.159 0 .114-.068.205-.113.296-.046-.114-.091-.205-.091-.318-.137-1.023-.046-2.046.068-3.069.432-3.979.841-7.98 1.341-11.959.137-1-.159-1.955 0-2.933.341-2.046.455-4.137.637-6.206.045-.591.068-1.205.159-1.796.091-.546-.114-1.092-.227-1.592-.114-.591.523-.409.523-.864.022-.773-.205-1.455-.364-2.159-.25-1.024-.591-2.024-1.228-2.888-.227-.318-.523-.409-.818-.545-.25-.114-.432.068-.364.227.25.568-.182 1-.205 1.5-.068 1.819-.204 3.638-.318 5.434-.046.546.068 1.159-.682 1.41-.227.068-.182.318 0 .454.159.137.25.296.227.478-.091.909.228 1.773.068 2.705-.181 1.228-.113 2.501-.341 3.729-.25 1.295.41 2.796-.841 3.887-.182.159.319.5-.136.637 0-.228-.023-.455-.023-.659 0-.114 0-.228-.023-.342-.022-.068-.045-.181-.091-.181-.136-.023-.204.091-.227.204-.045.137-.045.296-.091.432-.068.228.228.614-.114.659-.204.023-.09-.454-.113-.704-.023-.341 0-.682.023-1.023.045-.66.591-1.273.159-2.001-.069-.114 0-.341.159-.386.477-.137.386-.523.409-.842.182-2.319.091-4.66.364-6.979.113-1.046.068-2.115.113-3.183.069-2.228.16-4.456.228-6.707 0-.364.136-.796-.205-1.068a11.019 11.019 0 0 0-2.864-1.796c-.296-.137-.41.045-.432.318-.023.273-.023.523-.023.796l-.068 10.23c0 .773.113 1.592-.705 2.092-.114.068-.136.273-.205.409l.023-.023c-1-1.773-.25-3.819-.841-5.638-.023-.068.023-.159.045-.227.25-.864.114-1.728.046-2.592-.046-.523-.205-1.069-.137-1.569.182-1.318-.09-2.637.023-3.933.023-.364-.045-.659-.432-.818-.864-.341-1.75-.5-2.66-.569-.273-.022-.432.137-.432.387 0 .295 0 .614.023.909l.614 10.549c.045.841.068 1.66.091 2.501 0 .296.023.659-.409.682-.364.023-.682-.136-.773-.523a2.336 2.336 0 0 1-.114-.659c-.091-1.683-.455-3.319-.591-5.002a160.893 160.893 0 0 0-.796-7.32c-.091-.66.091-1.524-.432-1.933-.636-.477-1.523-.227-2.319-.204-.045 0-.068 0-.113.022-.66.137-.955.478-.864 1.16.341 2.591.75 5.161 1.045 7.752.296 2.478.91 4.911.819 7.435-.023.613.136 1.204.318 1.773.137.432.25.886.318 1.318.296 2.069.592 4.115.887 6.184.046.296.182.682-.045.864-.41.341-.25.682-.16 1.023 1.001 4.706 1.365 9.503 2.092 14.255.068.432.182.864.068 1.319-.5-.296-.318-.842-.386-1.274-.228-1.341-.228-2.705-.569-4.024-.363-1.341-.25-2.751-.522-4.115-.728-3.683-1.274-7.388-1.887-11.071-.251-1.501-.501-2.979-.751-4.479-.113-.637-.273-1.069.273-1.546.205-.159.137-.637-.136-.682-.91-.182-.819-.932-.91-1.501-.432-2.5-.795-5.001-1.205-7.502a374.17 374.17 0 0 0-.932-5.479c-.159-.932-.227-1.001-1.091-.705-.773.25-1.682.205-2.228.978-.591-.114-.523.182-.455.636.205 1.796.841 3.479 1.114 5.252.455 3.092 1.569 6.07 1.728 9.23.023.409.091.841.25 1.228.409 1.046.728 2.114.841 3.228.046.5.614.341.637.614.023.273-.5.432-.318.841.022.068.022.205.068.205.568.25.182.682.25 1.046.386 2 .682 4.001.978 6.002.204 1.455.636 2.887.954 4.319.41 1.933.773 3.865 1.183 5.775.068.295 0 .705.409.841.409.159.591.364.409.5-.523.364-.341.773-.205 1.205.137.478.069.773-.522.864-.273.045-.546.25-.546.637-.091-.069-.159-.16-.25-.228-.182-.113-.364-.227-.569-.341a6.92 6.92 0 0 1 .637-.182c.932-.204.932-.182.75-1.136-.022-.069-.022-.16-.045-.228-1.455-6.957-3.069-13.891-4.956-20.757-.41-1.523-.864-3.046-.341-4.637.068-.205-.046-.387-.182-.501-.66-.454-.75-1.182-.91-1.887-.363-1.546-.75-3.091-1.136-4.637L11.67 3.653c-.227-.932-.341-.978-1.137-.591-.841.409-1.523.977-2.114 1.705-.341.432.159 3.024.636 3.046.569.046.501.387.569.66.113.386.091.818.136 1.227l.023-.023c-.273.228-.296.478-.205.819.66 2.364 1.273 4.729 1.865 7.116A30.783 30.783 0 0 0 12.67 21.5c.478 1.136.228 2.591 1.455 3.432.182.819.478 1.592.773 2.365.114.318.182.636-.432.477-.454-.113-.545.319-.432.682.273.773.637 1.524.91 2.297 1.364 3.933 2.25 8.002 3.387 12.003.114.432.387.842.205 1.296-.614-.159-.705-.704-.841-1.205-.137-.477-.273-.932-.41-1.409-.841-3.092-1.659-6.207-2.546-9.299-.796-2.841-1.5-5.706-2.455-8.502-.75-2.206-1.592-4.388-1.66-6.775 0-.228-.023-.501-.25-.614-.591-.296-.659-.887-.818-1.41-.751-2.41-1.501-4.842-2.251-7.252-.046-.159 0-.409-.25-.409-.159 0-.228.159-.296.295-.386.796-.636 1.614-.886 2.456-.069.25-.16.682.022.75.705.273.319.818.387 1.227.045.342-.068.683.045 1.024.341 1.045.682 2.091 1.001 3.137.454 1.5 1.114 2.865 1.295 4.365zm27.873 13.072c.091 2.956.159 5.139.228 7.321.022.955.181 1.137 1.159 1 2.137-.295 4.251-.613 6.389-.954.909-.137.932-.182.932-1.092 0-2-.023-4.001-.023-6.024 0-.387-.023-.751-.341-1.046-.432-.409-.341-.887-.159-1.364.318-.887.295-1.114-.478-1.66-2.046-1.41-4.319-2.319-6.729-2.865-.705-.159-1 .114-.955.819.159 2.228-.091 4.433-.023 5.865zM.325 35.891h.023c-.023.568-.068 1.136-.068 1.705 0 .273.023.523.341.636.546.182 1.091.364 1.66.341 2.182-.113 4.319-.523 6.479-.795a5.005 5.005 0 0 0 1.296-.364c.432-.182.614-.478.545-.978-.181-1.046-1.318-2.069-2.546-2.114-1-.046-1.637-.591-2.046-1.387-.386-.75 0-1.887.682-2.569.409-.409.955-.614 1.432-.887 1.114-.613 1.319-1.114.978-2.319-.091-.295-.205-.591-.205-.886-.068-1.66-.886-3.138-.932-4.797 0-.114-.045-.25-.182-.205-.068.023-.113.182-.091.296.023.568.069 1.136.091 1.705.069.955.137 1.887.182 2.842.023.409-.113.75-.636.727-.569-.023-1.023.25-1.433.614-.727.637-1.546 1.069-2.41 1.478-.613.295-1.204.636-1.796.955-.659.341-.977.886-1.023 1.637-.091 1.432-.227 2.91-.341 4.365zm10.845 9.344c.886-.273 2.091-.091 3.251-.341 1.068-.228 1.091-.182.773-1.205-1.66-5.07-3.319-10.14-4.979-15.187-.068-.228-.091-.614-.387-.546-.204.068-.022.387.023.614.023.114.046.273-.023.318-.636.5-.318 1.183-.318 1.796.023 1.069.137 2.115.182 3.183.023.546.136.955.659 1.205.341.182.614.432.614.864 0 .637.159 1.273.25 1.91.114.659.023 1.364-.568 1.728-.614.363-.659.818-.614 1.432.091.932.091 1.887.159 2.842.023.295.023.614.068.909.046.341.228.591.91.478zm-3.592-1.296c-.091-.978-.205-1.91-.25-2.865-.023-.591-.296-.705-.796-.636-.705.09-1.432.159-2.137.227-.591.068-1.205.114-1.796.182-.182.023-.387.045-.364.318.023.114.068.205.091.318.682-.272.546.41.705.66.341.5.591 1.023 1.205 1.296.5.227.886.659 1.045 1.136.251.751.796 1.387.705 2.228-.045.364.228.637.364.932.205.387.637.546 1.091.432.478-.113.341-.523.319-.841-.023-1.091-.273-2.251-.182-3.387zm1.364 13.686h-.046c.137 3.183.228 6.343.432 9.526.091 1.546 0 3.115.364 4.638.045.227-.114.636.227.636.319-.022.182-.432.205-.659.023-.114-.023-.227-.023-.341 0-2.956-.318-5.888-.318-8.844 0-1.614-.068-3.228-.273-4.842-.227-1.774-.091-3.547-.364-5.298-.159-1.091.046-2.182-.181-3.273-.228-1.092.591-2.206-.069-3.297-.045-.091-.022-.227.023-.341.546-1.637-.136-3.296 0-4.933.023-.273-.136-.41-.432-.387-.273.023-.386.159-.386.432.022.614 0 1.205.022 1.819.25 5.047.523 10.094.819 15.164zm33.67-15.846c-.182-.091-.318 0-.478.114-.386.25-.841.318-1.295.386-3.115.455-6.207.909-9.322 1.341-3.296.455-6.593.864-9.889 1.296-3.365.432-6.752.841-10.14 1.228a1.949 1.949 0 0 0-.932.364c-.159.113-.523.136-.409.432.182.409.318-.091.5-.091.341 0 .659-.114 1-.159 2.501-.319 5.025-.637 7.525-.978 7.071-.955 14.141-1.932 21.235-2.933 1.955-.273 3.887-.568 5.82-.864.182-.022.454 0 .454-.204 0-.273-.318-.273-.522-.341-.205-.046-.364.113-.523.136-1.001.136-1.978.523-3.024.273zm5.524-.614v1.023a.4.4 0 0 0 .137.273c.159.068.295-.023.364-.182.204-.637.568-1.273.591-1.91.022-.841.341-1.523.773-2.137.545-.75.886-1.568 1.182-2.41.25-.659.182-.773-.568-.75-.501 0-.978.068-1.478.091-1.114 0-1.182-.159-1.205 1.16.023 1.614.409 3.228.204 4.842zm-44.628-.864c1.864-.227 3.797-.636 5.752-.773.5-.045.841-.477 1.25-.75.228-.159.228-.478.137-.728-.046-.181-.205-.181-.364-.136-1.25.455-2.614.364-3.91.705-1.819.5-3.661.5-5.525.318-.341-.045-.614-.114-.659.341-.046.387-.114.819.477.819.955 0 1.865.136 2.842.204zm43.605 17.074h-.091v-4.888c0-.978-.022-1.978-.136-2.956-.023-.181 0-.477-.205-.477-.204 0-.159.273-.159.455v.454c-.045 4.775.319 9.526.228 14.301 0 .181 0 .386.045.568 0 .068.091.114.136.182.046-.046.137-.091.137-.159.023-.296.045-.591.045-.91v-6.57zm-.704.159c-.182-3.001-.228-5.32-.228-7.616 0-.227.137-.637-.204-.637-.319-.022-.25.387-.273.637-.023.159 0 .295 0 .455.045 1.25.136 2.5.113 3.728-.045 3.138.455 6.252.182 9.39-.022.204-.045.568.205.568.296 0 .182-.341.182-.546.023-2.228.023-4.456.023-5.979zM8.282 31.776h.069c0 .568-.023 1.114 0 1.682.022.409.318.614.682.614.386 0 .273-.387.273-.614a90.08 90.08 0 0 0-.205-3.478c0-.137 0-.296-.182-.364-.159-.046-.296.068-.409.136-.296.182-.341.478-.318.796.022.409.045.818.09 1.228zm-.409 1.386c-.045-.704-.045-1.25-.091-1.773-.022-.341.182-.864-.204-1-.364-.114-.614.341-.864.614-.341.386-.478.841-.432 1.364.023.227.068.5.295.545.387.091.501.41.705.66.159.204.387.227.5-.091.069-.137.091-.341.091-.319zm39.854 5.457h-.182v-3.297c0-.159-.022-.386-.159-.386-.25 0-.204.25-.204.409 0 1.978 0 3.933.022 5.911 0 .114 0 .227.046.341.068.159.113.432.318.432.227-.023.136-.296.159-.455.023-1 0-1.978 0-2.955zM33.222 11.905v1.842c0 .159-.022.432.251.409.181 0 .181-.204.181-.364.046-1.136-.022-2.25.205-3.387.023-.136-.023-.296-.023-.455 0-.136-.113-.204-.204-.227-.205-.046-.273.114-.273.25-.068.705-.091 1.387-.137 1.932zM15.58 19.431c.273 1.068.591 2.228.887 3.387.114.432.159.887.432 1.273.318-.477-.046-.932-.114-1.364-.182-1.137-.5-2.273-.75-3.41-.023-.136-.068-.318-.25-.318-.25-.023-.182.182-.205.432zm17.665-.182c.023-.409.068-.819.091-1.228a.398.398 0 0 0-.136-.273c-.114-.068-.228.046-.228.159-.068 1.228-.113 2.456-.182 3.683 0 .069.023.137.023.228.046-.068.091-.159.114-.228.273-.75.273-1.545.318-2.341zm-7.957 5.456c-.068-.705.046-1.432-.136-2.137-.023-.091-.16-.182-.25-.182-.137 0-.16.137-.137.25.114 1.228.137 2.456.478 3.661.022.113.068.204.091.318.022-.114.068-.227.045-.318-.023-.546-.068-1.069-.091-1.592zM9.737 43.825h-.045v-1.91c0-.068-.045-.159-.068-.227-.023.068-.046.136-.046.227v3.592c0 .069-.045.205.114.205.023 0 .045-.136.045-.205v-1.682zM20.9 21.568c-.113-.751-.25-1.523-.386-2.296-.023-.091-.137-.182-.205-.251-.023.091-.114.205-.091.296.137.773.273 1.546.432 2.296.023.091.091.182.137.273.045-.091.068-.182.113-.318zm15.755 28.668c-.386.023-.704.068-1 .273-.023.023-.023.159.023.182.364.159.727.091 1.068-.068.091-.046.114-.182.182-.25a.992.992 0 0 0-.273-.137zM7.669 54.374c.068.295-.023.682.363.864.046.023.16-.023.182-.068.25-.341-.204-.523-.182-.819 0-.045 0-.068-.022-.113-.046-.091-.046-.251-.205-.228-.182.046-.114.228-.136.364zm8.912-5.047c-.091.023-.228.045-.364.091.091.25.295.113.432.136.136 0 .386.023.386-.091 0-.159-.25-.113-.454-.136zM9.556 9.2c.045-.295-.091-.5-.319-.637-.113-.068-.159.091-.136.182.068.228.023.523.295.66.091.045.137-.114.16-.205zM18.9 49.281c-.205-.068-.25-.113-.296-.113-.136 0-.273.022-.432.045.068.023.114.023.182.023.136.023.273.023.546.045zm-8.458-3.614c-.159 0-.273.09-.25.25 0 .045.091.113.137.113.159 0 .295-.068.318-.227.023-.091-.091-.114-.205-.136zm35.33-4.479c.114 0 .205-.046.182-.182-.046-.114-.159-.114-.273-.114-.114 0-.205.046-.182.182.046.137.182.091.273.114zm-30.487 8.48l.068.045.023-.045h-.091z" fill="#fff" fill-rule="nonzero"/><path d="M89.639 3.403c.023.273.046.545-.136.773-.205.273-.227.568-.205.864.069.909.023 1.796.023 2.705 0 2.705-.045 5.411-.114 8.139-.022.523-.159.932-.727 1.16-.25.113-.387.227-.455-.137-.045-.25-.114-.523-.114-.796 0-.318.091-.363.364-.136.25.205.5 0 .546-.318.045-.41.068-.841.068-1.251.023-3.524.023-7.047.023-10.549 0-1.159.023-1.159 1.137-1.432.613-.159 1.227-.341 1.841-.523.909-.295 1.273.023 1.182.978-.204 2.273-.113 4.547-.182 6.797-.022.501 0 .978-.022 1.478 0 .137.068.341-.182.319-.046 0-.091-.205-.091-.296-.023-.728-.068-1.432-.068-2.16 0-1.932.022-3.865.045-5.797 0-.796-.091-.932-.796-.728-.773.228-1.682.114-2.205.932l.068-.022zm-5.274 2.751c.023.181.091.363.091.568 0 .477.659 1.091-.25 1.387-.023.682-.023 1.341.341 1.955.045.091.364.136.182.273-.614.454-.25 1.023-.273 1.546-.046.636.364 1.296-.068 1.909-.319-.591-.16-1.25-.228-1.864a72.093 72.093 0 0 1-.386-5.433c-.023-.773.159-1.319.818-1.728.819-.5 1.614-1.001 2.501-1.319.387-.136.637-.068.682.432.159 2.228.182 4.456.227 6.684 0 .114-.045.296-.091.296-.181.022-.25-.137-.25-.296a429.333 429.333 0 0 1-.25-5.32c-.045-1.523-.045-1.546-1.364-.818-.523.295-1.114.477-1.455 1.023l.023-.023c-.182 0-.273.068-.25.25l.023-.023c-.41.16-.205.319 0 .478l-.023.023z" fill="#fff" fill-rule="nonzero"/><path d="M88.162 13.838c-.114.295.204.773-.228 1.114-.204-.387-.113-.796-.136-1.205-.023-.591-.023-1.205-.023-1.796 0-.091.068-.182.091-.296.045.091.136.182.136.273a7.4 7.4 0 0 1 .16 1.91zm-.387 5.729c.318-.364.341-.818.341-1.273 0-.273.023-.546.409-.523.364.023.41.296.41.568 0 .341.045.682-.432.796-.273.068-.41.455-.773.409l.045.023zm2.887-2.092c-.272.023-.409-.204-.409-.477 0-.341.273-.409.523-.455.296-.045.364.182.387.41.022.318-.114.522-.501.522zm-4.41-.613c-.227-.046-.318-.205-.318-.387 0-.25.136-.432.386-.455.25-.022.455.137.455.387 0 .296-.364.273-.523.455zm6.07-4.547c.136.022.387-.091.409.045.068.546.296 1.069.182 1.637-.023.136-.091.341-.273.296-.159-.023-.113-.228-.159-.364-.091-.546.182-1.114-.136-1.637l-.023.023zm12.163 5.297c-.068.227-.227.273-.409.25-.182-.045-.455-.114-.432-.25.045-.318.364-.296.614-.296.159 0 .227.137.227.296zm-80.629-5.093c.113-.091.341-.182.364-.045.09.545.272 1.137-.16 1.659l.023.023c-.023-.545.091-1.137-.25-1.637h.023zm84.312 43.242c-.341-.091-.386-.159-.364-.296.023-.318.182-.477.501-.432.113.023.272.023.204.182-.114.227-.273.432-.341.546zM107.6 9.814c-.159-.409-.068-.796.068-1.182.023-.069.159-.046.182.022.023.41 0 .796-.25 1.137v.023zM90.89 42.62c-.023.091-.091.136-.159.068-.046-.045-.091-.113-.091-.182 0-.091.091-.136.159-.091.045.046.068.16.091.205zm19.733 4.706c0 .182-.09.228-.204.25-.159.023-.318 0-.273-.204.023-.091.159-.182.25-.182.068-.023.159.091.227.136zM91.708 21.431c.046.046.114.091.114.137 0 .136-.091.182-.205.136-.045-.023-.091-.136-.068-.182 0-.022.091-.045.159-.091zM30.017 48.508c.023.023.068.023.091.046-.046 0-.068.023-.114.023-.114 0-.159-.023-.091-.046.046-.045.091-.023.114-.023zm-11.504 1.66c-.023.068-.045.159-.091.182-.068.045-.159 0-.182-.068-.022-.091 0-.182.068-.182.069 0 .137.045.205.068zm10.231-40.059l-.023.046v-.091l.023.045zm63.601 2.183c-.159-.068-.205-.205-.182-.364 0-.023.045-.023.091-.045.023.113.045.204.068.318v.114l.023-.023zm-1.592 9.594c-.068.045-.136.023-.159-.068a.34.34 0 0 1 .068-.159c.046-.023.114.022.182.045-.022.091-.045.137-.091.182zM72.884 49.872a.453.453 0 0 1-.137.091.173.173 0 0 1-.091-.045c-.045-.068-.022-.136.069-.159a.732.732 0 0 1 .159.113zm37.376-.227c.022-.023.045-.068.068-.068.068-.023.136 0 .114.091 0 .023-.046.068-.046.068-.045-.045-.091-.068-.136-.091zM97.778 43.78c.023-.023.023-.046.046-.046.091-.023.113.023.113.091 0 .023-.022.045-.045.091-.045-.046-.068-.091-.114-.136zm-84.926 7.229c-.023.046-.045.137-.091.159-.045.023-.136-.022-.182-.068-.045-.068 0-.136.069-.136.09 0 .136.045.204.045zm77.424-9.685c-.023.023-.068.023-.091.046 0-.023-.023-.069-.023-.091 0-.023.068-.023.091-.023 0 0 0 .023.023.068zm20.12 3.751c-.023 0-.068-.022-.068-.022 0-.091.045-.114.091-.046 0 0-.023.046-.023.068zM84.569 5.676c-.068.159-.159.318-.227.478h.023v-.478l-.023.023h.25c.023 0-.023-.023-.023-.023zM11.534 51.691c-.023.023-.023.068-.046.068-.068.023-.114-.022-.091-.09 0-.023.046-.046.068-.046.046.023.046.046.069.068zm-.41-3.069c.023.046.069.114.091.159 0 .023-.022.046-.022.068-.023-.091-.023-.159-.046-.25l-.023.023z" fill="#fff" fill-rule="nonzero"/><path d="M85.07 5.494c-.159.069-.319.114-.501.182l.023.023v-.25l-.023.023c.16.022.319.045.478.045.023 0 .023-.023.023-.023zM38.088 47.235l-.046.091-.023-.113.069.022zm-.864.091c0 .023.023.068.023.091-.091.068-.137.046-.114-.068 0 0 .045-.023.091-.023zm-22.076 3.433c-.022.023-.022.068-.045.068-.068.023-.114-.022-.091-.091 0-.022.045-.045.068-.045.046 0 .046.045.068.068zM33.745 7.268c.023.022.046.045.046.091 0 .022-.046.045-.046.068-.022-.023-.045-.046-.045-.068-.023-.046.023-.069.045-.091zm13.277 35.216c-.045.091-.068.182-.113.295a1.557 1.557 0 0 1-.114-.295l-.023.022h.273l-.023-.022zm54.508-15.051h.068c.023.023.023.069.023.091-.046.091-.091.091-.114 0-.023-.022 0-.045.023-.091zM88.912 17.362c0 .023-.023.068-.023.068-.023 0-.068 0-.091-.023-.023-.022 0-.068.023-.091a.172.172 0 0 0 .091.046zm20.848 38.853c-.023 0-.069.023-.069.023-.022-.023-.045-.068-.022-.091.022-.091.068-.113.113-.022 0 .022-.022.045-.022.09zm-93.543-5.592l-.023-.068h.068l-.045.068zm71.899-8.73l.023.068h-.068l.045-.068zm-52.597 5.706l.045-.023v.068l-.045-.045zM85.07 5.517l.045-.068-.045.045v.023zm10.458 11.89c-.046.25-.069.5-.387.478-.25-.023-.409-.205-.432-.455-.045-.296.182-.386.409-.409.296-.046.387.159.41.386zm-3.229 26.236c.091.046.159.068.25.114-.022 0-.068.023-.091.023-.045-.046-.091-.114-.136-.16l-.023.023zm4.002-25.349c.022 0 .068-.046.068-.023.091.023.091.068.023.114-.023.023-.069 0-.091-.023v-.068zm.704-5.388v.068l-.045-.023.045-.045zm-3.478 5.229c.068.113.068.091.023 0h-.023zm.023-.023c-.114.023-.25.023-.364.046h.023c.113-.023.204-.023.318-.046 0 .023.023 0 .023 0zm7.639-1.546c.113.728-.364 1.364-.273 2.092.022.113-.046.25-.182.227-.114-.023-.137-.159-.114-.273.205-.682.182-1.432.614-2.023l-.045-.023zm.932-3.365c-.364.319-.25.751-.228 1.137-.136-.068-.432.137-.409-.205.046-.363.159-.727.25-1.091.046-.182.182-.5.228-.477.204.136.159.409.159.636zm-2.024 4.434c.023.386-.295.363-.523.409-.227.023-.318-.137-.341-.341 0-.273.16-.387.41-.409.25-.023.454.045.454.341zm-.659 9.571c-.25.386-.205.887-.409 1.341-.205-.477-.023-.932.022-1.387.023-.159.023-.386.251-.386.045-.023.091.25.136.432z" fill="#fff" fill-rule="nonzero"/><path d="M101.666 15.475c-.477.295-.182.75-.227 1.137-.091-.023-.159-.023-.25-.046l.022.023c-.204-.432-.113-.887.046-1.273.182-.364.295.022.409.159zM95.664 38.71c-.068.091-.136.204-.25.318-.068.068-.159.023-.159-.068-.023-.159.091-.273.227-.341.091-.091.137-.068.182.091zm6.525-27.487c.136.091.114.205.045.296-.068.091-.159.136-.227.227 0-.091-.045-.204-.023-.295.046-.091.137-.159.205-.228zm-4.706 19.348c.023.182.023.273.023.386 0 .114-.069.228-.182.205-.137-.046-.091-.182-.046-.273.046-.114.114-.182.205-.318zm-2.342 11.731c-.068-.046-.114-.068-.182-.114.091-.068.159-.159.25-.182.114-.068.25-.022.182.137-.023.091-.159.113-.25.159zm3.228-16.778c.069-.091.16-.137.273-.091.046.022.091.136.068.159-.045.091-.159.113-.272.068-.069 0-.091-.068-.069-.136zm-1.386 7.593c-.023.068-.046.136-.091.182-.069.045-.137.023-.182-.068-.046-.091-.023-.159.068-.159.068-.046.136.022.205.045zm-1.319 2.524c-.023-.069-.091-.114-.091-.16.023-.136.114-.159.227-.091.046.023.069.137.046.182-.023.046-.114.046-.182.069zm2.705-7.071a.576.576 0 0 1-.136.114.172.172 0 0 1-.091-.046c-.045-.068-.045-.136.046-.136.068 0 .136.045.181.068zm1.251-3.569c0-.114 0-.228.023-.341 0-.069.045-.137.068-.205.023.068.091.114.091.182 0 .159-.023.318-.182.364zm-4.092 15.255c-.046.045-.069.091-.114.136a.994.994 0 0 1-.068-.159.17.17 0 0 1 .045-.091c.046.023.091.068.137.114zm-.069-6.571c.069 0 .137-.022.205-.022h.205c.022.204-.114.091-.182.091-.068-.023-.137-.046-.182-.091-.023.022-.046.022-.046.022zm2.569-.272c.046.045.091.068.114.113-.045.023-.114.068-.159.068-.023 0-.068-.045-.068-.068.045-.045.068-.091.113-.113zm-.409 3.046c.023-.136.023-.273.046-.387.022.023.045.046.045.069a1.557 1.557 0 0 1-.114.295c0-.022.023.023.023.023zm2.615-20.643c-.046.068-.114.068-.182 0a.069.069 0 0 1 0-.091c.045-.068.113-.091.159-.023.023.046.023.091.023.114zm-5.275 28.123c-.068.068-.113.136-.136.136-.068 0-.137-.045-.159-.091-.023-.045.022-.136.045-.204.068.045.159.113.25.159zm4.638-18.938c.046.136.068.273-.023.386 0 .023-.091 0-.091-.023a.323.323 0 0 1 .114-.363zm-1.228 2.432c-.022.023-.068.046-.09.023-.091-.023-.114-.091-.023-.136.023-.023.068 0 .091.022.022 0 0 .046.022.091zm-.568-8.957l.023-.068-.023.045v.023zM72.838 44.553c-.022.045-.045.136-.068.159-.068.045-.136.022-.159-.069 0-.068.045-.113.068-.181.046.022.114.068.159.091zm36.421-28.76c.023 0 .069-.045.091-.023.091.023.091.069.023.114-.023.023-.068 0-.091-.023-.023 0-.023-.045-.023-.068zm1.387-5.479v.046h-.045l.045-.046zm-1.864 6.889v-.069l.045.023-.045.046zm-7.161 20.779l.09.023-.068-.046-.022.023zm-19.28-22.689c.296.023.432.182.41.455-.023.272-.182.409-.455.386-.273-.023-.386-.182-.386-.455.022-.295.204-.386.431-.386zm-.704 6.366c0 .113.022.272-.091.25-.159-.046-.114-.228-.114-.364 0-.114.046-.205.046-.318.227.091.068.318.159.432zm2.228 6.184c.068.022.159.045.182.09.045.069 0 .16-.069.182-.068 0-.136-.045-.204-.068.023-.091.068-.136.091-.204zm1.5 13.049c.023.023.046.046.046.091 0 .091-.046.114-.137.091-.022 0-.045-.045-.068-.068.068-.046.114-.068.159-.114zm24.326-10.867c-.022-.023-.045-.045-.045-.068 0-.091.045-.091.114-.046.022.023.022.069 0 .091 0 0-.046.023-.069.023zm-35.989 3.16c-.204.569-.545 1.001-1.159 1.16.227-.546.75-.819 1.159-1.16zm6.548-6.638c-.023.068-.046.113-.068.182-.069-.023-.137-.046-.159-.091-.023-.046.022-.137.068-.16.068-.068.136-.022.159.069zm-2.956.841c0 .068.023.136 0 .182 0 .022-.068.022-.091.022v-.204c0 .023.069.023.091 0zm-.568.318c-.023-.023-.045-.045-.091-.068a.172.172 0 0 1 .091-.046c.023 0 .045.046.068.069-.023 0-.045.022-.068.045zm-3.387 3.501l.045.091-.068-.023.023-.068z" fill="#fff" fill-rule="nonzero"/><path d="M73.93 32.958l-.25.25c.068-.091.159-.159.25-.25zm37.739 16.187v-.341c.023-.114.068-.227.205-.227.023 0 .091.022.091.045.068.114.023.205-.068.296l-.273.204.045.023zm-41.081-6.502c-.023-.114-.069-.205-.046-.296 0-.113.091-.182.205-.091.091.069.113.182.045.296-.045.023-.113.045-.204.091zm10.799-6.116c-.046-.045-.114-.113-.114-.159.023-.136.114-.182.227-.114.046.023.091.137.069.182-.023.046-.114.068-.182.091zM28.585 16.384c.227 0 .591-.023.591.182.045.796.591 1.41.568 2.251-.114 3.251-.136 6.502-.205 9.776 0 .25.251.75-.409.75-.091 0-.113.682.114 1.046.114.182.386-.091.455.113.022.046-.364.182-.387.296-.068.318-.068.682-.068 1.023v9.094c0 .182 0 .386-.023.568 0 .046-.068.114-.136.137-.068.045-.137-.023-.159-.114-.023-.182-.023-.386-.023-.568-.023-1.433-.068-2.888-.046-4.32.091-3.865-.227-7.73-.25-11.595 0-.272.023-.568-.091-.773-.432-.704-.227-1.386-.136-2.114.091-.659.045-1.364-.068-2.046-.228-1.296-.182-2.524.295-3.751l-.022.045zm.682 6.343h.091v-4.206c0-.273 0-.477-.432-.477-.364 0-.341.204-.364.409a2.346 2.346 0 0 0 0 .568l.341 5.661c.045.728.114 1.433.204 2.16.023.137.046.273.091.409.023-.159.069-.295.069-.454v-4.07zm2.364 17.37c.25-3.456.296-6.957.705-10.39.023-.137-.091-.387.136-.364.205.023.046.227.068.341.16 2.637-.295 5.252-.409 7.889-.068 1.546-.318 3.069-.227 4.638 0 .114 0 .25-.159.25-.182 0-.25-.159-.228-.318.023-.682.069-1.364.114-2.046zm-11.436-4.206c0-.046-.159-.25.023-.273.159-.023.159.227.159.364 0 .682.387 1.295.432 1.977 0 .114 0 .228-.022.341-.182-.045-.091-.227-.137-.318-.227-.682-.409-1.341-.455-2.091zm11.277-20.825c.023.272-.159.432-.387.477-.318.091-.5-.114-.545-.409-.046-.25.136-.432.364-.478.318-.091.454.16.568.41zM28.926 42.87c.022 0-.069-.068-.069-.182 0-.136.137-.159.25-.159.455.023.887-.023 1.342-.091.182-.023.432-.318.523.023.045.182-.25.205-.432.227-.5.068-.978.114-1.614.182zm-6.844-26.395c-.272-.045-.432-.204-.409-.477.023-.273.228-.364.478-.341.25.022.432.159.386.432-.023.272-.227.386-.455.386zm4.616-1.205c.318.023.454.182.432.455-.023.273-.205.386-.455.364-.227-.023-.318-.159-.318-.387 0-.25.113-.432.341-.432zm9.116-.932c-.023.205-.113.364-.341.387-.341.045-.295-.25-.364-.432-.068-.228.046-.364.273-.364.25 0 .409.136.432.409zM22.696 43.87c-.295-.181-.932.16-.932-.25 0-.341.614-.091.932-.181.114-.023.341-.091.341.09-.022.137-.25.228-.386.341h.045zm-5.07-28.054c.251 0 .273.159.273.295.023.228-.045.432-.363.41-.182-.023-.251-.137-.273-.273 0-.273.204-.364.363-.432zm10.231 26.94c.136.023.318.023.296.137-.114.341-.432.227-.66.227-.113 0-.386 0-.295-.204.136-.25.477-.069.659-.16zm-8.821-13.799l-.068.409a.765.765 0 0 1-.273-.591c0-.137-.045-.364.159-.319.227.046.114.319.182.501zM32.381 9.564c0-.114.023-.25.137-.25.227 0 .182.204.159.341-.023.204.068.591-.137.568-.227-.023.046-.455-.159-.659zM19.9 33.89c0 .114.023.25.045.409-.272-.159 0-.477-.181-.659-.069-.068-.137-.273-.023-.273.318.046.068.341.159.523zm13.141 8.253c.091.045.272-.137.272.068 0 .045-.318.091-.477.136-.114.023-.341.114-.296-.113.069-.16.341-.046.501-.091zm-.592-27.327c-.022.181-.045.318-.068.477-.159-.136-.068-.318-.091-.477 0-.137-.045-.296.091-.41.023.159.046.296.068.41zm2.479 16.118c-.069.091.113.273-.091.341 0-.159 0-.295.022-.454 0-.091-.022-.296.069-.25.204.068-.046.227 0 .363zM32.7 28.115c-.023.137 0 .319-.16.387-.022.023-.181-.114-.204-.205a.272.272 0 0 1 .182-.341c.182-.091.182.046.182.159zm-9.481 5.593c-.068-.023-.159-.023-.182-.068-.068-.114-.022-.227.091-.273.046-.023.159.023.182.068.068.091.046.205-.091.273zm8.071 5.456a1.155 1.155 0 0 0-.045.25c-.023-.09-.069-.181-.091-.272 0-.091-.046-.205.091-.25a.96.96 0 0 0 .045.272zm4.297-14.709c0 .136.023.25.023.364-.023.113-.069.113-.091.045a.31.31 0 0 1 0-.204c-.023-.069.022-.114.068-.205zm-1.41 14.459c-.022.114-.113.205-.227.182-.046 0-.068-.113-.068-.182 0-.113.068-.227.204-.159.046.023.069.114.091.159zm-1.932-20.506l-.068.204c-.023-.091-.069-.182-.069-.273 0-.068.046-.136.069-.204.091.045.045.159.068.273zm-5.002 23.03c-.045.068-.091.204-.159.227-.136.046-.205-.068-.182-.182.023-.113.068-.227.205-.227.045.023.091.114.136.182zm4.524-13.141l.137.137c-.046.045-.091.068-.159.113 0 0-.069-.045-.069-.068a.704.704 0 0 1 .091-.182zm3.547-.341c-.114-.045-.182-.113-.136-.227.022-.046.091-.114.136-.114.136.023.159.137.136.228 0 .022-.09.068-.136.113zM23.56 36.027c-.045.045-.091.136-.113.136-.114-.022-.182-.113-.114-.227.023-.045.114-.068.159-.114.045.069.045.137.068.205zm.864 5.32c.023.091 0 .159-.091.182-.091.023-.159 0-.182-.091 0-.068.046-.137.069-.205.068.068.136.091.204.114zm9.344-1.432c-.023-.069-.068-.137-.045-.182.022-.046.113-.068.159-.068.091.022.113.091.068.159a.473.473 0 0 1-.182.091zM17.581 23c.023-.023.045-.068.068-.068.091-.023.137.023.137.114 0 .022-.046.068-.069.068-.091 0-.136-.046-.136-.114zm-.909-5.047c-.046.045-.091.091-.137.114-.023-.046-.068-.114-.091-.16 0-.022.068-.068.068-.068.069.046.114.091.16.114zm19.233 3.933c.046.023.137.045.159.091.023.114-.022.205-.136.227-.046 0-.137-.045-.159-.091-.046-.113 0-.204.136-.227zM19.15 30.525l.068.023-.046.091-.022-.114zm-2.274-11.822c0 .068-.068.114-.159.091-.023 0-.068-.045-.068-.068 0-.091.068-.137.159-.091.023 0 .045.045.068.068zm17.779 14.619c-.068-.023-.137-.046-.159-.091-.023-.046.022-.137.068-.182.068-.046.159 0 .159.068 0 .091-.046.159-.068.205zm2.16-18.461c-.046.068-.069.114-.114.182-.046-.068-.091-.114-.091-.182 0-.068.068-.114.091-.182a.49.49 0 0 0 .114.182zm-4.411 1.546c-.023.045-.068.114-.091.114-.068.022-.114-.046-.091-.114 0-.023.023-.068.068-.068.046-.046.091-.023.114.068zm-16.005.75c.023.046.091.091.091.159 0 .091-.046.137-.137.091a.173.173 0 0 1-.045-.091c-.023-.091.023-.159.091-.159zm14.595 24.395l-.022-.114.068.023-.046.091zm-8.411-12.027c-.023-.068-.023-.114-.046-.182 0 0 .046-.023.068-.045.023.068.023.113.046.181 0 .023-.046.046-.068.046zm12.572-1.023c-.023 0-.068.023-.068.023-.023-.023-.046-.046-.023-.069.023-.091.068-.091.114-.022 0 0-.023.045-.023.068zm.909-8.912c.023.023.046.023.091.045-.045.023-.068.068-.113.091-.023-.023-.046-.045-.046-.068 0-.045.046-.045.068-.068zm-18.46 1.705c-.023.023-.046.045-.068.045-.091 0-.114-.045-.046-.113.023-.023.068-.023.091-.023.023.023.023.068.023.091zm18.824-3.933v.091l-.091-.046.091-.045zm-2.023 17.324c-.023-.023-.046-.046-.046-.069 0-.09.046-.113.114-.068.023.023.023.068.023.091a.175.175 0 0 1-.091.046zm-2.706-2.979c0 .023 0 .069-.023.069-.022.022-.068.022-.09.022-.091-.045-.091-.091.022-.113.023-.023.046 0 .091.022zM13.489 3.244c.022 0 .068-.023.068-.023.091.023.091.068.023.114-.023 0-.069 0-.091-.023v-.068zm21.666 25.917c0 .023-.023.068-.023.068-.068.023-.114-.022-.091-.091 0-.022.046-.045.068-.045.023 0 .023.045.046.068zm-11.754 5.525c-.023.022-.045.045-.068.022-.091-.022-.091-.068-.023-.113.023-.023.068 0 .091.022v.069zm3.547.341c-.023.022-.046.045-.046.068 0-.023-.023-.046-.023-.091 0-.023.023-.046.046-.068a.17.17 0 0 1 .023.091zm9.503-18.825l.023.069h-.069l.046-.069zm-26.759 7.98c.455.114.523.523.637.864.704 2.092 1.386 4.206 2.091 6.298.228.659.091 1.432.546 2.023l.023-.023c-.182 0-.296-.091-.341-.227-1.001-3.001-1.956-5.979-2.956-8.935zm4.32 12.732c1.068 1.932 1.5 4.092 2.273 6.138.046.136.046.409.023.409-.25.046-.273-.204-.341-.341-.432-1.318-.864-2.66-1.251-3.978-.227-.751-.704-1.433-.704-2.251v.023zm-5.411-16.46c.705 1.136 1 2.41 1.091 3.706l.023-.023c-.546-1.16-.91-2.41-1.114-3.683zm.477-4.615c-.023.227-.068.477-.364.454-.25-.022-.432-.136-.477-.386-.045-.341.205-.5.455-.523.273-.046.341.227.386.455zm6.843 15.618c0 .069-.022.137-.022.205-.046-.046-.114-.091-.137-.136a43.367 43.367 0 0 1-.5-1.615c-.023-.091.023-.204.046-.318.068.068.181.137.204.227.159.523.296 1.069.409 1.637zm-2.796 2.91c.614.728.75 1.637.887 2.524l.022-.023c-.568-.727-.613-1.659-.909-2.501zM8.669 5.244c.091.205.114.296.159.409.205.41.25.842.318 1.274 0 0-.068.022-.091.022-.272-.363-.272-.841-.386-1.25-.023-.114 0-.227 0-.455zm7.934 28.578c-.523-.273-.363-.864-.613-1.251-.046-.091-.069-.227.068-.25.113-.022.182.091.204.228.091.432.205.864.296 1.318l.045-.045zm.25 10.685c-.136-.023-.341.023-.341-.182 0-.204.228-.136.341-.159.114-.023.228-.023.341-.023.16.023.432-.113.455.091.023.159-.295.182-.455.228-.136.022-.25.022-.341.045zm-4.456-25.918c0 .091 0 .16-.022.228l-.137-.205c-.113-.25-.204-.477-.318-.727-.045-.091-.045-.159.045-.182.046 0 .137.068.16.136.113.25.182.5.272.75z" fill="#fff" fill-rule="nonzero"/><path d="M12.966 33.367c.182.318.182.659.159 1l.023-.022c-.228-.319-.205-.66-.159-1.001l-.023.023zm3.615.477c.045.137.113.273.159.41.023.068 0 .182-.023.204-.182.046-.136-.113-.136-.182 0-.136.022-.295.022-.432 0-.022-.022 0-.022 0zm1.978 8.071c.068.023.159.046.181.091.023.046-.045.114-.068.182-.068-.023-.159-.045-.182-.091-.022-.045.046-.136.069-.182zm-.842-3.569c-.068-.091-.159-.159-.181-.25-.023-.091-.091-.205.068-.25l.068.204c.023.114.045.228.045.319v-.023zm-3.001-20.484c-.045-.045-.113-.114-.091-.159.023-.137.114-.159.205-.114.046.023.068.137.046.159 0 .069-.091.091-.16.114zM6.668 9.2c-.022.046-.045.136-.091.159-.068.046-.136.023-.159-.068-.023-.091 0-.159.068-.159.046 0 .114.045.182.068zm4.979 7.23c.023 0 .068 0 .068.022.023.091 0 .137-.068.091-.023-.045 0-.091 0-.113zm1.864 6.365v.091l-.045-.022.045-.069zm4.206 15.596c0 .16-.113-.022-.022.091.022.023.045.023.045.046 0-.046-.023-.114-.023-.159v.022zm-4.91-17.687v-.068h.045l-.045.068zm-1.796-6.639v.068h-.046l.046-.068zm6.593 16.074c-.023 0-.068.045-.091.022-.091-.022-.091-.068-.023-.113.023-.023.068 0 .091.023.023 0 .023.045.023.068zM9.737 9.791l.046.023-.023-.046-.023.023zm-3.319.068h.046v.046l-.046-.046zm2.183 17.483c.022-.022.068-.045.091-.022.091.022.091.068.022.113-.022.023-.068 0-.091-.022-.022 0-.022-.046-.022-.069zm32.579-.409c.068.068.204.137.204.205 0 .113-.136.113-.227.091-.114-.023-.205-.091-.159-.228 0-.022.113-.022.182-.068zm-1.228-.341c-.136-.023-.273-.023-.432-.045-.068 0-.136-.046-.205-.069.046-.136.16-.09.273-.09.137.022.273.068.341.204h.023zm-1.546-1.091c.045.045.136.068.136.114.023.09-.045.113-.136.09-.023-.022-.068-.022-.091-.068-.045-.091 0-.136.091-.136zm-.432.568c-.023-.023-.045-.045-.091-.068.068-.068.114-.068.159.023 0 .022-.023.045-.068.045zm1.955.569c.068.022.114.045.182.068-.023 0-.045 0-.068-.023l-.068-.068-.046.023zm6.343 4.387c.023 0 .068-.045.091-.022.091.022.114.068.023.113-.023.023-.068 0-.091-.022-.023 0-.023-.046-.023-.069zm.432.91c-.023.023-.045.091-.068.068-.068-.023-.136-.045-.182-.068.023-.023.046-.091.068-.068.068.022.114.045.182.068zm.569.591c.181.023.363.023.454.227l.023-.023c-.182 0-.364 0-.477-.204zm-4.934-5.047h-.068.068zm3.297 3.887c0 .023.022.046.022.069.069-.046.069-.069-.022-.069z" fill="#fff" fill-rule="nonzero"/><path d="M47.295 32.526l-.068-.046.046.046h.022zM7.055 45.075c.091.046.113.114.045.182a.434.434 0 0 1-.182.091c-.022-.068-.068-.136-.045-.182.045-.045.136-.068.182-.091zm.227 1.956c-.068-.023-.159-.046-.182-.091-.022-.046.046-.114.068-.182.069.023.137.045.182.113.069.046.023.114-.068.16zm-2.683-5.502h.069c.022.023.022.068.022.091-.045.113-.091.091-.113-.023 0 0 .022-.045.022-.068zm2.456 2.455c0 .023-.023.068-.023.068-.023 0-.068-.022-.091-.022 0-.023.023-.069.023-.069.045 0 .068 0 .091.023zm.295 2.296a.168.168 0 0 1-.091.046c-.113 0-.136-.046-.068-.114.023-.023.068-.023.091-.023.046.023.068.069.068.091zm41.173-9.184l-.114.113-.113-.113s.045-.069.068-.069c.045 0 .113.046.159.069zm.182.773c.068 0 .113.045.091.113a.172.172 0 0 1-.046.091c-.068.046-.136.023-.136-.045 0-.046.068-.114.091-.159z" fill="#fff" fill-rule="nonzero"/></svg>