<?xml version="1.0" encoding="UTF-8" standalone="no"?><!DOCTYPE svg PUBLIC "-//W3C//DTD SVG 1.1//EN" "http://www.w3.org/Graphics/SVG/1.1/DTD/svg11.dtd"><svg width="100%" height="100%" viewBox="0 0 10 24" version="1.1" xmlns="http://www.w3.org/2000/svg" xmlns:xlink="http://www.w3.org/1999/xlink" xml:space="preserve" xmlns:serif="http://www.serif.com/" style="fill-rule:evenodd;clip-rule:evenodd;stroke-linejoin:round;stroke-miterlimit:10;"><path id="_-Curves-" serif:id="(Curves)" d="M8.979,20.916c0.015,0.037 0.03,0.074 0.044,0.109c0.055,0.134 0.061,0.262 -0.097,0.328c-0.182,0.086 -0.201,0.244 -0.195,0.408c0,0.152 -0.012,0.298 -0.079,0.438c-0.091,0.188 -0.054,0.395 -0.054,0.602c0,0.146 -0.019,0.255 -0.201,0.274c-0.213,0.018 -0.292,-0.019 -0.353,-0.195c-0.097,-0.298 -0.055,-0.596 0,-0.894c0.012,-0.079 0.037,-0.158 0.043,-0.237c0.012,-0.292 -0.049,-0.396 -0.329,-0.505c-0.991,-0.383 -1.982,-0.766 -2.974,-1.149c-0.133,-0.055 -0.249,-0.049 -0.377,0c-0.997,0.364 -1.994,0.723 -2.998,1.088c-0.34,0.122 -0.413,0.213 -0.389,0.572c0.012,0.128 0,0.237 -0.073,0.34c-0.073,0.104 -0.079,0.225 -0.079,0.353c0,0.14 0,0.286 -0.037,0.426c-0.03,0.115 -0.067,0.213 -0.212,0.213c-0.128,0 -0.25,-0.025 -0.292,-0.164c-0.049,-0.165 -0.116,-0.329 -0.079,-0.505c0.048,-0.213 0.03,-0.42 -0.007,-0.633c-0.018,-0.109 -0.048,-0.219 0.013,-0.328c0.042,-0.073 0.012,-0.091 -0.055,-0.134c-0.189,-0.116 -0.207,-0.17 -0.122,-0.371c0.104,-0.243 0.213,-0.48 0.329,-0.718c0.097,-0.188 0.121,-0.364 0.054,-0.577c-0.109,-0.341 -0.097,-0.681 0.165,-0.967c0.048,-0.049 0.097,-0.11 0.06,-0.189c-0.079,-0.164 0.019,-0.292 0.092,-0.426c0.34,-0.602 0.675,-1.198 1.021,-1.794c0.092,-0.158 0.092,-0.273 0.013,-0.444c-0.28,-0.583 -0.475,-1.198 -0.651,-1.818c-0.189,-0.663 -0.377,-1.326 -0.475,-2.007c-0.085,-0.608 -0.139,-1.222 -0.17,-1.843c-0.018,-0.322 0.018,-0.669 -0.188,-0.961c-0.067,-0.091 -0.049,-0.194 0.036,-0.273c0.067,-0.067 0.134,-0.134 0.11,-0.237c-0.086,-0.329 0.097,-0.663 -0.043,-0.992c-0.03,-0.061 0.012,-0.115 0.067,-0.158c0.17,-0.121 0.231,-0.31 0.274,-0.492c0.182,-0.736 0.656,-1.278 1.216,-1.734c0.322,-0.261 0.705,-0.431 1.101,-0.565c0.097,-0.031 0.194,-0.067 0.292,-0.085c0.17,-0.037 0.231,-0.134 0.231,-0.298c0.006,-0.225 0.012,-0.444 0.03,-0.669c0.018,-0.183 0.055,-0.201 0.213,-0.104c0.055,0.031 0.085,0.037 0.134,0.012c0.152,-0.079 0.322,-0.121 0.492,-0.146c0.158,-0.024 0.207,-0.121 0.171,-0.261c-0.031,-0.128 -0.079,-0.256 0.054,-0.359l0.013,-0.018c0,0.079 -0.013,0.158 -0.007,0.237c0.025,0.353 0.031,0.359 0.371,0.377c0.223,0.012 0.446,0.09 0.675,0.062c0,-0.003 0,-0.005 0,-0.007l0.007,0.006c-0.003,0 -0.005,0.001 -0.007,0.001c-0.012,0.127 -0.01,0.126 0.061,0.102c0.207,-0.079 0.207,-0.079 0.225,0.128c0.019,0.231 0.049,0.462 0.043,0.699c0,0.177 0.079,0.25 0.231,0.298c0.499,0.146 0.961,0.377 1.356,0.724c0.456,0.395 0.821,0.87 1.022,1.448c0.061,0.17 0.146,0.334 0.158,0.523c0.006,0.097 0.079,0.158 0.146,0.225c0.237,0.249 0.237,0.279 0.085,0.571c-0.085,0.158 -0.061,0.335 -0.073,0.499c-0.024,0.45 -0.103,0.894 -0.164,1.344c-0.091,0.669 -0.11,1.35 -0.243,2.013c-0.238,1.174 -0.615,2.305 -1.077,3.412c-0.018,0.036 -0.03,0.079 -0.055,0.109c-0.291,0.335 -0.243,0.657 -0.036,1.022c0.28,0.505 0.517,1.034 0.772,1.551c0.098,0.194 0.165,0.377 -0.073,0.523c-0.133,0.079 -0.024,0.182 0.006,0.267c0.262,0.615 0.53,1.229 0.791,1.837c0.015,0.035 0.03,0.072 0.044,0.109l0.003,0.007Zm-8.281,1.903c-0.007,-0.006 -0.007,-0.024 -0.013,-0.024c-0.018,0 -0.03,0.012 -0.024,0.036c0,0.006 0.006,0.019 0.012,0.025c0.012,-0.013 0.018,-0.025 0.025,-0.037Zm-0.159,-0.316c-0.018,-0.073 0.043,-0.176 -0.06,-0.189c-0.067,-0.006 -0.104,0.079 -0.098,0.158c0.006,0.061 0.012,0.122 0.019,0.183c0,0.018 0.018,0.036 0.03,0.049c0.024,-0.013 0.061,-0.025 0.067,-0.043c0.024,-0.049 0.03,-0.109 0.042,-0.158Zm7.773,-0.055c-0.006,-0.049 0,-0.079 -0.006,-0.109c-0.019,-0.061 0.006,-0.177 -0.092,-0.165c-0.127,0.019 0.013,0.116 -0.024,0.165c-0.073,0.085 -0.018,0.164 0,0.243c0.006,0.03 0.024,0.073 0.037,0.073c0.042,0.006 0.06,-0.043 0.073,-0.079c0.006,-0.043 0.006,-0.097 0.012,-0.128Zm0.118,-0.397c0.011,-0.035 0.019,-0.073 -0.015,-0.102c-0.006,-0.006 -0.024,0 -0.024,0.007c-0.018,0.041 0.004,0.071 0.039,0.095c-0.001,0.002 -0.002,0.005 -0.003,0.008c0.002,0.003 0.004,0.005 0.006,0.008c0.001,0.166 0.007,0.331 0.013,0.503c0,0.03 0.012,0.061 0.018,0.085c0.002,-0.009 0.007,-0.018 0.011,-0.027l0.001,-0.001c0.008,-0.015 0.016,-0.03 0.012,-0.045c-0.03,-0.174 0.064,-0.353 -0.055,-0.515c0,-0.005 0,-0.009 0,-0.014c-0.001,-0.001 -0.002,-0.002 -0.003,-0.002Zm-7.777,-0.16c-0.006,0 -0.014,0.001 -0.022,0.004c-0.043,0.006 -0.055,0.061 -0.049,0.097c0.024,0.109 0.049,0.213 0.079,0.322c0.006,0.013 0.024,0.037 0.043,0.037c0.036,0 0.042,-0.031 0.042,-0.061c0,-0.015 -0.001,-0.029 -0.003,-0.044l0,-0.003c-0.001,-0.015 -0.003,-0.029 -0.003,-0.044c-0.006,-0.073 -0.012,-0.14 -0.018,-0.213c-0.005,-0.043 -0.02,-0.095 -0.069,-0.095l0,0Zm7.926,0.028c0,0.003 -0.001,0.007 -0.003,0.012l0,0.001c-0.001,0.004 -0.003,0.008 -0.003,0.011c0,0 0.012,0.006 0.019,0.006c0,-0.006 0.006,-0.018 0.006,-0.024c0,0 -0.013,-0.006 -0.019,-0.006l0,0Zm-7.656,-0.036c-0.019,-0.025 -0.043,-0.037 -0.067,-0.025c-0.012,0.006 -0.019,0.037 -0.019,0.049c0.013,0.03 0.037,0.03 0.067,0.024c0.025,-0.012 0.031,-0.03 0.019,-0.048Zm7.456,-0.098c0.127,-0.006 0.219,-0.03 0.219,-0.073c0.006,-0.054 -0.189,-0.225 -0.25,-0.219c-0.121,0.012 -0.121,0.122 -0.134,0.201c-0.012,0.103 0.073,0.097 0.165,0.091Zm-7.742,-0.03c0.073,-0.012 0.182,0.03 0.207,-0.055c0.036,-0.109 -0.11,-0.079 -0.153,-0.146c-0.03,-0.055 -0.091,-0.091 -0.139,-0.024c-0.037,0.048 -0.11,0.103 -0.079,0.176c0.03,0.067 0.109,0.037 0.164,0.049Zm0.172,-0.301c-0.003,0 -0.006,0.001 -0.008,0.003c-0.018,0.018 -0.012,0.024 0.018,0.03c0,0 0.006,-0.006 0.018,-0.012c-0.002,-0.003 -0.004,-0.006 -0.006,-0.009l0,0c-0.001,-0.003 -0.003,-0.006 -0.006,-0.009c-0.004,0 -0.011,-0.003 -0.016,-0.003l0,0Zm7.422,-1.966c-0.076,-0.176 -0.153,-0.351 -0.229,-0.525c-0.061,-0.133 -0.11,-0.285 0.048,-0.377c0.164,-0.097 0.122,-0.2 0.061,-0.328c-0.328,-0.657 -0.657,-1.32 -0.985,-1.977c-0.152,-0.298 -0.104,-0.498 0.158,-0.669l-0.006,0.006c0.079,-0.024 0.097,-0.097 0.128,-0.158c0.225,-0.431 0.34,-0.906 0.523,-1.356c0.024,-0.061 0.024,-0.115 -0.061,-0.14c-0.134,-0.03 -0.037,-0.097 0,-0.091c0.14,0.018 0.176,-0.073 0.2,-0.176c0.049,-0.195 0.171,-0.371 0.128,-0.584c-0.018,-0.085 0.037,-0.128 0.085,-0.177c0.043,-0.048 0.067,-0.109 -0.042,-0.115c-0.025,0 -0.073,0.012 -0.055,-0.03c0.037,-0.073 0.103,-0.116 0.176,-0.159c0.128,-0.073 -0.139,-0.139 -0.024,-0.206c0.073,-0.043 0.152,-0.031 0.03,-0.116c-0.048,-0.036 -0.006,-0.067 0.031,-0.085c0.061,-0.03 0.097,-0.073 0.103,-0.14c0.043,-0.553 0.201,-1.089 0.201,-1.648c0,-0.049 0.024,-0.103 -0.043,-0.134c-0.158,-0.073 -0.115,-0.115 0.013,-0.17c0.042,-0.018 0.079,-0.067 0.048,-0.128c-0.024,-0.049 -0.073,-0.067 -0.127,-0.067c-0.092,0 -0.183,0.006 -0.274,0.012c-0.018,0 -0.037,-0.012 -0.055,-0.012c0.012,-0.012 0.031,-0.024 0.043,-0.03c0.036,-0.012 0.079,-0.031 0.115,-0.037c0.079,-0.012 0.177,0.006 0.237,-0.03c0.165,-0.097 -0.133,-0.085 -0.048,-0.176c0.006,-0.007 0.012,-0.013 0.018,-0.025c0.024,-0.042 0.073,-0.091 -0.03,-0.085c-0.043,0 -0.079,0.018 -0.122,0.024c-0.122,0.025 -0.17,-0.085 -0.201,-0.152c-0.036,-0.085 0.073,-0.091 0.134,-0.121c0.055,-0.031 0.11,-0.055 0.152,-0.091c0.037,-0.031 0.079,-0.08 0.067,-0.128c-0.018,-0.061 -0.085,-0.049 -0.128,-0.043c-0.298,0.055 -0.596,0.128 -0.9,0.146c-0.073,0.006 -0.115,0.043 -0.146,0.122c-0.061,0.17 -0.097,0.182 -0.213,0.048c-0.103,-0.121 -0.206,-0.139 -0.346,-0.127c-0.14,0.018 -0.31,-0.037 -0.408,0.067c-0.127,0.133 -0.273,0.115 -0.419,0.115c-1.065,-0.024 -2.129,-0.048 -3.187,-0.073c-0.493,-0.006 -0.991,0.031 -1.478,-0.103c-0.067,-0.018 -0.158,-0.037 -0.188,0.049c-0.067,0.188 -0.195,0.17 -0.341,0.121c-0.043,-0.012 -0.116,-0.024 -0.128,0.031c-0.012,0.054 0.049,0.085 0.098,0.097c0.048,0.018 0.133,0.036 0.115,0.073c-0.024,0.067 -0.103,0.03 -0.152,0.012c-0.152,-0.049 -0.213,-0.006 -0.188,0.152c0.006,0.049 0,0.103 0.006,0.152c0,0.03 0.012,0.067 0.048,0.061c0.031,0 0.043,-0.037 0.043,-0.067c0,-0.043 -0.037,-0.116 0.036,-0.122c0.073,-0.006 0.031,0.079 0.049,0.116c0.061,0.109 0.061,0.17 -0.091,0.182c-0.067,0.006 -0.11,0.073 -0.079,0.14c0.036,0.079 0.073,-0.012 0.115,-0.018c0.073,-0.006 0.11,0.036 0.128,0.103c0.012,0.043 0.018,0.14 -0.012,0.128c-0.183,-0.079 -0.14,0.085 -0.183,0.158c-0.018,0.037 -0.006,0.043 0.025,0.025c0.03,0.006 0.054,0.012 0.085,0.012c-0.085,0.109 -0.177,0.225 0,0.34c0,0 -0.018,0.055 -0.037,0.073c-0.079,0.061 -0.061,0.14 -0.061,0.219c0,0.274 0.116,0.535 0.128,0.809c0.006,0.116 0.122,0.073 0.152,0.14c-0.103,0.043 -0.091,0.085 -0.061,0.195c0.098,0.328 0.079,0.334 0.201,0.504l0.006,0c-0.103,0.019 -0.091,0.092 -0.079,0.165c0.018,0.091 0.037,0.176 0.061,0.267c0.018,0.067 -0.012,0.152 0.128,0.164c0.133,0.012 -0.085,0.14 0.024,0.201c0.134,0.073 -0.036,0.14 0,0.243c0.065,0.189 0.128,0.377 0.192,0.566l0.012,0.036c0.063,0.189 0.126,0.377 0.191,0.566c0.079,0.225 0.231,0.414 0.268,0.651c0.006,0.036 0.042,0.085 0.085,0.073c0.061,-0.019 0.049,-0.079 0.037,-0.128c-0.013,-0.097 -0.092,-0.182 -0.031,-0.286c0.031,0.097 0.055,0.195 0.085,0.286c0.037,0.103 0.11,0.231 0.019,0.316c-0.286,0.274 -0.39,0.657 -0.603,0.979c-0.237,0.365 -0.437,0.754 -0.65,1.132c-0.073,0.121 -0.128,0.237 0.042,0.334c0.335,0.189 0.317,0.195 0.158,0.578c-0.006,0.018 -0.012,0.042 -0.024,0.054c-0.103,0.171 -0.109,0.432 -0.304,0.505c-0.298,0.116 0,0.347 -0.146,0.505c-0.128,0.14 -0.176,0.359 -0.261,0.541c-0.049,0.11 -0.098,0.225 -0.14,0.335c-0.019,0.048 -0.037,0.091 0.006,0.14c0.17,0.213 0.529,0.267 0.766,0.097c0.109,-0.079 0.225,-0.128 0.353,-0.17c0.389,-0.14 0.778,-0.28 1.167,-0.426c0.075,-0.029 0.172,-0.03 0.218,-0.113c-0.291,0.033 -0.55,0.182 -0.832,0.247c-0.17,0.042 -0.249,-0.031 -0.207,-0.201c0.013,-0.061 0.043,-0.115 0.067,-0.17c0.092,-0.225 0.189,-0.444 0.28,-0.663c0.067,-0.164 0.134,-0.335 0.207,-0.505c0.059,-0.142 0.158,-0.214 0.314,-0.18c0.003,0.004 0.005,0.007 0.008,0.01c0.012,0.006 0.031,0.006 0.043,0.012c-0.012,-0.006 -0.025,-0.012 -0.037,-0.018c-0.005,-0.001 -0.009,-0.003 -0.014,-0.004c-0.15,-0.179 -0.159,-0.352 0.014,-0.538c0.079,-0.085 0.146,-0.139 0.116,-0.273c-0.018,-0.067 0.048,-0.152 0.079,-0.225c0.164,-0.402 0.334,-0.797 0.499,-1.198c0.048,-0.116 0.073,-0.195 -0.104,-0.225c-0.328,-0.055 -0.328,-0.067 -0.468,0.249c-0.043,0.097 -0.11,0.195 -0.116,0.31c-0.048,0.031 -0.054,0.079 -0.054,0.128c-0.049,0.03 -0.055,0.073 -0.049,0.127l0,0.001c-0.046,0.023 -0.054,0.062 -0.065,0.103c-0.001,0 -0.001,0 -0.002,0c-0.006,0.006 -0.006,0.018 -0.006,0.024c0,-0.003 0.001,-0.006 0.003,-0.008l0,-0.001c0.002,-0.003 0.003,-0.006 0.003,-0.009c0.001,-0.002 0.001,-0.004 0.002,-0.006c0.056,-0.013 0.064,-0.057 0.065,-0.103l0,0l0,-0.001c0,-0.002 0,-0.003 0,-0.005c0.067,-0.007 0.067,-0.055 0.079,-0.104c0.049,-0.024 0.055,-0.073 0.061,-0.121c0.067,-0.104 0.134,-0.201 0.194,-0.305c0.037,-0.054 0.092,-0.085 0.152,-0.054c0.073,0.036 0.055,0.103 0.031,0.158c-0.055,0.152 -0.104,0.31 -0.183,0.45c-0.176,0.328 -0.219,0.718 -0.498,0.991c-0.043,0.043 -0.012,0.097 -0.019,0.146c-0.006,0.097 -0.036,0.183 -0.121,0.231c-0.055,0.031 -0.11,0.055 -0.085,0.134c0.042,0.14 -0.031,0.255 -0.079,0.377c-0.171,0.42 -0.353,0.839 -0.523,1.259c-0.079,0.201 -0.219,0.31 -0.414,0.359c-0.207,0.048 -0.365,-0.049 -0.316,-0.262c0.067,-0.286 0.128,-0.602 0.432,-0.76c0.115,-0.061 0.164,-0.152 0.152,-0.267c-0.037,-0.39 0.14,-0.73 0.273,-1.071c0.231,-0.602 0.505,-1.192 0.761,-1.788c0.176,-0.401 0.176,-0.401 0.133,-0.851c-0.006,-0.049 -0.012,-0.128 0.012,-0.146c0.207,-0.134 0.067,-0.262 0.019,-0.414c-0.061,-0.207 -0.031,-0.425 0.048,-0.632c0.031,-0.079 0.098,-0.079 0.195,-0.049c0.797,0.219 1.593,0.462 2.433,0.42c0.413,-0.019 0.821,-0.073 1.228,-0.171c0.085,-0.018 0.152,-0.036 0.152,-0.146c0,-0.073 0.012,-0.066 0.079,-0.018c0.11,0.079 -0.024,0.195 0.061,0.268c-0.061,0.018 -0.134,-0.037 -0.182,0.055c-0.122,0.231 -0.213,0.474 -0.244,0.742c-0.006,0.036 -0.012,0.085 0.037,0.097c0.042,0.012 0.079,-0.018 0.103,-0.049c0.152,-0.261 0.268,-0.541 0.286,-0.845c0.03,0 0.061,0 0.091,-0.006c0.049,-0.012 0.098,-0.055 0.134,0c0.024,0.036 -0.03,0.067 -0.043,0.103c-0.11,0.24 -0.228,0.48 -0.282,0.744c-0.014,0.07 -0.024,0.143 -0.028,0.217c0,0.037 -0.03,0.067 -0.048,0.103c-0.115,-0.036 -0.176,0.048 -0.248,0.108c0.057,0.035 0.1,0.127 0.193,0.075c0.073,-0.043 0.079,-0.11 0.061,-0.177c0.073,-0.006 0.134,0.025 0.121,0.092c-0.018,0.127 0.092,0.164 0.152,0.231c0.073,0.085 0.122,0.061 0.152,-0.025c0.055,-0.176 0.116,-0.103 0.159,-0.006c0.182,0.396 0.364,0.791 0.547,1.18c0.055,0.122 0.109,0.237 0.17,0.353c0.012,0.03 0.025,0.055 -0.006,0.079c-0.036,0.03 -0.073,0.018 -0.109,-0.012c-0.061,-0.055 -0.085,-0.134 -0.122,-0.207c-0.134,-0.292 -0.261,-0.59 -0.395,-0.882c-0.031,-0.061 -0.067,-0.121 -0.11,-0.182c-0.024,-0.037 -0.073,-0.043 -0.109,-0.012c-0.018,0.012 -0.031,0.054 -0.025,0.079c0.019,0.079 0.049,0.152 0.08,0.231c0.127,0.316 0.249,0.638 0.383,0.955c0.06,0.146 0.121,0.279 -0.073,0.371c-0.036,0.017 -0.031,0.094 -0.082,0.114c0.001,0.002 0.002,0.005 0.003,0.007l-0.006,-0.006c0.001,0 0.002,-0.001 0.003,-0.001c-0.249,-0.648 -0.582,-1.26 -0.849,-1.902c-0.048,-0.116 -0.182,-0.128 -0.365,-0.055c-0.127,0.049 -0.067,0.128 -0.042,0.194c0.146,0.378 0.304,0.749 0.444,1.132c0.054,0.146 0.164,0.285 0.109,0.462c-0.018,0.061 0.031,0.091 0.073,0.115c0.073,0.049 0.097,0.128 0.128,0.201c0.091,0.213 0.091,0.213 -0.11,0.347c-0.021,0.016 -0.038,0.037 -0.055,0.054c-0.07,0 -0.135,0.012 -0.188,0.062c-0.051,0.005 -0.101,0.008 -0.125,0.061c-0.068,0.004 -0.134,-0.003 -0.181,0.06c-0.067,0.001 -0.129,0.013 -0.181,0.061c-0.051,0.006 -0.101,0.008 -0.125,0.061c-0.068,0.005 -0.135,-0.003 -0.181,0.062c-0.01,0.002 -0.019,0.003 -0.029,0.005c-0.002,0.002 -0.004,0.004 -0.007,0.006c-0.001,0 -0.003,0 -0.004,0l0.011,-0.006c-0.163,0.03 -0.323,0.074 -0.458,0.18c-0.004,0.001 -0.008,0.003 -0.011,0.004c0.168,-0.025 0.326,-0.073 0.462,-0.178c0.069,-0.001 0.133,-0.007 0.186,-0.062c0.046,-0.005 0.1,-0.003 0.124,-0.061c0.068,-0.004 0.134,0.003 0.18,-0.06c0.068,-0.001 0.13,-0.013 0.182,-0.061c0.046,-0.005 0.1,-0.003 0.125,-0.061c0.068,-0.004 0.14,0.014 0.181,-0.06c0.332,-0.006 0.332,-0.006 0.453,0.304c0.128,0.328 0.256,0.657 0.383,0.985c0.025,0.067 0.055,0.134 0.067,0.201c0.018,0.14 -0.048,0.206 -0.194,0.182c-0.067,-0.012 -0.134,-0.036 -0.207,-0.055c-0.584,-0.243 -1.168,-0.492 -1.782,-0.644c-0.018,-0.055 -0.073,-0.061 -0.116,-0.085c-0.221,-0.12 -0.225,-0.128 -0.069,-0.336c-0.347,0.126 -0.688,0.065 -1.019,-0.068c-0.006,-0.005 -0.012,-0.011 -0.018,-0.016c-0.004,0.001 -0.008,0.001 -0.012,0.002c0.002,0.001 0.004,0.003 0.005,0.004c0.009,0.003 0.017,0.007 0.025,0.01c0.304,0.265 0.29,0.291 -0.116,0.44c-0.12,0.042 -0.253,0.055 -0.344,0.162c0.228,-0.02 0.435,-0.113 0.636,-0.211c0.219,-0.103 0.414,-0.097 0.633,-0.018c0.127,0.049 0.249,0.134 0.395,0.116c0.012,0.018 0.018,0.042 0.036,0.048c0.566,0.225 1.132,0.463 1.709,0.645c0.238,0.134 0.505,0.201 0.754,0.304c0.104,0.043 0.201,0.085 0.298,0.146c0.232,0.146 0.469,0.225 0.73,0.03c0.116,-0.085 0.146,-0.133 0.092,-0.261c-0.146,-0.322 -0.274,-0.651 -0.414,-0.973c-0.077,-0.174 -0.153,-0.349 -0.23,-0.524l-0.015,-0.034Zm-0.163,1.452c-0.176,0.018 -0.304,-0.067 -0.37,-0.256c-0.019,-0.054 -0.037,-0.115 -0.061,-0.17c-0.079,-0.176 -0.14,-0.334 0.091,-0.45c0.079,-0.042 0.103,-0.146 0.134,-0.231c0.048,-0.116 0.121,-0.097 0.17,-0.012c0.164,0.267 0.274,0.559 0.377,0.851c0.067,0.183 -0.049,0.268 -0.341,0.268Zm0.244,-0.274c-0.006,-0.018 -0.006,-0.042 -0.012,-0.061c-0.067,-0.158 -0.14,-0.31 -0.213,-0.468c-0.091,-0.188 -0.091,-0.188 -0.231,-0.03c-0.086,0.091 -0.213,0.164 -0.128,0.328c0.061,0.116 0.079,0.249 0.188,0.341c0.086,0.067 0.183,0.085 0.286,0.042c0.061,-0.024 0.116,-0.067 0.11,-0.152Zm-7.347,0.134c0.128,0 0.256,-0.043 0.316,-0.201c0.195,-0.474 0.396,-0.954 0.596,-1.429c0.043,-0.097 0.055,-0.17 -0.073,-0.213c-0.103,-0.036 -0.194,-0.067 -0.255,0.061c-0.079,0.17 -0.176,0.335 -0.164,0.541c0.012,0.165 0.03,0.377 -0.158,0.456c-0.086,0.036 -0.148,0.085 -0.195,0.143c-0.115,0.139 -0.144,0.327 -0.213,0.49c-0.024,0.079 0.006,0.17 0.146,0.152Zm5.741,-1.557c-0.012,0 -0.018,0 -0.03,0.006c-0.233,0.089 -0.466,0.176 -0.698,0.262l-0.045,0.017c-0.233,0.087 -0.466,0.174 -0.699,0.262c-0.097,0.037 -0.042,0.098 0.013,0.122c0.097,0.049 0.206,0.085 0.31,0.122c0.529,0.2 1.058,0.395 1.581,0.596c0.049,0.018 0.097,0.042 0.146,0.006c0.055,-0.043 0.018,-0.097 0,-0.134c-0.146,-0.377 -0.292,-0.754 -0.438,-1.125c-0.024,-0.061 -0.049,-0.134 -0.14,-0.134l0,0Zm-2.682,0.62c0.018,-0.054 -0.012,-0.066 -0.042,-0.079c-0.499,-0.188 -0.998,-0.383 -1.503,-0.571c-0.091,-0.037 -0.133,0.012 -0.164,0.085c-0.17,0.401 -0.34,0.797 -0.498,1.204c-0.055,0.14 -0.019,0.176 0.115,0.128c0.669,-0.231 1.332,-0.469 2.001,-0.712c0.036,-0.006 0.067,-0.036 0.091,-0.055Zm-1.127,0.607c-0.068,-0.011 -0.129,-0.013 -0.17,0.056c0.075,0.014 0.132,0.016 0.17,-0.056Zm0.665,-0.244c-0.255,0.028 -0.464,0.104 -0.646,0.238c0.234,-0.026 0.452,-0.103 0.646,-0.238Zm1.56,-0.553c0.003,-0.002 0.006,-0.003 0.009,-0.004l-0.012,0.006c0.001,-0.001 0.002,-0.002 0.003,-0.002Zm-0.654,-1.099c0,-0.006 0,-0.006 0,-0.012c-0.547,0 -1.095,0 -1.636,0c-0.176,0 -0.286,0.085 -0.298,0.231c-0.018,0.164 0.128,0.17 0.219,0.201c0.56,0.213 1.119,0.413 1.673,0.626c0.133,0.049 0.255,0.049 0.383,0c0.559,-0.207 1.113,-0.419 1.672,-0.632c0.073,-0.031 0.164,-0.049 0.146,-0.158c-0.018,-0.104 -0.061,-0.195 -0.188,-0.207c-0.159,-0.012 -0.323,-0.043 -0.481,-0.049c-0.499,0 -0.997,0 -1.49,0Zm2.713,0.627c0.006,-0.043 0.018,-0.122 0.048,-0.195c0.049,-0.134 0.219,-0.231 0.329,-0.189c0.097,0.037 0.188,0.213 0.146,0.335c-0.049,0.14 -0.122,0.274 -0.201,0.401c-0.061,0.092 -0.183,0.079 -0.249,-0.018c-0.043,-0.061 -0.08,-0.207 -0.073,-0.334Zm-3.318,0.352c-0.001,-0.002 -0.002,-0.004 -0.003,-0.006c-0.004,0.001 -0.007,0.001 -0.011,0.001c0.002,0.002 0.003,0.003 0.005,0.005c0.003,0 0.006,0 0.009,0c0.041,0.069 0.107,0.062 0.174,0.051c-0.051,-0.037 -0.112,-0.049 -0.174,-0.051Zm-0.014,-0.005c-0.045,-0.052 -0.11,-0.05 -0.171,-0.05c0.05,0.047 0.106,0.054 0.171,0.05Zm-0.496,-0.185c-0.01,-0.009 -0.018,-0.021 -0.034,-0.004c0.011,0 0.022,0.002 0.034,0.004c0.004,0.004 0.009,0.008 0.014,0.008c0.004,0 0.007,0.001 0.011,0.001c0.034,0.055 0.093,0.054 0.148,0.059c0.002,0.002 0.004,0.004 0.006,0.007c0.003,0 0.006,0 0.009,0c0.029,0.046 0.072,0.048 0.121,0.054c0.001,0.002 0.002,0.004 0.003,0.007c0.004,0 0.009,0 0.013,-0.001c-0.002,-0.001 -0.004,-0.003 -0.007,-0.006c-0.003,0 -0.006,0 -0.009,0c-0.024,-0.051 -0.072,-0.054 -0.121,-0.054c-0.001,-0.002 -0.002,-0.004 -0.003,-0.006c-0.004,-0.001 -0.008,-0.001 -0.012,-0.001c-0.04,-0.046 -0.094,-0.054 -0.148,-0.059c-0.002,-0.002 -0.003,-0.005 -0.005,-0.007c-0.007,0 -0.013,-0.001 -0.02,-0.002Zm2.256,0.125c0.003,-0.001 0.006,-0.001 0.009,-0.002l-0.013,0.006c0.001,-0.001 0.003,-0.003 0.004,-0.004Zm-4.711,-0.512c0,-0.025 0.006,-0.055 0,-0.086c-0.012,-0.054 0.037,-0.139 -0.048,-0.146c-0.079,-0.006 -0.122,0.067 -0.134,0.14c-0.031,0.171 -0.049,0.341 -0.067,0.511c-0.006,0.031 -0.012,0.085 0.055,0.085c0.036,0 0.054,-0.018 0.073,-0.042c0.067,-0.146 0.158,-0.28 0.121,-0.462Zm4.861,0.461c-0.003,0 -0.005,0 -0.008,0.001l0.013,-0.006c-0.002,0.001 -0.004,0.003 -0.005,0.005Zm1.537,-0.206c0.012,0.073 -0.006,0.188 0.079,0.201c0.067,0.012 0.085,-0.098 0.11,-0.158c0.024,-0.055 0.042,-0.116 0.067,-0.171c0.024,-0.061 0.042,-0.115 -0.031,-0.152c-0.061,-0.03 -0.121,0 -0.164,0.049c-0.061,0.061 -0.043,0.152 -0.061,0.231Zm-1.506,0.195c0.003,0 0.007,0 0.01,0l-0.012,0.006c0.001,-0.002 0.001,-0.004 0.002,-0.006Zm0.093,-0.05c-0.003,0 -0.007,0.001 -0.01,0.001l0.012,-0.006c0,0.002 -0.001,0.003 -0.002,0.005Zm0.032,-0.011c0.002,0 0.004,0 0.007,0l-0.012,0.006c0.001,-0.002 0.003,-0.004 0.005,-0.006Zm0.148,-0.049c-0.002,0 -0.005,0 -0.008,0l0.013,-0.006c-0.002,0.002 -0.003,0.004 -0.005,0.006Zm0.033,-0.012c0.003,0 0.005,0 0.008,0l-0.012,0.006c0.001,-0.002 0.003,-0.004 0.004,-0.006Zm-3.246,-0.131c-0.004,-0.001 -0.009,-0.003 -0.012,-0.003c0.006,0.006 0.012,0.006 0.019,0.012l0.035,0.018c0.016,0.01 0.032,0.018 0.05,0.025l0.061,0.03c0.009,0.003 0.02,0.003 0.029,0.004c0.001,0.001 0.001,0.002 0.001,0.002c0.018,0.019 0.03,0.019 0.018,0.006c-0.003,-0.005 -0.01,-0.007 -0.019,-0.008c-0.002,-0.004 -0.012,-0.005 -0.017,-0.01c-0.025,-0.008 -0.05,-0.015 -0.073,-0.024l-0.05,-0.025c-0.01,-0.007 -0.02,-0.015 -0.029,-0.024c-0.003,0 -0.008,-0.001 -0.012,-0.003l-0.001,0Zm3.395,0.082c-0.003,0 -0.005,0 -0.007,0l0.012,-0.006c-0.002,0.002 -0.004,0.004 -0.005,0.006Zm0.032,-0.011c0.003,0 0.006,-0.001 0.01,-0.001l-0.013,0.006c0.001,-0.002 0.002,-0.003 0.003,-0.005Zm0.093,-0.05c-0.004,0 -0.007,0 -0.01,0l0.012,-0.006c-0.001,0.002 -0.002,0.004 -0.002,0.006Zm0.032,-0.011c0.002,0 0.004,0 0.006,-0.001l-0.012,0.006c0.002,-0.001 0.004,-0.003 0.006,-0.005Zm0.149,-0.049l-0.003,0l0.006,-0.006c-0.001,0.002 -0.002,0.004 -0.003,0.006Zm0.039,-0.013l0.001,0l-0.006,0.007c0.002,-0.002 0.004,-0.004 0.005,-0.007Zm0.628,-0.535c0.006,0.047 0.011,0.1 0.005,0.146c-0.012,0.091 -0.061,0.152 -0.164,0.128c-0.085,-0.018 -0.134,-0.085 -0.134,-0.176c-0.006,-0.061 0.031,-0.092 0.091,-0.098c0.066,-0.006 0.136,0 0.202,0Zm-6.186,0.146c-0.006,0.019 -0.012,0.037 -0.012,0.055c0,0.006 0.012,0.012 0.018,0.018c0.006,-0.012 0.024,-0.03 0.024,-0.048c0.007,-0.006 -0.018,-0.013 -0.03,-0.025Zm6.039,0.012l0.012,-0.018l-0.018,0l0.006,0.018Zm-5.028,-0.091c-0.04,-0.005 -0.089,-0.032 -0.117,0.012c-0.018,0.025 0.006,0.055 0.037,0.061c0.061,0.017 0.066,-0.032 0.08,-0.073Zm0.021,-0.019c0.003,-0.002 0.006,-0.003 0.008,-0.005c0.006,0 0.006,-0.012 0.006,-0.018c-0.006,0.008 -0.01,0.016 -0.014,0.023c-0.006,0.002 -0.012,0.003 -0.016,0.007c-0.002,0.004 -0.003,0.008 -0.005,0.012c0.004,0 0.007,0 0.011,0c0.003,-0.006 0.006,-0.012 0.01,-0.019Zm5.154,-0.048c0,-0.002 -0.001,-0.004 -0.001,-0.006l0.006,0.006c-0.002,0 -0.003,0 -0.005,0Zm-5.462,-0.134c0.014,-0.007 0.027,-0.012 0,-0.036c0.004,0.012 0.003,0.024 0,0.036c-0.008,0.003 -0.016,0.006 -0.018,0.013c0,0.006 -0.001,0.012 -0.002,0.017c-0.015,0.007 -0.032,0.012 -0.011,0.037c0.004,-0.012 0.009,-0.024 0.011,-0.037c0.006,-0.002 0.012,-0.006 0.014,-0.011c0.002,-0.007 0.004,-0.013 0.006,-0.019Zm0.255,-0.115c-0.03,0.006 -0.048,0.03 -0.042,0.061c0,0.012 0.012,0.036 0.03,0.042c0.03,0.006 0.055,-0.012 0.055,-0.042c0,-0.037 -0.012,-0.061 -0.043,-0.061Zm1.645,-1.785c-0.13,0 -0.212,0.058 -0.27,0.192c-0.09,0.221 -0.183,0.441 -0.276,0.661l-0.009,0.021c-0.092,0.22 -0.185,0.44 -0.275,0.662c-0.079,0.188 -0.067,0.2 0.14,0.212c0.17,0.013 0.347,0.025 0.517,0.013c0.383,-0.019 0.76,0.018 1.149,0.036c0.536,0 1.071,-0.006 1.606,0c0.146,0 0.188,-0.042 0.134,-0.176c-0.195,-0.487 -0.39,-0.973 -0.578,-1.466c-0.049,-0.134 -0.146,-0.146 -0.268,-0.14c-0.2,0.018 -0.401,0.037 -0.602,0.049c-0.407,0.024 -0.809,-0.012 -1.21,-0.061c-0.02,-0.002 -0.039,-0.003 -0.057,-0.003l-0.001,0Zm-1.535,0.1c0,-0.012 0.006,-0.018 0.006,-0.024c0,0.012 0,0.018 0,0.03l-0.001,0c-0.002,0 -0.005,0 -0.007,0c-0.158,0.533 -0.413,1.024 -0.637,1.527c-0.03,0.067 -0.073,0.128 -0.158,0.109c-0.067,-0.012 -0.091,-0.067 -0.116,-0.127c-0.036,-0.098 -0.06,-0.189 -0.006,-0.292c0.207,-0.359 0.408,-0.718 0.615,-1.077c0.065,-0.119 0.183,-0.139 0.302,-0.14c0,-0.002 0.001,-0.004 0.002,-0.006l0,0Zm0.236,1.326c-0.066,0.006 -0.066,0.061 -0.078,0.11c-0.049,0.024 -0.061,0.067 -0.067,0.115c-0.024,0.018 -0.049,0.043 -0.006,0.067c0.006,0.006 0.03,-0.018 0.048,-0.03c0.049,-0.025 0.055,-0.073 0.061,-0.122c0.049,-0.036 0.049,-0.085 0.043,-0.14l0,0l-0.001,0Zm-0.594,-0.751c-0.006,0.003 -0.015,0.004 -0.019,0.009c0,0.003 0,0.006 0.001,0.009c-0.046,0.016 -0.057,0.061 -0.074,0.101c-0.152,0.164 -0.231,0.371 -0.341,0.559c-0.03,0.055 -0.043,0.134 0.018,0.164c0.043,0.025 0.079,-0.042 0.104,-0.091c0.085,-0.201 0.17,-0.401 0.255,-0.608c0.04,-0.029 0.043,-0.074 0.038,-0.125c0.003,-0.001 0.007,-0.002 0.011,-0.003l0.007,-0.015c0.002,-0.001 0.004,-0.002 0.005,-0.003c0.006,-0.006 0.006,-0.012 0.006,-0.018l-0.011,0.021Zm5.091,0.133c0.02,-0.123 -0.034,-0.217 -0.117,-0.3l-0.025,0.006c0,0.119 0.059,0.216 0.142,0.294c-0.001,0.003 -0.001,0.007 -0.002,0.01c0.002,0 0.004,0.001 0.006,0.001c0,0.044 0.003,0.09 0.054,0.105c0,0.003 0.001,0.006 0.001,0.01c0.004,0.002 0.008,0.005 0.012,0.008c0.001,0.045 0.004,0.089 0.043,0.113c0,0.004 0,0.008 0,0.012c0.012,0.012 0.018,0.025 0.03,0.031c-0.006,-0.012 -0.012,-0.025 -0.018,-0.037c-0.005,-0.002 -0.009,-0.004 -0.012,-0.006c-0.001,-0.045 -0.008,-0.085 -0.043,-0.113c0,-0.005 0,-0.01 0,-0.015c-0.005,0 -0.009,-0.001 -0.013,-0.003c-0.004,-0.044 0.002,-0.091 -0.054,-0.105c0,-0.002 0,-0.005 0,-0.007c-0.001,-0.001 -0.003,-0.003 -0.004,-0.004Zm-2.58,-0.841l0,-0.007c0.048,0 0.103,0.007 0.152,0c0.042,-0.006 0.097,0.025 0.121,-0.036c-0.036,-0.006 -0.079,-0.018 -0.115,-0.018c-0.213,0.006 -0.426,-0.037 -0.633,-0.085c-0.31,-0.073 -0.638,-0.116 -0.924,-0.28c-0.067,-0.037 -0.104,-0.164 -0.189,-0.11c-0.073,0.049 0.019,0.146 0.019,0.225c0,0.104 0.066,0.165 0.158,0.195c0.152,0.055 0.31,0.109 0.474,0.067c0.14,-0.037 0.28,-0.024 0.42,-0.012c0.176,0.024 0.346,0.042 0.517,0.061Zm1.986,-0.202c-0.161,-0.016 -0.31,0.032 -0.466,0.068c-0.018,0.006 -0.03,0.024 -0.043,0.036c0.013,0.012 0.019,0.037 0.031,0.037c0.128,0.024 0.261,0.024 0.389,-0.006c0.07,-0.018 0.073,-0.086 0.089,-0.135Zm-4.066,0.05c0.006,0 0.018,0 0.024,0c0.006,0.006 0.006,0.018 0.006,0.024c-0.012,0.03 -0.03,0.024 -0.036,-0.006c-0.007,0 0,-0.012 0.006,-0.018Zm2.378,-0.007c0.425,0.031 0.431,0.025 0.808,-0.17c0.043,-0.024 0.098,-0.018 0.146,-0.03c0.122,-0.025 0.238,-0.043 0.359,-0.061c0.11,-0.018 0.158,-0.061 0.207,-0.176c0.079,-0.201 0.085,-0.414 0.158,-0.615c0.018,-0.06 0.116,-0.115 0.043,-0.182c-0.055,-0.049 -0.134,0.006 -0.201,0.018c-0.28,0.043 -0.56,0.091 -0.845,0.097c-0.663,0.025 -1.308,-0.066 -1.946,-0.237c-0.195,-0.048 -0.201,-0.036 -0.238,0.152c-0.018,0.079 -0.036,0.158 -0.006,0.237c0.049,0.134 0.006,0.256 -0.036,0.384c-0.091,0.243 -0.085,0.249 0.176,0.328c0.481,0.14 0.973,0.249 1.375,0.255Zm1.698,-0.044c-0.002,-0.001 -0.005,-0.003 -0.008,-0.004c0,0.001 -0.001,0.003 -0.002,0.005c0.003,0 0.006,0.001 0.008,0.001c0.001,-0.001 0.002,-0.001 0.002,-0.002Zm-1.127,-0.448c-0.018,0.097 0.031,0.225 -0.061,0.231c-0.091,0.006 -0.048,-0.128 -0.06,-0.195c-0.019,-0.097 -0.025,-0.2 -0.031,-0.304c0,-0.03 0.012,-0.061 0.049,-0.067c0.036,-0.006 0.055,0.025 0.061,0.055c0.018,0.103 0.03,0.201 0.042,0.28Zm-2.293,-0.444l0.007,0.006c0.097,-0.213 -0.14,-0.353 -0.122,-0.547c0,-0.013 -0.043,-0.043 -0.067,-0.049c-0.024,-0.006 -0.061,0.006 -0.067,0.043c-0.024,0.249 -0.073,0.498 0.091,0.723c0.037,0.049 0.073,0.116 0.134,0.104c0.073,-0.019 0.097,-0.092 0.079,-0.171c-0.017,-0.04 -0.04,-0.069 -0.052,-0.103l-0.082,0l0.006,-0.006l0.073,0Zm4.42,0.158c-0.089,-0.126 -0.078,-0.34 0.032,-0.45c0.012,-0.012 0.037,-0.012 0.049,-0.018c0.006,0.018 0.018,0.036 0.012,0.054c-0.04,0.138 -0.102,0.271 -0.093,0.414c0.004,0.006 0.009,0.012 0.014,0.018l-0.012,0.006c-0.001,-0.008 -0.002,-0.016 -0.002,-0.024Zm-4.498,-0.166c-0.02,-0.006 -0.024,-0.018 -0.019,-0.035c0.006,0.006 0.012,0.006 0.018,0.012c0.005,0.005 0.002,0.014 0.001,0.023c0.002,0.001 0.004,0.001 0.005,0.002l-0.006,0.006c0,-0.003 0.001,-0.005 0.001,-0.008Zm-0.797,-0.15c-0.006,0 -0.019,0.006 -0.019,0.006c-0.012,-0.018 -0.012,-0.031 0.013,-0.024c0,-0.007 0.006,0.006 0.006,0.018Zm0.961,-0.31c-0.007,0 -0.019,0.012 -0.019,0.018c0.003,0.006 0.008,0.012 0.012,0.018l0.001,0.001c0.004,0.006 0.009,0.011 0.012,0.017c0.006,-0.006 0.012,-0.012 0.018,-0.018c0.006,-0.024 0,-0.036 -0.024,-0.036l0,0Zm-0.615,0.042l0,-0.018l0.013,0.006l-0.013,0.012Zm5.085,-0.061c-0.019,0.006 -0.043,0 -0.037,-0.024c0.006,-0.024 0.018,-0.055 0.031,-0.079c0.012,-0.024 0.036,-0.024 0.042,0c0.006,0.036 0,0.073 -0.036,0.103Zm-0.481,-0.067c-0.03,0 -0.061,0 -0.073,-0.036c0,-0.006 0.031,-0.024 0.049,-0.03c0.03,-0.007 0.061,0 0.073,0.036c0,0.006 -0.037,0.018 -0.049,0.03Zm-5.078,-0.121c0,0.024 -0.018,0.036 -0.036,0.018c-0.019,-0.018 -0.037,-0.036 -0.061,-0.055c0.018,-0.006 0.03,-0.024 0.048,-0.024c0.037,0.006 0.049,0.03 0.049,0.061Zm4.318,-0.018c-0.006,0.006 -0.012,0.018 -0.012,0.018c-0.018,-0.012 -0.018,-0.031 0,-0.037c0,0 0.006,0.012 0.012,0.019Zm1.411,-0.086c-0.018,0.019 -0.031,0.019 -0.049,0c-0.018,-0.018 -0.055,-0.036 -0.042,-0.073c0.006,-0.018 0.024,-0.018 0.042,0.007c0.018,0.024 0.037,0.042 0.049,0.066Zm-1.058,-0.091c-0.012,0.012 -0.019,0.037 -0.031,0.043c-0.036,0.012 -0.054,-0.012 -0.054,-0.043c0,-0.018 0.018,-0.042 0.024,-0.042c0.03,-0.006 0.055,0.012 0.061,0.042Zm-4.434,-0.024c0.006,0.006 0.012,0.018 0.012,0.024c0,0.006 -0.018,0.018 -0.018,0.018c-0.018,-0.024 -0.018,-0.036 0.006,-0.042Zm0.135,-0.3c-0.002,-0.001 -0.005,-0.003 -0.007,-0.004c0,0 0.006,-0.006 0.006,0c0,0.001 0.001,0.003 0.001,0.004c0.016,0.01 0.031,0.016 0.042,0.032c0.048,0.092 0.03,0.195 0.012,0.292c-0.006,0.025 -0.019,-0.042 -0.025,-0.067c-0.012,-0.061 -0.006,-0.121 -0.012,-0.176c0,-0.029 -0.01,-0.057 -0.017,-0.081Zm0.589,0.251c0.024,-0.018 0.042,-0.03 0.067,-0.048c0.006,0.018 0.024,0.036 0.018,0.048c-0.006,0.031 -0.018,0.061 -0.055,0.049c-0.012,0 -0.018,-0.024 -0.03,-0.049Zm4.843,-0.111c0.003,0 0.007,0.001 0.01,0.002c0.012,0 0.018,0.024 0.03,0.036c-0.002,0.003 -0.005,0.006 -0.008,0.009l-0.001,0.002c-0.009,0.01 -0.018,0.02 -0.027,0.02c-0.03,0 -0.055,-0.013 -0.043,-0.049c0.005,-0.01 0.022,-0.02 0.039,-0.02l0,0Zm-1.032,-0.012c0.003,0 0.006,0 0.008,0.002c0.012,0 0.018,0.024 0.024,0.042c-0.002,0.003 -0.005,0.006 -0.008,0.009l-0.001,0.002c-0.009,0.01 -0.018,0.02 -0.027,0.02c-0.037,0 -0.049,-0.025 -0.037,-0.055c0.005,-0.01 0.027,-0.02 0.041,-0.02l0,0Zm0.537,-0.333c-0.024,0.079 -0.042,0.152 -0.073,0.231c-0.018,0.055 -0.024,0.177 -0.073,0.152c-0.061,-0.024 0.025,-0.121 0.037,-0.182c0.012,-0.079 0.012,-0.164 0.109,-0.201Zm-1.605,0.341c0.006,0.006 0.012,0.012 0.006,0.024c0,0.006 -0.006,0.012 -0.012,0.018c-0.006,-0.006 -0.013,-0.012 -0.006,-0.024c0,-0.006 0.006,-0.012 0.012,-0.018Zm0.754,-0.019c0.012,0.013 0.024,0.019 0.036,0.031c-0.012,0.006 -0.024,0.018 -0.042,0.024c-0.006,0 -0.019,-0.006 -0.025,-0.018c-0.006,-0.018 0,-0.03 0.031,-0.037Zm0.523,-0.03l0.006,0.024l-0.018,-0.006l0.012,-0.018Zm-4.075,-0.036c-0.012,0.006 -0.03,0.024 -0.042,0.024c-0.031,-0.006 -0.043,-0.031 -0.031,-0.055c0.006,-0.012 0.037,-0.018 0.043,-0.012c0.024,0.006 0.024,0.024 0.03,0.043Zm2.311,-0.055c0,0.006 -0.006,0.018 -0.006,0.018c-0.024,0 -0.03,-0.012 -0.012,-0.024c0,-0.006 0.012,0 0.018,0.006Zm1.442,-0.037c-0.037,-0.012 -0.092,0.092 -0.11,0c-0.012,-0.061 0.043,-0.158 0.116,-0.152c0.066,0 0.139,0.085 0.127,0.146c-0.018,0.122 -0.085,-0.006 -0.133,0.006Zm-4.301,0.002c-0.004,-0.008 -0.008,-0.017 -0.011,-0.026c-0.006,-0.018 0,-0.055 0,-0.055c0.048,-0.006 0.036,0.031 0.03,0.055c0,0.015 -0.004,0.031 -0.009,0.046c0.001,0.003 0.002,0.006 0.003,0.009c0,0 -0.006,0.006 -0.006,0c0.001,-0.003 0.002,-0.006 0.003,-0.009c-0.003,-0.006 -0.006,-0.012 -0.009,-0.018l-0.001,-0.002Zm5.395,-0.087c-0.03,0.012 -0.055,0.024 -0.079,0.031c-0.024,0 -0.024,-0.019 -0.012,-0.043c0.018,-0.024 0.03,-0.055 0.067,-0.036c0.012,0 0.012,0.024 0.024,0.048Zm-4.956,-0.067c0.012,0.012 0.036,0.025 0.03,0.031c-0.006,0.024 -0.03,0.048 -0.061,0.036c-0.012,-0.006 -0.024,-0.036 -0.018,-0.042c0.012,-0.019 0.037,-0.019 0.049,-0.025Zm4.153,0.037l0.013,0.012l-0.013,-0.018l0,0.006Zm0,-0.006c-0.085,0.018 -0.091,-0.055 -0.109,-0.104c-0.012,-0.024 -0.018,-0.073 -0.012,-0.079c0.061,-0.03 0.048,0.037 0.061,0.061c0.018,0.037 0.036,0.085 0.06,0.122Zm-3.922,-0.043c-0.012,0.012 -0.025,0.031 -0.037,0.031c-0.036,0 -0.048,-0.025 -0.036,-0.055c0.006,-0.012 0.036,-0.018 0.048,-0.018c0.007,0.006 0.013,0.03 0.025,0.042Zm4.281,0.006l0.006,-0.012l-0.006,0.006l0,0.006Zm-0.249,-0.128l0.018,0.007l-0.006,-0.013l-0.012,0.006Zm-0.055,-0.141c-0.197,-0.037 -0.036,-0.145 -0.036,-0.223c0,-0.025 0.024,-0.031 0.036,-0.013c0.006,0.019 0,0.037 0,0.061l0,0.175c0.002,0.001 0.004,0.001 0.006,0.002l-0.006,0.006l0.012,-0.006c0.002,0.006 0.003,0.012 0.004,0.019c0.03,0.029 0.043,0.068 0.04,0.109c0.003,0.002 0.007,0.004 0.011,0.005l-0.012,0c0,-0.002 0,-0.003 0.001,-0.005c-0.041,-0.024 -0.035,-0.068 -0.04,-0.109c-0.005,-0.005 -0.01,-0.009 -0.016,-0.013l0,-0.008Zm-0.614,0.105c0.006,-0.006 0.018,-0.012 0.024,-0.006c0.025,0.006 0.025,0.018 0.006,0.03c-0.006,0.006 -0.018,0 -0.024,-0.006c-0.006,0 -0.006,-0.012 -0.006,-0.018Zm-3.193,-0.006c-0.006,-0.006 -0.012,-0.012 -0.012,-0.018c0,-0.025 0.012,-0.031 0.024,-0.013c0.006,0.007 0.006,0.019 0,0.025c0,0 -0.006,0 -0.012,0.006Zm-0.34,-0.012c-0.025,0 -0.031,-0.012 -0.025,-0.037c0,-0.006 0.012,-0.012 0.025,-0.012c0.006,0 0.024,0 0.024,0.006c0.006,0.018 0,0.031 -0.024,0.043Zm2.973,-0.037c-0.006,0 -0.018,-0.006 -0.018,-0.006c0,-0.024 0.012,-0.03 0.024,-0.012c0,0 -0.006,0.012 -0.006,0.018Zm0.77,-0.405c-0.003,-0.002 -0.004,0.001 0.015,0.004c0.049,0.006 0.067,0.061 0.079,0.103c0.005,0.022 0.011,0.049 0.012,0.077c0.002,0 0.004,0.001 0.006,0.002l-0.004,0.005c0,0.001 0,0.003 0.001,0.004c0.116,0.043 0.057,0.114 0.009,0.168c-0.024,0.024 -0.054,0 -0.042,-0.037c0.017,-0.04 0.045,-0.08 0.033,-0.131c-0.003,-0.001 -0.006,-0.002 -0.009,-0.003l0.006,-0.006c0,-0.001 0,-0.002 0,-0.002c-0.023,-0.01 -0.051,-0.011 -0.073,-0.028c-0.048,-0.031 -0.042,-0.085 -0.03,-0.128c0.006,-0.018 0,-0.025 -0.003,-0.028Zm-0.137,0.265c0.006,-0.018 0.012,-0.036 0.018,-0.054c0.018,0.012 0.037,0.012 0.049,0.03c0.012,0.018 0.006,0.043 -0.018,0.049c-0.025,0.012 -0.037,0 -0.049,-0.025Zm-3.26,0.019l-0.006,-0.013l0.018,0l-0.012,0.013Zm-0.237,-0.098c0.006,0.019 0.012,0.037 0.012,0.055c0,0.03 -0.012,0.037 -0.03,0.018c-0.012,-0.012 -0.025,-0.036 -0.025,-0.048c0,-0.006 0.025,-0.013 0.043,-0.025Zm0.487,0.061c-0.007,-0.012 -0.019,-0.024 -0.025,-0.036c0.018,-0.006 0.037,-0.013 0.049,-0.013c0.006,0 0.012,0.013 0.018,0.019c-0.012,0.012 -0.03,0.024 -0.042,0.03Zm-0.718,-0.091c0.006,0.006 0.012,0.01 0.018,0.015l0.001,0.001c0.006,0.004 0.011,0.008 0.017,0.014c-0.012,0.012 -0.024,0.025 -0.036,0.031c-0.006,-0.012 -0.018,-0.031 -0.018,-0.043c0,-0.006 0.018,-0.018 0.018,-0.018l0,0Zm5.302,-0.011c0.008,0 0.011,0.008 0.007,0.023c0,0.006 -0.012,0.012 -0.024,0.012c0,-0.003 -0.002,-0.007 -0.003,-0.012l0,0c-0.002,-0.005 -0.003,-0.009 -0.003,-0.012c0.009,-0.007 0.017,-0.011 0.022,-0.011l0.001,0Zm-5.272,-0.202c0.012,0.024 0.006,0.037 -0.018,0.049c-0.03,0.012 -0.061,0 -0.067,-0.031c-0.006,-0.012 0.006,-0.042 0.018,-0.048c0.031,-0.019 0.049,0 0.067,0.03Zm4.263,-0.043c0.007,0.013 0.019,0.019 0.025,0.031c0,0.006 -0.012,0.018 -0.012,0.018c-0.013,-0.006 -0.031,-0.012 -0.043,-0.018c0.012,-0.006 0.024,-0.018 0.03,-0.031Zm-0.243,-0.018c0.012,0.025 0.006,0.049 -0.012,0.043c-0.024,-0.012 -0.043,-0.043 -0.055,-0.067c-0.006,-0.012 0.012,-0.031 0.012,-0.049c0.019,0.025 0.037,0.049 0.055,0.073Zm-3.6,-0.073c-0.006,0 -0.018,0 -0.024,-0.006c-0.013,-0.018 0,-0.03 0.024,-0.024c0.006,0 0.012,0.012 0.018,0.018c0,0 -0.012,0.006 -0.018,0.012Zm-1.782,-0.006c-0.012,-0.012 -0.03,-0.03 -0.024,-0.042c0,-0.037 0.03,-0.049 0.06,-0.031c0.013,0.006 0.019,0.037 0.013,0.049c-0.006,0.012 -0.031,0.012 -0.049,0.024Zm6.86,-0.03c-0.012,0.012 -0.024,0.024 -0.036,0.024c-0.031,-0.006 -0.043,-0.03 -0.031,-0.055c0.006,-0.012 0.037,-0.018 0.049,-0.018c0.012,0.012 0.012,0.037 0.018,0.049Zm-1.344,-0.055c0,0.006 0,0.018 -0.006,0.018c-0.006,0.006 -0.018,0.006 -0.024,0.006c-0.025,-0.012 -0.019,-0.024 0.006,-0.03c0.012,0 0.018,0.006 0.024,0.006Zm0.213,-0.055c0.006,0.006 0.018,0.006 0.024,0.012c0.006,0.019 -0.006,0.031 -0.03,0.025c-0.006,0 -0.012,-0.012 -0.012,-0.018c0,-0.013 0.012,-0.013 0.018,-0.019Zm-2.415,-0.002c0.007,0 0.01,0.006 0.007,0.021c-0.003,0 -0.008,0.001 -0.012,0.002l-0.001,0.001c-0.004,0.001 -0.009,0.003 -0.012,0.003l-0.006,-0.019c0.01,-0.005 0.018,-0.008 0.024,-0.008l0,0Zm-0.194,0.014c-0.006,0.007 -0.018,0.013 -0.024,0.007c-0.025,-0.007 -0.031,-0.019 -0.007,-0.031c0.007,-0.006 0.019,0 0.025,0.006c0.006,0.006 0.006,0.012 0.006,0.018Zm1.611,-0.066c0.013,-0.013 0.025,-0.025 0.037,-0.031c0.006,0.012 0.018,0.024 0.024,0.037c0,0 -0.012,0.018 -0.018,0.018c-0.018,-0.006 -0.03,-0.018 -0.043,-0.024Zm-2.092,-0.025c-0.006,0.037 -0.03,0.043 -0.06,0.037c-0.031,-0.006 -0.049,-0.031 -0.043,-0.061c0,-0.012 0.03,-0.018 0.049,-0.018c0.03,-0.006 0.054,0.012 0.054,0.042Zm0.876,-0.012l-0.012,0.024l-0.012,-0.03l0.024,0.006Zm1.733,-0.067c-0.006,0.018 -0.012,0.049 -0.018,0.055c-0.042,0.006 -0.036,-0.031 -0.036,-0.055c0,-0.024 -0.012,-0.061 0.018,-0.079c0.012,0.031 0.024,0.055 0.036,0.079Zm-3.594,0.043c-0.006,0.006 -0.012,0.012 -0.018,0.012c-0.024,0 -0.03,-0.012 -0.012,-0.031c0.006,-0.006 0.018,-0.006 0.024,0c0,0 0.006,0.013 0.006,0.019Zm-0.279,-0.037c0.006,0.012 0.006,0.031 0.012,0.043c-0.006,0 -0.014,-0.002 -0.021,-0.003l-0.001,0c-0.008,-0.002 -0.015,-0.003 -0.021,-0.003c0,-0.006 0,-0.019 0.006,-0.025c0.006,-0.006 0.012,-0.006 0.024,-0.012l0.001,0Zm-1.497,0.006l0.019,0.012l-0.013,-0.018l-0.006,0.006Zm5.76,-0.036c-0.013,0.006 -0.025,0.018 -0.037,0.024c-0.006,0 -0.018,0 -0.024,-0.006c-0.012,-0.018 -0.006,-0.036 0.018,-0.036c0.012,-0.006 0.024,0.006 0.043,0.018Zm-3.789,-0.006c0,0.006 0,0.018 0,0.018c-0.006,0.006 -0.018,0.006 -0.025,0.006c-0.03,-0.012 -0.024,-0.024 0.007,-0.03c0,0 0.012,0.006 0.018,0.006Zm3.539,0.018c-0.024,-0.018 -0.03,-0.043 -0.024,-0.073c0.012,-0.03 0.03,-0.049 0.061,-0.024c0.012,0.012 0.024,0.03 0.024,0.048c-0.006,0.025 -0.024,0.049 -0.061,0.049Zm-2.335,-0.036c0,0.006 -0.006,0.018 -0.012,0.018c-0.006,0.006 -0.018,0 -0.018,0c-0.013,-0.018 -0.007,-0.031 0.018,-0.037c0,0 0.006,0.012 0.012,0.019Zm1.812,-0.043c-0.006,0.006 -0.006,0.018 -0.012,0.018c-0.018,0.006 -0.03,-0.006 -0.024,-0.024c0,-0.006 0.012,-0.012 0.018,-0.012c0.006,0.006 0.012,0.012 0.018,0.018Zm-1.605,0c-0.018,0 -0.037,0.006 -0.049,0.006c0,-0.018 0,-0.036 0.006,-0.049c0,-0.006 0.018,-0.006 0.025,-0.006c0.024,0.012 0.03,0.025 0.018,0.049Zm-1.764,-0.055c0.006,0.006 0.012,0.018 0.012,0.025c0,0.024 -0.012,0.036 -0.036,0.024c-0.025,-0.012 -0.025,-0.031 -0.006,-0.043c0.006,-0.006 0.018,-0.006 0.03,-0.006Zm0.791,0.043c-0.031,0 -0.061,-0.012 -0.061,-0.043c0,-0.012 0.018,-0.036 0.03,-0.042c0.037,-0.019 0.055,0.012 0.055,0.042c0.006,0.012 -0.018,0.031 -0.024,0.043Zm0.438,-0.061c0.024,0.006 0.036,0.024 0.018,0.036c-0.012,0.013 -0.037,0.007 -0.055,0.007c-0.006,0 -0.012,-0.013 -0.012,-0.025c0.012,-0.006 0.03,-0.012 0.049,-0.018Zm2.335,0.043c-0.006,0 -0.018,-0.007 -0.024,-0.007c-0.007,-0.018 0,-0.024 0.024,-0.024c0.006,0 0.012,0.012 0.018,0.018c-0.006,0.006 -0.012,0.006 -0.018,0.013Zm-5.133,-0.11c0.006,0.006 0.012,0.018 0.006,0.024c-0.012,0.025 -0.024,0.025 -0.03,0c0,-0.003 0.001,-0.007 0.003,-0.011l0,-0.001c0.001,-0.005 0.003,-0.009 0.003,-0.012c0.006,0 0.018,0 0.018,0l0,0Zm1.818,0.024c-0.006,-0.018 -0.012,-0.03 -0.018,-0.048c0.018,-0.006 0.037,-0.012 0.049,-0.012c0.024,0 0.036,0.024 0.018,0.042c-0.006,0.012 -0.03,0.012 -0.049,0.018Zm3.826,-0.085c-0.012,0.012 -0.018,0.037 -0.031,0.037c-0.036,0.006 -0.042,-0.025 -0.036,-0.055c0,-0.012 0.03,-0.024 0.042,-0.018c0.007,0 0.013,0.018 0.025,0.036Zm-4.008,-0.054c0.006,0.012 0.012,0.03 0.012,0.042c0,0.006 -0.012,0.012 -0.018,0.018c-0.006,-0.012 -0.012,-0.03 -0.012,-0.042c0,-0.006 0.012,-0.012 0.018,-0.018Zm0.675,-0.031c0.012,0.012 0.024,0.024 0.03,0.037c0,0.006 -0.006,0.018 -0.012,0.024c-0.018,0.012 -0.036,0.006 -0.036,-0.012c0,-0.018 0.012,-0.037 0.018,-0.049Zm2.852,0.067c-0.006,-0.012 -0.024,-0.03 -0.024,-0.043c0,-0.03 0.03,-0.042 0.055,-0.03c0.012,0.006 0.018,0.037 0.018,0.049c-0.006,0.012 -0.03,0.018 -0.049,0.024Zm-2.347,-0.079c0.012,0.012 0.024,0.018 0.036,0.03c-0.012,0.006 -0.024,0.019 -0.042,0.025c-0.006,0 -0.019,-0.006 -0.019,-0.019c-0.012,-0.018 0,-0.036 0.025,-0.036Zm2.116,0.043c-0.006,0 -0.018,0.006 -0.018,0.006c-0.006,-0.006 -0.012,-0.019 -0.012,-0.025c0.006,-0.024 0.018,-0.03 0.036,-0.006c0,0.006 -0.006,0.018 -0.006,0.025Zm0.487,-0.055c0.006,0.006 0.018,0.006 0.024,0.012c0.006,0.018 -0.006,0.03 -0.03,0.024c-0.006,0 -0.013,-0.012 -0.013,-0.024c0,0 0.013,-0.006 0.019,-0.012Zm-4.032,-0.018c-0.013,-0.013 -0.043,-0.019 -0.043,-0.031c-0.006,-0.03 0.012,-0.061 0.043,-0.067c0.012,0 0.036,0.018 0.042,0.031c0.006,0.024 -0.012,0.054 -0.042,0.067Zm0.498,-0.019c-0.006,0.006 -0.012,0.012 -0.018,0.012c-0.024,-0.006 -0.03,-0.012 -0.012,-0.03c0.006,-0.006 0.018,-0.006 0.024,-0.006c0,0.006 0,0.018 0.006,0.024Zm1.144,-0.079c0,0.003 0.001,0.008 0.003,0.012l0,0.001c0.001,0.004 0.003,0.009 0.003,0.012c-0.006,0.006 -0.012,0.012 -0.018,0.012c-0.025,0 -0.031,-0.012 -0.013,-0.031c0.006,-0.006 0.019,-0.006 0.025,-0.006l0,0Zm-1.436,-0.03c-0.006,0.012 -0.012,0.03 -0.018,0.042c-0.006,-0.006 -0.018,-0.012 -0.018,-0.018c0.006,-0.012 0.012,-0.03 0.018,-0.042c0.006,0.006 0.012,0.012 0.018,0.018Zm3.625,-0.012c0.006,0 0.018,0 0.018,0.006c0.006,0.006 0.006,0.018 0.006,0.024c-0.012,0.024 -0.024,0.024 -0.03,-0.006c-0.006,-0.012 0,-0.018 0.006,-0.024Zm0.158,-0.043c0.012,0.012 0.018,0.024 0.031,0.03c-0.013,0.007 -0.031,0.013 -0.043,0.019c-0.006,0 -0.012,-0.006 -0.018,-0.012c0.006,-0.013 0.018,-0.025 0.03,-0.037Zm0.231,-0.006c-0.006,0.018 -0.012,0.036 -0.018,0.055c-0.018,-0.006 -0.043,-0.012 -0.049,-0.025c-0.006,-0.012 0.006,-0.036 0.019,-0.048c0.018,-0.018 0.042,-0.012 0.048,0.018Zm-3.454,0c-0.006,0.018 -0.018,0.043 -0.024,0.043c-0.037,0.006 -0.049,-0.025 -0.055,-0.049c0,-0.012 0.018,-0.037 0.03,-0.043c0.037,-0.012 0.043,0.019 0.049,0.049Zm-0.268,-0.049c-0.006,0 -0.018,0.006 -0.018,0.006c-0.018,-0.012 -0.012,-0.03 0.006,-0.036c0.006,0 0.018,0.006 0.018,0.012c0,0 -0.006,0.012 -0.006,0.018Zm-0.237,-0.103c-0.006,0.018 -0.012,0.036 -0.018,0.049c-0.012,-0.013 -0.037,-0.019 -0.043,-0.031c-0.006,-0.012 0.006,-0.036 0.019,-0.042c0.024,-0.013 0.036,0 0.042,0.024Zm1.527,0.018c0,0.006 -0.006,0.012 -0.006,0.025c-0.007,-0.007 -0.019,-0.019 -0.025,-0.025c0.006,-0.006 0.012,-0.012 0.018,-0.012c0,0 0.007,0.006 0.013,0.012Zm-0.165,-0.018c0.003,0 0.008,0.001 0.012,0.003l0.001,0c0.004,0.002 0.009,0.003 0.012,0.003c0,0.006 0,0.018 -0.006,0.018c-0.006,0.006 -0.019,0.006 -0.025,0.006c-0.024,-0.012 -0.024,-0.024 0.006,-0.03l0,0Zm2.652,-0.006l0.006,-0.006l0.006,0l-0.012,0.006Zm-0.389,-0.031l0.024,0l-0.012,0.025l-0.012,-0.025Zm1.897,-0.048c0.006,0.006 0.012,0.018 0.012,0.024c0,0.006 -0.012,0.012 -0.012,0.024c-0.024,-0.018 -0.024,-0.036 0,-0.048Zm-1.624,-0.079c-0.012,0.042 0,0.109 -0.054,0.097c-0.055,-0.018 -0.037,-0.085 -0.031,-0.128c0,-0.024 0.025,-0.073 0.037,-0.073c0.079,0.006 0.024,0.079 0.048,0.104Zm-3.538,-0.04c0,-0.003 -0.001,-0.006 -0.001,-0.009l0.006,0.006c-0.002,0.001 -0.003,0.002 -0.005,0.003c0.005,0.039 0.002,0.071 -0.044,0.088c-0.006,0.006 -0.036,-0.018 -0.036,-0.024c0,-0.052 0.049,-0.049 0.08,-0.064Zm3.715,0.011c0.004,0 0.009,0.001 0.012,0.004c0,0.003 0.001,0.006 0.003,0.009l0,0.001c0.002,0.003 0.003,0.006 0.003,0.009c-0.006,0.006 -0.012,0.012 -0.018,0.012c-0.025,0 -0.031,-0.012 -0.012,-0.031c0.003,-0.003 0.007,-0.004 0.012,-0.004l0,0Zm-2.567,0.011l0.006,0.024l-0.018,-0.006l0.012,-0.018Zm0.846,0c-0.006,-0.007 -0.012,-0.013 -0.012,-0.025c0,-0.024 0.012,-0.03 0.024,-0.018c0.006,0.006 0.006,0.018 0,0.024c0,0.012 -0.006,0.012 -0.012,0.019Zm-2.226,-0.086c-0.012,0.037 -0.012,0.067 -0.024,0.073c-0.031,0.019 -0.055,-0.006 -0.061,-0.036c-0.012,-0.097 -0.025,-0.189 -0.037,-0.286c0.006,0 0.018,-0.006 0.018,0c0.049,0.085 0.025,0.195 0.104,0.249Zm0.249,0.057c-0.002,0.001 -0.004,0.003 -0.006,0.004l-0.012,-0.006c0.006,0 0.012,0.001 0.018,0.002Zm0,0c0.015,-0.011 0.027,-0.021 0.043,-0.026c0.006,0 0.012,0.006 0.018,0.012c-0.019,0.024 -0.038,0.018 -0.061,0.014Zm3.235,-0.095c0.005,0 0.01,0 0.013,0.002c0.012,0 0.018,0.024 0.024,0.042c-0.003,0.003 -0.006,0.006 -0.008,0.01l-0.002,0.001c-0.009,0.01 -0.017,0.02 -0.026,0.02c-0.031,-0.006 -0.049,-0.031 -0.037,-0.061c0.005,-0.009 0.022,-0.014 0.036,-0.014l0,0Zm-2.481,-0.01c0.012,-0.012 0.019,-0.025 0.031,-0.037c0.006,0.012 0.018,0.025 0.024,0.043c0,0.006 -0.006,0.018 -0.018,0.018c-0.018,0.012 -0.031,0 -0.037,-0.024Zm4.452,-0.025c-0.006,0.019 -0.012,0.043 -0.024,0.049c-0.012,0.006 -0.037,-0.006 -0.049,-0.018c-0.012,-0.018 -0.006,-0.043 0.018,-0.049c0.019,0 0.037,0.012 0.055,0.018Zm-5.279,-0.06c-0.006,0.018 -0.012,0.036 -0.018,0.048c-0.018,-0.006 -0.037,-0.012 -0.049,-0.024c-0.012,-0.018 -0.006,-0.037 0.019,-0.049c0.024,-0.006 0.036,0 0.048,0.025Zm-0.48,-0.067c0,0.03 -0.012,0.06 -0.043,0.06c-0.036,0 -0.048,-0.024 -0.042,-0.054c0.006,-0.018 0.018,-0.037 0.03,-0.049c0.043,-0.018 0.049,0.018 0.055,0.043Zm1.739,0.024c0.006,0 0.018,0.006 0.018,0.006c0,0.006 -0.006,0.012 -0.006,0.024c-0.006,0 -0.018,-0.006 -0.018,-0.006c0,-0.012 0.006,-0.018 0.006,-0.024Zm2.481,-0.049c-0.006,0.019 -0.006,0.037 -0.018,0.049c-0.036,0.024 -0.048,-0.006 -0.055,-0.036c0,-0.013 0.019,-0.031 0.025,-0.043c0.024,0.012 0.036,0.024 0.048,0.03Zm-4.427,0.037c-0.006,0 -0.018,0.012 -0.024,0.006c-0.025,-0.006 -0.025,-0.018 -0.006,-0.03c0.006,-0.007 0.018,0 0.024,0.006c0.006,0 0.006,0.012 0.006,0.018Zm-1.49,-0.006c-0.006,0.006 -0.012,0.012 -0.018,0.012c-0.006,0 -0.018,-0.006 -0.018,-0.012c0,-0.025 0.012,-0.031 0.03,-0.018c0.006,0 0.006,0.012 0.006,0.018Zm5.638,-0.145c-0.002,-0.001 -0.004,-0.001 -0.006,-0.001l0.006,-0.006c0,0.002 0,0.004 0,0.007c0.039,0.007 0.067,0.031 0.079,0.072c0.006,0.03 0.006,0.073 -0.025,0.079c-0.03,0.006 -0.036,-0.037 -0.042,-0.067c-0.006,-0.028 -0.011,-0.056 -0.012,-0.084Zm-3.278,0.114c-0.012,0.013 -0.031,0.031 -0.037,0.025c-0.03,-0.006 -0.048,-0.031 -0.03,-0.061c0.006,-0.012 0.036,-0.018 0.048,-0.018c0.007,0.012 0.013,0.036 0.019,0.054Zm0.231,-0.006c-0.012,0.012 -0.025,0.031 -0.037,0.031c-0.036,0 -0.048,-0.031 -0.036,-0.055c0.006,-0.012 0.03,-0.018 0.048,-0.018c0.013,0.006 0.019,0.024 0.025,0.042Zm2.992,-0.012c-0.012,0.018 -0.03,0.018 -0.049,0c-0.006,-0.006 -0.006,-0.018 -0.006,-0.024c0.018,0 0.037,0 0.049,0c0.006,0 0.006,0.012 0.006,0.024Zm1.916,-0.018c-0.006,0.006 -0.019,0.012 -0.025,0.012c-0.006,0 -0.012,-0.012 -0.024,-0.012c0.018,-0.024 0.036,-0.024 0.049,0Zm-1.915,-0.275c-0.004,-0.012 -0.007,-0.022 -0.007,-0.035c0.004,0.011 0.005,0.023 0.007,0.035c0.002,0.004 0.003,0.008 0.005,0.013l0,0.003c0.117,0.025 0.088,0.093 0.046,0.164l0.003,0.01l-0.013,0.006c0.004,-0.005 0.007,-0.01 0.01,-0.016l-0.05,-0.165c-0.003,-0.001 -0.005,-0.001 -0.008,-0.002l0.006,-0.006l0.002,0.008c0.001,0 0.002,0 0.003,0c-0.002,-0.005 -0.003,-0.01 -0.004,-0.015Zm-3.474,0.141c-0.012,0.006 -0.03,0.03 -0.042,0.024c-0.037,-0.006 -0.043,-0.036 -0.025,-0.06c0.007,-0.013 0.037,-0.019 0.049,-0.013c0.006,0.006 0.012,0.031 0.018,0.049Zm-2.195,-0.091c0.012,0.012 0.018,0.024 0.024,0.042c-0.006,0.006 -0.01,0.014 -0.015,0.021l0,0.001c-0.005,0.008 -0.009,0.015 -0.015,0.021c-0.006,-0.012 -0.025,-0.03 -0.025,-0.043c0,-0.012 0.019,-0.03 0.031,-0.042l0,0Zm1.94,0.036c0,0.006 -0.006,0.019 -0.006,0.019c-0.031,0 -0.031,-0.013 -0.012,-0.025c-0.006,-0.006 0.006,0.006 0.018,0.006Zm4.02,-0.036c-0.006,0.024 -0.018,0.055 -0.018,0.055c-0.073,-0.007 -0.049,-0.073 -0.061,-0.11c-0.006,-0.024 0,-0.055 0.006,-0.085c0.049,0.036 0.018,0.116 0.073,0.14Zm-1.831,-0.018c0.006,0 0.019,0.006 0.019,0.006c0,0.024 -0.013,0.03 -0.025,0.012c0,0 0.006,-0.012 0.006,-0.018Zm-0.182,0.012l-0.006,-0.018l0.018,0l-0.012,0.018Zm-0.973,0l-0.006,-0.025l0.018,0.007l-0.012,0.018Zm-0.487,0c-0.012,-0.012 -0.036,-0.018 -0.036,-0.037c-0.006,-0.024 0.012,-0.036 0.03,-0.03c0.006,0 0.018,0.012 0.018,0.018c0.019,0.018 0.013,0.037 -0.012,0.049Zm-0.237,-0.079c-0.036,-0.031 -0.067,-0.073 -0.067,-0.122c0,-0.036 0.037,-0.043 0.061,-0.024c0.036,0.03 0.079,0.061 0.049,0.121c-0.006,0.013 -0.031,0.019 -0.043,0.025Zm-0.225,-0.061c0.006,0.024 -0.006,0.042 -0.018,0.036c-0.012,-0.006 -0.012,-0.036 -0.012,-0.048c0,-0.012 0.012,-0.025 0.018,-0.043c0,0.018 0.006,0.037 0.012,0.055Zm2.092,-0.055c-0.006,0.006 -0.018,0.012 -0.024,0.006c-0.025,-0.006 -0.031,-0.018 -0.006,-0.03c0.006,-0.006 0.018,0 0.024,0.006c0,0 0,0.012 0.006,0.018Zm-0.407,-0.018l0.006,0.024l-0.019,-0.006l0.013,-0.018Zm0.547,-0.055c0.024,0 0.03,0.012 0.024,0.037c0,0 -0.006,0.006 -0.018,0.012c-0.003,-0.006 -0.007,-0.012 -0.012,-0.018l-0.001,-0.001c-0.004,-0.006 -0.008,-0.012 -0.011,-0.018c0,0 0.012,-0.012 0.018,-0.012l0,0Zm-1.666,0.012c-0.006,0.006 -0.006,0.019 -0.013,0.025c-0.018,0.012 -0.036,0.006 -0.036,-0.019c0,-0.018 0.012,-0.03 0.036,-0.024c0.007,0 0.007,0.012 0.013,0.018Zm5.017,-0.042c-0.012,0 -0.03,-0.006 -0.043,-0.012l0,-0.025c0.013,0 0.031,0 0.043,0.006c0,0.013 0,0.025 0,0.031Zm-2.068,-0.006c-0.006,-0.019 -0.018,-0.037 -0.018,-0.049c0,-0.024 0.024,-0.036 0.043,-0.018c0.012,0.012 0.018,0.03 0.024,0.048c-0.018,0 -0.037,0.007 -0.049,0.019Zm-1.654,-0.079c0.006,0.018 0.012,0.03 0.018,0.048c0,0.006 -0.012,0.012 -0.018,0.019c-0.006,-0.019 -0.012,-0.031 -0.018,-0.049c0,-0.006 0.012,-0.012 0.018,-0.018Zm-3.825,0.067l-0.019,0l0.013,-0.019l0.006,0.019Zm2.317,-0.128c0.018,0.012 0.036,0.018 0.048,0.03c0.019,0.018 0.013,0.043 -0.018,0.049c-0.018,0 -0.042,-0.012 -0.048,-0.024c-0.007,-0.019 0.012,-0.037 0.018,-0.055Zm3.369,0.067c-0.024,-0.019 -0.043,-0.043 -0.024,-0.073c0.006,-0.012 0.03,-0.019 0.048,-0.031c0.006,0.025 0.019,0.055 0.019,0.079c0,0.031 -0.025,0.037 -0.043,0.025Zm-3.862,-0.012c-0.018,0.018 -0.036,0.012 -0.048,-0.007c-0.007,-0.006 0,-0.018 0.006,-0.024c0.006,-0.006 0.018,-0.012 0.024,-0.012c0.024,0.006 0.03,0.024 0.018,0.043Zm0.183,-0.061c-0.013,0.012 -0.025,0.03 -0.037,0.03c-0.024,0.006 -0.036,-0.012 -0.024,-0.036c0.006,-0.006 0.018,-0.019 0.018,-0.019c0.018,0 0.03,0.013 0.043,0.025Zm2.323,0.006c-0.006,0.006 -0.018,0.012 -0.025,0.012c-0.006,0 -0.018,-0.018 -0.018,-0.018c0.018,-0.019 0.031,-0.019 0.043,0.006Zm0.997,-0.043c0.012,0.012 0.018,0.025 0.031,0.037c-0.013,0.006 -0.025,0.018 -0.037,0.018c-0.006,0 -0.012,-0.006 -0.024,-0.012c0.012,-0.012 0.018,-0.025 0.03,-0.043Zm-1.326,0.025c0,-0.025 0.013,-0.043 0.031,-0.037c0.012,0.006 0.024,0.024 0.03,0.043c0,0.006 -0.012,0.018 -0.018,0.018c-0.024,0.012 -0.043,0 -0.043,-0.024Zm3.558,-0.061c0.018,0.054 0,0.079 -0.012,0.067c-0.024,-0.025 -0.043,-0.055 -0.055,-0.092c-0.012,-0.03 0.012,-0.066 0.037,-0.048c0.03,0.024 0.03,0.073 0.03,0.073Zm-3.91,-0.006c-0.013,0.012 -0.025,0.03 -0.037,0.03c-0.036,0.006 -0.048,-0.024 -0.042,-0.055c0.006,-0.012 0.03,-0.024 0.042,-0.018c0.018,0.006 0.024,0.03 0.037,0.043Zm1.897,0.006c-0.012,0.006 -0.03,0.024 -0.036,0.024c-0.031,-0.006 -0.043,-0.036 -0.025,-0.061c0.006,-0.012 0.037,-0.018 0.043,-0.012c0.012,0.012 0.012,0.037 0.018,0.049Zm-5.668,-0.031c0,-0.006 0.006,-0.018 0.006,-0.018c0.006,0 0.012,0.006 0.018,0.006c0,0.006 -0.006,0.018 -0.006,0.018c-0.006,0 -0.012,-0.006 -0.018,-0.006Zm5.048,-0.006l-0.018,0l0.012,-0.018l0.006,0.018Zm-3.065,-0.042l-0.006,0.012l-0.001,0c-0.002,0 -0.006,0 -0.009,0c-0.005,0.009 -0.011,0.014 -0.021,0.024c0,-0.006 0,-0.012 0.006,-0.018c0.004,-0.004 0.01,-0.005 0.015,-0.006c0.001,-0.002 0.002,-0.004 0.003,-0.006l0.013,-0.006Zm0.285,-0.067c-0.006,0.018 -0.012,0.036 -0.018,0.048c-0.012,-0.012 -0.036,-0.018 -0.036,-0.03c-0.006,-0.012 0.006,-0.036 0.018,-0.049c0.018,-0.006 0.03,0.006 0.036,0.031Zm1.679,0.018c-0.012,0.012 -0.024,0.03 -0.036,0.03c-0.037,0 -0.049,-0.03 -0.037,-0.054c0.006,-0.012 0.03,-0.019 0.049,-0.019c0.012,0.007 0.018,0.025 0.024,0.043Zm-1.387,-0.006c-0.012,0.006 -0.03,0.024 -0.042,0.024c-0.031,-0.006 -0.043,-0.03 -0.024,-0.061c0.006,-0.012 0.036,-0.018 0.048,-0.012c0.012,0.012 0.012,0.037 0.018,0.049Zm1.953,-0.036c0.018,0.012 0.03,0.018 0.048,0.024c-0.012,0.012 -0.024,0.024 -0.036,0.03c-0.006,-0.006 -0.011,-0.012 -0.015,-0.018l-0.001,-0.001c-0.004,-0.006 -0.009,-0.011 -0.015,-0.017c0,0 0.013,-0.019 0.019,-0.019l0,0.001Zm-0.244,-0.007c0.012,0.013 0.019,0.025 0.031,0.031c-0.012,0.006 -0.031,0.018 -0.043,0.024l-0.012,-0.018c0.006,-0.018 0.018,-0.024 0.024,-0.037Zm0.529,0c0.013,-0.012 0.025,-0.024 0.037,-0.03c0.006,0 0.018,0.006 0.024,0.012c0.012,0.018 0.006,0.037 -0.012,0.043c-0.018,0 -0.03,-0.012 -0.049,-0.025Zm-1.258,0.019c-0.007,0 -0.019,0.006 -0.019,0c-0.006,-0.006 -0.012,-0.013 -0.006,-0.019c0.006,-0.024 0.018,-0.024 0.031,-0.006c0,0.006 -0.006,0.019 -0.006,0.025Zm2.304,-0.067c-0.006,0.012 -0.012,0.036 -0.024,0.042c-0.03,0.012 -0.055,-0.012 -0.055,-0.042c0,-0.019 0.013,-0.043 0.025,-0.043c0.03,-0.006 0.048,0.006 0.054,0.043Zm1.959,-0.012c-0.018,0.024 -0.025,0.048 -0.037,0.048c-0.042,0 -0.067,-0.024 -0.085,-0.061c-0.012,-0.03 0,-0.06 0.031,-0.048c0.036,0.006 0.06,0.042 0.091,0.061Zm-2.348,0.012l0.018,-0.006l0,0.018l-0.018,-0.012Zm-3.369,-0.043c-0.003,0.009 -0.007,0.016 -0.012,0.024l-0.001,0.001c-0.004,0.008 -0.008,0.015 -0.011,0.024c-0.006,-0.006 -0.019,-0.018 -0.019,-0.018c0.007,-0.019 0.013,-0.031 0.025,-0.049l0.018,0.018Zm1.94,-0.041c0.005,0 0.009,0.002 0.012,0.005c0,0.003 0.002,0.006 0.003,0.008l0,0.001c0.002,0.003 0.003,0.006 0.003,0.009c-0.006,0.006 -0.012,0.012 -0.018,0.012c-0.024,0 -0.03,-0.012 -0.012,-0.03c0.003,-0.003 0.008,-0.005 0.012,-0.005l0,0Zm-1.338,-0.044c-0.012,0.012 -0.024,0.036 -0.036,0.036c-0.031,-0.006 -0.055,-0.03 -0.031,-0.06c0.006,-0.012 0.031,-0.019 0.049,-0.031c0.006,0.019 0.012,0.037 0.018,0.055Zm1.94,0.036c-0.03,-0.006 -0.055,-0.024 -0.042,-0.06c0.006,-0.012 0.03,-0.031 0.042,-0.031c0.031,0.006 0.055,0.031 0.049,0.061c0,0.018 -0.031,0.024 -0.049,0.03Zm-0.249,-0.06c0.006,0.006 0.012,0.012 0.006,0.018c-0.006,0.024 -0.018,0.024 -0.031,0.006c-0.006,-0.006 0,-0.018 0.007,-0.024c0,0 0.012,0 0.018,0Zm-2.106,-0.048c-0.004,0 -0.007,0 -0.011,-0.001l0.006,-0.006c0.002,0.002 0.004,0.005 0.005,0.007c0.041,0.003 0.088,-0.008 0.105,0.048c0,0.006 -0.006,0.024 -0.012,0.024c-0.057,0.006 -0.071,-0.037 -0.093,-0.072Zm3.371,0.029c-0.006,-0.006 -0.018,-0.006 -0.025,-0.012c0.007,-0.012 0.013,-0.03 0.019,-0.042l0.018,0.006c0.018,0.03 0.012,0.042 -0.012,0.048Zm-3.667,-0.085c0.002,0.003 0.006,0.006 0.009,0.009l0.001,0.001c0.01,0.009 0.02,0.018 0.02,0.027c0,0.03 -0.024,0.048 -0.049,0.03c-0.012,-0.006 -0.018,-0.03 -0.018,-0.048c0,-0.007 0.024,-0.007 0.037,-0.019l0,0Zm0.283,0.042c-0.035,-0.004 -0.079,-0.001 -0.101,-0.017c-0.043,-0.037 -0.097,-0.098 -0.049,-0.146c0.043,-0.037 0.128,-0.073 0.189,-0.043c0.055,0.03 0.012,0.085 -0.006,0.134c-0.006,0.012 -0.012,0.025 -0.018,0.038l-0.001,0.003c-0.005,0.01 -0.009,0.021 -0.014,0.031c0.003,0 0.006,0 0.008,0.001l-0.012,0.006c0.002,-0.002 0.003,-0.005 0.004,-0.007Zm1.62,-0.066c0.003,0.003 0.006,0.007 0.009,0.012l0.001,0.001c0.002,0.004 0.005,0.008 0.008,0.011c0,0.025 -0.018,0.031 -0.042,0.025c-0.006,0 -0.012,-0.013 -0.018,-0.019c0.012,-0.012 0.03,-0.018 0.042,-0.03l0,0Zm-1.393,0.012c0.013,-0.012 0.019,-0.03 0.031,-0.036c0.024,0 0.03,0.018 0.024,0.036c0,0.006 -0.012,0.018 -0.018,0.018c-0.018,0.019 -0.03,0.006 -0.037,-0.018Zm3.351,-0.067c-0.012,-0.006 -0.024,-0.006 -0.042,-0.012c0,0 0,-0.012 0,-0.024c0.012,0 0.03,0.006 0.042,0.006c0.006,0.012 0.006,0.024 0,0.03Zm0.073,-0.237c0.031,0.006 0.055,0.024 0.043,0.055c-0.006,0.012 -0.03,0.03 -0.043,0.024c-0.03,-0.006 -0.048,-0.03 -0.048,-0.061c0.006,0 0.036,-0.006 0.048,-0.018Zm-5.729,-0.274c-0.018,-0.012 -0.048,-0.018 -0.06,-0.042c-0.025,-0.043 0.018,-0.043 0.042,-0.043c0.025,0 0.061,0.012 0.067,0.031c0.018,0.03 -0.006,0.048 -0.049,0.054Zm7.84,-0.504c-0.006,-0.043 -0.025,-0.073 -0.055,-0.061c-0.03,0.012 -0.073,0.042 -0.079,0.067c-0.012,0.042 0.024,0.067 0.067,0.06c0.048,-0.006 0.067,-0.03 0.067,-0.066Zm-8.113,-0.14c-0.012,-0.079 -0.061,-0.152 -0.146,-0.164c-0.061,-0.013 -0.073,0.054 -0.061,0.103c0.012,0.061 -0.006,0.152 0.103,0.14c0.043,0 0.104,-0.006 0.104,-0.079Zm1.222,-0.085c-0.036,-0.007 -0.067,-0.019 -0.091,-0.013c-0.024,0.006 -0.067,0.019 -0.073,0.037c-0.012,0.049 0.03,0.061 0.073,0.073c0.018,0.006 0.043,0.012 0.061,0.006c0.085,-0.018 0.231,0.109 0.249,-0.037c0.006,-0.115 -0.152,-0.03 -0.219,-0.066Zm5.23,-0.092c0,-0.006 0,-0.012 0,-0.018c-0.103,0.006 -0.2,0.006 -0.298,0.018c-0.048,0.006 -0.127,0.037 -0.121,0.073c0.006,0.055 0.079,0.031 0.121,0.025c0.469,-0.049 0.943,-0.061 1.405,-0.165c0.037,-0.006 0.073,-0.018 0.116,-0.024c-0.031,-0.036 -0.073,-0.024 -0.11,-0.024c-0.073,0.006 -0.14,0.012 -0.213,0.018c-0.304,0.03 -0.602,0.067 -0.9,0.097Zm-5.741,0.067c0.006,-0.036 -0.018,-0.061 -0.048,-0.067c-0.177,-0.042 -0.353,-0.085 -0.523,-0.121c-0.019,-0.006 -0.049,0.006 -0.055,0.018c-0.006,0.03 0.018,0.049 0.043,0.061c0.164,0.085 0.34,0.115 0.516,0.146c0.037,0.006 0.055,-0.012 0.067,-0.037Zm7.323,-0.048c0,0.024 0.012,0.036 0.036,0.024c0.006,0 0.018,-0.012 0.018,-0.018c0,-0.006 -0.006,-0.019 -0.012,-0.025c-0.018,-0.012 -0.036,-0.006 -0.042,0.019Zm-2.768,-4.177c-0.022,-0.018 -0.044,-0.038 -0.066,-0.038c-0.755,-0.036 -1.515,-0.103 -2.269,0.012c-0.073,0.012 -0.134,0.018 -0.176,0.091c-0.11,0.177 -0.329,0.177 -0.481,0.298c-0.064,0.053 -0.123,-0.019 -0.149,-0.09c0.001,0 0.002,0 0.003,-0.001c0.005,-0.003 0.009,-0.006 0.013,-0.009c0.068,-0.005 0.144,0.044 0.194,-0.039c0.012,-0.019 0.012,-0.049 -0.006,-0.049c-0.074,0 -0.131,0.047 -0.188,0.088c-0.006,0.001 -0.012,0.002 -0.019,0.003c0.001,0.002 0.002,0.005 0.003,0.007c-0.169,0.048 -0.337,0.092 -0.307,0.328c0,0.024 0.091,0.067 -0.006,0.073c-0.036,0.006 -0.091,-0.006 -0.085,-0.061c0.018,-0.231 -0.085,-0.177 -0.207,-0.098c-0.255,0.171 -0.425,0.438 -0.657,0.639c-0.048,0.043 -0.024,0.116 0.025,0.164c0.042,0.043 0.091,0.079 0.14,0.11c0.024,0.018 0.054,0.018 0.036,0.054c-0.006,0.007 -0.036,0 -0.055,0c-0.06,-0.012 -0.115,-0.024 -0.158,-0.085c-0.109,-0.158 -0.17,-0.109 -0.2,0.049c-0.007,0.043 -0.025,0.067 -0.055,0.097c-0.158,0.146 -0.268,0.329 -0.323,0.542c-0.066,0.261 -0.127,0.523 -0.34,0.717c-0.091,0.085 -0.018,0.213 0.018,0.28c0.055,0.103 0.073,-0.061 0.14,-0.061c0.164,0 0.322,-0.012 0.48,0.03c0.019,0.007 0.043,0.031 0.043,0.037c-0.012,0.024 -0.03,0.061 -0.049,0.061c-0.109,0.006 -0.225,0.006 -0.334,0.006c-0.055,0 -0.097,0.024 -0.11,0.085c-0.012,0.061 0.037,0.091 0.086,0.109c0.054,0.025 0.115,0.043 0.176,0.055c0.249,0.055 0.493,0.104 0.742,0.158c0.091,0.019 0.243,-0.012 0.231,0.116c-0.006,0.073 -0.158,0.024 -0.243,0.012c-0.371,-0.055 -0.73,-0.14 -1.089,-0.243c-0.055,-0.018 -0.097,-0.031 -0.128,0.03c-0.073,0.14 -0.024,0.335 0.116,0.383c0.389,0.152 0.797,0.231 1.21,0.28c0.037,0.006 0.085,-0.006 0.085,-0.061c0,-0.054 -0.048,-0.054 -0.091,-0.061c-0.237,-0.042 -0.48,-0.079 -0.717,-0.121c-0.14,-0.024 -0.28,-0.049 -0.402,-0.128c-0.055,-0.036 -0.109,-0.097 -0.073,-0.152c0.061,-0.097 0.091,0.012 0.128,0.043c0.091,0.073 0.201,0.103 0.304,0.127c0.28,0.055 0.559,0.092 0.839,0.146c0.122,0.025 0.164,-0.012 0.183,-0.127c0.024,-0.146 0.121,-0.195 0.267,-0.189c0.183,0.006 0.365,0.006 0.548,0.006c0.06,0 0.164,0.012 0.164,-0.036c0.006,-0.177 0.128,-0.146 0.231,-0.146c0.803,-0.006 1.599,-0.006 2.402,-0.006c0.061,0 0.122,0 0.183,0.006c0.103,0.006 0.164,0.091 0.115,0.164c-0.067,0.109 -0.049,0.122 0.067,0.122c0.128,0 0.274,-0.019 0.316,0.158c0.019,0.079 -0.024,0.194 0.043,0.225c0.042,0.018 0.128,-0.067 0.213,-0.079c0.152,-0.031 0.298,-0.049 0.45,-0.037c0.17,0.018 0.346,0 0.511,-0.036c0.231,-0.049 0.456,-0.092 0.687,-0.098c0.091,0 0.182,-0.012 0.261,-0.067c0.037,-0.024 0.073,-0.048 0.061,-0.097c-0.012,-0.049 -0.061,-0.049 -0.097,-0.042c-0.201,0.03 -0.402,0.066 -0.602,0.091c-0.213,0.024 -0.414,0.091 -0.633,0.079c-0.03,0 -0.061,-0.012 -0.067,-0.049c0,-0.036 0.037,-0.042 0.061,-0.048c0.207,-0.037 0.42,-0.08 0.627,-0.116c0.206,-0.036 0.419,-0.073 0.626,-0.109c0.067,-0.013 0.103,-0.061 0.097,-0.134c-0.012,-0.079 -0.067,-0.091 -0.133,-0.091c-0.153,0.012 -0.305,0.036 -0.457,0.036c-0.133,0.006 -0.158,-0.049 -0.067,-0.164c0.046,-0.063 0.017,-0.104 0.003,-0.149l-0.009,0.009c-0.001,-0.005 -0.002,-0.011 -0.003,-0.017c-0.037,-0.007 -0.087,0.007 -0.082,-0.062c0,-0.006 0.012,-0.018 0.019,-0.018c0.068,-0.011 0.059,0.042 0.063,0.08c0.002,0 0.005,0.001 0.007,0.001l0.002,-0.002c0.001,0.001 0.001,0.002 0.002,0.004c0.001,0 0.003,0.001 0.005,0.002l-0.001,0c0.037,0.001 0.074,0.005 0.111,0.006c0.025,0.118 0.075,0.2 0.224,0.164c0.11,-0.024 0.219,-0.03 0.328,-0.043c0.134,-0.018 0.177,-0.091 0.11,-0.2c-0.049,-0.073 -0.122,-0.128 -0.134,-0.225c-0.006,-0.031 -0.036,-0.043 -0.067,-0.043c-0.091,-0.012 -0.085,-0.024 -0.091,-0.097c0,-0.091 0.043,-0.176 -0.012,-0.28c-0.073,-0.146 -0.073,-0.316 -0.11,-0.468c-0.041,-0.148 -0.146,-0.221 -0.304,-0.169c-0.002,0.004 -0.004,0.007 -0.006,0.011l-0.006,-0.006c0.004,-0.002 0.008,-0.003 0.012,-0.005c0.049,-0.081 0.117,-0.157 0.006,-0.251c-0.067,-0.061 -0.06,-0.188 -0.206,-0.188c-0.031,0 -0.037,-0.177 -0.116,-0.262c-0.073,-0.073 -0.134,-0.109 -0.231,-0.055c-0.006,-0.103 -0.03,-0.194 -0.158,-0.212c-0.097,-0.013 -0.177,-0.067 -0.231,-0.134c-0.085,-0.106 -0.114,0 -0.161,0.025c0.003,0.002 0.006,0.004 0.009,0.005c-0.012,0.049 -0.031,0.098 -0.098,0.055c-0.054,-0.03 -0.067,-0.14 -0.152,-0.116c-0.152,0.037 -0.17,-0.097 -0.231,-0.176c0.128,-0.055 0.049,-0.091 -0.006,-0.134c-0.018,-0.067 -0.067,-0.061 -0.109,-0.042c-0.012,0.006 -0.025,0.036 -0.025,0.042c0.031,0.031 0.073,0.018 0.11,0.012c0.006,-0.006 0.012,-0.012 0.024,-0.012c-0.006,0.043 -0.006,0.079 -0.012,0.122c-0.091,-0.031 -0.243,0.036 -0.262,-0.116c-0.024,-0.2 -0.169,-0.182 -0.297,-0.206c0,0 0,0 0,0l0.006,0.006c-0.002,-0.002 -0.004,-0.003 -0.006,-0.004c0.002,0.007 0.006,0.013 0.006,0.022c0.006,0.067 0.103,0.085 0.079,0.164c0,0 -0.037,-0.006 -0.055,-0.012c-0.091,-0.042 -0.031,-0.115 -0.031,-0.175Zm-5.357,3.952c-0.003,0.002 -0.006,0.005 -0.01,0.008l-0.001,0.001c-0.01,0.009 -0.02,0.018 -0.02,0.027c0,0.012 0.018,0.024 0.025,0.037c0.006,-0.007 0.018,-0.019 0.03,-0.031c-0.006,-0.012 -0.018,-0.03 -0.024,-0.042l0,0Zm8.204,-0.019c0.006,-0.024 -0.006,-0.054 -0.019,-0.042c-0.054,0.024 -0.103,0.054 -0.158,0.085c-0.024,0.018 -0.024,0.042 0,0.036c0.067,0 0.134,-0.024 0.177,-0.079Zm-4.428,-0.358l-0.875,0c-0.037,0 -0.098,-0.013 -0.098,0.036c0,0.049 0.061,0.043 0.098,0.043c0.074,0.005 0.148,0.009 0.223,0.013c0.529,0.026 1.061,0.018 1.589,0.023c0.018,0 0.042,0 0.061,-0.006c0.018,-0.006 0.042,-0.018 0.042,-0.03c0.006,-0.031 -0.006,-0.061 -0.042,-0.067c-0.067,-0.012 -0.14,-0.019 -0.207,-0.019c-0.268,-0.006 -0.529,-0.006 -0.791,-0.006l0,0.013Zm4.495,-0.335c-0.006,0.006 -0.013,0.006 -0.019,0.012c0,0.006 -0.006,0.018 0,0.025c0.013,0.018 0.025,0.012 0.031,-0.013c0,-0.006 -0.006,-0.018 -0.012,-0.024Zm-0.694,-0.225c0,-0.006 0,-0.018 0.006,-0.024c0.013,-0.025 0.019,-0.025 0.006,0c-0.006,0.006 -0.012,0.012 -0.012,0.024Zm-0.017,-0.012c0,-0.002 -0.001,-0.004 -0.001,-0.006l0.006,0.006c-0.002,0 -0.003,0 -0.005,0Zm-3.741,-0.006c0.012,-0.006 0.03,-0.012 0.042,-0.018c-0.006,-0.007 -0.006,-0.025 -0.012,-0.025c-0.012,0 -0.03,0 -0.042,0.006c0,0.012 0.006,0.025 0.012,0.037Zm1.703,-0.195c-0.019,0.006 -0.049,0.012 -0.049,0.018c0.006,0.037 0.012,0.079 0.037,0.104c0.03,0.03 0.048,-0.006 0.054,-0.031c0.012,-0.042 0,-0.073 -0.042,-0.091Zm0.237,0.085c0.012,-0.012 0.03,-0.036 0.03,-0.042c-0.006,-0.012 -0.024,-0.031 -0.042,-0.037c-0.037,-0.006 -0.049,0.025 -0.037,0.055c0.006,0.012 0.031,0.018 0.049,0.024Zm-3.4,-0.115c-0.036,0.018 -0.03,0.042 -0.018,0.073c0.012,0.024 0.03,0.024 0.043,0c0.006,-0.019 0.018,-0.037 0.012,-0.055c0,-0.006 -0.025,-0.012 -0.037,-0.018Zm2.932,0.03c0.006,0.019 0.012,0.031 0.018,0.049c-0.003,0 -0.007,0.001 -0.012,0.003l-0.001,0c-0.004,0.001 -0.009,0.003 -0.011,0.003c-0.007,-0.012 -0.013,-0.031 -0.019,-0.049c0.012,0 0.025,-0.006 0.025,-0.006l0,0Zm-3.09,0.006c0,-0.079 -0.024,-0.097 -0.055,-0.103c-0.018,0 -0.048,0.012 -0.048,0.018c0.006,0.043 0.042,0.055 0.073,0.073c0.018,0.006 0.03,-0.006 0.03,0.012Zm1.064,-0.03c0.007,0 0.013,0.006 0.019,0.012c-0.003,0 -0.008,0.001 -0.012,0.003l-0.001,0c-0.004,0.002 -0.009,0.003 -0.012,0.003c-0.006,0 -0.012,-0.006 -0.018,-0.012c0.012,0 0.018,-0.006 0.024,-0.006l0,0Zm2.822,-0.085c-0.012,0.006 -0.03,0.018 -0.036,0.024c-0.006,0.006 0,0.018 0.006,0.024c0.012,0.025 0.036,0.019 0.042,-0.006c0.007,-0.006 -0.006,-0.024 -0.012,-0.042Zm1.429,0.012c-0.006,0.024 -0.018,0.036 -0.036,0.024c-0.018,-0.012 -0.006,-0.03 0.018,-0.042l0.018,0.018Zm-3.922,-0.116c-0.018,-0.018 -0.043,-0.061 -0.061,-0.061c-0.128,0 -0.018,0.11 -0.061,0.153c-0.024,0.024 -0.012,0.06 0.025,0.042c0.054,-0.03 0.103,-0.061 0.097,-0.134Zm3.903,-0.012c0.088,-0.114 0.141,-0.234 0.111,-0.383c-0.006,-0.024 -0.006,-0.067 0.03,-0.067c0.037,0 0.006,0.061 0.024,0.067c0.146,0.097 -0.006,0.268 0.104,0.389c0.055,0.061 -0.085,0.146 -0.256,0.116l-0.018,-0.018c0,-0.018 0.002,-0.034 0.003,-0.051l0,-0.003c0.002,-0.013 0.003,-0.026 0.003,-0.039c-0.002,0.001 -0.004,0.001 -0.006,0.001c0,-0.002 0,-0.004 0,-0.006l0,0l0,0c0,-0.003 0.001,-0.007 0.001,-0.01c-0.011,-0.009 -0.023,-0.019 -0.031,-0.032c-0.012,-0.019 -0.019,-0.037 -0.025,-0.055c0,-0.006 0.013,-0.018 0.019,-0.018c0.036,0 0.042,0.03 0.042,0.06c0,0.014 -0.003,0.028 -0.005,0.045c0.001,0.001 0.003,0.002 0.004,0.004Zm-2.212,0.049c-0.013,-0.025 -0.031,-0.031 -0.049,-0.012c-0.012,0.012 -0.024,0.03 -0.024,0.048c0,0.025 0.024,0.031 0.042,0.012c0.012,-0.018 0.018,-0.036 0.031,-0.048Zm1.435,0.042c-0.006,0.006 -0.012,0.013 -0.018,0.013c-0.007,0 -0.013,-0.007 -0.019,-0.013c0.012,-0.018 0.025,-0.018 0.037,0Zm-0.815,-0.03l-0.018,0l0.012,-0.024l0.006,0.024Zm-5.182,-0.128c-0.024,0.055 -0.061,0.104 -0.127,0.104c-0.049,0 -0.073,-0.037 -0.061,-0.079c0.018,-0.067 0.073,-0.092 0.14,-0.08c0.018,0.013 0.054,0.007 0.048,0.055Zm4.3,0.079c0.049,-0.012 0.055,-0.048 0.055,-0.091c0,-0.036 -0.025,-0.055 -0.055,-0.049c-0.03,0 -0.061,0.013 -0.055,0.055c0,0.043 0.006,0.079 0.055,0.085Zm2.475,-0.012c0,0 0,0 0,0c0,0 0,0 0,0l0,0Zm-4.269,-0.036l0.024,0.012l0,-0.025l-0.024,0.013Zm0.894,-0.104c0,-0.048 -0.012,-0.097 -0.079,-0.103c-0.031,0 -0.073,0.024 -0.055,0.042c0.055,0.049 -0.018,0.152 0.073,0.159c0.037,0 0.055,-0.055 0.061,-0.098Zm-1.71,0.023c0.002,0 0.005,0 0.007,0.002c0.012,0 0.024,0.024 0.024,0.036c0,0.024 -0.024,0.03 -0.042,0.018c-0.006,-0.006 -0.011,-0.011 -0.015,-0.017l-0.001,-0.001c-0.004,-0.006 -0.009,-0.012 -0.015,-0.018c0.015,-0.01 0.03,-0.02 0.042,-0.02l0,0Zm4.483,0.026c-0.006,0.006 -0.012,0.012 -0.018,0.012c-0.018,0 -0.024,-0.012 -0.012,-0.03c0,-0.006 0.018,-0.006 0.018,0c0.006,0.006 0.012,0.012 0.012,0.018Zm-4.227,-0.006c0,-0.006 0.013,-0.018 0.007,-0.025c-0.013,-0.024 -0.025,-0.024 -0.043,0c-0.006,0.007 -0.012,0.019 -0.012,0.025c0.018,0.012 0.03,0.012 0.048,0Zm4.002,-0.043c-0.006,0 -0.018,-0.006 -0.024,-0.006c-0.012,-0.018 0,-0.03 0.024,-0.024c0.006,0 0.012,0.012 0.018,0.018c-0.006,0 -0.012,0.006 -0.018,0.012Zm-0.705,-0.03c0,0.001 0.006,0.012 0.012,0.018c-0.003,0 -0.006,0.003 -0.009,0.006l-0.001,0c-0.003,0.003 -0.006,0.006 -0.008,0.006c0,0 -0.007,-0.012 -0.013,-0.018c0.006,-0.006 0.013,-0.012 0.019,-0.012l0,0Zm-2.78,-0.012c0.013,0.018 0.025,0.018 0.031,0c0,-0.006 -0.006,-0.012 -0.012,-0.019c0,-0.048 -0.025,-0.066 -0.073,-0.06c-0.006,0 -0.019,0.012 -0.019,0.018c-0.006,0.061 0.031,0.067 0.073,0.061Zm-0.36,-0.063c0.028,-0.01 0.051,-0.008 0.062,0.026c0,0 -0.018,0.025 -0.03,0.025c-0.029,0 -0.041,-0.022 -0.032,-0.051Zm0,0c-0.002,0.001 -0.003,0.001 -0.005,0.002l-0.006,-0.006l0.013,0c-0.001,0.001 -0.002,0.003 -0.002,0.004Zm4.271,-0.035l0.018,-0.006l0,0.019l-0.018,-0.013Zm-1.496,0l-0.018,0l0.012,-0.012l0.006,0.012Zm-5.115,-0.079c0.006,0.025 0,0.043 -0.024,0.043c-0.018,0 -0.031,-0.012 -0.049,-0.018c0.006,-0.013 0.012,-0.037 0.024,-0.043c0.019,-0.006 0.037,0.012 0.049,0.018Zm5.272,-0.061c0.03,0 0.05,0.022 0.05,0.049c0,0.018 -0.007,0.049 -0.019,0.049c-0.036,0.006 -0.054,-0.018 -0.061,-0.049c0.002,-0.004 0.003,-0.009 0.005,-0.013l0,-0.002c0.005,-0.015 0.009,-0.029 0.014,-0.034c0.004,0 0.007,0 0.011,0l0,0Zm1.74,-0.036c-0.024,0.03 -0.03,0.128 -0.036,0.103c-0.043,-0.231 -0.183,0.165 -0.207,-0.036c-0.018,-0.164 0.049,-0.274 0.158,-0.268c0.073,0.006 0.073,0.012 0.085,0.201Zm-2.147,0.03c0.013,-0.024 0.006,-0.042 -0.018,-0.048c-0.018,-0.006 -0.042,-0.006 -0.055,0.006c-0.024,0.03 -0.006,0.055 0.025,0.061c0.012,0.006 0.03,-0.013 0.048,-0.019Zm1.734,-0.109c0.03,0 0.054,0.012 0.067,0.043c0.012,0.042 -0.019,0.048 -0.043,0.042c-0.03,0 -0.055,-0.018 -0.055,-0.055c-0.006,-0.006 0.019,-0.018 0.031,-0.03Zm-4.057,0.085c0.012,-0.006 0.025,-0.012 0.043,-0.018c-0.012,-0.024 -0.025,-0.043 -0.031,-0.067c-0.012,0.012 -0.024,0.024 -0.03,0.043c-0.012,0.018 -0.006,0.036 0.018,0.042Zm0.274,-0.012c-0.006,-0.018 -0.012,-0.03 -0.024,-0.049c-0.006,0.006 -0.019,0.006 -0.025,0.012c0,0.019 0,0.031 0,0.049c0.025,-0.006 0.037,-0.012 0.049,-0.012Zm-2.481,-0.134c0.012,0.024 0,0.037 -0.025,0.043c-0.079,0.018 -0.103,-0.043 -0.134,-0.098c-0.006,-0.012 0.013,-0.048 0.019,-0.048c0.073,0 0.079,0.091 0.14,0.103Zm4.19,0.012c0.006,0.006 0.012,0.019 0.018,0.019c0.018,0.012 0.037,0 0.037,-0.019c0,-0.006 -0.025,-0.012 -0.037,-0.018c-0.006,0 -0.012,0.012 -0.018,0.018Zm-1.435,-0.073c0,-0.03 -0.013,-0.061 -0.049,-0.054c-0.012,0 -0.037,0.018 -0.043,0.03c-0.012,0.03 0,0.061 0.031,0.073c0.03,0.006 0.048,-0.018 0.061,-0.049Zm3.606,-0.012l-0.024,0l0.012,-0.024l0.012,0.024Zm0.535,-0.061c-0.012,0.012 -0.024,0.031 -0.036,0.037c-0.037,0.006 -0.049,-0.025 -0.043,-0.055c0,-0.012 0.031,-0.024 0.043,-0.018c0.024,0 0.03,0.024 0.036,0.036Zm-4.883,-0.054c-0.006,-0.019 -0.006,-0.049 -0.013,-0.055c-0.036,-0.024 -0.054,0.006 -0.066,0.036c-0.007,0.019 0,0.043 0.012,0.055c0.036,0.024 0.054,0 0.067,-0.036Zm4.59,-0.08c-0.025,0.082 -0.068,0.139 -0.163,0.067c-0.03,-0.024 -0.049,-0.073 -0.079,-0.085c-0.049,-0.018 -0.134,0.012 -0.116,-0.085c0.007,-0.055 0.067,-0.067 0.122,-0.067c0.055,0.006 0.085,-0.036 0.122,-0.067c-0.066,0.222 -0.067,0.225 0.114,0.237Zm-0.643,0.043c-0.013,0.012 -0.019,0.031 -0.031,0.043c-0.012,-0.012 -0.036,-0.019 -0.036,-0.031c0,-0.012 0.012,-0.03 0.024,-0.036c0.012,0 0.03,0.018 0.043,0.024Zm-1.801,-0.024c-0.006,0.012 -0.018,0.024 -0.018,0.042c0,0.006 0.018,0.019 0.018,0.019c0.013,-0.006 0.025,-0.019 0.037,-0.031c-0.018,-0.012 -0.03,-0.024 -0.037,-0.03Zm-4.215,-0.006c-0.004,-0.002 -0.008,-0.003 -0.011,-0.006l0.012,-0.006c0,0.004 0.001,0.008 0.002,0.012c0.004,0.002 0.007,0.003 0.01,0.006c0,0 0,0.012 0,0.018c-0.004,-0.008 -0.008,-0.016 -0.01,-0.024c-0.001,0 -0.001,0 -0.002,0l-0.001,0Zm-0.005,-0.012l-0.018,-0.007l0.012,0.013l0.006,-0.006Zm6.741,-0.046c0.001,-0.005 0.003,-0.01 0.003,-0.015l0.006,0.006c-0.003,0.003 -0.006,0.006 -0.009,0.009c-0.009,0.026 -0.029,0.04 -0.054,0.044c-0.003,0.003 -0.006,0.005 -0.01,0.008l-0.006,-0.006c0.006,0 0.011,-0.001 0.016,-0.002c0.018,-0.013 0.036,-0.027 0.054,-0.044Zm-0.077,0.045c0,-0.002 0.001,-0.004 0.001,-0.006l0.006,0.007c-0.002,-0.001 -0.005,-0.001 -0.007,-0.001Zm-6.561,-0.097c0.018,-0.012 0.037,-0.024 0.055,-0.03c0.03,0 0.055,0.006 0.085,0.012c0.006,0 0.006,0.03 0.006,0.049c-0.03,0 -0.055,0 -0.085,-0.006c-0.018,-0.007 -0.03,-0.025 -0.049,-0.031l-0.012,0.006Zm0,-0.015c0.002,0.003 0.003,0.006 0.006,0.009l-0.006,0.006l0,-0.015c-0.001,-0.003 -0.003,-0.006 -0.006,-0.009c0,-0.006 0,-0.006 0.006,-0.012l0,0.021Zm4.847,-0.082l-0.006,-0.018l0.018,0.006l-0.012,0.012Zm1.606,-0.037l0.012,-0.012l-0.018,0.006l0.006,0.006Zm-2.141,-0.109c0.018,0.006 0.037,0.012 0.055,0.018c-0.006,0.018 -0.012,0.037 -0.031,0.049c-0.018,0.012 -0.036,0.006 -0.048,-0.018c-0.006,-0.025 0,-0.037 0.024,-0.049Zm1.958,0.03c0,0.006 -0.006,0.019 -0.006,0.025c-0.018,0.006 -0.024,0 -0.024,-0.025c0,-0.006 0.012,-0.012 0.018,-0.018c0,0.006 0.006,0.012 0.012,0.018Zm-0.305,-0.412c-0.01,-0.013 -0.018,-0.023 -0.023,-0.038c0.034,0 0.026,0.022 0.023,0.038c0.002,0.003 0.004,0.006 0.006,0.008l0.001,-0.003c0.001,0.005 0.003,0.01 0.004,0.015c0.045,0.012 0.091,0.027 0.136,0.027c0.098,0.007 0.11,0.025 0.018,0.08c-0.054,0.036 -0.03,0.085 -0.006,0.133c0.031,0.073 -0.018,0.122 -0.073,0.14c-0.069,0.023 -0.094,-0.042 -0.128,-0.09l-0.005,0.005l-0.005,-0.006c-0.001,0 -0.001,0 -0.001,0l0,-0.001l-0.049,-0.066c0.023,0.023 0.04,0.046 0.058,0.064c0.179,-0.065 0.085,-0.182 0.055,-0.286c-0.003,-0.001 -0.006,-0.002 -0.01,-0.003l0,0c-0.003,-0.004 -0.003,-0.01 -0.001,-0.017Zm-3.003,0.37c0,-0.025 0.012,-0.037 0.036,-0.037c0.025,0 0.037,0.019 0.031,0.043c0,0.006 -0.012,0.018 -0.018,0.018c-0.025,0.012 -0.043,0 -0.049,-0.024Zm-2.524,-0.262c0,-0.03 0,-0.054 -0.006,-0.085c0.182,0.061 0.195,-0.024 0.152,-0.17c-0.012,-0.037 0.018,-0.091 0.055,-0.091c0.042,0 0.073,0.103 0.134,0.018c0.042,0.055 0,0.079 -0.043,0.097c-0.079,0.043 -0.043,0.128 -0.067,0.189c-0.054,0.126 -0.132,0.127 -0.227,0.045c-0.004,0.004 -0.007,0.008 -0.01,0.011c-0.002,0.063 -0.01,0.122 -0.045,0.181c0.001,0 0.002,0 0.002,0l-0.006,0.006c0.006,0 0.018,0.006 0.025,0.006c-0.007,0.018 -0.013,0.018 -0.025,-0.006l0,0c0.002,-0.002 0.003,-0.004 0.004,-0.006c-0.077,-0.001 -0.07,-0.043 -0.04,-0.091c0.021,-0.032 0.056,-0.059 0.085,-0.09c0,-0.006 0,-0.013 0,-0.02l0.012,0.006Zm0.316,0.104c-0.006,0.006 -0.012,0.012 -0.024,0.012c-0.006,0 -0.012,-0.006 -0.018,-0.012c0.018,-0.019 0.03,-0.019 0.042,0Zm3.702,-0.111c0.004,0 0.008,0.001 0.014,0.001c0,0.003 0.002,0.008 0.003,0.012l0,0.001c0.002,0.004 0.003,0.009 0.003,0.012c0,0.006 -0.012,0.012 -0.018,0.012c-0.024,0 -0.03,-0.019 -0.012,-0.031c0.003,-0.006 0.006,-0.007 0.01,-0.007Zm-1.263,-0.777c0.274,0 0.474,0.158 0.468,0.371c-0.012,0.255 -0.219,0.444 -0.486,0.444c-0.243,0 -0.475,-0.225 -0.468,-0.462c0.006,-0.213 0.206,-0.353 0.486,-0.353Zm0.17,0.456c-0.006,-0.024 -0.006,-0.049 -0.018,-0.055c-0.012,-0.012 -0.036,-0.012 -0.049,-0.006c-0.085,0.061 -0.103,0.164 -0.133,0.256c-0.006,0.018 0.048,0.042 0.073,0.024c0.073,-0.061 0.097,-0.14 0.127,-0.219Zm2.469,0.152c0,0.024 -0.012,0.036 -0.024,0.024c-0.024,-0.03 -0.042,-0.061 -0.061,-0.091c-0.006,-0.012 0.012,-0.03 0.019,-0.049c0.048,0.025 0.06,0.067 0.066,0.116Zm-4.932,-0.079c0,-0.006 0.006,-0.018 0.006,-0.018c0.031,0 0.037,0.012 0.013,0.024c0.006,0.006 -0.007,0 -0.019,-0.006Zm2.165,-0.037c0.067,-0.006 0.061,-0.048 0.061,-0.091c0,-0.03 -0.018,-0.061 -0.049,-0.061c-0.042,0 -0.072,0.031 -0.072,0.073c-0.007,0.049 0.018,0.079 0.06,0.079Zm2.249,-0.55c-0.006,-0.003 -0.011,-0.006 -0.017,-0.009l0.006,0.006l0.011,0.003c0.002,0.002 0.005,0.003 0.007,0.005c-0.021,0.162 0.092,0.226 0.206,0.293c-0.001,0.005 -0.003,0.01 -0.005,0.015c0.008,0.001 0.015,-0.001 0.022,-0.005c-0.005,-0.003 -0.011,-0.007 -0.017,-0.01c0.05,-0.181 -0.09,-0.23 -0.206,-0.293c0,-0.001 0.001,-0.001 0.001,-0.002l-0.008,-0.003Zm-4.134,0.283c-0.012,-0.012 -0.03,-0.025 -0.03,-0.037c0,-0.012 0.018,-0.036 0.03,-0.036c0.03,-0.012 0.055,0.006 0.043,0.042c-0.006,0.013 -0.025,0.019 -0.043,0.031Zm2.019,-0.055c0.018,0 0.037,-0.006 0.055,-0.006c-0.006,-0.037 -0.037,-0.024 -0.055,-0.024c-0.012,0 -0.03,0.012 -0.042,0.018c0.006,0 0.024,0.006 0.042,0.012Zm1.265,-1.082c0,-0.104 0,-0.201 0,-0.305c0,-0.109 -0.024,-0.133 -0.14,-0.091c-0.59,0.189 -1.204,0.085 -1.806,0.079c-0.255,0 -0.255,-0.036 -0.268,0.237c-0.006,0.122 -0.012,0.244 -0.018,0.365c-0.012,0.122 0.049,0.171 0.158,0.158c0.079,-0.006 0.158,-0.018 0.244,-0.03c0.474,-0.049 0.948,-0.055 1.423,-0.018c0.468,0.036 0.468,0.048 0.407,-0.395Zm-1.204,-0.402c0.243,0.049 0.48,0 0.724,-0.012c0.054,0 0.133,0 0.146,-0.079c0.012,-0.079 -0.067,-0.091 -0.122,-0.11c-0.438,-0.121 -0.876,-0.121 -1.314,0c-0.036,0.013 -0.073,0.031 -0.109,0.055c-0.031,0.018 -0.073,0.043 -0.061,0.091c0.012,0.049 0.061,0.043 0.097,0.043c0.219,0.012 0.426,0.012 0.639,0.012Zm1.059,-0.381c-0.002,-0.001 -0.004,-0.002 -0.007,-0.002c0.024,-0.024 0.049,-0.049 0.073,-0.073l0.006,0.006c-0.018,0.024 -0.042,0.049 -0.067,0.073c0,0 -0.001,-0.002 -0.004,-0.003c0,0 0,0 -0.001,0.001c0.002,0.028 -0.014,0.044 -0.038,0.06c0,0.003 0,0.006 0.001,0.009l-0.006,-0.006c0.001,-0.001 0.003,-0.002 0.005,-0.003c-0.001,-0.028 0.018,-0.045 0.038,-0.06c0,-0.001 0,-0.001 0,-0.002Zm1.342,-1.217c0.001,-0.005 0.001,-0.009 0.001,-0.013l0.006,0.006l-0.007,0.007c-0.004,0.03 -0.022,0.049 -0.053,0.053l-0.007,0.006l0,0.001c-0.002,0.001 -0.004,0.002 -0.006,0.003c0,0.009 -0.001,0.016 -0.006,0.021c-0.171,0.083 -0.236,0.222 -0.263,0.38c0.006,0.051 0.004,0.105 -0.01,0.161l-0.007,-0.006l0,0.006c-0.001,0.002 -0.003,0.004 -0.005,0.005c-0.134,0.273 -0.357,0.415 -0.651,0.463c-0.089,0.012 -0.172,0.03 -0.261,0.048c0,0.002 -0.001,0.005 -0.001,0.007l-0.006,-0.006c0.002,0 0.005,-0.001 0.007,-0.001c0.006,-0.047 0.015,-0.097 0.078,-0.102c0.338,-0.012 0.598,-0.186 0.834,-0.409c0.002,-0.003 0.004,-0.007 0.005,-0.011c0.003,-0.053 0.008,-0.105 0.017,-0.155c-0.014,-0.103 -0.067,-0.195 -0.144,-0.277c0.137,-0.048 0.287,-0.048 0.413,-0.124c0,-0.003 0,-0.006 0,-0.01l0,0c0.005,0 0.009,0 0.013,0l0.053,-0.053Zm-2.474,0.237l0,-0.007c0.012,0.009 0.023,0.017 0.034,0.025c0.085,0.018 0.203,-0.052 0.246,0.06c0.061,0.152 -0.128,0.17 -0.189,0.261c-0.01,0.011 -0.024,0.016 -0.039,0.025c-0.001,0.004 -0.002,0.008 -0.003,0.012l-0.006,-0.006c0.003,-0.002 0.006,-0.004 0.009,-0.006c0.003,-0.014 0.005,-0.029 0.015,-0.043c0.102,-0.181 0.109,-0.194 -0.033,-0.303c-0.012,-0.002 -0.024,-0.006 -0.034,-0.013l0,0c-0.002,-0.002 -0.003,-0.003 -0.004,-0.004c0.001,0 0.003,-0.001 0.004,-0.001Zm-0.137,-0.04c0.05,-0.013 0.094,0.004 0.133,0.041c-0.049,0.008 -0.093,-0.004 -0.133,-0.041Zm0,0c-0.003,0 -0.006,0.001 -0.009,0.002l0.006,-0.006c0.001,0.001 0.002,0.002 0.003,0.004Zm-0.003,-0.01c-0.03,-0.024 -0.061,-0.048 -0.079,-0.079c-0.012,-0.018 -0.024,-0.073 -0.018,-0.079c0.055,-0.024 0.042,0.037 0.067,0.061c0.03,0.024 0.036,0.067 0.03,0.097Zm2.141,-0.006l-0.012,-0.006l0.006,0.012l0.006,-0.006Zm0.486,-0.198c-0.002,0.003 -0.004,0.006 -0.006,0.01c0,0 -0.006,-0.006 -0.006,-0.013c0.004,0.001 0.008,0.002 0.012,0.003Zm0,0c0.017,-0.029 0.033,-0.06 0.055,-0.082c0.018,-0.012 0.037,0.006 0.018,0.025c-0.016,0.027 -0.033,0.06 -0.073,0.057Zm-2.68,-0.278c0.002,-0.003 0.003,-0.007 0.004,-0.01l0.007,0.006c-0.004,0.001 -0.008,0.003 -0.011,0.004c-0.015,0.039 -0.024,0.08 -0.066,0.098c0,0.002 -0.002,0.005 -0.003,0.007l0,-0.006c0.001,0 0.003,-0.001 0.003,-0.001c0.016,-0.038 0.028,-0.078 0.066,-0.098Zm2.955,-0.069c-0.221,0.163 -0.424,0.021 -0.627,-0.045c-0.019,-0.006 -0.061,-0.018 -0.043,-0.055c0.006,-0.012 0.055,-0.006 0.079,0.007c0.189,0.1 0.385,0.12 0.591,0.093c0.004,-0.003 0.007,-0.005 0.011,-0.008c0.005,0 0.009,0 0.014,0.001c-0.003,0.001 -0.005,0.003 -0.008,0.005c-0.005,0.001 -0.011,0.001 -0.017,0.002Zm-2.944,0.048c0,-0.015 0.001,-0.029 0.006,-0.044c0.006,-0.018 0.012,-0.037 0.024,-0.049c0.018,-0.018 0.036,-0.006 0.036,0.012c0,0.019 -0.018,0.031 -0.03,0.049c-0.011,0.011 -0.022,0.022 -0.036,0.032c0,0.004 0,0.007 0,0.011l-0.007,-0.006c0.003,-0.002 0.005,-0.003 0.007,-0.005Zm2.969,-0.055c0.055,-0.036 0.115,-0.043 0.175,-0.039c-0.051,0.041 -0.115,0.043 -0.175,0.039Zm0.175,-0.039c0.002,-0.001 0.004,-0.003 0.006,-0.005l0.006,0.006c-0.004,0 -0.008,0 -0.012,-0.001Zm0.061,-0.072c-0.019,0.025 -0.031,0.049 -0.049,0.073l-0.006,-0.006c0.009,-0.012 0.016,-0.023 0.023,-0.035l0.002,-0.003c0.007,-0.011 0.015,-0.023 0.023,-0.035l0.007,0.006Zm-3.118,-0.271c-0.009,-0.011 -0.018,-0.021 -0.027,-0.033l0.006,-0.006c0.018,0.018 0.036,0.041 0.053,0.065l0.002,-0.004c0.002,0.005 0.004,0.011 0.007,0.016c0.014,0.005 0.028,0.008 0.042,0.008c0.128,0 0.152,0.11 0.2,0.189c0.013,0.018 -0.006,0.042 -0.024,0.036c-0.097,-0.03 -0.176,-0.085 -0.201,-0.194c-0.004,-0.013 -0.011,-0.026 -0.017,-0.039c-0.004,-0.001 -0.009,-0.003 -0.013,-0.004c-0.009,-0.012 -0.018,-0.022 -0.026,-0.032l-0.002,-0.002Zm3.842,-0.023c0.002,-0.003 0.004,-0.007 0.005,-0.01l0.006,0.006c-0.003,0.001 -0.007,0.002 -0.011,0.004c-0.067,0.121 -0.175,0.172 -0.311,0.167c-0.117,-0.006 -0.222,0.033 -0.338,0.052c-0.001,0.003 -0.002,0.006 -0.003,0.008c-0.004,0.005 -0.009,0.01 -0.014,0.014c-0.011,0.021 -0.027,0.035 -0.048,0.043c-0.003,0.003 -0.007,0.007 -0.01,0.01l-0.007,-0.006c0.006,-0.001 0.012,-0.002 0.017,-0.004c0.009,-0.008 0.017,-0.015 0.025,-0.022l0.002,-0.002c0.007,-0.006 0.014,-0.012 0.021,-0.019c0.003,-0.005 0.005,-0.011 0.008,-0.017l-0.006,-0.003c0.005,0 0.01,-0.001 0.015,-0.002c0.019,-0.055 0.049,-0.131 0.101,-0.113c0.208,0.059 0.37,-0.05 0.548,-0.106Zm0.072,-0.07c0,-0.002 0,-0.005 0,-0.007l0.006,0.006c-0.002,0 -0.004,0 -0.006,0.001c-0.003,0.032 -0.026,0.049 -0.055,0.06c0.006,-0.034 0.023,-0.058 0.055,-0.06Zm-4.007,-0.018c0,0 0,-0.001 -0.001,-0.001l0.007,-0.006c0,0.006 0.001,0.011 0.003,0.016c0.015,0.016 0.029,0.033 0.044,0.049c0.006,0.003 0.013,0.006 0.019,0.008c0,0 -0.006,0.012 -0.006,0.006c-0.004,-0.005 -0.009,-0.009 -0.013,-0.014c-0.021,-0.01 -0.037,-0.024 -0.044,-0.049c-0.002,-0.002 -0.004,-0.005 -0.007,-0.007l-0.003,0.003c0,-0.002 -0.001,-0.003 -0.002,-0.005c0.001,0 0.002,0 0.003,0Zm4.067,-0.043c0,-0.002 0.001,-0.004 0.001,-0.007l0.006,0.007c-0.002,0 -0.005,0 -0.007,0c-0.007,0.033 -0.025,0.055 -0.054,0.06l0,0c0.006,-0.034 0.022,-0.057 0.054,-0.06Zm-4.132,0.004c0.027,0 0.047,0.011 0.062,0.039c-0.029,0.002 -0.046,-0.014 -0.062,-0.039Zm0,0c-0.004,0 -0.009,0.001 -0.015,0.002l0.013,-0.006c0,0.001 0.001,0.003 0.002,0.004Zm-0.02,-0.026c-0.014,-0.028 -0.029,-0.053 -0.043,-0.082c-0.006,-0.018 -0.012,-0.055 -0.012,-0.055c0.036,-0.012 0.048,0.019 0.054,0.049c0.005,0.027 0.003,0.058 0.001,0.088c0.004,0.007 0.008,0.014 0.011,0.022l-0.012,0.006c0,-0.009 0.001,-0.019 0.001,-0.028Zm4.342,-0.283c-0.003,0.003 -0.005,0.006 -0.007,0.008c-0.01,0.127 -0.064,0.226 -0.176,0.296l0,0.001c0.036,-0.113 0.1,-0.208 0.176,-0.297c0,-0.004 0,-0.009 0,-0.014l0.007,0.006Zm0.054,-0.188c-0.006,0.064 0.006,0.135 -0.054,0.178c0,0.003 0,0.007 0,0.01l-0.007,-0.006c0.003,-0.001 0.005,-0.003 0.007,-0.004c0.002,-0.059 -0.02,-0.132 0.054,-0.178l0,0Zm0.317,-0.438l-0.007,0.024l0,0c-0.002,0.001 -0.004,0.001 -0.006,0.002c-0.005,0.044 -0.003,0.092 -0.059,0.101c0,0.002 -0.001,0.005 -0.001,0.007l-0.001,0c-0.001,0.001 -0.002,0.002 -0.004,0.003c0.009,0.049 -0.004,0.088 -0.046,0.121c0,0.001 0,0.001 0,0.002l0.002,0.002c-0.001,0 -0.001,0 -0.001,0c0,0.002 0,0.004 0.001,0.006l-0.006,-0.006c-0.001,0 -0.003,0 -0.004,0c-0.014,0.022 -0.029,0.036 -0.056,0.037c-0.002,0.004 -0.005,0.007 -0.007,0.011l-0.007,0.007c-0.004,0.03 -0.023,0.049 -0.053,0.053l-0.007,0.007c-0.002,0.001 -0.003,0.002 -0.005,0.003c0.002,0.029 -0.014,0.05 -0.043,0.057c-0.001,0.002 -0.001,0.004 -0.001,0.007l-0.006,-0.006c0.002,0 0.005,-0.001 0.007,-0.001c0.003,-0.03 0.022,-0.046 0.043,-0.057c0,-0.003 -0.001,-0.006 -0.001,-0.009c0.005,0 0.009,0 0.013,-0.001l0.053,-0.053c0.001,-0.004 0.001,-0.008 0.001,-0.013l-0.006,-0.006c0.007,0.001 0.013,0.001 0.019,0.001c0.014,-0.021 0.03,-0.034 0.056,-0.037c0.001,-0.002 0.002,-0.004 0.004,-0.007l0.003,0.004c0.001,0 0.001,-0.001 0.001,-0.001c-0.008,-0.048 0.004,-0.087 0.046,-0.121c0,-0.003 -0.001,-0.006 -0.002,-0.009l0.001,0c0.002,-0.001 0.005,-0.001 0.007,-0.001c0.009,-0.04 0.003,-0.087 0.059,-0.101c0,-0.003 0,-0.005 0,-0.008l0.013,-0.018Zm-4.513,0.207c-0.006,0.03 -0.006,0.055 -0.018,0.085c-0.006,0.018 -0.025,0.006 -0.025,-0.018c0,-0.037 0.006,-0.061 0.043,-0.067l0,0l0,0Zm0.061,-0.055c-0.006,0.037 -0.025,0.055 -0.061,0.061l0,0c0.018,-0.031 0.037,-0.049 0.055,-0.067l0.006,0.006Zm0.084,-0.085c0.023,-0.052 0.066,-0.045 0.107,-0.039c-0.034,0.014 -0.069,0.025 -0.107,0.039c-0.002,0.004 -0.004,0.008 -0.005,0.012l0,0c-0.024,0.018 -0.049,0.043 -0.073,0.067l-0.006,-0.006c0.023,-0.024 0.047,-0.042 0.071,-0.065l-0.004,-0.002c0.005,-0.002 0.011,-0.004 0.017,-0.006Zm0.126,-0.048c0.005,-0.014 0.009,-0.028 0.009,-0.037c0.033,0.028 0.003,0.027 -0.009,0.037c-0.001,0.004 -0.002,0.008 -0.003,0.011c-0.006,0 -0.011,-0.001 -0.016,-0.002c0.003,-0.001 0.006,-0.002 0.009,-0.004l0.007,0.006c-0.002,-0.005 0,-0.008 0.003,-0.011Zm0.338,-0.176c0,0 0,-0.001 -0.001,-0.001l0.006,-0.006c-0.001,0.002 -0.003,0.005 -0.005,0.007c0.024,0.018 0.048,0.03 0.072,0.048c0.031,0.024 0.085,-0.013 0.097,0.042c-0.024,0.006 -0.054,0.012 -0.079,0.012c-0.014,0 -0.029,-0.001 -0.044,-0.003l-0.003,0c-0.014,-0.001 -0.029,-0.003 -0.044,-0.003c-0.047,-0.006 -0.048,-0.023 0.001,-0.096Zm-0.026,-0.049c-0.035,-0.037 -0.081,-0.068 -0.09,-0.122c-0.007,-0.025 0.024,-0.037 0.03,-0.019c0.023,0.045 0.042,0.094 0.06,0.141c0.012,0.013 0.023,0.026 0.031,0.042c0,0 -0.006,0.006 -0.012,0.006c-0.006,-0.016 -0.013,-0.032 -0.019,-0.048Zm-2.827,17.8c0.061,-0.012 0.061,-0.067 0.067,-0.109c0,-0.012 0.006,-0.031 0.006,-0.043c0,0.012 -0.006,0.024 -0.006,0.043c-0.067,0.006 -0.073,0.054 -0.067,0.109Z" style="fill:none;stroke:#0d7a7c;stroke-width:0.06px;"/></svg>