<?xml version="1.0" encoding="UTF-8" standalone="no"?><!DOCTYPE svg PUBLIC "-//W3C//DTD SVG 1.1//EN" "http://www.w3.org/Graphics/SVG/1.1/DTD/svg11.dtd"><svg width="100%" height="100%" viewBox="0 0 7 13" version="1.1" xmlns="http://www.w3.org/2000/svg" xmlns:xlink="http://www.w3.org/1999/xlink" xml:space="preserve" xmlns:serif="http://www.serif.com/" style="fill-rule:evenodd;clip-rule:evenodd;stroke-linejoin:round;stroke-miterlimit:10;"><path id="_-Curves-" serif:id="(Curves)" d="M4.122,2.626c-0.009,0.095 -0.008,0.094 0.045,0.076c0.156,-0.059 0.156,-0.059 0.169,0.096c0.014,0.174 0.037,0.347 0.032,0.525c0,0.132 0.06,0.187 0.174,0.223c0.374,0.11 0.72,0.283 1.017,0.543c0.342,0.296 0.615,0.653 0.766,1.086c0.046,0.128 0.11,0.251 0.119,0.392c0.004,0.073 0.059,0.119 0.109,0.169c0.178,0.187 0.178,0.209 0.064,0.428c-0.064,0.119 -0.046,0.252 -0.055,0.375c-0.018,0.337 -0.077,0.67 -0.123,1.008c-0.068,0.501 -0.082,1.012 -0.182,1.509c-0.179,0.881 -0.461,1.729 -0.808,2.559c-0.013,0.027 -0.022,0.06 -0.041,0.082c-0.088,0.101 -0.134,0.2 -0.149,0.3l-0.175,0c-0.005,-0.115 0.055,-0.208 0.183,-0.291l-0.005,0.005c0.06,-0.018 0.073,-0.073 0.096,-0.119c0.169,-0.323 0.255,-0.679 0.393,-1.017c0.018,-0.046 0.018,-0.086 -0.046,-0.105c-0.101,-0.022 -0.028,-0.073 0,-0.068c0.105,0.013 0.132,-0.055 0.15,-0.132c0.037,-0.146 0.128,-0.278 0.096,-0.438c-0.014,-0.064 0.028,-0.096 0.064,-0.133c0.032,-0.036 0.05,-0.082 -0.032,-0.086c-0.019,0 -0.055,0.009 -0.041,-0.023c0.028,-0.054 0.077,-0.087 0.132,-0.119c0.096,-0.055 -0.104,-0.104 -0.018,-0.154c0.055,-0.033 0.114,-0.024 0.022,-0.087c-0.036,-0.027 -0.004,-0.051 0.024,-0.064c0.045,-0.023 0.072,-0.055 0.077,-0.105c0.032,-0.415 0.151,-0.817 0.151,-1.236c0,-0.037 0.018,-0.077 -0.033,-0.101c-0.118,-0.054 -0.086,-0.086 0.01,-0.127c0.032,-0.014 0.059,-0.05 0.036,-0.096c-0.018,-0.037 -0.055,-0.05 -0.095,-0.05c-0.069,0 -0.137,0.004 -0.206,0.009c-0.013,0 -0.027,-0.009 -0.041,-0.009c0.009,-0.009 0.023,-0.018 0.032,-0.023c0.027,-0.009 0.06,-0.023 0.087,-0.028c0.059,-0.009 0.132,0.005 0.177,-0.022c0.124,-0.073 -0.099,-0.064 -0.036,-0.132c0.005,-0.005 0.009,-0.01 0.014,-0.019c0.018,-0.031 0.055,-0.068 -0.023,-0.064c-0.032,0 -0.059,0.014 -0.091,0.018c-0.092,0.019 -0.128,-0.063 -0.151,-0.114c-0.027,-0.063 0.055,-0.068 0.101,-0.09c0.041,-0.024 0.082,-0.042 0.114,-0.069c0.027,-0.023 0.059,-0.06 0.05,-0.096c-0.014,-0.045 -0.064,-0.036 -0.096,-0.032c-0.224,0.041 -0.447,0.096 -0.675,0.11c-0.055,0.004 -0.086,0.032 -0.11,0.091c-0.045,0.128 -0.072,0.137 -0.159,0.036c-0.078,-0.091 -0.155,-0.104 -0.26,-0.095c-0.105,0.013 -0.232,-0.028 -0.306,0.05c-0.095,0.1 -0.205,0.086 -0.314,0.086c-0.799,-0.018 -1.597,-0.036 -2.39,-0.054c-0.37,-0.005 -0.744,0.023 -1.109,-0.078c-0.05,-0.013 -0.118,-0.027 -0.141,0.037c-0.05,0.141 -0.146,0.128 -0.256,0.091c-0.032,-0.009 -0.087,-0.018 -0.096,0.023c-0.009,0.041 0.037,0.064 0.074,0.073c0.036,0.013 0.1,0.027 0.086,0.055c-0.018,0.05 -0.077,0.022 -0.114,0.009c-0.114,-0.037 -0.16,-0.005 -0.141,0.114c0.002,0.013 0.002,0.028 0.002,0.042l0,0.029c0,0.015 0.001,0.029 0.003,0.043c0,0.022 0.009,0.05 0.036,0.045c0.023,0 0.032,-0.027 0.032,-0.05c0,-0.032 -0.028,-0.087 0.027,-0.091c0.055,-0.005 0.023,0.059 0.037,0.087c0.045,0.081 0.045,0.127 -0.069,0.136c-0.05,0.005 -0.082,0.055 -0.059,0.105c0.027,0.059 0.055,-0.009 0.086,-0.013c0.055,-0.005 0.083,0.027 0.096,0.077c0.009,0.032 0.014,0.105 -0.009,0.096c-0.137,-0.059 -0.105,0.064 -0.137,0.118c-0.013,0.028 -0.004,0.033 0.019,0.019c0.022,0.005 0.04,0.009 0.064,0.009c-0.064,0.082 -0.133,0.169 0,0.255c0,0 -0.014,0.041 -0.028,0.055c-0.059,0.046 -0.046,0.105 -0.046,0.164c0,0.206 0.087,0.401 0.096,0.607c0.005,0.087 0.092,0.055 0.114,0.105c-0.077,0.032 -0.068,0.064 -0.046,0.146c0.074,0.246 0.06,0.251 0.151,0.378l0.005,0c-0.078,0.014 -0.069,0.069 -0.06,0.124c0.014,0.068 0.028,0.132 0.046,0.2c0.014,0.05 -0.009,0.114 0.096,0.123c0.1,0.009 -0.064,0.105 0.018,0.151c0.101,0.055 -0.027,0.105 0,0.182c0.049,0.142 0.096,0.283 0.144,0.425l0.009,0.027c0.047,0.141 0.095,0.282 0.143,0.424c0.06,0.169 0.174,0.311 0.201,0.488c0.005,0.027 0.032,0.064 0.064,0.055c0.046,-0.014 0.037,-0.059 0.028,-0.096c-0.01,-0.073 -0.069,-0.136 -0.023,-0.214c0.023,0.072 0.041,0.146 0.063,0.214c0.024,0.065 0.066,0.143 0.039,0.204l-0.208,0c-0.006,-0.038 -0.019,-0.077 -0.04,-0.122c-0.21,-0.437 -0.356,-0.899 -0.488,-1.364c-0.142,-0.497 -0.283,-0.994 -0.356,-1.505c-0.064,-0.456 -0.105,-0.916 -0.128,-1.382c-0.013,-0.242 0.014,-0.502 -0.141,-0.721c-0.05,-0.068 -0.037,-0.145 0.027,-0.205c0.05,-0.05 0.101,-0.1 0.083,-0.177c-0.065,-0.247 0.072,-0.498 -0.033,-0.744c-0.022,-0.046 0.009,-0.087 0.051,-0.119c0.127,-0.091 0.173,-0.232 0.205,-0.369c0.137,-0.552 0.492,-0.958 0.912,-1.3c0.242,-0.196 0.529,-0.324 0.826,-0.424c0.073,-0.023 0.145,-0.05 0.219,-0.064c0.127,-0.028 0.173,-0.1 0.173,-0.223c0.005,-0.169 0.009,-0.333 0.023,-0.502c0.013,-0.137 0.041,-0.151 0.159,-0.078c0.042,0.023 0.064,0.028 0.101,0.009c0.114,-0.059 0.241,-0.091 0.369,-0.11c0.118,-0.018 0.155,-0.09 0.128,-0.195c-0.023,-0.096 -0.059,-0.192 0.041,-0.27l0.009,-0.013c0,0.059 -0.009,0.118 -0.005,0.178c0.019,0.264 0.023,0.269 0.278,0.282c0.168,0.009 0.335,0.068 0.507,0.047Zm-2.463,9.371l-0.005,-0.049c-0.004,-0.036 -0.009,-0.096 0.009,-0.109c0.155,-0.101 0.05,-0.197 0.014,-0.311c-0.045,-0.155 -0.023,-0.318 0.036,-0.474c0.024,-0.059 0.074,-0.059 0.147,-0.036c0.597,0.164 1.194,0.346 1.824,0.315c0.31,-0.015 0.616,-0.055 0.921,-0.129c0.064,-0.013 0.114,-0.027 0.114,-0.109c0,-0.055 0.009,-0.05 0.06,-0.014c0.081,0.059 -0.015,0.144 0.042,0.199l0.003,0.002c-0.045,0.014 -0.1,-0.027 -0.136,0.042c-0.092,0.173 -0.16,0.355 -0.183,0.556c-0.005,0.027 -0.009,0.064 0.028,0.073c0.031,0.009 0.059,-0.014 0.077,-0.037c0.114,-0.196 0.201,-0.406 0.214,-0.634c0.023,0 0.046,0 0.069,-0.004c0.036,-0.009 0.073,-0.041 0.1,0c0.018,0.027 -0.022,0.05 -0.032,0.077c-0.083,0.18 -0.171,0.36 -0.212,0.558c-0.005,0.028 -0.01,0.056 -0.013,0.084l-0.393,0c0.01,-0.016 0.02,-0.035 0.03,-0.058c0.059,-0.15 0.064,-0.31 0.118,-0.461c0.014,-0.045 0.087,-0.086 0.033,-0.136c-0.042,-0.037 -0.101,0.004 -0.151,0.013c-0.21,0.032 -0.42,0.068 -0.634,0.073c-0.497,0.019 -0.981,-0.05 -1.459,-0.178c-0.147,-0.036 -0.151,-0.027 -0.179,0.114c-0.013,0.059 -0.027,0.119 -0.004,0.178c0.036,0.1 0.004,0.192 -0.027,0.288c-0.034,0.089 -0.05,0.136 -0.034,0.167l-0.145,0c-0.02,-0.02 -0.042,-0.032 -0.073,-0.013c-0.005,0.004 -0.01,0.009 -0.013,0.013l-0.146,0Zm1.911,0c0.001,-0.025 0.004,-0.052 0,-0.072c-0.014,-0.073 -0.018,-0.15 -0.023,-0.228c0,-0.022 0.009,-0.046 0.037,-0.05c0.027,-0.005 0.041,0.019 0.046,0.041c0.013,0.077 0.022,0.151 0.031,0.21c-0.006,0.032 -0.002,0.068 -0.002,0.099l-0.089,0Zm-1.629,-0.432l0.006,0.005c0.072,-0.16 -0.105,-0.265 -0.092,-0.411c0,-0.009 -0.032,-0.032 -0.05,-0.036c-0.018,-0.005 -0.046,0.004 -0.05,0.032c-0.018,0.187 -0.055,0.373 0.068,0.542c0.028,0.037 0.055,0.087 0.1,0.078c0.055,-0.014 0.073,-0.069 0.06,-0.128c-0.013,-0.03 -0.03,-0.052 -0.039,-0.077l-0.062,0l0.005,-0.005l0.054,0Zm3.315,0.119c0.003,0.004 0.007,0.009 0.011,0.013l-0.009,0.005c-0.001,-0.006 -0.002,-0.012 -0.002,-0.018Zm-3.373,-0.125c-0.015,-0.004 -0.018,-0.013 -0.014,-0.026c0.004,0.004 0.009,0.004 0.013,0.009c0.004,0.004 0.002,0.01 0.001,0.017c0.001,0.001 0.003,0.001 0.004,0.002l-0.005,0.004c0,-0.002 0.001,-0.004 0.001,-0.006Zm-0.598,-0.112c-0.004,0 -0.014,0.004 -0.014,0.004c-0.009,-0.013 -0.009,-0.023 0.01,-0.018c0,-0.005 0.004,0.005 0.004,0.014Zm0.721,-0.233c-0.006,0 -0.014,0.009 -0.014,0.014c0.002,0.004 0.006,0.009 0.009,0.013l0,0.001c0.003,0.004 0.007,0.008 0.009,0.013c0.005,-0.005 0.009,-0.009 0.014,-0.014c0.004,-0.018 0,-0.027 -0.018,-0.027Zm-0.461,0.032l0,-0.014l0.009,0.005l-0.009,0.009Zm3.813,-0.046c-0.014,0.004 -0.032,0 -0.027,-0.018c0.004,-0.018 0.013,-0.041 0.023,-0.059c0.009,-0.018 0.027,-0.018 0.031,0c0.005,0.027 0,0.054 -0.027,0.077Zm-0.36,-0.05c-0.023,0 -0.046,0 -0.055,-0.027c0,-0.005 0.023,-0.018 0.037,-0.023c0.022,-0.005 0.045,0 0.054,0.027c0,0.005 -0.027,0.014 -0.036,0.023Zm-3.809,-0.091c0,0.018 -0.013,0.027 -0.027,0.013c-0.014,-0.013 -0.028,-0.027 -0.046,-0.041c0.014,-0.004 0.023,-0.018 0.036,-0.018c0.028,0.005 0.037,0.023 0.037,0.046Zm3.239,-0.014c-0.005,0.005 -0.009,0.014 -0.009,0.014c-0.014,-0.009 -0.014,-0.023 0,-0.028c0,0 0.004,0.009 0.009,0.014Zm1.058,-0.064c-0.014,0.014 -0.023,0.014 -0.037,0c-0.013,-0.014 -0.041,-0.027 -0.031,-0.055c0.004,-0.013 0.018,-0.013 0.031,0.005c0.014,0.018 0.028,0.032 0.037,0.05Zm-0.794,-0.068c-0.009,0.009 -0.014,0.027 -0.023,0.032c-0.027,0.009 -0.04,-0.009 -0.04,-0.032c0,-0.014 0.013,-0.032 0.018,-0.032c0.022,-0.004 0.041,0.009 0.045,0.032Zm-3.325,-0.018c0.004,0.004 0.009,0.013 0.009,0.018c0,0.004 -0.014,0.013 -0.014,0.013c-0.013,-0.018 -0.013,-0.027 0.005,-0.031Zm0.101,-0.225c0.012,0.007 0.023,0.012 0.032,0.024c0.036,0.069 0.022,0.146 0.009,0.219c-0.005,0.018 -0.015,-0.032 -0.019,-0.051c-0.009,-0.045 -0.005,-0.09 -0.009,-0.132c0,-0.021 -0.008,-0.042 -0.013,-0.06c-0.001,-0.001 -0.004,-0.003 -0.005,-0.003c0,0 0.004,-0.005 0.004,0c0,0 0.001,0.002 0.001,0.003Zm0.442,0.188c0.018,-0.014 0.031,-0.023 0.05,-0.036c0.005,0.013 0.018,0.027 0.014,0.036c-0.005,0.023 -0.014,0.046 -0.042,0.037c-0.009,0 -0.013,-0.018 -0.022,-0.037Zm3.632,-0.083c0.002,0 0.005,0 0.008,0.001c0.009,0 0.013,0.018 0.022,0.027c-0.001,0.002 -0.004,0.005 -0.006,0.007l-0.001,0.001c-0.006,0.008 -0.013,0.015 -0.02,0.015c-0.022,0 -0.041,-0.009 -0.032,-0.036c0.004,-0.008 0.016,-0.015 0.029,-0.015Zm-0.774,-0.009c0.002,0 0.005,0 0.006,0.001c0.009,0 0.014,0.018 0.018,0.032c-0.001,0.002 -0.004,0.004 -0.006,0.006l-0.001,0.002c-0.006,0.007 -0.013,0.015 -0.02,0.015c-0.028,0 -0.037,-0.019 -0.028,-0.041c0.004,-0.008 0.02,-0.015 0.031,-0.015Zm0.403,-0.25c-0.018,0.059 -0.032,0.114 -0.055,0.173c-0.013,0.041 -0.018,0.133 -0.055,0.114c-0.045,-0.018 0.019,-0.091 0.028,-0.136c0.009,-0.06 0.009,-0.123 0.082,-0.151Zm-1.204,0.256c0.005,0.004 0.009,0.009 0.005,0.018c0,0.004 -0.005,0.009 -0.009,0.013c-0.005,-0.004 -0.01,-0.009 -0.005,-0.018c0,-0.004 0.005,-0.009 0.009,-0.013Zm0.566,-0.015c0.009,0.01 0.018,0.015 0.027,0.024c-0.009,0.004 -0.018,0.013 -0.032,0.018c-0.004,0 -0.014,-0.005 -0.019,-0.014c-0.004,-0.013 0,-0.022 0.024,-0.028Zm0.392,-0.022l0.004,0.018l-0.013,-0.005l0.009,-0.013Zm-3.056,-0.027c-0.009,0.004 -0.023,0.018 -0.032,0.018c-0.023,-0.005 -0.032,-0.023 -0.023,-0.041c0.004,-0.009 0.028,-0.014 0.032,-0.009c0.018,0.004 0.018,0.018 0.023,0.032Zm1.733,-0.041c0,0.004 -0.005,0.013 -0.005,0.013c-0.018,0 -0.022,-0.009 -0.009,-0.018c0,-0.004 0.009,0 0.014,0.005Zm1.081,-0.028c-0.027,-0.009 -0.069,0.069 -0.082,0c-0.009,-0.046 0.032,-0.119 0.087,-0.114c0.049,0 0.104,0.064 0.095,0.109c-0.013,0.092 -0.064,-0.004 -0.1,0.005Zm-3.218,0.016l0.002,0.007c0,0 -0.004,0.005 -0.004,0l0.002,-0.007l-0.007,-0.013l0,-0.002c-0.003,-0.006 -0.006,-0.012 -0.009,-0.019c-0.004,-0.014 0,-0.041 0,-0.041c0.036,-0.005 0.027,0.023 0.023,0.041c0,0.011 -0.003,0.023 -0.007,0.034Zm4.039,-0.08c-0.023,0.009 -0.041,0.018 -0.059,0.023c-0.018,0 -0.018,-0.014 -0.009,-0.032c0.013,-0.018 0.022,-0.041 0.05,-0.027c0.009,0 0.009,0.018 0.018,0.036Zm-3.717,-0.05c0.009,0.009 0.027,0.019 0.022,0.023c-0.004,0.018 -0.022,0.036 -0.045,0.027c-0.009,-0.004 -0.018,-0.027 -0.014,-0.031c0.009,-0.015 0.028,-0.015 0.037,-0.019Zm3.115,0.028l0.009,0.009l-0.009,-0.014l0,0.005Zm0,-0.005c-0.064,0.014 -0.069,-0.041 -0.082,-0.078c-0.009,-0.018 -0.014,-0.055 -0.009,-0.059c0.046,-0.023 0.036,0.028 0.046,0.046c0.013,0.027 0.027,0.063 0.045,0.091Zm-2.942,-0.032c-0.009,0.009 -0.019,0.023 -0.028,0.023c-0.027,0 -0.036,-0.019 -0.027,-0.041c0.005,-0.009 0.027,-0.014 0.036,-0.014c0.006,0.005 0.01,0.023 0.019,0.032Zm3.215,-0.005l-0.004,0.009l0,-0.004l0.004,-0.005Zm-0.182,-0.091l0.005,0.01l-0.014,-0.006l0.009,-0.004Zm-0.041,-0.088c-0.003,-0.003 -0.006,-0.005 -0.009,-0.007l0,-0.006c-0.148,-0.028 -0.027,-0.109 -0.027,-0.168c0,-0.018 0.018,-0.023 0.027,-0.009c0.004,0.014 0,0.027 0,0.045l0,0.132c0.001,0 0.003,0 0.004,0.001l-0.004,0.005l0.009,-0.005c0.001,0.005 0.002,0.009 0.003,0.014c0.022,0.022 0.032,0.051 0.03,0.082c0.002,0.002 0.005,0.003 0.008,0.004l-0.009,0c0,-0.002 0,-0.002 0.001,-0.004l-0.003,-0.002c-0.028,-0.018 -0.024,-0.05 -0.027,-0.08l-0.003,-0.002Zm-0.47,0.065c0.005,-0.004 0.014,-0.009 0.018,-0.004c0.019,0.004 0.019,0.013 0.005,0.022c-0.005,0.005 -0.014,0 -0.018,-0.004c-0.005,0 -0.005,-0.009 -0.005,-0.014Zm-2.394,-0.004c-0.005,-0.005 -0.009,-0.009 -0.009,-0.014c0,-0.018 0.009,-0.023 0.018,-0.009c0.004,0.005 0.004,0.014 0,0.018c0,0 -0.005,0 -0.009,0.005Zm-0.255,-0.009c-0.019,0 -0.024,-0.009 -0.019,-0.028c0,-0.004 0.009,-0.009 0.019,-0.009c0.004,0 0.018,0 0.018,0.005c0.004,0.013 0,0.023 -0.018,0.032Zm2.229,-0.028c-0.004,0 -0.013,-0.004 -0.013,-0.004c0,-0.018 0.009,-0.023 0.018,-0.009c0,0 -0.005,0.009 -0.005,0.013Zm0.578,-0.303c-0.002,-0.001 -0.002,-0.001 0,-0.001l0,0.001c0.002,0.001 0.005,0.002 0.011,0.002c0.037,0.005 0.05,0.046 0.059,0.078c0.004,0.016 0.009,0.036 0.009,0.057c0.002,0 0.003,0.001 0.005,0.002l-0.003,0.004c0,0 0,0.002 0.001,0.003c0.087,0.032 0.042,0.085 0.006,0.126c-0.018,0.018 -0.04,0 -0.031,-0.028c0.013,-0.03 0.034,-0.06 0.025,-0.098l-0.007,-0.003l0.004,-0.004l0,-0.002c-0.017,-0.007 -0.038,-0.008 -0.054,-0.021c-0.036,-0.023 -0.032,-0.063 -0.023,-0.096c0.004,-0.012 0.001,-0.018 -0.002,-0.02Zm-0.103,0.198l0.014,-0.04c0.013,0.009 0.027,0.009 0.036,0.022c0.009,0.014 0.005,0.032 -0.013,0.037c-0.019,0.009 -0.028,0 -0.037,-0.019Zm-2.445,0.014l-0.004,-0.009l0.013,0l-0.009,0.009Zm-0.178,-0.073c0.005,0.014 0.009,0.028 0.009,0.041c0,0.023 -0.009,0.028 -0.022,0.014c-0.009,-0.009 -0.019,-0.027 -0.019,-0.036c0,-0.005 0.019,-0.01 0.032,-0.019Zm2.623,0.059m-2.257,-0.013c-0.006,-0.009 -0.015,-0.018 -0.019,-0.027c0.013,-0.005 0.028,-0.01 0.037,-0.01c0.004,0 0.009,0.01 0.013,0.014c-0.009,0.009 -0.022,0.018 -0.031,0.023Zm-0.539,-0.069c0.005,0.005 0.009,0.008 0.014,0.012l0,0c0.005,0.003 0.009,0.006 0.013,0.011c-0.009,0.009 -0.018,0.019 -0.027,0.023c-0.004,-0.009 -0.013,-0.023 -0.013,-0.032c0,-0.004 0.013,-0.013 0.013,-0.014Zm3.977,-0.008c0.006,0 0.008,0.006 0.005,0.017c0,0.005 -0.009,0.009 -0.018,0.009c0,-0.002 -0.002,-0.005 -0.002,-0.009c-0.002,-0.003 -0.003,-0.006 -0.003,-0.009c0.007,-0.005 0.013,-0.008 0.017,-0.008l0.001,0Zm-3.954,-0.151c0.009,0.018 0.004,0.027 -0.014,0.036c-0.022,0.009 -0.046,0 -0.05,-0.023c-0.005,-0.009 0.004,-0.031 0.013,-0.036c0.024,-0.014 0.037,0 0.051,0.023Zm3.197,-0.033c0.005,0.01 0.014,0.015 0.019,0.024c0,0.004 -0.009,0.013 -0.009,0.013c-0.01,-0.004 -0.024,-0.009 -0.033,-0.013c0.009,-0.005 0.018,-0.014 0.023,-0.024Zm-0.182,-0.013c0.009,0.019 0.004,0.037 -0.009,0.032c-0.018,-0.009 -0.033,-0.032 -0.042,-0.05c-0.004,-0.009 0.009,-0.023 0.009,-0.037c0.015,0.019 0.028,0.037 0.042,0.055Zm-2.7,-0.055c-0.005,0 -0.014,0 -0.018,-0.004c-0.01,-0.014 0,-0.023 0.018,-0.018c0.004,0 0.009,0.009 0.013,0.013c0,0 -0.009,0.005 -0.013,0.009Zm-1.337,-0.004c-0.009,-0.009 -0.022,-0.023 -0.018,-0.032c0,-0.028 0.023,-0.037 0.045,-0.023c0.01,0.004 0.014,0.028 0.01,0.037c-0.005,0.009 -0.023,0.009 -0.037,0.018Zm5.145,-0.023c-0.009,0.009 -0.018,0.018 -0.027,0.018c-0.023,-0.004 -0.032,-0.022 -0.023,-0.041c0.004,-0.009 0.028,-0.014 0.037,-0.014c0.009,0.009 0.009,0.028 0.013,0.037Zm-1.008,-0.041c0,0.005 0,0.013 -0.004,0.013c-0.005,0.005 -0.014,0.005 -0.018,0.005c-0.019,-0.009 -0.015,-0.018 0.004,-0.023c0.009,0 0.014,0.005 0.018,0.005Zm0.16,-0.041c0.004,0.004 0.013,0.004 0.018,0.009c0.004,0.014 -0.005,0.023 -0.023,0.018c-0.004,0 -0.009,-0.009 -0.009,-0.013c0,-0.01 0.009,-0.01 0.014,-0.014Zm-1.811,-0.002c0.005,0 0.007,0.005 0.005,0.016c-0.002,0 -0.006,0.001 -0.009,0.001l-0.001,0.001c-0.003,0.001 -0.007,0.002 -0.009,0.002l-0.004,-0.014c0.007,-0.004 0.013,-0.006 0.018,-0.006Zm-0.146,0.011c-0.004,0.005 -0.013,0.009 -0.018,0.005c-0.019,-0.005 -0.023,-0.014 -0.005,-0.023c0.005,-0.005 0.014,0 0.019,0.004c0.004,0.005 0.004,0.009 0.004,0.014Zm1.208,-0.05c0.01,-0.01 0.019,-0.019 0.028,-0.023c0.005,0.009 0.014,0.018 0.018,0.028c0,0 -0.009,0.013 -0.013,0.013c-0.014,-0.004 -0.023,-0.013 -0.033,-0.018Zm-1.569,-0.019c-0.004,0.028 -0.022,0.033 -0.045,0.028c-0.023,-0.004 -0.036,-0.023 -0.032,-0.046c0,-0.009 0.023,-0.013 0.037,-0.013c0.022,-0.005 0.04,0.009 0.04,0.031Zm0.657,-0.009m0,0l-0.009,0.018l-0.009,-0.022l0.018,0.004Zm1.3,-0.05c-0.004,0.014 -0.009,0.037 -0.013,0.041c-0.032,0.005 -0.027,-0.023 -0.027,-0.041c0,-0.018 -0.009,-0.046 0.013,-0.059c0.009,0.023 0.018,0.041 0.027,0.059Zm-2.695,0.032c-0.005,0.005 -0.009,0.009 -0.014,0.009c-0.018,0 -0.022,-0.009 -0.009,-0.023c0.005,-0.004 0.014,-0.004 0.018,0c0,0 0.005,0.01 0.005,0.014Zm-0.21,-0.027c0.005,0.009 0.005,0.023 0.009,0.032c-0.004,0 -0.01,-0.002 -0.015,-0.002l-0.001,0c-0.006,-0.002 -0.011,-0.003 -0.016,-0.003c0,-0.004 0,-0.014 0.005,-0.018c0.004,-0.005 0.009,-0.005 0.018,-0.009l0,0Zm-1.122,0.004l0.014,0.009l-0.01,-0.013l-0.004,0.004Zm4.32,-0.027c-0.01,0.005 -0.019,0.014 -0.028,0.018c-0.005,0 -0.014,0 -0.018,-0.004c-0.009,-0.014 -0.005,-0.027 0.013,-0.027c0.009,-0.005 0.018,0.004 0.033,0.013Zm-2.842,-0.004l0,0.013c-0.005,0.005 -0.014,0.005 -0.019,0.005c-0.022,-0.009 -0.018,-0.018 0.005,-0.023c0,0 0.009,0.005 0.014,0.005Zm2.654,0.013c-0.018,-0.013 -0.022,-0.032 -0.018,-0.055c0.009,-0.022 0.023,-0.036 0.046,-0.018c0.009,0.009 0.018,0.023 0.018,0.036c-0.005,0.019 -0.018,0.037 -0.046,0.037Zm-1.751,-0.027c0,0.005 -0.005,0.014 -0.009,0.014c-0.005,0.004 -0.014,0 -0.014,0c-0.009,-0.014 -0.005,-0.024 0.014,-0.028c0,0 0.004,0.009 0.009,0.014Zm1.359,-0.032c-0.005,0.004 -0.005,0.013 -0.009,0.013c-0.014,0.005 -0.023,-0.004 -0.018,-0.018c0,-0.004 0.009,-0.009 0.013,-0.009l0.014,0.014Zm-1.204,0c-0.013,0 -0.028,0.004 -0.037,0.004c0,-0.013 0,-0.027 0.005,-0.036c0,-0.005 0.013,-0.005 0.019,-0.005c0.018,0.009 0.022,0.019 0.013,0.037Zm1.204,0m-2.527,-0.041c0.005,0.004 0.009,0.013 0.009,0.018c0,0.018 -0.009,0.027 -0.027,0.018c-0.019,-0.009 -0.019,-0.023 -0.004,-0.032c0.004,-0.004 0.013,-0.004 0.022,-0.004Zm0.593,0.032c-0.023,0 -0.045,-0.009 -0.045,-0.032c0,-0.009 0.013,-0.027 0.022,-0.032c0.028,-0.014 0.041,0.009 0.041,0.032c0.005,0.009 -0.013,0.023 -0.018,0.032Zm0.329,-0.046c0.018,0.005 0.027,0.018 0.013,0.027c-0.009,0.01 -0.027,0.005 -0.041,0.005c-0.004,0 -0.009,-0.009 -0.009,-0.018c0.009,-0.005 0.023,-0.009 0.037,-0.014Zm1.751,0.032c-0.004,0 -0.013,-0.005 -0.018,-0.005c-0.005,-0.013 0,-0.018 0.018,-0.018c0.005,0 0.009,0.009 0.014,0.014c-0.005,0.004 -0.009,0.004 -0.014,0.009Zm-3.85,-0.082c0.005,0.004 0.009,0.013 0.005,0.018c-0.009,0.019 -0.018,0.019 -0.023,0c0,-0.002 0.001,-0.005 0.003,-0.008l0,-0.001c0,-0.004 0.002,-0.007 0.002,-0.009c0.004,0 0.013,0 0.013,0Zm1.364,0.018c-0.005,-0.014 -0.009,-0.023 -0.014,-0.036c0.014,-0.005 0.028,-0.009 0.037,-0.009c0.018,0 0.027,0.018 0.014,0.031c-0.005,0.009 -0.023,0.009 -0.037,0.014Zm2.869,-0.064c-0.009,0.009 -0.013,0.028 -0.023,0.028c-0.027,0.004 -0.031,-0.019 -0.027,-0.041c0,-0.009 0.023,-0.018 0.032,-0.014c0.005,0 0.009,0.014 0.018,0.027Zm-3.006,-0.04c0.005,0.009 0.009,0.022 0.009,0.031c0,0.005 -0.009,0.009 -0.013,0.014c-0.005,-0.009 -0.009,-0.023 -0.009,-0.032c0,-0.004 0.009,-0.009 0.013,-0.013Zm0.507,-0.024c0.009,0.009 0.018,0.018 0.022,0.028c0,0.005 -0.004,0.014 -0.009,0.018c-0.013,0.009 -0.027,0.005 -0.027,-0.009c0,-0.013 0.009,-0.028 0.014,-0.037Zm2.139,0.051c-0.005,-0.009 -0.018,-0.023 -0.018,-0.033c0,-0.022 0.022,-0.031 0.041,-0.022c0.009,0.004 0.013,0.028 0.013,0.037c-0.004,0.009 -0.022,0.013 -0.036,0.018Zm-1.761,-0.06c0.009,0.009 0.018,0.014 0.027,0.023c-0.009,0.004 -0.018,0.014 -0.031,0.019c-0.005,0 -0.014,-0.005 -0.014,-0.015c-0.009,-0.013 0,-0.027 0.018,-0.027Zm1.587,0.033c-0.004,0 -0.013,0.004 -0.013,0.004c-0.005,-0.004 -0.009,-0.014 -0.009,-0.019c0.004,-0.018 0.013,-0.022 0.027,-0.004c0,0.004 -0.005,0.013 -0.005,0.019Zm0.366,-0.042c0.004,0.005 0.013,0.005 0.018,0.009c0.004,0.014 -0.005,0.023 -0.023,0.018c-0.004,0 -0.01,-0.009 -0.01,-0.018c0,0 0.01,-0.004 0.015,-0.009Zm-3.024,-0.013c-0.01,-0.01 -0.033,-0.014 -0.033,-0.023c-0.004,-0.023 0.009,-0.046 0.033,-0.051c0.009,0 0.027,0.014 0.031,0.024c0.005,0.018 -0.009,0.04 -0.031,0.05Zm0.373,-0.014c-0.004,0.004 -0.009,0.009 -0.013,0.009c-0.018,-0.005 -0.023,-0.009 -0.009,-0.023c0.004,-0.004 0.013,-0.004 0.018,-0.004c0,0.004 0,0.013 0.004,0.018Zm0.858,-0.06c0,0.003 0.001,0.006 0.002,0.009l0,0.001c0.001,0.003 0.003,0.007 0.003,0.009c-0.005,0.005 -0.009,0.009 -0.014,0.009c-0.019,0 -0.023,-0.009 -0.01,-0.023c0.005,-0.005 0.014,-0.005 0.019,-0.005Zm-1.077,-0.022c-0.004,0.009 -0.009,0.022 -0.013,0.031c-0.005,-0.004 -0.014,-0.009 -0.014,-0.013c0.005,-0.009 0.009,-0.023 0.014,-0.032c0.004,0.005 0.009,0.009 0.013,0.014Zm2.719,-0.009c0.004,0 0.013,0 0.013,0.004c0.005,0.005 0.005,0.014 0.005,0.018c-0.009,0.018 -0.018,0.018 -0.023,-0.004c-0.004,-0.009 0,-0.014 0.005,-0.018Zm0.292,-0.037c-0.005,0.014 -0.009,0.027 -0.014,0.041c-0.013,-0.004 -0.032,-0.009 -0.037,-0.018c-0.004,-0.009 0.005,-0.027 0.015,-0.036c0.013,-0.014 0.031,-0.009 0.036,0.013Zm-0.174,0.005c0.009,0.009 0.014,0.018 0.024,0.022c-0.01,0.005 -0.024,0.01 -0.033,0.014c-0.004,0 -0.009,-0.004 -0.013,-0.009c0.004,-0.009 0.013,-0.018 0.022,-0.027Zm-2.417,-0.005c-0.004,0.014 -0.013,0.032 -0.018,0.032c-0.028,0.005 -0.037,-0.018 -0.041,-0.036c0,-0.009 0.013,-0.028 0.022,-0.033c0.028,-0.009 0.033,0.015 0.037,0.037Zm-0.201,-0.037c-0.004,0 -0.013,0.005 -0.013,0.005c-0.014,-0.009 -0.009,-0.023 0.004,-0.027c0.005,0 0.014,0.004 0.014,0.009c0,0 -0.005,0.009 -0.005,0.013Zm-0.178,-0.077c-0.004,0.014 -0.009,0.027 -0.013,0.037c-0.009,-0.01 -0.028,-0.014 -0.032,-0.023c-0.005,-0.009 0.004,-0.027 0.014,-0.032c0.018,-0.01 0.027,0 0.031,0.018Zm1.146,0.014c0,0.004 -0.005,0.009 -0.005,0.018c-0.005,-0.005 -0.014,-0.014 -0.019,-0.018c0.005,-0.005 0.009,-0.009 0.014,-0.009c0,0 0.005,0.004 0.01,0.009Zm-0.124,-0.014c0.002,0 0.006,0.001 0.009,0.002l0.001,0c0.003,0.002 0.006,0.003 0.009,0.003c0,0.004 0,0.013 -0.005,0.013c-0.004,0.005 -0.014,0.005 -0.019,0.005c-0.018,-0.009 -0.018,-0.018 0.005,-0.023Zm1.989,-0.004m0,0l0.004,-0.005l0.005,0l-0.009,0.005Zm-0.292,-0.024l0.018,0l-0.009,0.019l-0.009,-0.019Zm1.423,-0.036c0.004,0.005 0.009,0.014 0.009,0.018c0,0.005 -0.009,0.009 -0.009,0.018c-0.018,-0.013 -0.018,-0.027 0,-0.036Zm-1.218,-0.059c-0.009,0.032 0,0.082 -0.041,0.073c-0.041,-0.014 -0.027,-0.064 -0.023,-0.096c0,-0.018 0.019,-0.055 0.028,-0.055c0.059,0.005 0.018,0.059 0.036,0.078Zm-2.654,-0.03c0,-0.002 0,-0.004 0,-0.007l0.004,0.005c-0.001,0.001 -0.002,0.001 -0.004,0.002c0.004,0.029 0.002,0.053 -0.033,0.066c-0.004,0.005 -0.027,-0.013 -0.027,-0.018c0,-0.039 0.037,-0.037 0.06,-0.048Zm2.787,0.008c0.003,0 0.006,0.001 0.009,0.003c0,0.003 0,0.005 0.002,0.007l0,0.001c0.001,0.002 0.002,0.004 0.002,0.007c-0.004,0.004 -0.009,0.009 -0.013,0.009c-0.019,0 -0.024,-0.009 -0.009,-0.024c0.002,-0.002 0.005,-0.003 0.009,-0.003Zm-1.926,0.009l0.005,0.018l-0.014,-0.005l0.009,-0.013Zm0.635,0c-0.005,-0.006 -0.009,-0.01 -0.009,-0.019c0,-0.018 0.009,-0.023 0.018,-0.014c0.004,0.005 0.004,0.014 0,0.018c0,0.009 -0.005,0.009 -0.009,0.015Zm-1.67,-0.065c-0.009,0.028 -0.009,0.05 -0.018,0.055c-0.023,0.014 -0.041,-0.005 -0.045,-0.027c-0.009,-0.073 -0.019,-0.142 -0.028,-0.215c0.004,0 0.013,-0.004 0.013,0c0.037,0.064 0.019,0.147 0.078,0.187Zm0.187,0.043c-0.001,0.001 -0.003,0.002 -0.004,0.003l-0.009,-0.005c0.004,0 0.009,0.001 0.013,0.002Zm0,0c0.011,-0.008 0.02,-0.016 0.032,-0.02c0.005,0 0.009,0.005 0.014,0.009c-0.014,0.018 -0.029,0.014 -0.046,0.011Zm2.426,-0.071c0.004,0 0.008,0 0.01,0.001c0.009,0 0.014,0.018 0.018,0.032c-0.002,0.002 -0.004,0.004 -0.006,0.007l-0.001,0.001c-0.007,0.007 -0.013,0.015 -0.02,0.015c-0.023,-0.005 -0.037,-0.023 -0.028,-0.046c0.004,-0.007 0.017,-0.01 0.027,-0.01Zm-2.613,0.028m0.753,-0.036c0.009,-0.009 0.014,-0.019 0.023,-0.028c0.004,0.009 0.013,0.019 0.018,0.033c0,0.004 -0.005,0.013 -0.014,0.013c-0.013,0.009 -0.023,0 -0.027,-0.018Zm3.339,-0.019c-0.005,0.015 -0.009,0.033 -0.018,0.037c-0.009,0.005 -0.028,-0.004 -0.037,-0.013c-0.009,-0.014 -0.005,-0.033 0.013,-0.037c0.015,0 0.028,0.009 0.042,0.013Zm-3.96,-0.045c-0.004,0.014 -0.009,0.027 -0.013,0.036c-0.014,-0.004 -0.028,-0.009 -0.037,-0.018c-0.009,-0.013 -0.004,-0.027 0.014,-0.036c0.018,-0.005 0.027,0 0.036,0.018Zm0,0m-0.36,-0.05c0,0.023 -0.009,0.045 -0.032,0.045c-0.027,0 -0.036,-0.018 -0.031,-0.04c0.004,-0.014 0.013,-0.028 0.022,-0.037c0.032,-0.014 0.037,0.013 0.041,0.032Zm1.305,0.018c0.004,0 0.013,0.005 0.013,0.005c0,0.004 -0.004,0.009 -0.004,0.018c-0.005,0 -0.014,-0.005 -0.014,-0.005c0,-0.009 0.005,-0.013 0.005,-0.018Zm1.86,-0.037c-0.004,0.015 -0.004,0.028 -0.013,0.037c-0.027,0.018 -0.036,-0.004 -0.041,-0.027c0,-0.01 0.014,-0.023 0.018,-0.032c0.018,0.009 0.027,0.018 0.036,0.022Zm-3.32,0.028c-0.004,0 -0.013,0.009 -0.018,0.005c-0.019,-0.005 -0.019,-0.014 -0.004,-0.023c0.004,-0.005 0.013,0 0.018,0.005c0.004,0 0.004,0.009 0.004,0.013Zm-1.117,-0.004c-0.005,0.004 -0.009,0.009 -0.014,0.009c-0.004,0 -0.013,-0.005 -0.013,-0.009c0,-0.019 0.009,-0.024 0.022,-0.014c0.005,0 0.005,0.009 0.005,0.014Zm4.228,-0.109c-0.001,-0.001 -0.003,-0.001 -0.004,-0.001l0.004,-0.004c0,0.001 0,0.003 0,0.005c0.029,0.005 0.05,0.023 0.059,0.054c0.005,0.022 0.005,0.055 -0.018,0.059c-0.023,0.005 -0.027,-0.028 -0.032,-0.05c-0.004,-0.021 -0.008,-0.042 -0.009,-0.063Zm-2.458,0.085c-0.009,0.01 -0.024,0.024 -0.028,0.019c-0.023,-0.004 -0.036,-0.023 -0.023,-0.046c0.005,-0.009 0.027,-0.013 0.036,-0.013c0.006,0.009 0.01,0.027 0.015,0.04Zm0.173,-0.004c-0.009,0.009 -0.019,0.023 -0.028,0.023c-0.027,0 -0.036,-0.023 -0.027,-0.041c0.005,-0.009 0.023,-0.014 0.036,-0.014c0.01,0.005 0.014,0.018 0.019,0.032Zm2.244,-0.009c-0.009,0.013 -0.023,0.013 -0.037,0c-0.004,-0.005 -0.004,-0.014 -0.004,-0.018c0.013,0 0.027,0 0.036,0c0.005,0 0.005,0.009 0.005,0.018Zm1.437,-0.014c-0.005,0.005 -0.014,0.009 -0.019,0.009c-0.004,0 -0.009,-0.009 -0.018,-0.009c0.014,-0.018 0.027,-0.018 0.037,0Zm-1.436,-0.206c0.001,0.003 0.002,0.006 0.003,0.01l0,0.002c0.088,0.019 0.066,0.07 0.035,0.123l0.002,0.008l-0.01,0.004c0.003,-0.004 0.006,-0.007 0.008,-0.012l-0.038,-0.124c-0.002,0 -0.003,0 -0.006,-0.001l0.005,-0.005l0.001,0.006c0.001,0 0.002,0 0.003,0c-0.002,-0.003 -0.003,-0.007 -0.003,-0.011Zm-2.606,0.106c-0.009,0.004 -0.022,0.022 -0.031,0.018c-0.028,-0.005 -0.033,-0.027 -0.019,-0.045c0.005,-0.01 0.028,-0.014 0.037,-0.01c0.004,0.005 0.009,0.023 0.013,0.037Zm-1.646,-0.068c0.009,0.009 0.013,0.018 0.018,0.031c-0.005,0.005 -0.008,0.011 -0.011,0.016l0,0.001c-0.004,0.006 -0.007,0.011 -0.012,0.015c-0.004,-0.009 -0.018,-0.022 -0.018,-0.032c0,-0.009 0.014,-0.022 0.023,-0.031Zm4.47,0c-0.005,0.018 -0.014,0.041 -0.014,0.041c-0.054,-0.005 -0.036,-0.055 -0.045,-0.083c-0.005,-0.018 0,-0.041 0.004,-0.063c0.037,0.027 0.014,0.087 0.055,0.105Zm-3.015,0.027c0,0.004 -0.005,0.014 -0.005,0.014c-0.023,0 -0.023,-0.01 -0.009,-0.019c-0.004,-0.004 0.005,0.005 0.014,0.005Zm1.642,-0.041c0.004,0 0.014,0.005 0.014,0.005c0,0.018 -0.01,0.022 -0.019,0.009c0,0 0.005,-0.009 0.005,-0.014Zm-0.137,0.009l-0.004,-0.013l0.013,0l-0.009,0.013Zm-1.095,0c-0.009,-0.009 -0.027,-0.013 -0.027,-0.028c-0.004,-0.018 0.009,-0.027 0.023,-0.022c0.004,0 0.013,0.009 0.013,0.013c0.014,0.014 0.01,0.028 -0.009,0.037Zm0.365,0l-0.004,-0.019l0.013,0.006l-0.009,0.013Zm2.017,-0.056c0.002,0.005 0.003,0.011 0.004,0.016l0.001,0.007c-0.003,-0.009 -0.006,-0.016 -0.006,-0.026l0.001,0.003Zm-2.56,-0.003c-0.027,-0.023 -0.05,-0.055 -0.05,-0.092c0,-0.027 0.028,-0.032 0.046,-0.018c0.027,0.023 0.059,0.046 0.037,0.091c-0.005,0.01 -0.024,0.014 -0.033,0.019Zm-0.168,-0.046c0.004,0.018 -0.005,0.032 -0.014,0.027c-0.009,-0.004 -0.009,-0.027 -0.009,-0.036c0,-0.009 0.009,-0.019 0.014,-0.032c0,0.013 0.004,0.028 0.009,0.041Zm1.569,-0.041c-0.005,0.004 -0.014,0.009 -0.018,0.004c-0.019,-0.004 -0.024,-0.013 -0.005,-0.022c0.005,-0.005 0.014,0 0.018,0.004c0,0 0,0.009 0.005,0.014Zm-0.306,-0.014l0.005,0.018l-0.014,-0.004l0.009,-0.014Zm0.306,0.014m0.105,-0.055c0.018,0 0.022,0.009 0.018,0.028c0,0 -0.005,0.004 -0.014,0.009c-0.002,-0.005 -0.005,-0.009 -0.009,-0.014l-0.001,0c-0.003,-0.005 -0.006,-0.009 -0.008,-0.014c0,0 0.009,-0.009 0.014,-0.009Zm-1.25,0.009c-0.004,0.005 -0.004,0.014 -0.01,0.019c-0.013,0.009 -0.027,0.004 -0.027,-0.014c0,-0.014 0.009,-0.023 0.027,-0.018c0.006,0 0.006,0.009 0.01,0.013Zm0,0m3.763,-0.031c-0.009,0 -0.023,-0.005 -0.032,-0.009l0,-0.019c0.009,0 0.023,0 0.032,0.004c0,0.01 0,0.019 0,0.024Zm-1.551,-0.005c-0.005,-0.014 -0.014,-0.028 -0.014,-0.037c0,-0.018 0.018,-0.027 0.033,-0.013c0.009,0.009 0.013,0.022 0.018,0.036c-0.014,0 -0.028,0.005 -0.037,0.014Zm-1.239,-0.054c0.001,0.001 0.001,0.003 0.002,0.004l0.006,0.018c0.002,0.002 0.003,0.006 0.004,0.009c0,0.004 -0.009,0.009 -0.014,0.014c-0.004,-0.014 -0.009,-0.023 -0.013,-0.037c0,-0.004 0.009,-0.009 0.013,-0.013l0.002,0.005Zm-2.87,0.045l-0.015,0l0.01,-0.014l0.005,0.014Zm1.737,-0.096c0.014,0.009 0.027,0.014 0.036,0.023c0.015,0.013 0.01,0.032 -0.013,0.036c-0.014,0 -0.032,-0.009 -0.036,-0.018c-0.005,-0.014 0.009,-0.027 0.013,-0.041Zm2.527,0.05c-0.018,-0.014 -0.032,-0.032 -0.018,-0.054c0.005,-0.009 0.023,-0.015 0.036,-0.024c0.005,0.019 0.014,0.042 0.014,0.06c0,0.023 -0.018,0.027 -0.032,0.018Zm-2.896,-0.009c-0.014,0.014 -0.027,0.009 -0.036,-0.005c-0.006,-0.004 0,-0.013 0.004,-0.018c0.005,-0.004 0.014,-0.009 0.018,-0.009c0.018,0.005 0.023,0.018 0.014,0.032Zm0.137,-0.045c-0.01,0.009 -0.019,0.022 -0.028,0.022c-0.018,0.005 -0.027,-0.009 -0.018,-0.027c0.005,-0.004 0.014,-0.014 0.014,-0.014c0.013,0 0.022,0.01 0.032,0.019Zm2.49,-0.028c0.009,0.009 0.013,0.019 0.023,0.028c-0.01,0.004 -0.019,0.013 -0.028,0.013c-0.004,0 -0.009,-0.004 -0.018,-0.009c0.009,-0.009 0.014,-0.019 0.023,-0.032Zm-0.748,0.032c-0.004,0.005 -0.013,0.009 -0.019,0.009c-0.004,0 -0.013,-0.013 -0.013,-0.013c0.013,-0.015 0.023,-0.015 0.032,0.004Zm-0.247,-0.013c0,-0.019 0.01,-0.033 0.024,-0.028c0.009,0.004 0.018,0.018 0.022,0.032c0,0.005 -0.009,0.014 -0.013,0.014c-0.018,0.009 -0.033,0 -0.033,-0.018Zm2.669,-0.046c0.013,0.04 0,0.059 -0.009,0.05c-0.018,-0.019 -0.032,-0.041 -0.041,-0.069c-0.009,-0.022 0.009,-0.049 0.027,-0.036c0.023,0.018 0.023,0.055 0.023,0.055Zm-2.933,-0.005c-0.009,0.009 -0.018,0.023 -0.027,0.023c-0.027,0.004 -0.036,-0.018 -0.032,-0.041c0.005,-0.009 0.023,-0.018 0.032,-0.014c0.013,0.005 0.018,0.023 0.027,0.032Zm1.423,0.005c-0.009,0.004 -0.022,0.018 -0.027,0.018c-0.023,-0.005 -0.032,-0.027 -0.019,-0.046c0.005,-0.009 0.028,-0.013 0.033,-0.009c0.009,0.009 0.009,0.028 0.013,0.037Zm-4.245,-0.037c0.004,0.001 0.008,0.005 0.012,0.005c0,0.004 -0.004,0.013 -0.004,0.013c-0.002,0 -0.004,0 -0.006,-0.001l-0.003,-0.002c-0.002,-0.001 -0.003,-0.001 -0.005,-0.001c0,-0.005 0.005,-0.014 0.005,-0.014l0.001,0Zm3.78,0.009l-0.013,0l0.009,-0.013l0.004,0.013Zm-2.299,-0.031l-0.004,0.009l-0.008,0c-0.003,0.006 -0.008,0.01 -0.015,0.018c0,-0.005 0,-0.009 0.004,-0.014c0.003,-0.003 0.008,-0.004 0.011,-0.004c0.001,-0.002 0.002,-0.003 0.003,-0.005l0.009,-0.004Zm0.214,-0.051c-0.004,0.014 -0.009,0.027 -0.013,0.036c-0.009,-0.009 -0.027,-0.013 -0.027,-0.022c-0.005,-0.009 0.004,-0.027 0.013,-0.037c0.014,-0.004 0.023,0.005 0.027,0.023Zm1.249,0.025c-0.005,0.006 -0.011,0.011 -0.017,0.011c-0.027,0 -0.036,-0.022 -0.027,-0.04c0.004,-0.009 0.022,-0.014 0.036,-0.014c0.009,0.005 0.014,0.018 0.018,0.032c-0.001,0.001 -0.002,0.002 -0.003,0.003l-0.007,0.008Zm-1.03,-0.016c-0.009,0.005 -0.022,0.018 -0.031,0.018c-0.024,-0.004 -0.033,-0.022 -0.018,-0.045c0.004,-0.009 0.027,-0.014 0.036,-0.009c0.009,0.009 0.009,0.027 0.013,0.036Zm1.465,-0.027m0,0c0.013,0.009 0.022,0.014 0.036,0.018c-0.009,0.009 -0.018,0.018 -0.027,0.023c-0.005,-0.005 -0.008,-0.009 -0.011,-0.014l-0.001,0c-0.003,-0.005 -0.007,-0.009 -0.011,-0.013c0,0 0.009,-0.014 0.014,-0.014l0,0Zm-0.183,-0.005c0.009,0.01 0.014,0.019 0.023,0.023c-0.009,0.005 -0.023,0.014 -0.032,0.018l-0.009,-0.013c0.004,-0.014 0.013,-0.018 0.018,-0.028Zm-1.501,0.023m1.898,-0.023c0.009,-0.009 0.018,-0.018 0.027,-0.022c0.005,0 0.014,0.004 0.018,0.009c0.009,0.013 0.005,0.027 -0.009,0.032c-0.013,0 -0.022,-0.009 -0.036,-0.019Zm-0.944,0.014c-0.005,0 -0.014,0.005 -0.014,0c-0.005,-0.004 -0.009,-0.009 -0.005,-0.014c0.005,-0.018 0.014,-0.018 0.024,-0.004c0,0.001 -0.001,0.002 -0.001,0.004l-0.003,0.01c-0.001,0.002 -0.001,0.003 -0.001,0.004Zm1.728,-0.05c-0.004,0.009 -0.009,0.027 -0.018,0.032c-0.022,0.009 -0.041,-0.009 -0.041,-0.032c0,-0.014 0.01,-0.032 0.019,-0.032c0.022,-0.005 0.036,0.004 0.04,0.032Zm1.469,-0.009c-0.013,0.018 -0.018,0.036 -0.027,0.036c-0.032,0 -0.051,-0.018 -0.064,-0.046c-0.009,-0.022 0,-0.045 0.023,-0.036c0.027,0.005 0.045,0.032 0.068,0.046Zm-1.761,0.009l0.014,-0.004l0,0.013l-0.014,-0.009Zm-2.526,-0.032m0,0c-0.003,0.007 -0.006,0.012 -0.009,0.018l-0.001,0.001c-0.003,0.006 -0.006,0.011 -0.008,0.018c-0.005,-0.005 -0.015,-0.014 -0.015,-0.014c0.006,-0.014 0.01,-0.023 0.019,-0.037l0.014,0.014Zm1.455,-0.031c0.003,0 0.006,0.002 0.009,0.004c0,0.002 0.001,0.004 0.002,0.006l0,0.001c0.001,0.002 0.002,0.004 0.002,0.006c-0.004,0.005 -0.009,0.009 -0.013,0.009c-0.018,0 -0.023,-0.009 -0.009,-0.022c0.002,-0.002 0.006,-0.004 0.009,-0.004Zm-1.004,-0.033c-0.009,0.009 -0.018,0.027 -0.027,0.027c-0.023,-0.004 -0.041,-0.022 -0.023,-0.045c0.004,-0.009 0.023,-0.014 0.037,-0.023c0.004,0.014 0.009,0.028 0.013,0.041Zm1.455,0.027c-0.022,-0.004 -0.041,-0.018 -0.031,-0.045c0.004,-0.009 0.022,-0.023 0.031,-0.023c0.023,0.004 0.041,0.023 0.037,0.046c0,0.013 -0.023,0.018 -0.037,0.022Zm-0.187,-0.045c0.005,0.005 0.009,0.009 0.005,0.014c-0.005,0.018 -0.014,0.018 -0.023,0.004c-0.005,-0.004 0,-0.013 0.005,-0.018l0.013,0Zm-1.579,-0.036c0.031,0.002 0.066,-0.006 0.079,0.036c0,0.005 -0.005,0.018 -0.009,0.018c-0.043,0.005 -0.054,-0.028 -0.07,-0.054c-0.003,0 -0.005,0 -0.008,-0.001l0.004,-0.004c0.002,0.001 0.003,0.004 0.004,0.005Zm2.528,0.022c-0.004,-0.005 -0.013,-0.005 -0.019,-0.009c0.006,-0.009 0.01,-0.023 0.015,-0.032l0.013,0.005c0.014,0.022 0.009,0.031 -0.009,0.036Zm-2.75,-0.064c0.001,0.002 0.004,0.005 0.007,0.007l0,0.001c0.008,0.006 0.015,0.013 0.015,0.02c0,0.022 -0.018,0.036 -0.036,0.022c-0.009,-0.004 -0.014,-0.022 -0.014,-0.036c0,-0.005 0.018,-0.005 0.028,-0.014Zm0.212,0.032c-0.026,-0.003 -0.059,-0.001 -0.076,-0.013c-0.032,-0.028 -0.072,-0.074 -0.036,-0.11c0.032,-0.027 0.096,-0.054 0.141,-0.032c0.042,0.023 0.009,0.064 -0.004,0.101c-0.005,0.009 -0.009,0.018 -0.014,0.028l0,0.002c-0.004,0.008 -0.007,0.016 -0.011,0.024c0.002,0 0.005,0 0.006,0l-0.009,0.005c0.002,-0.002 0.002,-0.004 0.003,-0.005Zm1.215,-0.05c0.002,0.002 0.005,0.005 0.007,0.009l0.001,0.001c0.001,0.003 0.003,0.006 0.006,0.008c0,0.019 -0.014,0.023 -0.032,0.019c-0.004,0 -0.009,-0.01 -0.013,-0.014c0.009,-0.009 0.022,-0.014 0.031,-0.023Zm-1.045,0.009c0.01,-0.009 0.015,-0.022 0.024,-0.027c0.018,0 0.022,0.014 0.018,0.027c0,0.005 -0.009,0.014 -0.014,0.014c-0.013,0.014 -0.022,0.004 -0.028,-0.014Zm2.514,-0.05c-0.009,-0.005 -0.018,-0.005 -0.032,-0.009c0,0 0,-0.009 0,-0.018c0.009,0 0.023,0.004 0.032,0.004c0.004,0.009 0.004,0.018 0,0.023Zm0.054,-0.178c0.024,0.005 0.042,0.018 0.033,0.041c-0.005,0.009 -0.023,0.023 -0.033,0.018c-0.022,-0.004 -0.036,-0.022 -0.036,-0.045c0.005,0 0.027,-0.005 0.036,-0.014Zm-4.296,-0.205c-0.014,-0.009 -0.036,-0.014 -0.045,-0.032c-0.019,-0.032 0.013,-0.032 0.031,-0.032c0.019,0 0.046,0.009 0.05,0.023c0.014,0.023 -0.004,0.036 -0.036,0.041Zm5.88,-0.378c-0.005,-0.033 -0.019,-0.055 -0.042,-0.046c-0.022,0.009 -0.054,0.031 -0.059,0.05c-0.009,0.032 0.018,0.05 0.05,0.045c0.036,-0.004 0.051,-0.022 0.051,-0.049Zm-6.085,-0.105c-0.009,-0.06 -0.046,-0.114 -0.11,-0.123c-0.045,-0.01 -0.054,0.04 -0.045,0.077c0.009,0.046 -0.005,0.114 0.077,0.105c0.032,0 0.078,-0.005 0.078,-0.059Zm0.916,-0.064c-0.027,-0.005 -0.05,-0.014 -0.068,-0.01c-0.018,0.005 -0.05,0.014 -0.055,0.028c-0.009,0.037 0.023,0.046 0.055,0.055c0.014,0.004 0.032,0.009 0.046,0.004c0.064,-0.013 0.173,0.082 0.187,-0.028c0.004,-0.086 -0.114,-0.022 -0.165,-0.049Zm3.923,-0.069l0,-0.014c-0.077,0.005 -0.15,0.005 -0.224,0.014c-0.036,0.004 -0.095,0.028 -0.09,0.055c0.004,0.041 0.059,0.023 0.09,0.018c0.352,-0.036 0.708,-0.045 1.054,-0.123c0.028,-0.005 0.055,-0.014 0.087,-0.018c-0.023,-0.027 -0.055,-0.018 -0.082,-0.018c-0.055,0.004 -0.105,0.009 -0.16,0.013c-0.228,0.023 -0.452,0.05 -0.675,0.073Zm-4.306,0.05c0.005,-0.027 -0.013,-0.046 -0.036,-0.05c-0.133,-0.032 -0.265,-0.064 -0.392,-0.091c-0.014,-0.004 -0.037,0.005 -0.041,0.014c-0.005,0.022 0.013,0.036 0.032,0.045c0.123,0.064 0.255,0.087 0.387,0.11c0.028,0.004 0.041,-0.009 0.05,-0.028Zm5.492,-0.036c0,0.018 0.009,0.027 0.027,0.018c0.005,0 0.014,-0.009 0.014,-0.013c0,-0.005 -0.005,-0.015 -0.009,-0.019c-0.014,-0.009 -0.027,-0.005 -0.032,0.014Zm-0.423,-0.88c0,-0.002 -0.001,-0.003 -0.001,-0.005l0.004,0.005l-0.003,0c0.018,0.088 0.056,0.15 0.168,0.123c0.082,-0.018 0.164,-0.023 0.246,-0.033c0.1,-0.013 0.132,-0.068 0.082,-0.15c-0.037,-0.054 -0.091,-0.096 -0.1,-0.168c-0.005,-0.024 -0.027,-0.033 -0.051,-0.033c-0.068,-0.009 -0.063,-0.018 -0.068,-0.072c0,-0.069 0.032,-0.132 -0.009,-0.21c-0.055,-0.11 -0.055,-0.237 -0.082,-0.351c-0.031,-0.111 -0.11,-0.166 -0.228,-0.127c-0.002,0.003 -0.003,0.005 -0.005,0.008l-0.004,-0.004c0.003,-0.002 0.006,-0.003 0.009,-0.004c0.036,-0.061 0.087,-0.118 0.004,-0.188c-0.05,-0.046 -0.045,-0.141 -0.154,-0.141c-0.024,0 -0.028,-0.133 -0.087,-0.197c-0.055,-0.055 -0.101,-0.082 -0.174,-0.041c-0.004,-0.077 -0.022,-0.146 -0.118,-0.159c-0.073,-0.01 -0.133,-0.05 -0.173,-0.101c-0.064,-0.079 -0.086,0 -0.121,0.019c0.002,0.002 0.004,0.003 0.007,0.004c-0.009,0.037 -0.024,0.073 -0.074,0.041c-0.04,-0.022 -0.05,-0.105 -0.114,-0.087c-0.114,0.028 -0.127,-0.073 -0.173,-0.132c0.096,-0.041 0.037,-0.068 -0.005,-0.1c-0.013,-0.051 -0.05,-0.046 -0.081,-0.032c-0.009,0.005 -0.019,0.027 -0.019,0.032c0.023,0.023 0.055,0.013 0.082,0.009c0.005,-0.005 0.009,-0.009 0.018,-0.009c-0.001,0.012 -0.002,0.023 -0.003,0.034l-0.002,0.023c-0.001,0.011 -0.002,0.022 -0.004,0.034c-0.068,-0.023 -0.182,0.027 -0.196,-0.087c-0.018,-0.15 -0.127,-0.136 -0.223,-0.154l0.005,0.004c-0.002,-0.001 -0.003,-0.002 -0.005,-0.003c0.002,0.005 0.005,0.01 0.005,0.017c0.004,0.05 0.077,0.063 0.059,0.123c0,0 -0.028,-0.005 -0.041,-0.009c-0.069,-0.032 -0.024,-0.087 -0.024,-0.132c-0.016,-0.013 -0.033,-0.028 -0.049,-0.028c-0.566,-0.027 -1.136,-0.077 -1.702,0.009c-0.055,0.009 -0.1,0.013 -0.132,0.068c-0.082,0.133 -0.247,0.133 -0.361,0.224c-0.048,0.039 -0.092,-0.015 -0.111,-0.068c0,0 0.001,0 0.002,-0.001c0.004,-0.002 0.007,-0.004 0.01,-0.006c0.051,-0.004 0.108,0.033 0.145,-0.03c0.009,-0.014 0.009,-0.036 -0.004,-0.036c-0.056,0 -0.099,0.035 -0.141,0.066c-0.005,0 -0.009,0.001 -0.015,0.002l0.003,0.005c-0.127,0.036 -0.253,0.069 -0.231,0.246c0,0.018 0.069,0.05 -0.004,0.055c-0.027,0.004 -0.068,-0.005 -0.064,-0.046c0.014,-0.173 -0.064,-0.133 -0.155,-0.073c-0.191,0.128 -0.319,0.328 -0.493,0.479c-0.036,0.032 -0.018,0.087 0.019,0.123c0.031,0.032 0.068,0.059 0.105,0.082c0.018,0.014 0.04,0.014 0.027,0.041c-0.005,0.005 -0.027,0 -0.041,0c-0.045,-0.009 -0.087,-0.018 -0.119,-0.064c-0.082,-0.118 -0.127,-0.082 -0.15,0.037c-0.005,0.032 -0.019,0.05 -0.041,0.073c-0.119,0.109 -0.201,0.246 -0.242,0.406c-0.05,0.196 -0.096,0.392 -0.255,0.538c-0.069,0.064 -0.014,0.16 0.013,0.21c0.041,0.077 0.055,-0.046 0.105,-0.046c0.123,0 0.242,-0.009 0.36,0.023c0.014,0.005 0.032,0.023 0.032,0.027c-0.009,0.018 -0.022,0.046 -0.036,0.046c-0.082,0.005 -0.169,0.005 -0.251,0.005c-0.041,0 -0.073,0.018 -0.082,0.063c-0.009,0.046 0.027,0.069 0.064,0.082c0.041,0.019 0.086,0.032 0.132,0.041c0.187,0.042 0.37,0.078 0.557,0.119c0.068,0.014 0.182,-0.009 0.173,0.087c-0.005,0.055 -0.119,0.018 -0.182,0.009c-0.279,-0.041 -0.548,-0.105 -0.817,-0.182c-0.041,-0.014 -0.073,-0.024 -0.096,0.022c-0.055,0.105 -0.018,0.251 0.087,0.287c0.292,0.114 0.598,0.174 0.907,0.21c0.028,0.005 0.064,-0.004 0.064,-0.045c0,-0.041 -0.036,-0.041 -0.068,-0.046c-0.178,-0.032 -0.36,-0.059 -0.538,-0.091c-0.105,-0.018 -0.21,-0.037 -0.301,-0.096c-0.042,-0.027 -0.082,-0.073 -0.055,-0.114c0.046,-0.073 0.068,0.009 0.096,0.032c0.068,0.055 0.151,0.078 0.228,0.096c0.21,0.041 0.419,0.069 0.629,0.109c0.092,0.019 0.123,-0.009 0.137,-0.095c0.018,-0.11 0.091,-0.146 0.201,-0.142c0.137,0.005 0.273,0.005 0.411,0.005c0.045,0 0.123,0.009 0.123,-0.027c0.004,-0.133 0.096,-0.11 0.173,-0.11c0.602,-0.004 1.199,-0.004 1.801,-0.004c0.046,0 0.092,0 0.138,0.004c0.077,0.005 0.123,0.068 0.086,0.123c-0.05,0.082 -0.037,0.092 0.05,0.092c0.096,0 0.206,-0.015 0.237,0.118c0.014,0.059 -0.018,0.146 0.032,0.169c0.032,0.013 0.096,-0.05 0.16,-0.059c0.114,-0.024 0.224,-0.037 0.338,-0.028c0.127,0.013 0.259,0 0.383,-0.027c0.173,-0.037 0.342,-0.069 0.515,-0.074c0.068,0 0.137,-0.009 0.196,-0.05c0.028,-0.018 0.055,-0.036 0.046,-0.073c-0.009,-0.036 -0.046,-0.036 -0.073,-0.031c-0.151,0.022 -0.302,0.049 -0.452,0.068c-0.159,0.018 -0.31,0.068 -0.474,0.059c-0.023,0 -0.046,-0.009 -0.051,-0.036c0,-0.027 0.028,-0.032 0.046,-0.036c0.155,-0.028 0.315,-0.06 0.47,-0.087c0.155,-0.027 0.315,-0.055 0.47,-0.082c0.05,-0.01 0.077,-0.046 0.073,-0.101c-0.009,-0.059 -0.051,-0.068 -0.1,-0.068c-0.115,0.009 -0.229,0.027 -0.343,0.027c-0.1,0.005 -0.118,-0.037 -0.05,-0.123c0.034,-0.047 0.013,-0.078 0.002,-0.112l-0.007,0.007c0,-0.004 -0.001,-0.008 -0.002,-0.013c-0.028,-0.005 -0.065,0.006 -0.061,-0.046c0,-0.005 0.009,-0.014 0.014,-0.014c0.051,-0.008 0.044,0.032 0.047,0.06c0.002,0 0.004,0.001 0.005,0.001l0.002,-0.001c0.001,0 0.001,0.001 0.001,0.003c0.001,0 0.003,0 0.004,0.001l-0.001,0c0.007,0 0.014,0.001 0.021,0.001l0.042,0.003c0.003,0 0.007,0 0.01,0l0.011,0.001Zm-5.67,0.711c-0.003,0.002 -0.005,0.004 -0.008,0.006l-0.001,0.001c-0.007,0.007 -0.015,0.014 -0.015,0.02c0,0.009 0.014,0.018 0.019,0.028c0.005,-0.005 0.014,-0.014 0.023,-0.023c-0.002,-0.002 -0.003,-0.005 -0.005,-0.008l-0.009,-0.016c-0.002,-0.003 -0.003,-0.005 -0.004,-0.008Zm6.153,-0.014c0.004,-0.018 -0.005,-0.04 -0.015,-0.031c-0.04,0.018 -0.077,0.04 -0.118,0.063c-0.018,0.014 -0.018,0.032 0,0.027c0.05,0 0.1,-0.018 0.133,-0.059Zm-3.321,-0.268l-0.657,0c-0.027,0 -0.073,-0.01 -0.073,0.027c0,0.036 0.046,0.032 0.073,0.032c0.056,0.004 0.111,0.007 0.168,0.01c0.396,0.019 0.795,0.013 1.191,0.017c0.014,0 0.032,0 0.046,-0.005c0.014,-0.004 0.032,-0.013 0.032,-0.022c0.004,-0.023 -0.005,-0.046 -0.032,-0.05c-0.05,-0.009 -0.105,-0.015 -0.155,-0.015c-0.201,-0.004 -0.397,-0.004 -0.593,-0.004l0,0.01Zm3.371,-0.252c-0.002,0.002 -0.004,0.003 -0.005,0.004l-0.004,0.002c-0.002,0.001 -0.004,0.002 -0.005,0.003c0,0.005 -0.005,0.014 0,0.019c0.009,0.014 0.018,0.009 0.023,-0.01c0,-0.004 -0.005,-0.013 -0.009,-0.018Zm-0.521,-0.168c0,-0.005 0,-0.014 0.005,-0.018c0.01,-0.019 0.014,-0.019 0.004,0c-0.004,0.004 -0.009,0.009 -0.009,0.018Zm-2.818,-0.014c0.009,-0.004 0.022,-0.009 0.031,-0.013c-0.004,-0.006 -0.004,-0.019 -0.009,-0.019c-0.009,0 -0.022,0 -0.031,0.004c0,0.009 0.004,0.019 0.009,0.028Zm1.277,-0.146c-0.014,0.004 -0.037,0.009 -0.037,0.013c0.005,0.028 0.009,0.06 0.028,0.078c0.023,0.023 0.036,-0.004 0.041,-0.023c0.009,-0.031 0,-0.055 -0.032,-0.068Zm0.178,0.064c-0.014,-0.005 -0.032,-0.009 -0.037,-0.018c-0.009,-0.023 0,-0.046 0.028,-0.042c0.013,0.005 0.027,0.019 0.031,0.028c0,0.005 -0.013,0.023 -0.022,0.032Zm-2.55,-0.087m0,0c-0.027,0.014 -0.023,0.032 -0.014,0.055c0.009,0.018 0.023,0.018 0.033,0c0.004,-0.014 0.013,-0.028 0.009,-0.041c0,-0.005 -0.019,-0.009 -0.028,-0.014Zm2.203,0.062c-0.003,0.001 -0.007,0.002 -0.009,0.002c-0.005,-0.009 -0.009,-0.023 -0.014,-0.037c0.009,0 0.019,-0.004 0.019,-0.004c0.004,0.014 0.009,0.023 0.013,0.037c-0.002,0 -0.005,0 -0.009,0.002l0,0Zm-2.322,-0.035c0,-0.013 -0.009,-0.004 -0.022,-0.009c-0.023,-0.013 -0.05,-0.022 -0.055,-0.054c0,-0.005 0.023,-0.014 0.036,-0.014c0.023,0.005 0.041,0.018 0.041,0.077Zm0.798,-0.022c0.006,0 0.01,0.004 0.015,0.009c-0.003,0 -0.006,0.001 -0.009,0.002l-0.001,0c-0.003,0.002 -0.007,0.002 -0.009,0.002c-0.005,0 -0.009,-0.004 -0.014,-0.009c0.009,0 0.014,-0.004 0.018,-0.004Zm2.117,-0.064c0.004,0.014 0.014,0.027 0.009,0.032c-0.005,0.018 -0.023,0.023 -0.032,0.004c-0.004,-0.004 -0.009,-0.013 -0.004,-0.018c0.004,-0.004 0.018,-0.013 0.027,-0.018Zm1.054,-0.09c-0.008,-0.007 -0.017,-0.014 -0.023,-0.024c-0.009,-0.014 -0.014,-0.028 -0.019,-0.041c0,-0.005 0.01,-0.014 0.015,-0.014c0.027,0 0.031,0.023 0.031,0.045c0,0.011 -0.002,0.021 -0.004,0.034c0.001,0.001 0.003,0.002 0.003,0.003c0.066,-0.085 0.106,-0.175 0.084,-0.287c-0.005,-0.018 -0.005,-0.05 0.022,-0.05c0.028,0 0.005,0.045 0.018,0.05c0.11,0.073 -0.004,0.201 0.078,0.292c0.041,0.045 -0.064,0.109 -0.192,0.087l-0.009,-0.009l0.014,0.013c-0.005,0.018 -0.014,0.027 -0.027,0.018c-0.014,-0.009 -0.005,-0.022 0.013,-0.031l-0.004,-0.005c0,-0.013 0.001,-0.025 0.002,-0.038l0,-0.002c0.001,-0.01 0.002,-0.02 0.002,-0.03c-0.001,0.001 -0.003,0.001 -0.004,0.001c0,-0.001 0,-0.003 0,-0.004c0,-0.003 0,-0.006 0,-0.008Zm-2.924,0.012c0.005,0.055 -0.032,0.078 -0.073,0.101c-0.027,0.013 -0.036,-0.014 -0.018,-0.032c0.032,-0.032 -0.051,-0.115 0.045,-0.115c0.014,0 0.033,0.033 0.046,0.046Zm1.268,0.028c-0.009,0.009 -0.014,0.022 -0.023,0.036c-0.013,0.014 -0.031,0.01 -0.031,-0.009c0,-0.014 0.009,-0.027 0.018,-0.036c0.013,-0.014 0.027,-0.01 0.036,0.009Zm1.077,0.031c-0.005,0.005 -0.009,0.01 -0.014,0.01c-0.005,0 -0.01,-0.005 -0.014,-0.01c0.009,-0.013 0.019,-0.013 0.028,0Zm-0.612,-0.022l-0.013,0l0.009,-0.018l0.004,0.018Zm-3.886,-0.096c-0.018,0.041 -0.046,0.078 -0.095,0.078c-0.037,0 -0.055,-0.028 -0.046,-0.059c0.013,-0.051 0.055,-0.069 0.105,-0.06c0.013,0.009 0.04,0.005 0.036,0.041Zm3.225,0.059c-0.037,-0.004 -0.041,-0.031 -0.041,-0.064c-0.005,-0.031 0.018,-0.041 0.041,-0.041c0.022,-0.004 0.041,0.01 0.041,0.037c0,0.032 -0.004,0.059 -0.041,0.068Zm-1.346,-0.036l0.018,-0.01l0,0.019l-0.018,-0.009Zm0.671,-0.078c-0.005,0.032 -0.018,0.074 -0.046,0.074c-0.068,-0.006 -0.013,-0.083 -0.055,-0.12c-0.013,-0.013 0.018,-0.031 0.042,-0.031c0.05,0.004 0.059,0.041 0.059,0.077Zm-1.283,0.017c0.002,0 0.004,0 0.006,0.002c0.009,0 0.018,0.018 0.018,0.027c0,0.018 -0.018,0.022 -0.032,0.013c-0.004,-0.004 -0.008,-0.008 -0.011,-0.012l-0.001,-0.001c-0.003,-0.005 -0.007,-0.009 -0.011,-0.014c0.011,-0.007 0.022,-0.015 0.031,-0.015Zm3.363,0.02c-0.005,0.004 -0.009,0.009 -0.014,0.009c-0.013,0 -0.018,-0.009 -0.009,-0.023c0,-0.004 0.014,-0.004 0.014,0c0.004,0.005 0.009,0.009 0.009,0.014Zm-3.171,-0.005c0,-0.004 0.01,-0.013 0.006,-0.018c-0.01,-0.018 -0.019,-0.018 -0.033,0c-0.004,0.005 -0.009,0.014 -0.009,0.018c0.014,0.009 0.023,0.009 0.036,0Zm3.002,-0.032c-0.005,0 -0.014,-0.004 -0.018,-0.004c-0.009,-0.014 0,-0.023 0.018,-0.018c0.004,0 0.009,0.009 0.013,0.013c-0.004,0 -0.009,0.005 -0.013,0.009Zm-0.529,-0.022c0,0 0.005,0.009 0.009,0.013c-0.002,0 -0.004,0.002 -0.007,0.005l0,0c-0.003,0.002 -0.005,0.004 -0.006,0.004c0,0 -0.006,-0.009 -0.01,-0.013c0.004,-0.005 0.01,-0.009 0.014,-0.009Zm-2.085,-0.009c0.01,0.013 0.019,0.013 0.023,0c0,-0.005 -0.004,-0.009 -0.009,-0.015c0,-0.036 -0.018,-0.049 -0.054,-0.045c-0.005,0 -0.015,0.009 -0.015,0.014c-0.004,0.046 0.024,0.05 0.055,0.046Zm-0.27,-0.048c0.021,-0.007 0.038,-0.006 0.047,0.02c0,0 -0.014,0.019 -0.023,0.019c-0.022,0 -0.031,-0.017 -0.024,-0.039Zm-0.003,0.001c0,0.001 0,0.001 -0.001,0.001l-0.004,-0.005l0.01,0c-0.001,0.001 -0.002,0.003 -0.002,0.003c0,0.001 -0.001,0.001 -0.001,0.001l-0.002,0Zm3.206,-0.027l0.014,-0.004l0,0.014l-0.014,-0.01Zm-1.122,0l-0.013,0l0.009,-0.009l0.004,0.009Zm-3.836,-0.059c0.005,0.019 0,0.032 -0.018,0.032c-0.013,0 -0.023,-0.009 -0.037,-0.013c0.005,-0.01 0.009,-0.028 0.018,-0.033c0.015,-0.004 0.028,0.009 0.037,0.014Zm3.954,-0.046c0.023,0 0.038,0.017 0.038,0.037c0,0.013 -0.006,0.037 -0.015,0.037c-0.027,0.004 -0.04,-0.014 -0.045,-0.037c0.001,-0.003 0.002,-0.007 0.003,-0.01l0,-0.001c0.004,-0.012 0.007,-0.022 0.011,-0.026l0.008,0Zm1.305,-0.027c-0.018,0.023 -0.022,0.096 -0.027,0.077c-0.032,-0.173 -0.137,0.124 -0.155,-0.027c-0.014,-0.123 0.037,-0.205 0.118,-0.201c0.055,0.005 0.055,0.009 0.064,0.151Zm-1.61,0.023c-0.014,0.004 -0.027,0.018 -0.036,0.014c-0.023,-0.005 -0.037,-0.023 -0.019,-0.046c0.01,-0.009 0.028,-0.009 0.041,-0.004c0.018,0.004 0.024,0.018 0.014,0.036Zm1.3,-0.082c0.023,0 0.041,0.009 0.051,0.032c0.009,0.032 -0.015,0.036 -0.033,0.032c-0.022,0 -0.041,-0.014 -0.041,-0.042c-0.004,-0.004 0.014,-0.013 0.023,-0.022Zm-2.837,0.055c-0.004,-0.014 -0.009,-0.023 -0.018,-0.037c-0.004,0.004 -0.014,0.004 -0.019,0.009c0,0.014 0,0.023 0,0.037c0.019,-0.005 0.028,-0.009 0.037,-0.009Zm-0.205,0.009c0.009,-0.005 0.018,-0.009 0.032,-0.014c-0.009,-0.018 -0.019,-0.032 -0.023,-0.05c-0.009,0.009 -0.018,0.018 -0.023,0.032c-0.009,0.014 -0.004,0.027 0.014,0.032Zm-1.656,-0.11c0.009,0.018 0,0.028 -0.018,0.032c-0.06,0.014 -0.078,-0.032 -0.101,-0.073c-0.004,-0.009 0.01,-0.036 0.014,-0.036c0.055,0 0.06,0.068 0.105,0.077Zm3.143,0.009c0.004,0.005 0.009,0.014 0.013,0.014c0.014,0.009 0.028,0 0.028,-0.014c0,-0.004 -0.019,-0.009 -0.028,-0.013c-0.004,0 -0.009,0.009 -0.013,0.013Zm-1.076,-0.055c-0.01,0.024 -0.024,0.042 -0.046,0.037c-0.023,-0.009 -0.032,-0.032 -0.023,-0.055c0.004,-0.009 0.023,-0.022 0.032,-0.022c0.027,-0.005 0.037,0.018 0.037,0.04Zm2.704,-0.009l-0.018,0l0.009,-0.018l0.009,0.018Zm0.401,-0.045c-0.009,0.009 -0.018,0.023 -0.027,0.027c-0.027,0.005 -0.036,-0.018 -0.032,-0.041c0,-0.009 0.023,-0.018 0.032,-0.013c0.018,0 0.023,0.018 0.027,0.027Zm-3.662,-0.041c-0.01,0.027 -0.023,0.045 -0.05,0.027c-0.009,-0.009 -0.014,-0.027 -0.009,-0.041c0.009,-0.023 0.022,-0.045 0.049,-0.027c0.006,0.004 0.006,0.027 0.01,0.041Zm3.443,-0.06c-0.019,0.062 -0.051,0.104 -0.123,0.05c-0.022,-0.018 -0.036,-0.054 -0.059,-0.063c-0.037,-0.014 -0.1,0.009 -0.087,-0.064c0.005,-0.041 0.05,-0.05 0.092,-0.05c0.041,0.004 0.063,-0.027 0.091,-0.051c-0.049,0.167 -0.05,0.169 0.086,0.178Zm-0.483,0.032c-0.009,0.009 -0.014,0.024 -0.023,0.033c-0.009,-0.009 -0.027,-0.015 -0.027,-0.024c0,-0.009 0.009,-0.022 0.018,-0.027c0.009,0 0.023,0.014 0.032,0.018Zm-1.35,-0.018c-0.005,0.009 -0.014,0.018 -0.014,0.032c0,0.004 0.014,0.014 0.014,0.014c0.009,-0.004 0.018,-0.014 0.027,-0.023c-0.013,-0.009 -0.022,-0.018 -0.027,-0.023Zm-3.17,-0.009l0.009,-0.004c0,0.003 0.001,0.006 0.002,0.009c0.003,0.001 0.005,0.002 0.007,0.004c0,0 0,0.009 0,0.014c-0.003,-0.006 -0.006,-0.012 -0.007,-0.018l-0.003,0c-0.003,-0.002 -0.006,-0.002 -0.008,-0.005Zm5.06,-0.039c0.001,-0.003 0.003,-0.007 0.003,-0.011l0.004,0.005c-0.002,0.002 -0.004,0.004 -0.007,0.006c-0.006,0.02 -0.021,0.03 -0.04,0.033c-0.002,0.003 -0.005,0.004 -0.008,0.006l-0.004,-0.004c0.004,0 0.008,-0.001 0.012,-0.002c0.013,-0.009 0.027,-0.02 0.04,-0.033Zm-5.06,0.039l-0.009,-0.009l0.014,0.005l-0.005,0.004Zm5.003,-0.005c0,-0.001 0,-0.003 0,-0.004l0.005,0.005c-0.002,-0.001 -0.004,-0.001 -0.005,-0.001Zm-4.921,-0.073c0.013,-0.009 0.028,-0.018 0.041,-0.022c0.023,0 0.041,0.004 0.064,0.009c0.004,0 0.004,0.022 0.004,0.037c-0.022,0 -0.041,0 -0.063,-0.005c-0.014,-0.005 -0.023,-0.019 -0.037,-0.023l-0.009,0.004l0,-0.011c-0.001,-0.002 -0.002,-0.004 -0.005,-0.007c0,-0.004 0,-0.004 0.005,-0.009l0,0.016c0.001,0.002 0.002,0.005 0.004,0.007l-0.004,0.004Zm3.635,-0.072l-0.004,-0.014l0.013,0.005l-0.009,0.009Zm1.205,-0.028l-0.005,-0.005l0.014,-0.004l-0.009,0.009Zm-1.606,-0.082c0.013,0.005 0.028,0.009 0.041,0.014c-0.004,0.013 -0.009,0.027 -0.023,0.036c-0.014,0.009 -0.027,0.005 -0.036,-0.013c-0.005,-0.019 0,-0.028 0.018,-0.037Zm1.465,0.037c-0.001,0.002 -0.001,0.003 -0.001,0.004c-0.014,0.005 -0.018,0 -0.018,-0.018c0,-0.005 0.009,-0.009 0.013,-0.014c0,0.005 0.005,0.009 0.009,0.014c0,0.001 0,0.002 0,0.004l-0.003,0.01Zm-0.225,-0.323c-0.008,-0.01 -0.014,-0.018 -0.018,-0.029c0.026,0 0.02,0.017 0.018,0.029c0.001,0.002 0.003,0.004 0.004,0.006l0.001,-0.003c0.001,0.004 0.002,0.008 0.003,0.012c0.034,0.009 0.068,0.02 0.102,0.02c0.073,0.005 0.082,0.019 0.013,0.06c-0.04,0.027 -0.022,0.064 -0.004,0.1c0.023,0.054 -0.014,0.091 -0.055,0.105c-0.052,0.017 -0.07,-0.032 -0.096,-0.068l-0.004,0.004l-0.003,-0.005l-0.001,0l0,0l-0.037,-0.05c0.017,0.017 0.03,0.035 0.044,0.048c0.134,-0.049 0.063,-0.136 0.041,-0.214c-0.002,-0.001 -0.005,-0.002 -0.008,-0.003c-0.002,-0.003 -0.002,-0.007 0,-0.012Zm-2.253,0.277c0,-0.019 0.009,-0.028 0.027,-0.028c0.019,0 0.028,0.015 0.024,0.033c0,0.004 -0.009,0.013 -0.014,0.013c-0.019,0.009 -0.032,0 -0.037,-0.018Zm-1.893,-0.196c0,-0.023 0,-0.041 -0.004,-0.064c0.136,0.046 0.146,-0.018 0.114,-0.128c-0.009,-0.027 0.013,-0.068 0.041,-0.068c0.032,0 0.055,0.077 0.101,0.014c0.031,0.041 0,0.059 -0.033,0.072c-0.059,0.033 -0.032,0.096 -0.05,0.142c-0.04,0.095 -0.099,0.095 -0.17,0.034c-0.003,0.003 -0.005,0.006 -0.008,0.008c-0.001,0.047 -0.007,0.092 -0.033,0.136l0.001,0l-0.004,0.004c0.004,0 0.013,0.005 0.018,0.005c-0.005,0.013 -0.009,0.013 -0.018,-0.005c0.001,-0.001 0.002,-0.003 0.003,-0.004c-0.058,-0.001 -0.053,-0.032 -0.03,-0.068c0.015,-0.024 0.042,-0.045 0.063,-0.068c0,-0.004 0,-0.01 0,-0.015l0.009,0.005Zm0.237,0.078c-0.004,0.004 -0.009,0.009 -0.018,0.009c-0.004,0 -0.009,-0.005 -0.013,-0.009c0.013,-0.015 0.022,-0.015 0.031,0Zm2.777,-0.084c0.003,0 0.006,0.001 0.01,0.001c0,0.002 0.002,0.006 0.003,0.009l0,0.001c0.001,0.003 0.002,0.007 0.002,0.009c0,0.004 -0.009,0.009 -0.014,0.009c-0.018,0 -0.022,-0.014 -0.009,-0.023c0.003,-0.005 0.005,-0.006 0.008,-0.006Zm-0.947,-0.582c0.205,0 0.355,0.118 0.351,0.278c-0.009,0.191 -0.165,0.333 -0.365,0.333c-0.182,0 -0.356,-0.169 -0.351,-0.347c0.005,-0.159 0.155,-0.264 0.365,-0.264Zm0.127,0.342c-0.004,-0.018 -0.004,-0.037 -0.013,-0.042c-0.009,-0.009 -0.027,-0.009 -0.037,-0.004c-0.064,0.046 -0.077,0.123 -0.1,0.192c-0.004,0.013 0.036,0.031 0.055,0.018c0.055,-0.046 0.073,-0.105 0.095,-0.164Zm1.852,0.114c0,0.018 -0.009,0.027 -0.018,0.018c-0.018,-0.023 -0.032,-0.046 -0.046,-0.069c-0.004,-0.009 0.009,-0.022 0.014,-0.036c0.036,0.018 0.045,0.05 0.05,0.087Zm-3.699,-0.06c0,-0.004 0.004,-0.013 0.004,-0.013c0.024,0 0.028,0.009 0.01,0.018c0.005,0.004 -0.005,0 -0.014,-0.005Zm1.624,-0.027c0.05,-0.005 0.045,-0.036 0.045,-0.069c0,-0.022 -0.013,-0.045 -0.036,-0.045c-0.032,0 -0.054,0.023 -0.054,0.054c-0.006,0.037 0.013,0.06 0.045,0.06Zm1.686,-0.413c-0.004,-0.002 -0.008,-0.004 -0.012,-0.007l0.004,0.005l0.008,0.002c0.002,0.002 0.004,0.002 0.006,0.004c-0.016,0.121 0.069,0.169 0.154,0.22c-0.001,0.003 -0.002,0.007 -0.004,0.011c0.006,0.001 0.012,-0.001 0.017,-0.004c-0.004,-0.002 -0.008,-0.005 -0.013,-0.007c0.038,-0.136 -0.067,-0.173 -0.154,-0.22c0,-0.001 0,-0.001 0,-0.002l-0.006,-0.002Zm-3.1,0.212c-0.009,-0.009 -0.023,-0.018 -0.023,-0.027c0,-0.009 0.014,-0.027 0.023,-0.027c0.022,-0.009 0.041,0.004 0.032,0.031c-0.004,0.01 -0.019,0.014 -0.032,0.023Zm1.514,-0.041c0.014,0 0.028,-0.004 0.041,-0.004c-0.004,-0.028 -0.027,-0.018 -0.041,-0.018c-0.009,0 -0.022,0.009 -0.031,0.013c0.004,0 0.018,0.005 0.031,0.009Zm0.949,-0.811c0,-0.078 0,-0.151 0,-0.229c0,-0.082 -0.018,-0.1 -0.105,-0.068c-0.443,0.141 -0.903,0.063 -1.355,0.059c-0.191,0 -0.191,-0.027 -0.201,0.178c-0.004,0.091 -0.009,0.183 -0.013,0.273c-0.009,0.092 0.037,0.129 0.118,0.119c0.06,-0.005 0.119,-0.014 0.183,-0.023c0.356,-0.036 0.711,-0.041 1.068,-0.013c0.351,0.027 0.351,0.036 0.305,-0.296Zm-0.903,-0.302c0.182,0.037 0.36,0 0.543,-0.009c0.04,0 0.1,0 0.109,-0.059c0.009,-0.059 -0.05,-0.068 -0.091,-0.083c-0.329,-0.09 -0.657,-0.09 -0.986,0c-0.027,0.01 -0.054,0.024 -0.081,0.042c-0.024,0.013 -0.055,0.032 -0.046,0.068c0.009,0.037 0.046,0.032 0.073,0.032c0.164,0.009 0.319,0.009 0.479,0.009Zm0.794,-0.286c-0.001,0 -0.003,-0.001 -0.005,-0.001c0.018,-0.018 0.037,-0.037 0.055,-0.055l0.004,0.005c-0.013,0.018 -0.031,0.036 -0.05,0.054c0,0 -0.001,-0.001 -0.003,-0.002l-0.001,0.001c0.002,0.021 -0.01,0.033 -0.028,0.045c0,0.002 0,0.004 0,0.007l-0.004,-0.005c0.001,-0.001 0.002,-0.001 0.004,-0.002c-0.001,-0.021 0.013,-0.034 0.028,-0.045l0,-0.002Zm0.957,-0.865c0,0.007 -0.001,0.012 -0.004,0.016c-0.129,0.062 -0.177,0.166 -0.198,0.285c0.005,0.038 0.003,0.078 -0.007,0.12l-0.005,-0.004l0,0.004c-0.001,0.002 -0.003,0.003 -0.004,0.004c-0.101,0.205 -0.268,0.311 -0.488,0.347c-0.067,0.009 -0.129,0.023 -0.196,0.036c0,0.001 0,0.001 0,0.002l-0.001,0.002c0,0.001 0,0.001 0,0.002l-0.004,-0.005c0.001,0 0.003,-0.001 0.005,-0.001c0.004,-0.035 0.011,-0.072 0.058,-0.076c0.254,-0.009 0.449,-0.14 0.626,-0.307c0.001,-0.002 0.003,-0.005 0.004,-0.008c0.002,-0.04 0.006,-0.079 0.012,-0.116c-0.01,-0.078 -0.05,-0.147 -0.108,-0.208c0.103,-0.036 0.216,-0.036 0.31,-0.093Zm-1.806,0.13l0,-0.005c0.009,0.007 0.017,0.013 0.026,0.019c0.063,0.013 0.152,-0.039 0.184,0.045c0.046,0.114 -0.096,0.127 -0.142,0.196c-0.007,0.008 -0.018,0.012 -0.029,0.018c-0.001,0.003 -0.001,0.006 -0.002,0.009l-0.005,-0.004c0.003,-0.002 0.005,-0.003 0.007,-0.005c0.002,-0.01 0.004,-0.021 0.011,-0.032c0.077,-0.136 0.082,-0.145 -0.024,-0.227c-0.009,-0.002 -0.018,-0.005 -0.026,-0.01c-0.001,-0.001 -0.002,-0.002 -0.003,-0.003c0.001,0 0.002,-0.001 0.003,-0.001Zm-0.103,-0.03c0.038,-0.009 0.071,0.003 0.1,0.031c-0.037,0.006 -0.07,-0.003 -0.1,-0.031Zm0,0c-0.002,0 -0.004,0.001 -0.006,0.002l0.004,-0.005c0.001,0.001 0.002,0.002 0.002,0.003Zm1.604,-0.012l-0.005,0.005l-0.004,-0.009l0.009,0.004Zm-1.606,0.005c-0.022,-0.018 -0.046,-0.036 -0.059,-0.059c-0.009,-0.014 -0.018,-0.055 -0.014,-0.06c0.042,-0.018 0.032,0.028 0.051,0.046c0.022,0.018 0.027,0.05 0.022,0.073Zm-0.04,-0.362c0.002,-0.002 0.003,-0.005 0.003,-0.007l0.006,0.004c-0.002,0.001 -0.003,0.001 -0.005,0.002l-0.004,0.001c-0.011,0.03 -0.018,0.06 -0.049,0.074c0,0.001 -0.002,0.004 -0.002,0.005l0,-0.004c0,0 0.002,-0.001 0.002,-0.001c0.012,-0.029 0.021,-0.059 0.049,-0.074Zm2.217,-0.051c-0.166,0.122 -0.318,0.015 -0.471,-0.034c-0.014,-0.005 -0.045,-0.014 -0.032,-0.041c0.005,-0.009 0.041,-0.005 0.059,0.005c0.142,0.075 0.289,0.09 0.444,0.07c0.003,-0.003 0.005,-0.004 0.008,-0.006c0.004,0 0.007,0 0.01,0c-0.002,0.001 -0.003,0.003 -0.006,0.004c-0.003,0.001 -0.008,0.001 -0.012,0.002Zm-2.208,0.036c0,-0.012 0,-0.022 0.004,-0.033c0.005,-0.014 0.009,-0.028 0.018,-0.037c0.014,-0.014 0.027,-0.005 0.027,0.009c0,0.014 -0.013,0.023 -0.022,0.037c-0.009,0.008 -0.017,0.016 -0.027,0.024c0,0.003 0,0.005 0,0.008l-0.006,-0.005c0.003,-0.001 0.004,-0.002 0.006,-0.003Zm2.226,-0.042c0.042,-0.027 0.087,-0.032 0.132,-0.029c-0.039,0.031 -0.087,0.032 -0.132,0.029Zm0.177,-0.083c-0.014,0.019 -0.023,0.037 -0.036,0.055c-0.003,0 -0.006,0 -0.009,-0.001c0.001,-0.001 0.003,-0.002 0.004,-0.004c0.007,-0.009 0.012,-0.017 0.017,-0.026l0.002,-0.002c0.005,-0.008 0.011,-0.017 0.017,-0.026l0.005,0.004Zm-0.041,0.05l0.005,0.005l-0.005,-0.005Zm-2.297,-0.253c-0.007,-0.008 -0.014,-0.016 -0.02,-0.025l0.004,-0.004c0.014,0.013 0.027,0.03 0.04,0.048l0.001,-0.003c0.002,0.004 0.003,0.009 0.006,0.012c0.01,0.004 0.021,0.006 0.031,0.006c0.096,0 0.114,0.083 0.15,0.142c0.01,0.014 -0.004,0.032 -0.018,0.027c-0.073,-0.022 -0.132,-0.064 -0.151,-0.145c-0.003,-0.01 -0.008,-0.02 -0.012,-0.03c-0.003,0 -0.007,-0.002 -0.01,-0.003c-0.007,-0.009 -0.014,-0.016 -0.02,-0.024l-0.001,-0.001Zm2.881,-0.017c0.002,-0.003 0.003,-0.006 0.004,-0.008l0.005,0.005c-0.003,0 -0.006,0.001 -0.009,0.003c-0.05,0.09 -0.131,0.129 -0.233,0.125c-0.088,-0.005 -0.166,0.025 -0.253,0.039c-0.001,0.002 -0.002,0.004 -0.003,0.006c-0.003,0.004 -0.006,0.007 -0.01,0.01c-0.008,0.016 -0.02,0.027 -0.036,0.033l-0.008,0.007l-0.005,-0.004c0.005,-0.001 0.009,-0.002 0.013,-0.003l0.019,-0.017l0.001,-0.001c0.005,-0.005 0.011,-0.009 0.016,-0.015c0.002,-0.003 0.004,-0.008 0.006,-0.012l-0.005,-0.003c0.004,0 0.008,0 0.012,-0.001c0.014,-0.041 0.036,-0.098 0.075,-0.085c0.156,0.044 0.278,-0.037 0.411,-0.079Zm0.054,-0.053c0,-0.001 0,-0.004 0,-0.005l0.005,0.004c-0.002,0 -0.003,0 -0.005,0.001c-0.002,0.024 -0.019,0.037 -0.041,0.045c0.005,-0.025 0.017,-0.043 0.041,-0.045Zm-3.005,-0.013c0,0 0,-0.001 -0.001,-0.001l0.006,-0.005c0,0.005 0,0.009 0.002,0.012c0.011,0.012 0.022,0.025 0.033,0.037c0.004,0.002 0.01,0.005 0.014,0.006c0,0 -0.004,0.009 -0.004,0.005c-0.001,-0.001 -0.002,-0.002 -0.003,-0.003l-0.005,-0.005c-0.001,-0.001 -0.001,-0.002 -0.002,-0.003c-0.016,-0.007 -0.028,-0.018 -0.033,-0.037c-0.002,-0.001 -0.003,-0.003 -0.005,-0.005l-0.003,0.002c0,-0.001 0,-0.002 -0.001,-0.003l0.002,0Zm3.056,-0.033l-0.006,0c-0.005,0.025 -0.018,0.042 -0.04,0.045c0.004,-0.025 0.016,-0.042 0.04,-0.045c0,-0.001 0.001,-0.003 0.001,-0.005l0.005,0.005Zm-3.105,0.003c0.021,0 0.036,0.009 0.047,0.03c-0.022,0.001 -0.035,-0.011 -0.047,-0.03Zm0,0c-0.003,0 -0.006,0.001 -0.011,0.002l0.01,-0.005c0,0.001 0.001,0.003 0.001,0.003Zm-0.015,-0.019c-0.01,-0.021 -0.021,-0.04 -0.032,-0.062c-0.004,-0.013 -0.009,-0.041 -0.009,-0.041c0.027,-0.009 0.036,0.014 0.041,0.037c0.003,0.02 0.002,0.043 0,0.066c0.003,0.005 0.006,0.01 0.009,0.016l-0.009,0.005c0,-0.007 0,-0.014 0,-0.021Zm3.255,-0.211c-0.001,0.002 -0.002,0.004 -0.003,0.005c-0.008,0.095 -0.048,0.169 -0.132,0.221l0,0.001l0,0l0,-0.001c0.027,-0.084 0.075,-0.155 0.132,-0.221c0,-0.003 0,-0.007 0,-0.011l0.001,-0.001c0.002,0 0.003,-0.001 0.004,-0.002c0.001,-0.044 -0.015,-0.099 0.04,-0.133c-0.004,0.048 0.005,0.101 -0.04,0.133c0,0.002 0,0.005 0,0.008l-0.002,0.001Zm0.27,-0.451c-0.003,0.033 -0.002,0.069 -0.044,0.075c0,0.002 -0.001,0.004 -0.001,0.006l0,0c-0.001,0 -0.002,0.001 -0.003,0.002c0.006,0.037 -0.003,0.066 -0.035,0.091c0,0 0,0 0,0.001l0.002,0.002l-0.001,0c0,0.001 0,0.003 0.001,0.004l-0.005,-0.004l-0.003,0c-0.01,0.016 -0.022,0.027 -0.042,0.027c-0.001,0.003 -0.004,0.006 -0.005,0.009l-0.005,0.005c-0.003,0.022 -0.018,0.037 -0.04,0.04l-0.005,0.005c-0.002,0.001 -0.003,0.001 -0.004,0.002c0.001,0.022 -0.011,0.038 -0.032,0.043c-0.001,0.001 -0.001,0.003 -0.001,0.005l-0.005,-0.004c0.002,0 0.004,-0.001 0.006,-0.001c0.002,-0.023 0.016,-0.035 0.032,-0.043c0,-0.002 -0.001,-0.004 -0.001,-0.007c0.004,0 0.007,0 0.01,0l0.04,-0.04c0,-0.003 0,-0.006 0,-0.01l-0.004,-0.004c0.005,0 0.01,0 0.014,0c0.011,-0.015 0.023,-0.025 0.042,-0.027c0.001,-0.002 0.002,-0.003 0.003,-0.006l0.002,0.003c0.001,0 0.001,0 0.001,0c-0.006,-0.036 0.003,-0.066 0.035,-0.091c0,-0.002 -0.001,-0.005 -0.002,-0.007l0.001,0c0.001,-0.001 0.004,-0.001 0.005,-0.001c0.007,-0.03 0.002,-0.065 0.044,-0.075Zm-3.375,0.135c-0.004,0.023 -0.004,0.042 -0.013,0.064c-0.005,0.014 -0.019,0.005 -0.019,-0.013c0,-0.028 0.005,-0.046 0.032,-0.051Zm0.046,-0.041c-0.004,0.028 -0.019,0.041 -0.046,0.046c0.014,-0.023 0.028,-0.037 0.042,-0.05l0.004,0.004Zm0.063,-0.064c0.017,-0.039 0.05,-0.033 0.08,-0.029c-0.025,0.011 -0.051,0.019 -0.08,0.029c-0.001,0.003 -0.003,0.006 -0.004,0.009c-0.018,0.014 -0.036,0.033 -0.054,0.051l-0.005,-0.005c0.017,-0.018 0.035,-0.031 0.053,-0.049l-0.003,-0.001c0.004,-0.002 0.009,-0.003 0.013,-0.005Zm0.095,-0.036c0.003,-0.01 0.006,-0.021 0.006,-0.027c0.025,0.021 0.003,0.02 -0.006,0.027c-0.001,0.003 -0.002,0.006 -0.003,0.009c-0.004,0 -0.008,-0.001 -0.012,-0.002c0.003,-0.001 0.005,-0.001 0.007,-0.003l0.005,0.005c-0.001,-0.004 0,-0.006 0.003,-0.009Zm0.253,-0.132c0.018,0.014 0.036,0.023 0.054,0.036c0.023,0.018 0.064,-0.009 0.073,0.032c-0.018,0.004 -0.041,0.009 -0.059,0.009c-0.011,0 -0.022,-0.001 -0.033,-0.002l-0.003,0c-0.01,-0.001 -0.021,-0.003 -0.033,-0.003c-0.035,-0.004 -0.036,-0.017 0.001,-0.072Zm0.003,-0.004c0,0.001 -0.001,0.002 -0.002,0.003l-0.001,0.001c0,0 0,0 -0.001,0l0.005,-0.005l-0.001,0.001Zm-0.076,-0.145c0.004,0.001 0.007,0.003 0.009,0.007c0.017,0.034 0.031,0.07 0.045,0.106c0.009,0.009 0.017,0.019 0.023,0.031c0,0 -0.005,0.005 -0.009,0.005c-0.001,-0.003 -0.002,-0.006 -0.004,-0.009l-0.007,-0.018c-0.001,-0.003 -0.002,-0.006 -0.003,-0.009c-0.027,-0.028 -0.061,-0.051 -0.068,-0.092c-0.003,-0.012 0.005,-0.02 0.013,-0.021l0.001,0Zm1.611,11.657c-0.06,-0.096 -0.05,-0.249 0.03,-0.329c0.009,-0.009 0.028,-0.009 0.037,-0.013c0.005,0.013 0.014,0.027 0.009,0.04c-0.03,0.104 -0.076,0.203 -0.07,0.311l-0.003,-0.005l-0.003,-0.004Zm-1.123,-9.05c-0.002,0 -0.004,0.001 -0.005,0.001l0,-0.005l0.005,0.004Zm1.048,-0.974c0.013,-0.022 0.025,-0.045 0.042,-0.062c0.013,-0.009 0.027,0.005 0.013,0.019c-0.012,0.02 -0.025,0.045 -0.055,0.043c-0.001,0.002 -0.003,0.004 -0.004,0.007l-0.005,0.006c-0.003,0.022 -0.017,0.036 -0.04,0.039l-0.005,0.005l0,0.001c-0.002,0 -0.003,0.001 -0.005,0.002l0,-0.008l0.01,0l0.04,-0.039c0,-0.004 0,-0.007 0,-0.01l0.005,0.004c0,0 -0.005,-0.004 -0.005,-0.009l0.009,0.002Zm1.465,-1.366l-0.005,0.018c-0.001,0 -0.001,0.001 -0.001,0.001l-0.003,0c0,0 0,0 -0.001,0.001l0,-0.006l0.01,-0.014Z" style="fill:none;stroke:#0d7a7c;stroke-width:0.04px;"/></svg>